<svg width="640" height="181" viewBox="0 0 640 181" fill="none" xmlns="http://www.w3.org/2000/svg">
<path d="M200.627 81.4025C201.619 83.5065 204.041 87.6748 204.041 87.6748L232.306 40.95L204.716 60.2036C203.088 61.3152 201.739 62.784 200.786 64.5307C198.285 69.89 198.205 76.0432 200.627 81.4025Z" fill="white"/>
<path d="M189.428 96.8054C190.063 105.857 194.549 114.193 201.774 119.672L232.302 140.95C232.302 140.95 213.207 113.439 197.129 86.0868C195.502 83.1889 194.39 80.0527 193.914 76.7578C193.676 75.2889 193.676 73.7804 193.914 72.2719C193.477 73.0658 192.683 74.6537 192.683 74.6537C191.056 77.9884 189.944 81.5216 189.388 85.1738C189.031 89.0245 189.031 92.915 189.428 96.8054Z" fill="white"/>
<path d="M267.234 100.458C266.241 98.3536 263.82 94.1853 263.82 94.1853L235.555 140.91L263.145 121.657C264.773 120.545 266.122 119.076 267.075 117.329C269.616 112.01 269.656 105.857 267.234 100.458Z" fill="white"/>
<path d="M278.428 85.0944C277.793 76.0432 273.307 67.7463 266.082 62.2282L235.594 40.95C235.594 40.95 254.649 68.4609 270.766 95.813C272.394 98.711 273.466 101.887 273.982 105.142C274.22 106.611 274.22 108.119 273.982 109.628C274.379 108.834 275.213 107.246 275.213 107.246C276.84 103.911 277.952 100.378 278.508 96.6864C278.865 92.8753 278.825 88.9849 278.428 85.0944Z" fill="white"/>
<path d="M200.821 64.5704C201.774 62.8237 203.084 61.3548 204.751 60.2433L232.342 40.9896L204.077 87.7145C204.077 87.7145 201.615 83.5462 200.663 81.4422C198.201 76.0432 198.281 69.89 200.821 64.5704ZM189.428 96.8054C190.063 105.857 194.549 114.193 201.774 119.672L232.302 140.95C232.302 140.95 213.207 113.439 197.129 86.0869C195.502 83.1889 194.39 80.0527 193.914 76.7578C193.676 75.2889 193.676 73.7804 193.914 72.2719C193.477 73.0658 192.683 74.6538 192.683 74.6538C191.056 77.9884 189.944 81.5216 189.388 85.1738C189.031 89.0246 189.031 92.915 189.428 96.8054ZM267.197 100.497C266.204 98.3934 263.783 94.225 263.783 94.225L235.557 140.91L263.148 121.657C264.775 120.545 266.125 119.076 267.078 117.329C269.618 112.01 269.698 105.857 267.276 100.458L267.197 100.497ZM278.392 85.1341C277.757 76.0829 273.271 67.786 266.046 62.2679L235.597 40.9896C235.597 40.9896 254.652 68.5005 270.77 95.8527C272.397 98.7506 273.469 101.926 273.985 105.182C274.223 106.651 274.223 108.159 273.985 109.668C274.382 108.874 275.216 107.286 275.216 107.286C276.844 103.951 277.955 100.418 278.511 96.726C278.828 92.8356 278.789 88.9452 278.431 85.0944L278.392 85.1341Z" fill="white"/>
<path d="M304.273 116.416V62.3474C304.273 62.1886 304.393 62.1092 304.551 62.1092H338.89C339.049 62.1092 339.168 62.2283 339.168 62.3871V69.2549C339.168 69.4137 339.049 69.5328 338.89 69.5328H312.57V85.4518H334.96C335.119 85.4518 335.238 85.5709 335.238 85.7297V92.5181C335.238 92.6769 335.119 92.796 334.96 92.796H312.57V109.191H338.89C339.049 109.191 339.168 109.31 339.168 109.469V116.337C339.168 116.496 339.049 116.615 338.89 116.615H304.551C304.393 116.694 304.273 116.575 304.273 116.416ZM389.664 116.575L364.535 78.3061V116.416C364.535 116.575 364.416 116.694 364.258 116.694H356.516C356.358 116.694 356.238 116.575 356.238 116.416V62.4268C356.238 62.268 356.358 62.1489 356.516 62.1489H363.702C363.781 62.1489 363.9 62.1886 363.94 62.268L389.109 100.458V62.4268C389.109 62.268 389.228 62.1489 389.387 62.1489H397.128C397.287 62.1489 397.406 62.268 397.406 62.4268V116.416C397.406 116.575 397.287 116.694 397.128 116.694H389.903C389.784 116.694 389.704 116.655 389.664 116.575ZM422.693 106.214V108.794C426.028 109.509 429.402 109.906 432.777 109.985C436.151 109.906 439.486 109.509 442.741 108.794V96.5673L414.635 86.7618C414.516 86.7221 414.476 86.603 414.436 86.5236V64.0544C414.436 63.9353 414.516 63.8162 414.635 63.8162C420.51 62.1886 426.544 61.3152 432.618 61.2358C438.732 61.3152 444.805 62.1886 450.681 63.8162C450.8 63.8559 450.879 63.975 450.879 64.0544V72.5498C450.879 72.7086 450.76 72.8277 450.601 72.8277H442.979C442.82 72.8277 442.701 72.7086 442.701 72.5498V69.9695C436.111 68.4212 429.244 68.4212 422.614 69.9695L422.654 81.5217L450.681 91.3271C450.8 91.3668 450.84 91.4859 450.879 91.5653V114.709C450.879 114.829 450.8 114.948 450.681 114.948C444.805 116.575 438.771 117.449 432.697 117.528C426.584 117.449 420.51 116.575 414.635 114.948C414.516 114.908 414.436 114.789 414.436 114.709V106.214C414.436 106.055 414.555 105.936 414.714 105.936H422.336C422.495 105.896 422.654 105.976 422.693 106.135C422.693 106.174 422.733 106.174 422.693 106.214Z" fill="white"/>
</svg>
