<svg width="640" height="181" viewBox="0 0 640 181" fill="none" xmlns="http://www.w3.org/2000/svg">
<path fill-rule="evenodd" clip-rule="evenodd" d="M507.43 84.1625L528.355 63.3875H556.255L577.18 84.1625L542.305 118.812L507.43 84.1625ZM557.15 76.8875C548.975 68.6375 535.625 68.6375 527.375 76.8875L520.25 84.0125L527.375 91.1375C535.55 99.3875 548.9 99.3875 557.15 91.1375L564.275 84.0125L557.15 76.8875Z" fill="white"/>
<path fill-rule="evenodd" clip-rule="evenodd" d="M533.602 84.2375C533.602 88.8875 537.502 92.7125 542.302 92.7125C547.102 92.7125 551.002 88.8875 551.002 84.2375C551.002 79.5875 547.102 75.7625 542.302 75.7625C537.502 75.7625 533.602 79.5875 533.602 84.2375ZM538.625 84.0124C538.625 86.0374 540.275 87.6874 542.3 87.6874C544.325 87.6874 545.9 86.0374 545.975 84.0124C545.975 81.9874 544.325 80.3374 542.3 80.3374C540.275 80.3374 538.625 81.9874 538.625 84.0124Z" fill="white"/>
<path d="M292.625 77.1874H299C298.7 69.0124 291.2 62.9374 280.7 62.9374C270.35 62.9374 262.175 68.9374 262.175 78.0874C262.175 85.3624 267.425 89.7124 275.9 92.1124L282.575 93.9874C288.275 95.5624 293.375 97.5874 293.375 102.987C293.375 108.912 287.675 112.812 280.175 112.812C273.725 112.812 268.025 109.962 267.5 103.812H260.75C261.35 112.662 268.55 118.737 280.175 118.737C292.625 118.737 299.75 111.837 299.75 103.062C299.75 92.9374 290.15 89.6374 284.525 88.1374L279.05 86.6374C275 85.5874 268.55 83.4874 268.55 77.6374C268.55 72.4624 273.275 68.6374 280.475 68.6374C287 68.7124 291.95 71.8624 292.625 77.1874Z" fill="white"/>
<path d="M214.477 117.762H221.002V100.212L227.752 92.6374L246.577 117.762H254.527L231.802 88.0624L254.527 63.6124H245.977L221.677 90.4624H221.077V63.6124H214.552V117.762H214.477Z" fill="white"/>
<path fill-rule="evenodd" clip-rule="evenodd" d="M124.405 63.3875C138.28 63.3875 148.255 74.0375 148.255 91.2125C148.255 108.387 138.205 118.962 124.405 118.962C110.605 118.962 100.555 108.312 100.555 91.1375C100.555 73.9625 110.53 63.3875 124.405 63.3875ZM124.405 112.887C134.23 112.887 141.955 105.312 141.955 91.2125C141.955 77.1125 134.23 69.5375 124.405 69.5375C114.58 69.5375 106.855 77.1125 106.855 91.2125C106.855 105.312 114.505 112.887 124.405 112.887Z" fill="white"/>
<path fill-rule="evenodd" clip-rule="evenodd" d="M181.03 63.3875C194.905 63.3875 204.88 74.0375 204.88 91.2125C204.88 108.387 194.905 118.962 181.03 118.962C167.155 118.962 157.18 108.312 157.18 91.1375C157.18 73.9625 167.23 63.3875 181.03 63.3875ZM181.03 112.887C190.855 112.887 198.58 105.312 198.58 91.2125C198.58 77.1125 190.855 69.5375 181.03 69.5375C171.205 69.5375 163.48 77.1125 163.48 91.2125C163.48 105.312 171.205 112.887 181.03 112.887Z" fill="white"/>
<path d="M94.5531 117.762H62.8281V63.6874H69.3531V111.987H94.4781V117.762H94.5531Z" fill="white"/>
<path fill-rule="evenodd" clip-rule="evenodd" d="M317.603 117.612H311.078V63.5374H329.378C342.053 63.5374 347.753 70.5874 347.753 80.1124C347.753 87.3124 344.528 92.9373 337.628 95.2623L349.853 117.612H342.278L330.803 96.4623C330.353 96.4623 329.903 96.4623 329.453 96.4623H317.603V117.612ZM317.603 69.3123V90.5374H329.228C337.928 90.5374 341.303 86.5624 341.303 80.0374C341.303 73.5124 337.928 69.2374 329.153 69.2374H317.603V69.3123Z" fill="white"/>
<path fill-rule="evenodd" clip-rule="evenodd" d="M366.352 102.312L360.877 117.612H353.977L373.852 63.5374H380.602L400.477 117.612H393.577L388.102 102.312H366.352ZM377.077 72.0873L368.377 96.5374H386.152L377.452 72.0873H377.077Z" fill="white"/>
<path fill-rule="evenodd" clip-rule="evenodd" d="M409.106 117.612H415.631V96.4623H427.481C427.931 96.4623 428.381 96.4623 428.831 96.4623L440.231 117.612H447.806L435.581 95.2623C442.481 92.9373 445.706 87.3124 445.706 80.1124C445.706 70.5124 440.006 63.5374 427.331 63.5374H409.031V117.612H409.106ZM415.706 90.6124V69.3873H427.256C436.031 69.3873 439.406 73.6623 439.406 80.1873C439.406 86.7123 436.031 90.6873 427.331 90.6873H415.706V90.6124Z" fill="white"/>
<path d="M489.802 117.612H456.727V63.5374H489.352V69.3873H463.252V87.6873H487.702V93.5374H463.252V111.912H489.802V117.612Z" fill="white"/>
</svg>
