<svg width="640" height="181" viewBox="0 0 640 181" fill="none" xmlns="http://www.w3.org/2000/svg">
<path d="M392.612 93.9528C392.438 93.8836 392.404 93.8489 392.369 93.8489C388.662 93.641 388.662 93.641 387.726 97.0364C384.92 107.569 382.148 118.102 379.411 128.634C379.134 129.674 378.753 130.02 377.61 130.02C372.586 129.951 367.562 129.951 362.504 130.02C361.43 130.02 360.494 129.812 359.593 129.189C358.658 128.53 357.653 127.907 356.648 127.387C355.921 127.006 355.851 126.555 356.059 125.828C358.796 115.572 361.499 105.317 364.271 95.0615C364.479 94.334 364.444 93.9528 363.647 93.5717C362.677 93.1213 361.811 92.4977 360.945 91.9433C360.841 92.0473 360.737 92.0819 360.737 92.1166C360.633 93.5024 359.801 93.7796 358.485 93.745C355.99 93.641 353.495 93.745 351.001 93.7103C350.343 93.7103 349.927 93.8143 349.754 94.5418C348.368 99.9814 346.913 105.386 345.423 111.138C346.913 110.618 348.264 110.306 349.476 109.717C350.62 109.163 351.555 109.197 352.525 109.96C353.08 110.375 353.669 110.791 354.292 111.068C355.99 111.727 356.337 112.905 356.198 114.568C355.886 118.344 355.782 122.155 355.505 125.966C355.47 126.382 355.124 127.006 354.777 127.144C348.714 129.639 342.478 131.302 335.826 130.886C333.539 130.748 331.426 130.089 329.485 128.946C327.545 127.837 325.64 126.729 323.769 125.516C321.205 123.853 320.477 121.324 320.339 118.517C320.165 114.983 321.274 111.657 322.175 108.262C323.353 103.758 324.565 99.2884 325.743 94.7844C325.813 94.5072 325.847 94.23 325.882 93.9875C324.704 93.2946 323.561 92.6016 322.279 91.8394C322.071 92.567 321.898 93.156 321.69 93.8489C318.26 93.8489 314.795 93.8835 311.365 93.8143C310.395 93.8143 310.014 94.0914 309.771 94.9923C306.792 106.287 303.777 117.582 300.798 128.877C300.555 129.847 300.139 130.089 299.1 130.089C294.076 130.02 289.053 130.089 283.994 130.02C283.232 130.02 282.47 129.639 281.707 129.396C281.465 129.327 281.292 129.154 281.084 129.015C279.906 128.218 278.139 127.664 277.654 126.59C277.203 125.585 278.139 124.026 278.485 122.71C281.014 113.216 283.544 103.758 286.038 94.2647C286.073 94.1607 286.073 94.0221 286.073 93.9182C284.895 93.2253 283.752 92.5323 282.47 91.7701C279.144 104.555 275.852 117.27 272.561 130.089C269.304 130.089 266.082 130.089 262.825 130.089C261.716 130.089 260.573 129.985 259.464 130.124C256.034 130.54 253.055 129.639 250.352 127.56C249.659 127.006 249.486 126.625 249.694 125.828C252.327 116.023 254.995 106.183 257.559 96.3435C258.009 94.6111 258.113 92.8095 258.356 91.0425C258.217 90.9732 258.113 90.8693 257.974 90.8C256.97 91.2158 255.93 91.5969 254.995 92.0819C252.5 93.4331 250.491 95.2694 248.654 97.4175C246.887 99.531 246.645 102.129 245.952 104.555C243.631 113.009 241.379 121.497 239.092 130.089C238.607 130.089 238.122 130.089 237.637 130.089C232.613 130.089 227.589 130.055 222.531 130.089C221.491 130.089 220.591 129.916 219.759 129.327C218.546 128.496 216.675 127.976 216.225 126.867C215.775 125.793 216.675 124.13 217.022 122.744C220.972 107.846 224.956 92.9481 228.871 78.05C229.114 77.0799 229.529 76.9066 230.465 76.9066C234.969 76.9413 239.438 76.9066 243.942 76.9413C244.878 76.9413 245.848 77.2185 247.13 77.3917C249.798 75.4515 253.055 73.7191 256.727 72.8183C261.231 71.7096 265.77 71.0167 270.343 72.4026C271.487 72.749 272.526 73.338 273.565 73.8924C274.813 74.5853 275.991 75.4515 277.238 76.1444C279.94 77.6342 281.742 79.7477 282.574 82.7619C283.093 80.7871 283.613 78.8122 284.167 76.7681C285.761 76.7681 287.355 76.6641 288.914 76.8027C290.3 76.9413 290.681 76.3523 291.062 75.2089C292.101 71.8829 293.106 68.5221 294.561 65.3693C296.883 60.4841 300.417 56.4651 305.337 53.728C311.296 50.4019 317.567 50.3326 324.011 52.0996C328.065 53.2083 331.564 55.3217 335.029 57.6777C332.707 62.1818 330.421 66.6859 328.273 70.9128C326.298 70.3931 324.531 69.8041 322.66 69.4576C320.096 68.9379 317.913 69.7694 316.562 71.9868C315.696 73.442 315.142 75.0704 314.345 76.872C317.809 76.872 320.997 76.283 323.318 78.9508C324.011 77.5649 325.12 76.872 326.644 76.872C327.545 76.872 328.481 76.8373 329.381 76.872C330.178 76.9066 330.525 76.6295 330.733 75.8672C332.43 69.319 334.197 62.8054 335.964 56.2572C335.999 56.1879 336.034 56.1186 336.137 55.8761H337.385C342.443 55.8761 347.536 55.9107 352.595 55.8761C353.634 55.8761 354.535 56.0146 355.366 56.6383C356.059 57.158 356.822 57.5391 357.549 58.0242C359.559 59.3061 359.351 58.6132 358.727 61.0038C357.411 65.9583 356.059 70.9127 354.708 75.8326C354.639 76.1444 354.604 76.4562 354.535 76.9413C357.341 76.4909 359.801 76.9759 362.123 79.1587C361.949 76.7334 363.404 76.9413 364.756 77.0106C365.137 77.0452 365.518 77.0106 365.864 77.0106C369.121 77.0106 369.087 77.0106 369.849 73.9963C372.447 63.7062 378.822 56.4304 389.182 52.7578C397.462 49.8129 405.535 50.679 413.088 55.1485C416.587 57.2273 419.948 59.514 423.343 61.7314C423.517 61.8353 423.655 62.0085 423.898 62.2164C420.398 66.7205 416.899 71.1899 413.261 75.8672C411.286 74.4814 408.93 73.442 407.544 71.7096C405.223 68.7993 398.467 68.73 395.938 71.4325C394.517 72.9916 393.339 74.6546 393.027 76.9066H394.587C400.962 76.9066 407.302 76.9413 413.677 76.872C414.82 76.872 415.756 77.0799 416.691 77.7382C417.627 78.3964 418.597 79.0201 419.636 79.5398C420.398 79.9209 420.433 80.406 420.26 81.0989C415.998 97.0364 411.737 112.974 407.51 128.911C407.267 129.778 406.921 130.055 405.985 130.02C400.788 129.985 395.591 130.02 390.394 129.985C389.597 129.985 388.731 129.639 387.969 129.293C387.137 128.911 386.41 128.392 385.648 127.907C383.673 126.625 383.846 127.318 384.47 124.892C387.103 114.741 389.805 104.624 392.473 94.4725C392.577 94.2647 392.577 94.1261 392.612 93.9528ZM408.203 69.8734C409.658 68.0371 411.009 66.3047 412.326 64.5724C413.677 62.8401 415.028 61.0731 416.379 59.3407C412.915 56.2918 406.99 53.5547 402.763 52.9657C390.394 51.268 378.372 57.7123 373.452 68.8339C372.239 71.6057 371.512 74.5853 370.646 77.4956C370.403 78.2925 370.091 78.6043 369.225 78.5697C367.735 78.5004 366.246 78.5004 364.721 78.5697C364.375 78.5697 363.82 78.9162 363.751 79.1933C362.85 82.3808 362.053 85.5683 361.152 88.9637H367.458C364.236 101.125 361.083 113.078 357.93 125.066H372.447C375.635 113.043 378.822 101.055 381.975 89.0677H395.591C392.404 101.125 389.251 113.043 386.063 125.066H400.58C404.738 109.613 408.896 94.1607 413.123 78.5004H384.747C385.44 76.0058 385.994 73.7191 386.756 71.5017C387.519 69.2844 388.87 67.4134 390.914 66.0969C394.136 63.9834 397.601 64.2606 401.065 65.4039C403.803 66.2701 406.055 67.8985 408.203 69.8734ZM251.426 125.308C256.034 125.308 260.434 125.274 264.834 125.343C265.701 125.343 266.012 125.1 266.255 124.269C268.853 114.325 271.521 104.382 274.154 94.4379C275.228 90.3496 276.233 86.2959 275.921 82.0344C275.61 77.7728 273.254 74.7932 268.957 73.927C266.809 73.4766 264.488 73.5113 262.305 73.7191C256.103 74.2735 250.56 76.4562 246.056 80.7178C244.566 82.1383 243.25 83.6974 241.621 85.4297C242.279 83.0391 242.834 80.9257 243.423 78.7429H230.5C226.377 94.2647 222.219 109.752 218.096 125.308H232.648C232.752 124.996 232.89 124.754 232.959 124.477C235.211 115.954 237.567 107.465 239.681 98.942C240.408 95.997 241.794 93.5024 243.942 91.3543C246.506 88.7558 249.451 86.7117 253.193 85.9841C256.346 85.3605 258.979 86.8849 259.43 89.9338C259.707 91.8394 259.637 93.8836 259.222 95.7545C258.148 100.466 256.796 105.144 255.584 109.821C254.198 114.949 252.812 120.042 251.426 125.308ZM318.087 78.5004H306.272C307.277 75.3129 307.97 72.2293 309.217 69.3537C310.915 65.4386 313.721 64.122 318.121 64.7456C319.542 64.9535 320.928 65.3693 322.487 65.7157C324.219 62.3896 325.986 58.9596 327.788 55.4256C321.932 52.9657 316.077 51.7531 309.945 53.8319C303.431 56.0146 298.892 60.4494 296.12 66.4087C294.561 69.8041 293.522 73.4766 292.413 77.0452C292.032 78.2579 291.547 78.639 290.3 78.535C289.018 78.4311 287.736 78.4657 286.419 78.535C286.073 78.5697 285.519 78.8469 285.415 79.124C284.514 82.3462 283.682 85.603 282.781 89.033H289.122C285.9 101.125 282.712 113.078 279.525 125.066C279.906 125.135 280.079 125.17 280.287 125.17C284.583 125.17 288.845 125.135 293.141 125.204C294.007 125.204 294.146 124.754 294.319 124.13C295.739 118.795 297.16 113.459 298.58 108.123C300.278 101.783 301.976 95.4427 303.673 88.9984H305.059H314.275C314.83 88.9984 315.315 88.9984 315.488 88.3054C316.354 85.1526 317.186 81.9304 318.087 78.5004ZM349.026 111.657C347.675 112.073 346.531 112.524 345.319 112.835C341.334 113.875 337.281 112.87 338.771 107.153C340.26 101.333 341.82 95.5466 343.344 89.7259C343.517 88.9984 343.933 88.9291 344.591 88.9291C347.328 88.9637 350.065 88.9637 352.837 88.9291C353.218 88.9291 353.911 88.6519 353.981 88.3747C354.951 85.1179 355.817 81.8265 356.787 78.4311H346.497C348.368 71.3978 350.204 64.5031 352.075 57.6084C351.798 57.5391 351.659 57.4698 351.555 57.4698C347.155 57.4698 342.755 57.4698 338.32 57.4352C337.523 57.4352 337.385 57.8163 337.212 58.4399C335.514 64.8149 333.781 71.1899 332.084 77.5649C331.911 78.2579 331.633 78.4657 330.906 78.4657C329.416 78.4311 327.926 78.4657 326.402 78.4311C325.709 78.3964 325.362 78.6043 325.224 79.2973C324.947 80.5792 324.565 81.8611 324.219 83.1084C323.699 84.9793 323.18 86.8503 322.591 88.9291H328.758C328.688 89.3102 328.688 89.4834 328.654 89.6913C327.337 94.7497 325.951 99.8081 324.669 104.901C323.665 108.886 322.591 112.905 321.967 116.924C321.239 121.393 323.491 124.407 327.995 125.481C329.832 125.897 331.772 126.036 333.678 126.036C337.974 126.07 341.993 124.754 346.046 123.541C347.883 122.987 348.749 122.259 348.68 120.284C348.61 117.478 348.887 114.637 349.026 111.657Z" fill="white"/>
</svg>
