<svg width="640" height="181" viewBox="0 0 640 181" fill="none" xmlns="http://www.w3.org/2000/svg">
<path d="M196.578 69.3695L213.398 40.95L230.266 69.3695L213.398 78.8427L196.578 69.3695Z" fill="white"/>
<path d="M182.562 93.1006L190.972 78.8909L213.447 91.5057L235.922 78.8909L244.331 93.1006L213.399 110.452L182.562 93.1006Z" fill="white"/>
<path d="M168.5 116.784L176.91 102.574L213.401 123.067L249.94 102.574L258.35 116.784L257.142 117.025C244.527 119.635 227.176 129.35 218.621 138.727C217.993 139.452 217.171 139.983 216.301 140.37C215.431 140.757 214.464 140.95 213.498 140.95C212.531 140.95 211.564 140.757 210.694 140.37C209.824 139.983 209.003 139.403 208.374 138.727C199.819 129.399 182.42 119.635 169.853 117.025L168.5 116.784Z" fill="white"/>
<path d="M213.398 78.8427L196.578 69.3695L213.398 40.95V78.8427Z" fill="white"/>
<path d="M213.447 110.452L182.562 93.1006L190.972 78.8909L213.447 91.5057V110.452Z" fill="white"/>
<path d="M213.401 140.95C212.434 140.95 211.468 140.757 210.598 140.37C209.728 139.983 208.906 139.403 208.278 138.727C199.723 129.399 182.323 119.635 169.757 117.025L168.5 116.784L176.91 102.574L213.401 123.067V140.95Z" fill="white"/>
<path d="M320.746 98.5624V97.4991C320.698 92.3758 322.728 87.4459 326.401 83.7243C330.074 80.051 335.052 77.8761 340.321 77.7311C353.515 77.5861 360.137 87.5425 360.137 99.0457C360.137 99.8673 360.137 100.689 359.992 101.607H330.026C330.267 104.459 331.621 107.069 333.844 108.954C336.019 110.839 338.871 111.805 341.819 111.709C343.897 111.709 345.927 111.274 347.86 110.501C349.745 109.679 351.437 108.471 352.839 107.021L358.3 111.757C356.319 114.174 353.757 116.059 350.857 117.364C347.957 118.669 344.816 119.249 341.626 119.152C338.822 119.249 336.067 118.765 333.457 117.75C330.847 116.735 328.527 115.237 326.546 113.304C324.564 111.37 323.066 109.051 322.051 106.537C321.036 104.024 320.601 101.317 320.746 98.5624ZM350.857 95.6624C350.229 89.8142 346.556 85.2709 340.514 85.2709C334.811 85.2709 330.799 89.5242 329.929 95.6624H350.857Z" fill="white"/>
<path d="M395.273 118.234H385.945V62.7961L392.905 66.7111C393.63 67.0977 394.21 67.6777 394.645 68.4027C395.08 69.0794 395.273 69.901 395.273 70.6743V118.234Z" fill="white"/>
<path d="M376.281 118.234H366.953V62.7961L373.865 66.7111C374.59 67.0977 375.17 67.6777 375.605 68.4027C376.04 69.0794 376.233 69.901 376.233 70.6743L376.281 118.234Z" fill="white"/>
<path d="M308.711 118.234H299.383V77.7793L306.343 81.6942C307.068 82.0809 307.648 82.6609 308.083 83.3375C308.518 84.0142 308.711 84.8359 308.711 85.6092V118.234Z" fill="white"/>
<path d="M325.969 65.2129H282.18V74.2994H325.969V65.2129Z" fill="white"/>
<path d="M402.142 98.5624V97.4991C402.094 92.3758 404.124 87.4459 407.797 83.7243C411.471 80.051 416.449 77.8761 421.717 77.7311C434.912 77.5861 441.533 87.5425 441.533 99.0457C441.533 99.8673 441.533 100.689 441.388 101.607H411.422C411.664 104.411 413.017 107.069 415.192 108.906C417.367 110.791 420.17 111.805 423.07 111.709C425.149 111.709 427.179 111.274 429.112 110.452C430.997 109.631 432.737 108.471 434.139 106.972L439.697 111.709C437.715 114.077 435.154 116.01 432.254 117.267C429.354 118.524 426.212 119.152 423.07 119.055C420.267 119.152 417.512 118.669 414.902 117.654C412.292 116.639 409.972 115.14 407.991 113.207C406.009 111.274 404.511 108.954 403.496 106.441C402.481 104.024 401.997 101.317 402.142 98.5624ZM432.254 95.6624C431.625 89.8142 427.952 85.2709 421.91 85.2709C416.207 85.2709 412.196 89.5242 411.326 95.6624H432.254Z" fill="white"/>
<path d="M447.861 77.7793H453.661C454.579 77.7793 455.497 78.1176 456.126 78.7943C456.802 79.4226 457.141 80.2926 457.141 81.2109V118.234H447.812V77.7793H447.861Z" fill="white"/>
<path d="M471.495 77.7793V86.8175H457.141L462.747 80.0509C463.182 79.3743 463.762 78.7943 464.487 78.3593C465.212 77.9726 466.034 77.731 466.855 77.731L471.495 77.7793Z" fill="white"/>
</svg>
