<svg width="119" height="28" viewBox="0 0 119 28" fill="none" xmlns="http://www.w3.org/2000/svg">
<path d="M0.76 0.288874H16.936V19.5609H15.448L9.832 6.69687H4.48V9.43287H6.64L2.176 19.5609H0.76V0.288874ZM8.896 11.2809L10.528 15.6729H7L8.752 11.2809H8.896ZM16.936 27.4089H0.76V22.2969H6.904V19.5609H5.44L6.088 17.9769H11.392L11.968 19.5609H10.72V22.2969H16.936V27.4089ZM18.8631 27.4089V0.288874H31.9911V27.4089H18.8631ZM30.4791 13.8009H31.5831V11.4729H26.6391V13.8009H27.5031L25.8951 18.3369H25.7511L23.6391 13.8009H24.6711V11.4729H19.1511V13.8009H20.3031L24.3831 22.2969H26.6151L30.4791 13.8009ZM33.9194 27.4089V0.288874H46.5674V27.4089H33.9194ZM35.7914 12.2409L35.3114 15.0489L37.7834 15.3129L38.1914 13.7769C38.4474 13.6489 38.7034 13.5689 38.9594 13.5369C39.2314 13.4889 39.5274 13.4649 39.8474 13.4649C40.7274 13.4649 41.2394 13.7289 41.3834 14.2569C41.5434 14.7849 41.6234 15.3289 41.6234 15.8889V16.2489C41.1274 16.1849 40.5354 16.1529 39.8474 16.1529C38.6154 16.1529 37.4634 16.3689 36.3914 16.8009C35.3354 17.2329 34.8074 18.1129 34.8074 19.4409C34.8074 20.5769 35.1674 21.3769 35.8874 21.8409C36.6074 22.3049 37.3594 22.5369 38.1434 22.5369C39.0234 22.5369 39.7434 22.3129 40.3034 21.8649C40.8794 21.4169 41.3194 20.9209 41.6234 20.3769V20.4009C41.7834 21.8249 42.5754 22.5369 43.9994 22.5369C44.6714 22.5369 45.3194 22.3689 45.9434 22.0329L45.9194 20.4009C45.7594 20.4489 45.6074 20.4729 45.4634 20.4729C44.9674 20.4729 44.7194 20.1929 44.7194 19.6329V14.9289C44.7194 13.6969 44.2954 12.7769 43.4474 12.1689C42.5994 11.5609 41.5914 11.2569 40.4234 11.2569C39.5434 11.2569 38.7834 11.3289 38.1434 11.4729C37.5194 11.6009 36.7354 11.8569 35.7914 12.2409ZM41.6234 17.8809C41.5434 18.7289 41.2634 19.3529 40.7834 19.7529C40.3194 20.1369 39.8154 20.3289 39.2714 20.3289C38.8074 20.3289 38.4794 20.2089 38.2874 19.9689C38.0954 19.7289 37.9994 19.4329 37.9994 19.0809C37.9994 18.4889 38.2074 18.0969 38.6234 17.9049C39.0394 17.6969 39.5194 17.5929 40.0634 17.5929C40.3194 17.5929 40.5754 17.6089 40.8314 17.6409C41.1034 17.6729 41.3674 17.7049 41.6234 17.7369V17.8809ZM48.46 27.4089V0.288874H56.116V27.4089H48.46ZM50.788 6.33687V9.55287H53.884V6.33687H50.788ZM49.468 22.2969H55.444V19.9689H54.004V11.4729H49.348V13.8249H50.908V19.9689H49.468V22.2969ZM58.0319 27.4089V0.288874H65.3279V27.4089H58.0319ZM58.7039 22.2969H64.6799V19.9689H63.2399V5.78487H58.5839V8.13687H60.1439V19.9689H58.7039V22.2969ZM67.2053 27.4089V0.288874H79.8533V27.4089H67.2053ZM69.0773 12.2409L68.5973 15.0489L71.0693 15.3129L71.4773 13.7769C71.7333 13.6489 71.9893 13.5689 72.2453 13.5369C72.5173 13.4889 72.8133 13.4649 73.1333 13.4649C74.0133 13.4649 74.5253 13.7289 74.6693 14.2569C74.8293 14.7849 74.9093 15.3289 74.9093 15.8889V16.2489C74.4133 16.1849 73.8213 16.1529 73.1333 16.1529C71.9013 16.1529 70.7493 16.3689 69.6773 16.8009C68.6213 17.2329 68.0933 18.1129 68.0933 19.4409C68.0933 20.5769 68.4533 21.3769 69.1733 21.8409C69.8933 22.3049 70.6453 22.5369 71.4293 22.5369C72.3093 22.5369 73.0293 22.3129 73.5893 21.8649C74.1653 21.4169 74.6053 20.9209 74.9093 20.3769V20.4009C75.0693 21.8249 75.8613 22.5369 77.2853 22.5369C77.9573 22.5369 78.6053 22.3689 79.2293 22.0329L79.2053 20.4009C79.0453 20.4489 78.8933 20.4729 78.7493 20.4729C78.2533 20.4729 78.0053 20.1929 78.0053 19.6329V14.9289C78.0053 13.6969 77.5813 12.7769 76.7333 12.1689C75.8853 11.5609 74.8773 11.2569 73.7093 11.2569C72.8293 11.2569 72.0693 11.3289 71.4293 11.4729C70.8053 11.6009 70.0213 11.8569 69.0773 12.2409ZM74.9093 17.8809C74.8293 18.7289 74.5493 19.3529 74.0693 19.7529C73.6053 20.1369 73.1013 20.3289 72.5573 20.3289C72.0933 20.3289 71.7653 20.2089 71.5733 19.9689C71.3813 19.7289 71.2853 19.4329 71.2853 19.0809C71.2853 18.4889 71.4933 18.0969 71.9093 17.9049C72.3253 17.6969 72.8053 17.5929 73.3493 17.5929C73.6053 17.5929 73.8613 17.6089 74.1173 17.6409C74.3893 17.6729 74.6533 17.7049 74.9093 17.7369V17.8809ZM81.7459 27.4089V8.13687H83.1859V18.9609C83.1859 19.5049 83.1459 20.0569 83.0659 20.6169C82.9859 21.1769 82.8899 21.7369 82.7779 22.2969H85.8739C85.9219 22.0249 85.9619 21.7529 85.9939 21.4809C86.0419 21.2089 86.0819 20.9369 86.1139 20.6649C86.7859 21.9129 87.9459 22.5369 89.5939 22.5369C91.2259 22.5369 92.4579 21.9529 93.2899 20.7849C94.1379 19.6169 94.5619 18.2329 94.5619 16.6329C94.5619 14.9369 94.1299 13.6169 93.2659 12.6729C92.4019 11.7289 91.2899 11.2569 89.9299 11.2569C88.9539 11.2569 88.1699 11.4809 87.5779 11.9289C87.0019 12.3769 86.5699 12.9129 86.2819 13.5369V5.78487H81.7459V0.288874H95.2819V27.4089H81.7459ZM91.3459 16.8969C91.3459 18.0009 91.0979 18.8169 90.6019 19.3449C90.1219 19.8569 89.5299 20.1129 88.8259 20.1129C88.0099 20.1129 87.3779 19.8169 86.9299 19.2249C86.4979 18.6169 86.2819 17.8729 86.2819 16.9929V16.7289C86.2819 15.9289 86.5059 15.2249 86.9539 14.6169C87.4179 14.0089 88.0659 13.7049 88.8979 13.7049C89.6339 13.7049 90.2259 13.9769 90.6739 14.5209C91.1219 15.0649 91.3459 15.8569 91.3459 16.8969ZM97.2006 27.4089V0.288874H104.497V27.4089H97.2006ZM97.8726 22.2969H103.849V19.9689H102.409V5.78487H97.7526V8.13687H99.3126V19.9689H97.8726V22.2969ZM106.374 27.4089V0.288874H118.422V27.4089H106.374ZM117.726 18.8889L115.134 18.4089C115.07 18.7289 114.886 19.0889 114.582 19.4889C114.294 19.8889 113.734 20.0889 112.902 20.0889C111.382 20.0889 110.534 19.2329 110.358 17.5209H117.462C117.574 17.0089 117.63 16.4889 117.63 15.9609C117.614 14.5529 117.134 13.4169 116.19 12.5529C115.262 11.6889 114.046 11.2569 112.542 11.2569C110.83 11.2569 109.494 11.8169 108.534 12.9369C107.59 14.0409 107.118 15.4249 107.118 17.0889C107.118 18.8969 107.638 20.2569 108.678 21.1689C109.734 22.0809 111.07 22.5369 112.686 22.5369C114.238 22.5369 115.446 22.1689 116.31 21.4329C117.174 20.6969 117.646 19.8489 117.726 18.8889ZM114.438 15.7209H110.382C110.478 15.0489 110.702 14.5049 111.054 14.0889C111.406 13.6729 111.902 13.4649 112.542 13.4649C113.278 13.4649 113.79 13.7049 114.078 14.1849C114.382 14.6649 114.502 15.1769 114.438 15.7209Z" fill="#48E59B"/>
</svg>
