<svg width="32" height="32" viewBox="0 0 32 32" fill="none" xmlns="http://www.w3.org/2000/svg">
<path fill-rule="evenodd" clip-rule="evenodd" d="M18.3484 2.66853C18.3484 3.74314 17.6264 4.64912 16.641 4.92779C21.6436 5.25804 25.5991 9.42043 25.5991 14.5067V21.8667C25.5991 23.5868 25.6693 24.9759 27.1428 25.7126C27.5852 25.9339 27.8175 26.4303 27.7039 26.9118C27.5902 27.3932 27.1604 27.7334 26.6657 27.7334H17.4101C17.853 28.1243 18.1324 28.6962 18.1324 29.3334C18.1324 30.5116 17.1772 31.4667 15.999 31.4667C14.8208 31.4667 13.8657 30.5116 13.8657 29.3334C13.8657 28.6962 14.145 28.1243 14.5879 27.7334H5.3324C4.8377 27.7334 4.40792 27.3932 4.29426 26.9118C4.18061 26.4303 4.41289 25.9339 4.85536 25.7126C6.32886 24.9759 6.39906 23.5868 6.39906 21.8667V14.5067C6.39906 9.41949 10.356 5.25648 15.36 4.9276C14.3749 4.64872 13.6532 3.74291 13.6532 2.66853C13.6532 1.37198 14.7043 0.320923 16.0008 0.320923C17.2973 0.320923 18.3484 1.37198 18.3484 2.66853ZM15.9991 7.04C11.8753 7.04 8.5324 10.3829 8.5324 14.5067V21.8667L8.53247 21.9753C8.53349 22.9255 8.535 24.3379 7.89091 25.6H24.1072C23.4631 24.3379 23.4646 22.9255 23.4657 21.9754L23.4657 21.8667V14.5067C23.4657 10.3829 20.1228 7.04 15.9991 7.04Z" fill="#D6D6D6"/>
</svg>
