<svg width="22" height="23" viewBox="0 0 22 23" fill="none" xmlns="http://www.w3.org/2000/svg">
<path fill-rule="evenodd" clip-rule="evenodd" d="M7.40008 3.58001V2.14001H14.6001V3.58001H7.40008ZM7.04008 0.700012C6.44361 0.700012 5.96008 1.18355 5.96008 1.78001V2.14001H5.24008C4.04714 2.14001 3.08008 3.10707 3.08008 4.30001V18.7C3.08008 19.8929 4.04715 20.86 5.24008 20.86H10.2801V19.42H5.24008C4.84243 19.42 4.52008 19.0977 4.52008 18.7V4.30001C4.52008 3.90237 4.84243 3.58001 5.24008 3.58001H5.96008V3.94001C5.96008 4.53648 6.44361 5.02001 7.04008 5.02001H14.9601C15.5565 5.02001 16.0401 4.53648 16.0401 3.94001V3.58001H16.7601C17.1577 3.58001 17.4801 3.90237 17.4801 4.30001V10.78H18.9201V4.30001C18.9201 3.10708 17.953 2.14001 16.7601 2.14001H16.0401V1.78001C16.0401 1.18355 15.5565 0.700012 14.9601 0.700012H7.04008ZM13.1601 12.94C13.1601 13.3377 12.8377 13.66 12.4401 13.66C12.0424 13.66 11.7201 13.3377 11.7201 12.94C11.7201 12.5424 12.0424 12.22 12.4401 12.22C12.8377 12.22 13.1601 12.5424 13.1601 12.94ZM15.3201 13.66C15.7177 13.66 16.0401 13.3377 16.0401 12.94C16.0401 12.5424 15.7177 12.22 15.3201 12.22C14.9224 12.22 14.6001 12.5424 14.6001 12.94C14.6001 13.3377 14.9224 13.66 15.3201 13.66ZM18.9201 12.94C18.9201 13.3377 18.5977 13.66 18.2001 13.66C17.8024 13.66 17.4801 13.3377 17.4801 12.94C17.4801 12.5424 17.8024 12.22 18.2001 12.22C18.5977 12.22 18.9201 12.5424 18.9201 12.94ZM21.0801 13.66C21.4777 13.66 21.8001 13.3377 21.8001 12.94C21.8001 12.5424 21.4777 12.22 21.0801 12.22C20.6824 12.22 20.3601 12.5424 20.3601 12.94C20.3601 13.3377 20.6824 13.66 21.0801 13.66ZM21.8001 15.82C21.8001 16.2177 21.4777 16.54 21.0801 16.54C20.6824 16.54 20.3601 16.2177 20.3601 15.82C20.3601 15.4224 20.6824 15.1 21.0801 15.1C21.4777 15.1 21.8001 15.4224 21.8001 15.82ZM21.0801 19.42C21.4777 19.42 21.8001 19.0977 21.8001 18.7C21.8001 18.3024 21.4777 17.98 21.0801 17.98C20.6824 17.98 20.3601 18.3024 20.3601 18.7C20.3601 19.0977 20.6824 19.42 21.0801 19.42ZM21.0801 22.3C21.4777 22.3 21.8001 21.9777 21.8001 21.58C21.8001 21.1824 21.4777 20.86 21.0801 20.86C20.6824 20.86 20.3601 21.1824 20.3601 21.58C20.3601 21.9777 20.6824 22.3 21.0801 22.3ZM12.4401 16.54C12.8377 16.54 13.1601 16.2177 13.1601 15.82C13.1601 15.4224 12.8377 15.1 12.4401 15.1C12.0424 15.1 11.7201 15.4224 11.7201 15.82C11.7201 16.2177 12.0424 16.54 12.4401 16.54ZM13.1601 18.7C13.1601 19.0977 12.8377 19.42 12.4401 19.42C12.0424 19.42 11.7201 19.0977 11.7201 18.7C11.7201 18.3024 12.0424 17.98 12.4401 17.98C12.8377 17.98 13.1601 18.3024 13.1601 18.7ZM12.4401 22.3C12.8377 22.3 13.1601 21.9777 13.1601 21.58C13.1601 21.1824 12.8377 20.86 12.4401 20.86C12.0424 20.86 11.7201 21.1824 11.7201 21.58C11.7201 21.9777 12.0424 22.3 12.4401 22.3ZM16.0401 21.58C16.0401 21.9777 15.7177 22.3 15.3201 22.3C14.9224 22.3 14.6001 21.9777 14.6001 21.58C14.6001 21.1824 14.9224 20.86 15.3201 20.86C15.7177 20.86 16.0401 21.1824 16.0401 21.58ZM18.2001 22.3C18.5977 22.3 18.9201 21.9777 18.9201 21.58C18.9201 21.1824 18.5977 20.86 18.2001 20.86C17.8024 20.86 17.4801 21.1824 17.4801 21.58C17.4801 21.9777 17.8024 22.3 18.2001 22.3Z" fill="#48E59B"/>
</svg>
