<svg width="29" height="29" viewBox="0 0 29 29" fill="none" xmlns="http://www.w3.org/2000/svg">
<g opacity="0.8">
<rect x="0.5" y="0.903076" width="28" height="28" rx="14" fill="#48E59B" fill-opacity="0.2"/>
<path fill-rule="evenodd" clip-rule="evenodd" d="M11.6997 5.80298C11.3131 5.80298 10.9997 6.11638 10.9997 6.50298C10.9997 6.88958 11.3131 7.20298 11.6997 7.20298H17.2997C17.6863 7.20298 17.9997 6.88958 17.9997 6.50298C17.9997 6.11638 17.6863 5.80298 17.2997 5.80298H11.6997ZM8.19971 9.30298C8.19971 8.91638 8.51311 8.60298 8.89971 8.60298H20.0997C20.4863 8.60298 20.7997 8.91638 20.7997 9.30298C20.7997 9.68958 20.4863 10.003 20.0997 10.003H19.3997V10.003V21.203C19.3997 21.9762 18.7729 22.603 17.9997 22.603H10.9997C10.2265 22.603 9.59968 21.9762 9.59968 21.203V10.003V10.003H8.89971C8.51311 10.003 8.19971 9.68958 8.19971 9.30298ZM17.9997 10.003H10.9997V21.203H17.9997L17.9997 10.003Z" fill="#48E59B"/>
</g>
</svg>
