<svg width="45" height="44" viewBox="0 0 45 44" fill="none" xmlns="http://www.w3.org/2000/svg">
<rect x="0.5" width="44" height="44" rx="22" fill="#48E59B" fill-opacity="0.2"/>
<path fill-rule="evenodd" clip-rule="evenodd" d="M15.2992 11.6001C14.4156 11.6001 13.6992 12.3164 13.6992 13.2001V30.8001C13.6992 31.6838 14.4156 32.4001 15.2992 32.4001H27.2992C27.741 32.4001 28.0992 32.0419 28.0992 31.6001C28.0992 31.1583 27.741 30.8001 27.2992 30.8001H15.2992V13.2001L27.2992 13.2001C27.741 13.2001 28.0992 12.8419 28.0992 12.4001C28.0992 11.9583 27.741 11.6001 27.2992 11.6001H15.2992ZM30.6649 17.8344C30.3525 17.522 29.846 17.522 29.5335 17.8344C29.2211 18.1468 29.2211 18.6534 29.5335 18.9658L31.7678 21.2001H20.8992C20.4574 21.2001 20.0992 21.5583 20.0992 22.0001C20.0992 22.4419 20.4574 22.8001 20.8992 22.8001H31.7678L29.5335 25.0344C29.2211 25.3468 29.2211 25.8534 29.5335 26.1658C29.846 26.4782 30.3525 26.4782 30.6649 26.1658L34.2649 22.5658C34.5773 22.2534 34.5773 21.7468 34.2649 21.4344L30.6649 17.8344Z" fill="#48E59B"/>
</svg>
