<svg width="207" height="24" viewBox="0 0 207 24" fill="none" xmlns="http://www.w3.org/2000/svg">
<g opacity="0.8">
<rect y="10.5" width="175" height="3" rx="1.5" fill="#48E59B" fill-opacity="0.2"/>
<rect y="10.5" width="78.0769" height="3" rx="1.5" fill="#71E0AC"/>
<path fill-rule="evenodd" clip-rule="evenodd" d="M187.795 3.19998C186.912 3.19998 186.195 3.91633 186.195 4.79998V19.2C186.195 20.0836 186.912 20.8 187.795 20.8H202.195C203.079 20.8 203.795 20.0836 203.795 19.2V13.6C203.795 13.1582 203.437 12.8 202.995 12.8C202.553 12.8 202.195 13.1582 202.195 13.6V19.2H187.795V4.79998L193.395 4.79998C193.837 4.79998 194.195 4.44181 194.195 3.99998C194.195 3.55815 193.837 3.19998 193.395 3.19998H187.795ZM203.561 3.4343C203.638 3.5113 203.696 3.6001 203.735 3.69488C203.774 3.78913 203.794 3.88929 203.795 3.98964L203.795 4.00122V8.79998C203.795 9.24181 203.437 9.59998 202.995 9.59998C202.553 9.59998 202.195 9.24181 202.195 8.79998V5.93135L193.961 14.1657C193.649 14.4781 193.142 14.4781 192.83 14.1657C192.517 13.8532 192.517 13.3467 192.83 13.0343L201.064 4.79998H198.195C197.753 4.79998 197.395 4.44181 197.395 3.99998C197.395 3.55815 197.753 3.19998 198.195 3.19998H202.995C203.2 3.19998 203.405 3.27809 203.561 3.4343Z" fill="#48E59B"/>
</g>
</svg>
