<svg width="32" height="32" viewBox="0 0 32 32" fill="none" xmlns="http://www.w3.org/2000/svg">
<path fill-rule="evenodd" clip-rule="evenodd" d="M15.0847 1.38715C14.2377 1.38715 13.5035 1.97351 13.3162 2.79956L12.8083 5.03992C11.9998 5.27504 11.2285 5.59705 10.5053 5.99492L8.56182 4.76979C7.8453 4.31811 6.91153 4.42263 6.31261 5.02155L5.01961 6.31455C4.42069 6.91347 4.31617 7.84723 4.76785 8.56376L5.99342 10.5079C5.59589 11.2309 5.27418 12.002 5.03928 12.8102L2.79913 13.3181C1.97308 13.5054 1.38672 14.2395 1.38672 15.0865V16.9151C1.38672 17.7621 1.97308 18.4963 2.79913 18.6836L5.03954 19.1915C5.27457 20 5.59647 20.7712 5.99422 21.4944L4.76885 23.4382C4.31717 24.1547 4.42169 25.0885 5.02062 25.6874L6.31361 26.9804C6.91254 27.5793 7.8463 27.6839 8.56282 27.2322L10.5068 26.0067C11.2295 26.4042 12.0003 26.7259 12.8083 26.9609L13.3162 29.2013C13.5035 30.0273 14.2377 30.6137 15.0847 30.6137H16.9133C17.7603 30.6137 18.4944 30.0273 18.6817 29.2013L19.1894 26.9617C19.9981 26.7268 20.7696 26.405 21.4929 26.0072L23.4367 27.2326C24.1532 27.6843 25.087 27.5798 25.6859 26.9808L26.9789 25.6879C27.5778 25.0889 27.6824 24.1552 27.2307 23.4386L26.0058 21.4955C26.4038 20.772 26.7259 20.0003 26.9611 19.1913L29.2009 18.6836C30.0269 18.4963 30.6133 17.7621 30.6133 16.9151V15.0865C30.6133 14.2395 30.0269 13.5054 29.2009 13.3181L26.9614 12.8104C26.7263 12.0016 26.4044 11.2301 26.0065 10.5068L27.2317 8.56332C27.6834 7.8468 27.5788 6.91304 26.9799 6.31411L25.6869 5.02112C25.088 4.42219 24.1542 4.31767 23.4377 4.76935L21.4944 5.9944C20.7706 5.5963 19.9987 5.27419 19.1894 5.03909L18.6817 2.79956C18.4944 1.97351 17.7603 1.38715 16.9133 1.38715H15.0847ZM10.4971 8.13333C11.6208 7.34587 12.9208 6.79301 14.3263 6.54587L15.0847 3.20048H16.9133L17.6716 6.54538C19.0777 6.79223 20.3784 7.34508 21.5026 8.13274L24.4047 6.30334L25.6977 7.59633L23.8682 10.4985C24.6556 11.6223 25.2083 12.9226 25.4552 14.3283L28.7999 15.0865V16.9151L25.455 17.6734C25.208 19.0793 24.655 20.3797 23.8673 21.5036L25.6967 24.4056L24.4037 25.6986L21.5013 23.869C20.3774 24.6562 19.0771 25.2087 17.6716 25.4554L16.9133 28.8004H15.0847L14.3263 25.455C12.9214 25.2079 11.6218 24.6554 10.4985 23.8684L7.59583 25.6982L6.30284 24.4052L8.13255 21.5026C7.34528 20.379 6.7926 19.0789 6.5456 17.6736L3.20005 16.9151V15.0865L6.54545 14.3281C6.79228 12.923 7.3447 11.6231 8.13165 10.4995L6.30183 7.59677L7.59483 6.30377L10.4971 8.13333ZM19.2533 16.0001C19.2533 17.7968 17.7968 19.2533 16.0002 19.2533C14.2035 19.2533 12.747 17.7968 12.747 16.0001C12.747 14.2035 14.2035 12.747 16.0002 12.747C17.7968 12.747 19.2533 14.2035 19.2533 16.0001ZM21.1733 16.0001C21.1733 18.8572 18.8572 21.1733 16.0002 21.1733C13.1431 21.1733 10.827 18.8572 10.827 16.0001C10.827 13.1431 13.1431 10.827 16.0002 10.827C18.8572 10.827 21.1733 13.1431 21.1733 16.0001Z" fill="#48E59B"/>
</svg>
