<svg width="20" height="23" viewBox="0 0 20 23" fill="none" xmlns="http://www.w3.org/2000/svg">
<path d="M16.5439 8.04148H9.40172C9.2123 8.04148 9.03063 7.96905 8.89669 7.84012C8.76275 7.71119 8.6875 7.53632 8.6875 7.35398C8.6875 7.17164 8.76275 6.99677 8.89669 6.86784C9.03063 6.73891 9.2123 6.66647 9.40172 6.66647H16.5439C16.7333 6.66647 16.915 6.73891 17.0489 6.86784C17.1829 6.99677 17.2581 7.17164 17.2581 7.35398C17.2581 7.53632 17.1829 7.71119 17.0489 7.84012C16.915 7.96905 16.7333 8.04148 16.5439 8.04148Z" fill="#48E59B"/>
<path d="M16.5439 10.7918H9.40172C9.2123 10.7918 9.03063 10.7194 8.89669 10.5905C8.76275 10.4615 8.6875 10.2867 8.6875 10.1043C8.6875 9.92198 8.76275 9.74711 8.89669 9.61817C9.03063 9.48924 9.2123 9.41681 9.40172 9.41681H16.5439C16.7333 9.41681 16.915 9.48924 17.0489 9.61817C17.1829 9.74711 17.2581 9.92198 17.2581 10.1043C17.2581 10.2867 17.1829 10.4615 17.0489 10.5905C16.915 10.7194 16.7333 10.7918 16.5439 10.7918Z" fill="#48E59B"/>
<path d="M16.5439 13.5419H9.40172C9.2123 13.5419 9.03063 13.4695 8.89669 13.3406C8.76275 13.2116 8.6875 13.0368 8.6875 12.8544C8.6875 12.6721 8.76275 12.4972 8.89669 12.3683C9.03063 12.2394 9.2123 12.1669 9.40172 12.1669H16.5439C16.7333 12.1669 16.915 12.2394 17.0489 12.3683C17.1829 12.4972 17.2581 12.6721 17.2581 12.8544C17.2581 13.0368 17.1829 13.2116 17.0489 13.3406C16.915 13.4695 16.7333 13.5419 16.5439 13.5419Z" fill="#48E59B"/>
<path d="M17.2615 17.6668H6.3102C5.9663 17.6668 5.62576 17.6016 5.30803 17.4749C4.99031 17.3483 4.70161 17.1626 4.45843 16.9285C3.96731 16.4557 3.69141 15.8145 3.69141 15.146V2.77088C3.69141 2.10231 3.96731 1.46112 4.45843 0.988371C4.94955 0.51562 5.61566 0.250031 6.3102 0.250031L17.2615 0.250031C17.9561 0.250031 18.6222 0.51562 19.1133 0.988371C19.6044 1.46112 19.8803 2.10231 19.8803 2.77088V15.146C19.8803 15.8145 19.6044 16.4557 19.1133 16.9285C18.6222 17.4012 17.9561 17.6668 17.2615 17.6668ZM6.3102 1.62504C5.9945 1.62504 5.69173 1.74576 5.46849 1.96065C5.24525 2.17554 5.11984 2.46699 5.11984 2.77088V15.146C5.11984 15.4499 5.24525 15.7413 5.46849 15.9562C5.69173 16.1711 5.9945 16.2918 6.3102 16.2918H17.2615C17.5772 16.2918 17.88 16.1711 18.1033 15.9562C18.3265 15.7413 18.4519 15.4499 18.4519 15.146V2.77088C18.4519 2.46699 18.3265 2.17554 18.1033 1.96065C17.88 1.74576 17.5772 1.62504 17.2615 1.62504H6.3102Z" fill="#48E59B"/>
<path d="M14.1635 22.2501H2.73598C2.04144 22.2501 1.37534 21.9845 0.884215 21.5117C0.393096 21.039 0.117188 20.3978 0.117188 19.7292V5.06245C0.117188 4.39388 0.393096 3.75269 0.884215 3.27994C1.37534 2.80718 2.04144 2.5416 2.73598 2.5416H3.21213C3.40155 2.5416 3.58322 2.61403 3.71716 2.74296C3.8511 2.87189 3.92635 3.04676 3.92635 3.2291C3.92635 3.41144 3.8511 3.58631 3.71716 3.71524C3.58322 3.84417 3.40155 3.91661 3.21213 3.91661H2.73598C2.42028 3.91661 2.11751 4.03733 1.89427 4.25222C1.67104 4.4671 1.54562 4.75855 1.54562 5.06245V19.7292C1.54562 20.0331 1.67104 20.3246 1.89427 20.5395C2.11751 20.7543 2.42028 20.8751 2.73598 20.8751H14.1635C14.4792 20.8751 14.7819 20.7543 15.0052 20.5395C15.2284 20.3246 15.3538 20.0331 15.3538 19.7292V19.2709C15.3538 19.0886 15.4291 18.9137 15.563 18.7847C15.697 18.6558 15.8786 18.5834 16.068 18.5834C16.2575 18.5834 16.4391 18.6558 16.5731 18.7847C16.707 18.9137 16.7823 19.0886 16.7823 19.2709V19.7292C16.7823 20.3978 16.5064 21.039 16.0152 21.5117C15.5241 21.9845 14.858 22.2501 14.1635 22.2501Z" fill="#48E59B"/>
</svg>
