<svg width="15" height="15" viewBox="0 0 15 15" fill="none" xmlns="http://www.w3.org/2000/svg">
<path fill-rule="evenodd" clip-rule="evenodd" d="M0.125 4.38692C0.125 2.03494 2.02488 0.124283 4.37341 0.124283C6.01019 0.124283 6.73352 0.809212 7.50071 2.0235C8.2679 0.809211 8.99124 0.124283 10.628 0.124283C12.9765 0.124283 14.8764 2.03494 14.8764 4.38692C14.8764 6.58863 13.6212 8.70585 12.1808 10.4626C10.8164 12.1265 9.20671 13.5599 8.10779 14.5384C8.03633 14.602 7.96703 14.6637 7.9001 14.7234C7.67255 14.9265 7.32888 14.9265 7.10132 14.7234C7.03439 14.6637 6.9651 14.602 6.89364 14.5384C5.79472 13.5599 4.18498 12.1265 2.82065 10.4626C1.38027 8.70585 0.125 6.58863 0.125 4.38692Z" fill="#FF0852"/>
</svg>
