<svg width="19" height="19" viewBox="0 0 19 19" fill="none" xmlns="http://www.w3.org/2000/svg">
<path fill-rule="evenodd" clip-rule="evenodd" d="M9.50013 1.55078C5.11091 1.55078 1.55273 5.10896 1.55273 9.49818C1.55273 13.8874 5.11091 17.4456 9.50013 17.4456C13.8893 17.4456 17.4475 13.8874 17.4475 9.49818C17.4475 5.10896 13.8893 1.55078 9.50013 1.55078ZM2.69273 9.49818C2.69273 5.73856 5.74052 2.69078 9.50013 2.69078C13.2597 2.69078 16.3075 5.73856 16.3075 9.49818C16.3075 13.2578 13.2597 16.3056 9.50013 16.3056C5.74052 16.3056 2.69273 13.2578 2.69273 9.49818ZM10.4003 5.89891C10.4003 6.39596 9.99733 6.79891 9.50027 6.79891C9.00322 6.79891 8.60027 6.39596 8.60027 5.89891C8.60027 5.40185 9.00322 4.99891 9.50027 4.99891C9.99733 4.99891 10.4003 5.40185 10.4003 5.89891ZM7.70027 7.69891H8.30027H9.50027C9.83164 7.69891 10.1003 7.96754 10.1003 8.29891V12.4989H10.7003H11.3003V13.6989H10.7003H9.50027H8.30027H7.70027V12.4989H8.30027H8.90027V8.89891H8.30027H7.70027V7.69891Z" fill="#48E59B"/>
</svg>
