<svg width="33" height="33" viewBox="0 0 33 33" fill="none" xmlns="http://www.w3.org/2000/svg">
<rect x="4.88889" y="4.88892" width="23.6111" height="23.6111" fill="white" fill-opacity="0.9"/>
<path d="M27.8056 2.11108H5.58334C3.66667 2.11108 2.11111 3.66664 2.11111 5.58331V27.8055C2.11111 29.7222 3.66667 31.2777 5.58334 31.2777H27.8056C29.7222 31.2777 31.2778 29.7222 31.2778 27.8055V5.58331C31.2778 3.66664 29.7222 2.11108 27.8056 2.11108ZM11.1389 13.2222V26.4166H6.97223V13.2222H11.1389ZM6.97223 9.38192C6.97223 8.4097 7.80556 7.66664 9.05556 7.66664C10.3056 7.66664 11.0903 8.4097 11.1389 9.38192C11.1389 10.3541 10.3611 11.1389 9.05556 11.1389C7.80556 11.1389 6.97223 10.3541 6.97223 9.38192ZM26.4167 26.4166H22.25C22.25 26.4166 22.25 19.9861 22.25 19.4722C22.25 18.0833 21.5556 16.6944 19.8194 16.6666H19.7639C18.0833 16.6666 17.3889 18.0972 17.3889 19.4722C17.3889 20.1041 17.3889 26.4166 17.3889 26.4166H13.2222V13.2222H17.3889V15C17.3889 15 18.7292 13.2222 21.4236 13.2222C24.1806 13.2222 26.4167 15.118 26.4167 18.9583V26.4166Z" fill="#313131"/>
<rect x="1.41667" y="1.41664" width="30.5556" height="30.5556" rx="6.25" stroke="white" stroke-opacity="0.99" stroke-width="1.38889"/>
</svg>
