<svg width="205" height="416" viewBox="0 0 205 416" fill="none" xmlns="http://www.w3.org/2000/svg">
<g clip-path="url(#clip0_2993_31302)">
<path fill-rule="evenodd" clip-rule="evenodd" d="M10.5703 9.19006H193.972V406.76H10.5703V9.19006ZM73.702 23.5745C73.702 19.161 77.2799 15.5831 81.6934 15.5831H122.849C127.262 15.5831 130.84 19.161 130.84 23.5745C130.84 27.988 127.262 31.5659 122.849 31.5659H81.6934C77.2799 31.5659 73.702 27.988 73.702 23.5745ZM122.849 19.5788C120.642 19.5788 118.853 21.3677 118.853 23.5745C118.853 25.7813 120.642 27.5702 122.849 27.5702C125.056 27.5702 126.845 25.7813 126.845 23.5745C126.845 21.3677 125.056 19.5788 122.849 19.5788Z" fill="black"/>
</g>
<rect x="10.7701" y="9.38985" width="183.002" height="397.17" rx="24.973" stroke="black" stroke-opacity="0.05" stroke-width="0.399568"/>
<defs>
<clipPath id="clip0_2993_31302">
<rect x="10.5703" y="9.19006" width="183.402" height="397.57" rx="25.1728" fill="white"/>
</clipPath>
</defs>
</svg>
