<svg width="373" height="761" viewBox="0 0 373 761" fill="none" xmlns="http://www.w3.org/2000/svg">
<path fill-rule="evenodd" clip-rule="evenodd" d="M57.6459 14.9538C35.4521 14.9538 17.4605 32.9455 17.4605 55.1392V705.423C17.4605 727.617 35.4522 745.609 57.6459 745.609H314.798C336.992 745.609 354.983 727.617 354.983 705.423V55.1392C354.983 32.9454 336.992 14.9538 314.798 14.9538H57.6459ZM151.67 23.1066C143.682 23.1066 137.205 29.5828 137.205 37.5716C137.205 45.5603 143.682 52.0365 151.67 52.0365H221.684C229.673 52.0365 236.149 45.5603 236.149 37.5716C236.149 29.5828 229.673 23.1066 221.684 23.1066H151.67Z" fill="black"/>
</svg>
