<svg width="44" height="45" viewBox="0 0 44 45" fill="none" xmlns="http://www.w3.org/2000/svg">
<rect y="0.25" width="44" height="44" rx="22" fill="#48E59B" fill-opacity="0.2"/>
<path fill-rule="evenodd" clip-rule="evenodd" d="M14.8008 14.25C14.8008 13.8082 15.159 13.45 15.6008 13.45H28.4008C28.8426 13.45 29.2008 13.8082 29.2008 14.25V31.85C29.2008 32.1408 29.043 32.4087 28.7886 32.5497C28.5342 32.6907 28.2234 32.6825 27.9768 32.5284L22.0008 28.7934L16.0248 32.5284C15.7782 32.6825 15.4673 32.6907 15.213 32.5497C14.9586 32.4087 14.8008 32.1408 14.8008 31.85V14.25ZM16.4008 15.05V30.4066L21.1528 27.4366C21.6716 27.1123 22.3299 27.1123 22.8488 27.4366L27.6008 30.4066V15.05H16.4008Z" fill="#48E59B"/>
</svg>
