<svg width="37" height="38" viewBox="0 0 37 38" fill="none" xmlns="http://www.w3.org/2000/svg">
<path fill-rule="evenodd" clip-rule="evenodd" d="M12.2485 11.9835C12.2485 9.83797 12.8419 8.23345 13.8244 7.17547C14.7949 6.13051 16.2808 5.47206 18.377 5.47206C20.4743 5.47206 21.958 6.12919 22.9262 7.17182C23.9065 8.22756 24.4985 9.83006 24.4985 11.9767V15.3247H12.2485V11.9835ZM9.79852 15.3247V11.9835C9.79852 9.39985 10.5173 7.13619 12.0292 5.50823C13.5532 3.86727 15.7441 3.02206 18.377 3.02206C21.0093 3.02206 23.1988 3.86493 24.7215 5.50469C26.232 7.13136 26.9485 9.39367 26.9485 11.9767V15.3247H29.3984C30.7515 15.3247 31.8484 16.4216 31.8484 17.7747V32.4747C31.8484 33.8278 30.7515 34.9247 29.3984 34.9247H7.34844C5.99534 34.9247 4.89844 33.8278 4.89844 32.4747V17.7747C4.89844 16.4216 5.99534 15.3247 7.34844 15.3247H9.79852ZM7.34844 17.7747L29.3984 17.7747V32.4747H7.34844V17.7747Z" fill="#48E59B"/>
</svg>
