<svg width="54" height="64" viewBox="0 0 54 64" fill="none" xmlns="http://www.w3.org/2000/svg">
<path fill-rule="evenodd" clip-rule="evenodd" d="M15.0042 18.2534C15.0042 14.05 16.1668 10.9064 18.0918 8.83364C19.9931 6.78636 22.9042 5.49635 27.011 5.49635C31.12 5.49635 34.0269 6.78378 35.9238 8.82649C37.8445 10.8949 39.0042 14.0345 39.0042 18.2401V24.7995H15.0042V18.2534ZM10.2042 24.7995V18.2534C10.2042 13.1916 11.6125 8.75667 14.5746 5.56721C17.5603 2.35227 21.8526 0.69635 27.011 0.69635C32.1682 0.69635 36.4579 2.34768 39.4411 5.56028C42.4005 8.74722 43.8042 13.1795 43.8042 18.2401V24.7995H48.6016C51.2525 24.7995 53.4016 26.9486 53.4016 29.5995V58.3995C53.4016 61.0505 51.2525 63.1995 48.6016 63.1995H5.40156C2.7506 63.1995 0.601562 61.0505 0.601562 58.3995V29.5995C0.601562 26.9486 2.75059 24.7995 5.40156 24.7995H10.2042ZM5.40156 29.5995L48.6016 29.5995V58.3995L5.40156 58.3995V29.5995Z" fill="#48E59B"/>
</svg>
