<svg width="48" height="48" viewBox="0 0 48 48" fill="none" xmlns="http://www.w3.org/2000/svg">
<circle cx="24" cy="24" r="24" fill="#E84142"/>
<path fill-rule="evenodd" clip-rule="evenodd" d="M18.5052 31.7797H14.4677C13.6206 31.7797 13.2028 31.7797 12.9486 31.6158C12.814 31.5272 12.7016 31.4087 12.6203 31.2694C12.539 31.1302 12.491 30.974 12.48 30.813C12.48 30.5078 12.6776 30.1403 13.0955 29.4054L23.0565 11.8244C23.4801 11.0782 23.6946 10.6938 23.9657 10.5638C24.1103 10.4912 24.2698 10.4534 24.4316 10.4534C24.5933 10.4534 24.7528 10.4912 24.8974 10.5638C25.1685 10.7051 25.3831 11.0782 25.8066 11.8244L27.8564 15.4028C28.1918 15.9095 28.4577 16.459 28.647 17.0365C28.7598 17.5047 28.7598 17.993 28.647 18.4611C28.4574 19.0449 28.1895 19.6002 27.8507 20.1118L22.6161 29.3715C22.351 29.9258 22.0088 30.4397 21.5996 30.8978C21.2495 31.2352 20.8234 31.4834 20.3573 31.6214C19.7493 31.754 19.1268 31.8072 18.5052 31.7797Z" fill="white"/>
<path fill-rule="evenodd" clip-rule="evenodd" d="M28.693 31.7795H34.4754C35.3281 31.7795 35.7573 31.7794 36.017 31.6099C36.1526 31.5214 36.2653 31.402 36.3458 31.2615C36.4263 31.121 36.4723 30.9633 36.4801 30.8015C36.4801 30.5075 36.2881 30.157 35.9154 29.4617L35.8759 29.3882L32.979 24.4305L32.9451 24.374C32.5386 23.6843 32.3353 23.3338 32.0699 23.2038C31.9271 23.1285 31.7682 23.0892 31.6068 23.0892C31.4455 23.0892 31.2866 23.1285 31.1438 23.2038C30.8784 23.3394 30.6638 23.7012 30.2403 24.4361L27.3547 29.3939C26.9312 30.1231 26.7223 30.4906 26.7392 30.7902C26.747 30.952 26.793 31.1097 26.8735 31.2502C26.954 31.3907 27.0667 31.5101 27.2022 31.5986C27.4112 31.7795 27.8404 31.7795 28.693 31.7795Z" fill="white"/>
</svg>
