<svg width="19" height="19" viewBox="0 0 19 19" fill="none" xmlns="http://www.w3.org/2000/svg">
<path fill-rule="evenodd" clip-rule="evenodd" d="M13.0255 0.318299C12.7131 0.0058795 12.2065 0.00587952 11.8941 0.318299C11.5817 0.630718 11.5817 1.13725 11.8941 1.44967L12.9389 2.49449L5.18096 8.31296L3.40883 6.54084C3.09641 6.22842 2.58988 6.22842 2.27746 6.54084C1.96504 6.85326 1.96504 7.35979 2.27746 7.67221L4.5402 9.93495L6.23717 11.6319L1.0047 16.8644C0.692281 17.1768 0.692281 17.6833 1.0047 17.9957C1.31712 18.3082 1.82365 18.3082 2.13607 17.9957L7.36854 12.7633L9.06569 14.4604L11.3284 16.7232C11.6408 17.0356 12.1474 17.0356 12.4598 16.7232C12.7722 16.4108 12.7722 15.9042 12.4598 15.5918L10.6877 13.8197L16.5062 6.06171L17.551 7.10652C17.8634 7.41894 18.3699 7.41894 18.6823 7.10652C18.9948 6.7941 18.9948 6.28757 18.6823 5.97515L16.9853 4.2781L14.7225 2.01536L13.0255 0.318299ZM6.32381 9.45582L14.0818 3.63734L15.3633 4.91885L9.54481 12.6768L6.32381 9.45582Z" fill="#48E59B"/>
</svg>
