<svg width="36" height="39" viewBox="0 0 36 39" fill="none" xmlns="http://www.w3.org/2000/svg">
<path fill-rule="evenodd" clip-rule="evenodd" d="M19.4109 7.09815C19.4109 6.44359 18.8803 5.91296 18.2257 5.91296C17.5711 5.91296 17.0405 6.44359 17.0405 7.09815V18.1732H6.96643C6.31187 18.1732 5.78125 18.7038 5.78125 19.3583C5.78125 20.0129 6.31187 20.5435 6.96643 20.5435H17.0405V31.6186C17.0405 32.2731 17.5711 32.8037 18.2257 32.8037C18.8803 32.8037 19.4109 32.2731 19.4109 31.6186V20.5435H29.4849C30.1395 20.5435 30.6701 20.0129 30.6701 19.3583C30.6701 18.7038 30.1395 18.1732 29.4849 18.1732H19.4109V7.09815Z" fill="#48E59B"/>
</svg>
