<svg width="234" height="29" viewBox="0 0 234 29" fill="none" xmlns="http://www.w3.org/2000/svg">
<path opacity="0.2" d="M18 14.75H219" stroke="#C6EEDB" stroke-width="1.5" stroke-linecap="round"/>
<rect x="0.5" y="1.25" width="27" height="27" rx="13.5" fill="#48E59B"/>
<rect x="0.5" y="1.25" width="27" height="27" rx="13.5" stroke="#0A4429"/>
<path d="M15.1328 8.34375V19.75H13.0625V10.7578L10.3203 11.6641V9.99219L14.8984 8.34375H15.1328Z" fill="#0A4429"/>
<rect x="0.5" y="1.25" width="27" height="27" rx="13.5" fill="#48E59B"/>
<rect x="0.5" y="1.25" width="27" height="27" rx="13.5" stroke="#0A4429"/>
<path d="M15.1328 8.34375V19.75H13.0625V10.7578L10.3203 11.6641V9.99219L14.8984 8.34375H15.1328Z" fill="#313131"/>
<rect x="206.5" y="1.25" width="27" height="27" rx="13.5" fill="#111111"/>
<rect x="206.5" y="1.25" width="27" height="27" rx="13.5" stroke="#0A4429"/>
<path d="M223.523 18.125V19.75H215.82V18.3594L219.516 14.3672C219.901 13.9297 220.206 13.5495 220.43 13.2266C220.654 12.9036 220.812 12.612 220.906 12.3516C221.005 12.0859 221.055 11.8333 221.055 11.5938C221.055 11.2448 220.992 10.9401 220.867 10.6797C220.742 10.4141 220.56 10.2083 220.32 10.0625C220.086 9.91667 219.797 9.84375 219.453 9.84375C219.073 9.84375 218.747 9.93229 218.477 10.1094C218.211 10.2812 218.008 10.5208 217.867 10.8281C217.732 11.1354 217.664 11.487 217.664 11.8828H215.594C215.594 11.2109 215.75 10.599 216.062 10.0469C216.375 9.48958 216.823 9.04427 217.406 8.71094C217.99 8.3776 218.682 8.21094 219.484 8.21094C220.266 8.21094 220.927 8.34115 221.469 8.60156C222.01 8.85677 222.422 9.22135 222.703 9.69531C222.984 10.1693 223.125 10.7344 223.125 11.3906C223.125 11.7552 223.065 12.1146 222.945 12.4688C222.826 12.8229 222.656 13.1745 222.438 13.5234C222.224 13.8672 221.969 14.2161 221.672 14.5703C221.375 14.9245 221.044 15.2865 220.68 15.6562L218.461 18.125H223.523Z" fill="#0A4429"/>
</svg>
