<svg width="19" height="18" viewBox="0 0 19 18" fill="none" xmlns="http://www.w3.org/2000/svg">
<path fill-rule="evenodd" clip-rule="evenodd" d="M6.10981 15.4242C6.34413 15.1899 6.34413 14.81 6.10981 14.5757L4.73408 13.2H11.0855C14.0679 13.2 16.4855 10.7823 16.4855 7.79998C16.4855 4.81764 14.0679 2.39998 11.0855 2.39998H6.28555C5.95418 2.39998 5.68555 2.6686 5.68555 2.99998C5.68555 3.33135 5.95418 3.59998 6.28555 3.59998H11.0855C13.4051 3.59998 15.2855 5.48038 15.2855 7.79998C15.2855 10.1196 13.4051 12 11.0855 12H4.73407L6.10981 10.6242C6.34413 10.3899 6.34413 10.01 6.10981 9.77571C5.8755 9.5414 5.4956 9.5414 5.26128 9.77571L2.86128 12.1757C2.62697 12.41 2.62697 12.7899 2.86128 13.0242L5.26128 15.4242C5.4956 15.6586 5.8755 15.6586 6.10981 15.4242Z" fill="#111111"/>
</svg>
