<svg width="18" height="18" viewBox="0 0 18 18" fill="none" xmlns="http://www.w3.org/2000/svg">
<path fill-rule="evenodd" clip-rule="evenodd" d="M4.62436 2.57808C4.39005 2.34377 4.01015 2.34377 3.77583 2.57808C3.54152 2.81239 3.54152 3.19229 3.77583 3.42661L8.57583 8.22661C8.81015 8.46092 9.19005 8.46092 9.42436 8.22661L14.2244 3.42661C14.4587 3.19229 14.4587 2.81239 14.2244 2.57808C13.99 2.34377 13.6101 2.34377 13.3758 2.57808L9.0001 6.95382L4.62436 2.57808ZM4.62436 9.77697C4.39005 9.54266 4.01015 9.54266 3.77583 9.77697C3.54152 10.0113 3.54152 10.3912 3.77583 10.6255L8.57583 15.4255C8.81015 15.6598 9.19005 15.6598 9.42436 15.4255L14.2244 10.6255C14.4587 10.3912 14.4587 10.0113 14.2244 9.77697C13.99 9.54266 13.6101 9.54266 13.3758 9.77697L9.0001 14.1527L4.62436 9.77697Z" fill="#48E59B"/>
</svg>
