<svg width="26" height="26" viewBox="0 0 26 26" fill="none" xmlns="http://www.w3.org/2000/svg">
<path fill-rule="evenodd" clip-rule="evenodd" d="M19.0006 10.7143C19.0006 15.1326 15.4188 18.7143 11.0006 18.7143C6.58228 18.7143 3.00056 15.1326 3.00056 10.7143C3.00056 6.29603 6.58228 2.7143 11.0006 2.7143C15.4188 2.7143 19.0006 6.29603 19.0006 10.7143ZM17.4208 18.7508C15.6611 20.1583 13.4291 21 11.0006 21C5.31992 21 0.714844 16.3949 0.714844 10.7143C0.714844 5.03366 5.31992 0.428589 11.0006 0.428589C16.6812 0.428589 21.2863 5.03366 21.2863 10.7143C21.2863 13.1429 20.4446 15.3749 19.037 17.1345L25.523 23.6205C25.9693 24.0668 25.9693 24.7904 25.523 25.2367C25.0767 25.683 24.353 25.683 23.9067 25.2367L17.4208 18.7508Z" fill="#313131"/>
</svg>
