<svg width="24" height="24" viewBox="0 0 24 24" fill="none" xmlns="http://www.w3.org/2000/svg">
<path fill-rule="evenodd" clip-rule="evenodd" d="M12 17.6C7.68456 17.6 4.04724 15.395 1.75396 12.0001C4.04724 8.60511 7.68456 6.40005 12 6.40005C16.3154 6.40005 19.9528 8.60511 22.246 12.0001C19.9528 15.395 16.3154 17.6 12 17.6ZM12 4.80005C6.89257 4.80005 2.65022 7.53025 0.1216 11.5761C-0.0405341 11.8355 -0.0405334 12.1647 0.121602 12.4241C2.65023 16.4698 6.89258 19.2 12 19.2C17.1074 19.2 21.3498 16.4698 23.8784 12.4241C24.0405 12.1647 24.0405 11.8355 23.8784 11.5761C21.3498 7.53025 17.1074 4.80005 12 4.80005ZM12 15.2002C13.7673 15.2002 15.2 13.7676 15.2 12.0002C15.2 10.2329 13.7673 8.80024 12 8.80024C10.2327 8.80024 8.8 10.2329 8.8 12.0002C8.8 13.7676 10.2327 15.2002 12 15.2002Z" fill="#48E59B"/>
</svg>
