<svg width="17" height="17" viewBox="0 0 17 17" fill="none" xmlns="http://www.w3.org/2000/svg">
<path fill-rule="evenodd" clip-rule="evenodd" d="M4.39037 0.5409C4.67154 0.822078 4.67154 1.27796 4.39037 1.55913L2.73948 3.21002H10.3612C13.9401 3.21002 16.8413 6.11121 16.8413 9.69002C16.8413 13.2688 13.9401 16.17 10.3613 16.17H4.60125C4.20361 16.17 3.88125 15.8477 3.88125 15.45C3.88125 15.0524 4.20361 14.73 4.60125 14.73H10.3613C13.1448 14.73 15.4013 12.4735 15.4013 9.69002C15.4013 6.9065 13.1448 4.65002 10.3612 4.65002H2.73948L4.39037 6.3009C4.67154 6.58208 4.67154 7.03796 4.39037 7.31913C4.10919 7.60031 3.65331 7.60031 3.37213 7.31913L0.492133 4.43913C0.210956 4.15796 0.210956 3.70208 0.492133 3.4209L3.37213 0.5409C3.65331 0.259723 4.10919 0.259723 4.39037 0.5409Z" fill="#48E59B"/>
</svg>
