<svg width="22" height="22" viewBox="0 0 22 22" fill="none" xmlns="http://www.w3.org/2000/svg">
<path fill-rule="evenodd" clip-rule="evenodd" d="M7.92001 1.44C7.52236 1.44 7.20001 1.76236 7.20001 2.16C7.20001 2.55765 7.52236 2.88 7.92001 2.88H13.68C14.0777 2.88 14.4 2.55765 14.4 2.16C14.4 1.76236 14.0777 1.44 13.68 1.44H7.92001ZM4.32001 5.04C4.32001 4.64236 4.64236 4.32 5.04001 4.32H7.20001H14.4H16.56C16.9577 4.32 17.28 4.64236 17.28 5.04C17.28 5.43765 16.9577 5.76 16.56 5.76H15.84V17.28C15.84 18.0753 15.1953 18.72 14.4 18.72H7.20001C6.40472 18.72 5.76001 18.0753 5.76001 17.28V5.76L5.04001 5.76C4.64236 5.76 4.32001 5.43765 4.32001 5.04ZM7.20001 5.76H14.4L14.4 17.28H7.20001V5.76Z" fill="#48E59B"/>
</svg>
