<svg width="23" height="23" viewBox="0 0 23 23" fill="none" xmlns="http://www.w3.org/2000/svg">
<path fill-rule="evenodd" clip-rule="evenodd" d="M11.3984 0.450012C9.70948 0.450012 8.32041 1.01079 7.42251 2.1688C6.70239 3.09754 6.36047 4.31269 6.36047 5.68189H7.80047C7.80047 4.54412 8.08401 3.6657 8.5605 3.05118C9.11972 2.32996 10.0347 1.89001 11.3984 1.89001C12.6343 1.89001 13.5077 2.27164 14.0766 2.87819C14.6519 3.49145 15.0005 4.42504 15.0005 5.68587V9.09001H4.92047C4.12518 9.09001 3.48047 9.73473 3.48047 10.53V19.17C3.48047 19.9653 4.12518 20.61 4.92047 20.61H17.8805C18.6758 20.61 19.3205 19.9653 19.3205 19.17V10.53C19.3205 9.73472 18.6758 9.09001 17.8805 9.09001H16.4405V5.68587C16.4405 4.16716 16.0178 2.84282 15.1269 1.89304C14.2297 0.936547 12.9421 0.450012 11.3984 0.450012ZM4.92047 19.17V10.53H17.8805V19.17L4.92047 19.17Z" fill="#48E59B"/>
</svg>
