<svg width="23" height="22" viewBox="0 0 23 22" fill="none" xmlns="http://www.w3.org/2000/svg">
<path fill-rule="evenodd" clip-rule="evenodd" d="M3.34062 10.5074C3.34062 14.8911 6.51899 17.8773 10.088 18.4953C10.4965 18.566 10.7702 18.9544 10.6995 19.3628C10.6288 19.7713 10.2404 20.045 9.83195 19.9743C5.63916 19.2483 1.8396 15.7143 1.8396 10.5074C1.8396 8.29462 2.84633 6.55561 4.022 5.23271C4.86415 4.28509 5.82762 3.51568 6.6025 2.92625L4.24614 2.92625C3.8485 2.92625 3.52614 2.6039 3.52614 2.20625C3.52614 1.80861 3.8485 1.48625 4.24614 1.48625L8.56614 1.48625C8.96379 1.48625 9.28614 1.8086 9.28614 2.20625L9.28614 6.52625C9.28614 6.92389 8.96379 7.24625 8.56614 7.24625C8.1685 7.24625 7.84614 6.92389 7.84614 6.52625L7.84614 3.86858L7.84387 3.87029L7.84385 3.87031C7.02092 4.49095 6.01525 5.24942 5.14397 6.22982C4.11506 7.38759 3.34062 8.7863 3.34062 10.5074ZM19.3356 11.0927C19.3356 6.75534 16.2246 3.7867 12.7015 3.1253C12.2941 3.04882 12.0259 2.65657 12.1024 2.24919C12.1788 1.84182 12.5711 1.57357 12.9785 1.65005C17.1174 2.42707 20.8366 5.9416 20.8366 11.0927C20.8366 13.3055 19.8299 15.0445 18.6542 16.3674C17.8121 17.315 16.8486 18.0845 16.0737 18.6739L18.4303 18.6739C18.8279 18.6739 19.1503 18.9962 19.1503 19.3939C19.1503 19.7915 18.8279 20.1139 18.4303 20.1139L14.1103 20.1139C13.7126 20.1139 13.3903 19.7915 13.3903 19.3939L13.3903 15.0739C13.3903 14.6762 13.7126 14.3539 14.1103 14.3539C14.5079 14.3539 14.8303 14.6762 14.8303 15.0739L14.8303 17.7314L14.8324 17.7298L14.8324 17.7298C15.6553 17.1092 16.661 16.3507 17.5323 15.3703C18.5612 14.2125 19.3356 12.8138 19.3356 11.0927Z" fill="#48E59B"/>
</svg>
