<svg width="49" height="48" viewBox="0 0 49 48" fill="none" xmlns="http://www.w3.org/2000/svg">
<circle cx="24.5" cy="24" r="24" fill="#48E59B" fill-opacity="0.05"/>
<path fill-rule="evenodd" clip-rule="evenodd" d="M24.4953 8.86664C20.2243 8.86664 16.762 12.329 16.762 16.6C16.762 20.1267 19.1227 23.102 22.3501 24.0319C19.8043 24.3427 17.6207 25.2436 15.9756 26.8649C13.8809 28.9293 12.8203 32.0026 12.8203 36.0132C12.8203 36.5728 13.274 37.0265 13.8336 37.0265C14.3933 37.0265 14.847 36.5728 14.847 36.0132C14.847 32.3438 15.813 29.8706 17.3982 28.3083C18.9864 26.7432 21.3573 25.9333 24.5002 25.9333C27.643 25.9333 30.0141 26.7432 31.6023 28.3084C33.1875 29.8706 34.1536 32.3438 34.1535 36.0132C34.1535 36.5728 34.6072 37.0265 35.1668 37.0265C35.7265 37.0265 36.1802 36.5729 36.1802 36.0132C36.1803 32.0026 35.1197 28.9293 33.0248 26.8649C31.3782 25.2421 29.1921 24.3411 26.6434 24.0311C29.8694 23.1002 32.2286 20.1256 32.2286 16.6C32.2286 12.329 28.7663 8.86664 24.4953 8.86664ZM18.7886 16.6C18.7886 13.4483 21.3436 10.8933 24.4953 10.8933C27.647 10.8933 30.202 13.4483 30.202 16.6C30.202 19.7517 27.647 22.3066 24.4953 22.3066C21.3436 22.3066 18.7886 19.7517 18.7886 16.6Z" fill="#C6EEDB"/>
</svg>
