<svg width="640" height="181" viewBox="0 0 640 181" fill="none" xmlns="http://www.w3.org/2000/svg">
<path d="M248.894 109.45C244.394 109.45 240.194 108.45 236.394 106.45C232.694 104.45 229.694 101.65 227.394 97.95C225.194 94.25 224.094 90.1499 224.094 85.6499C224.094 81.1499 225.194 77.05 227.394 73.45C229.594 69.85 232.594 67.05 236.394 64.95C240.194 62.95 244.294 61.95 248.894 61.95C253.394 61.95 257.594 62.95 261.294 64.95C265.094 66.95 268.094 69.75 270.194 73.45C272.394 77.05 273.494 81.1499 273.494 85.6499C273.494 90.1499 272.394 94.25 270.194 97.95C267.994 101.55 264.994 104.35 261.294 106.45C257.594 108.45 253.394 109.45 248.894 109.45ZM248.894 99.1499C252.694 99.1499 255.794 97.95 258.094 95.45C260.394 92.95 261.594 89.7499 261.594 85.6499C261.594 81.5499 260.394 78.2499 258.094 75.8499C255.794 73.3499 252.794 72.1499 248.894 72.1499C244.994 72.1499 241.894 73.3499 239.594 75.7499C237.294 78.1499 236.194 81.4499 236.194 85.5499C236.194 89.6499 237.294 92.9499 239.594 95.3499C241.894 97.9499 244.994 99.1499 248.894 99.1499Z" fill="white"/>
<path d="M291.692 77.3498C292.792 75.6498 294.392 74.2498 296.392 73.1498C298.392 72.0498 300.792 71.5498 303.492 71.5498C306.692 71.5498 309.492 72.3498 312.092 73.8498C314.692 75.3498 316.692 77.5498 318.092 80.4498C319.592 83.3498 320.392 86.6498 320.392 90.4498C320.392 94.2498 319.592 97.5498 318.092 100.45C316.592 103.35 314.592 105.55 312.092 107.15C309.492 108.65 306.692 109.45 303.492 109.45C300.892 109.45 298.492 108.95 296.392 107.85C294.392 106.75 292.792 105.45 291.692 103.75V119.85H279.992V72.0498H291.692V77.3498ZM308.392 90.4498C308.392 87.6498 307.592 85.4498 305.892 83.8498C304.292 82.2498 302.292 81.4498 299.892 81.4498C297.592 81.4498 295.592 82.2498 293.892 83.8498C292.292 85.4498 291.492 87.7498 291.492 90.5498C291.492 93.3498 292.292 95.5498 293.892 97.2498C295.492 98.8498 297.492 99.6498 299.892 99.6498C302.192 99.6498 304.192 98.8498 305.892 97.2498C307.592 95.5498 308.392 93.3498 308.392 90.4498Z" fill="white"/>
<path d="M362.497 89.9498C362.497 91.0498 362.397 92.1498 362.297 93.2498H335.797C335.997 95.5498 336.697 97.3498 338.097 98.5498C339.497 99.7498 341.097 100.35 343.097 100.35C345.997 100.35 348.097 99.1498 349.197 96.7498H361.697C361.097 99.1498 359.897 101.35 358.197 103.25C356.597 105.15 354.497 106.75 351.997 107.85C349.497 108.95 346.697 109.55 343.597 109.55C339.897 109.55 336.497 108.75 333.597 107.25C330.697 105.75 328.397 103.55 326.797 100.65C325.197 97.7498 324.297 94.4498 324.297 90.6498C324.297 86.8498 325.097 83.4498 326.697 80.6498C328.297 77.7498 330.597 75.5498 333.497 74.0498C336.397 72.5498 339.797 71.7498 343.597 71.7498C347.297 71.7498 350.597 72.4498 353.497 73.9498C356.397 75.4498 358.597 77.5498 360.197 80.3498C361.697 83.0498 362.497 86.2498 362.497 89.9498ZM350.497 86.9498C350.497 85.0498 349.797 83.4498 348.397 82.3498C346.997 81.2498 345.297 80.6498 343.297 80.6498C341.297 80.6498 339.697 81.2498 338.297 82.3498C336.997 83.4498 336.197 85.0498 335.797 87.0498H350.497V86.9498Z" fill="white"/>
<path d="M391.995 71.7498C396.495 71.7498 399.995 73.1498 402.695 75.9498C405.395 78.7498 406.695 82.5498 406.695 87.4498V108.95H395.095V88.9498C395.095 86.4498 394.395 84.5498 393.095 83.2498C391.795 81.8498 389.995 81.2498 387.795 81.2498C385.595 81.2498 383.795 81.9498 382.495 83.2498C381.195 84.6498 380.495 86.5498 380.495 88.9498V108.95H368.695V72.0498H380.395V76.9498C381.595 75.3498 383.195 74.0498 385.195 73.1498C387.195 72.2498 389.495 71.7498 391.995 71.7498Z" fill="white"/>
<path d="M432.198 109.45C428.698 109.45 425.498 108.85 422.698 107.75C419.898 106.65 417.698 105.05 415.998 102.85C414.398 100.65 413.498 98.0499 413.398 95.0499H425.898C426.098 96.7499 426.698 98.0499 427.798 99.0499C428.798 99.9499 430.198 100.35 431.898 100.35C433.598 100.35 434.998 99.9499 435.998 99.2499C436.998 98.4499 437.498 97.3499 437.498 96.0499C437.498 94.9499 437.098 93.9499 436.298 93.2499C435.498 92.5499 434.498 91.85 433.398 91.45C432.298 90.95 430.598 90.4499 428.498 89.7499C425.398 88.8499 422.898 87.95 420.898 86.95C418.898 86.05 417.198 84.6499 415.798 82.8499C414.398 81.0499 413.698 78.6499 413.698 75.7499C413.698 71.4499 415.298 68.0499 418.598 65.6499C421.798 63.1499 426.098 61.95 431.298 61.95C436.598 61.95 440.898 63.1499 444.098 65.6499C447.298 68.0499 449.098 71.4499 449.298 75.8499H436.598C436.498 74.3499 435.898 73.1499 434.898 72.3499C433.898 71.4499 432.498 71.0499 430.898 71.0499C429.498 71.0499 428.298 71.4499 427.498 72.1499C426.598 72.8499 426.198 73.8499 426.198 75.2499C426.198 76.7499 426.898 77.9499 428.398 78.7499C429.898 79.5499 432.098 80.45 435.198 81.45C438.298 82.45 440.798 83.4499 442.698 84.3499C444.698 85.2499 446.398 86.6499 447.798 88.3499C449.198 90.1499 449.898 92.3499 449.898 95.1499C449.898 97.7499 449.198 100.15 447.798 102.35C446.398 104.55 444.398 106.25 441.798 107.55C438.998 108.85 435.898 109.45 432.198 109.45Z" fill="white"/>
<path d="M492.997 89.9498C492.997 91.0498 492.897 92.1498 492.797 93.2498H466.297C466.497 95.5498 467.197 97.3498 468.597 98.5498C469.997 99.7498 471.597 100.35 473.597 100.35C476.497 100.35 478.597 99.1498 479.697 96.7498H492.197C491.597 99.1498 490.397 101.35 488.697 103.25C487.097 105.15 484.997 106.75 482.497 107.85C479.997 108.95 477.197 109.55 474.097 109.55C470.397 109.55 466.997 108.75 464.097 107.25C461.197 105.75 458.897 103.55 457.297 100.65C455.697 97.7498 454.797 94.4498 454.797 90.6498C454.797 86.8498 455.597 83.4498 457.197 80.6498C458.797 77.7498 461.097 75.5498 463.997 74.0498C466.897 72.5498 470.297 71.7498 474.097 71.7498C477.797 71.7498 481.097 72.4498 483.997 73.9498C486.897 75.4498 489.097 77.5498 490.697 80.3498C492.197 83.0498 492.997 86.2498 492.997 89.9498ZM480.997 86.9498C480.997 85.0498 480.297 83.4498 478.897 82.3498C477.497 81.2498 475.797 80.6498 473.797 80.6498C471.797 80.6498 470.197 81.2498 468.797 82.3498C467.497 83.4498 466.697 85.0498 466.297 87.0498H480.997V86.9498Z" fill="white"/>
<path d="M496.898 90.4498C496.898 86.6498 497.598 83.3498 499.098 80.4498C500.598 77.5498 502.598 75.3498 505.198 73.8498C507.798 72.3498 510.598 71.5498 513.798 71.5498C516.498 71.5498 518.798 72.0498 520.898 73.1498C522.998 74.2498 524.498 75.5498 525.598 77.3498V72.1498H537.298V109.05H525.598V103.85C524.498 105.55 522.898 106.95 520.798 108.05C518.798 109.15 516.398 109.65 513.698 109.65C510.598 109.65 507.798 108.85 505.198 107.35C502.598 105.75 500.598 103.55 499.098 100.65C497.598 97.6498 496.898 94.2498 496.898 90.4498ZM525.498 90.5498C525.498 87.7498 524.698 85.5498 522.998 83.8498C521.398 82.2498 519.398 81.4498 517.098 81.4498C514.798 81.4498 512.798 82.2498 511.098 83.8498C509.498 85.4498 508.698 87.6498 508.698 90.4498C508.698 93.2498 509.498 95.5498 511.098 97.1498C512.698 98.7498 514.698 99.5498 517.098 99.5498C519.398 99.5498 521.398 98.7498 522.998 97.1498C524.698 95.6498 525.498 93.3498 525.498 90.5498Z" fill="white"/>
<path d="M202.695 90.95C202.695 118.55 180.295 140.95 152.695 140.95C125.095 140.95 102.695 118.55 102.695 90.95C102.695 63.35 125.095 40.95 152.695 40.95C180.295 40.95 202.695 63.35 202.695 90.95Z" fill="#2081E2"/>
<path d="M127.393 92.6498L127.593 92.3498L140.593 72.0498C140.793 71.7498 141.193 71.7498 141.393 72.1498C143.593 77.0498 145.393 83.0498 144.593 86.8498C144.193 88.4498 143.193 90.5498 141.993 92.4498C141.893 92.7498 141.693 93.0498 141.493 93.2498C141.393 93.3498 141.293 93.4498 141.093 93.4498H127.693C127.393 93.3498 127.193 92.9498 127.393 92.6498Z" fill="white"/>
<path d="M185.294 96.45V99.6499C185.294 99.8499 185.194 99.9499 184.994 100.05C183.994 100.45 180.494 102.05 179.094 104.05C175.394 109.15 172.594 116.45 166.394 116.45H140.294C131.094 116.45 123.594 108.95 123.594 99.6499V99.3499C123.594 99.1499 123.794 98.95 123.994 98.95H138.694C138.994 98.95 139.194 99.25 139.194 99.45C139.094 100.35 139.294 101.35 139.694 102.25C140.594 104.05 142.394 105.05 144.294 105.05H151.494V99.45H144.394C143.994 99.45 143.794 99.0499 143.994 98.7499C144.094 98.6499 144.194 98.5499 144.294 98.3499C144.994 97.3499 145.894 95.9499 146.894 94.2499C147.594 93.1499 148.194 91.8499 148.694 90.6499C148.794 90.4499 148.894 90.25 148.994 89.95C149.094 89.55 149.294 89.1499 149.394 88.8499C149.494 88.5499 149.594 88.25 149.694 87.95C149.894 86.95 149.994 85.8499 149.994 84.6499C149.994 84.2499 149.994 83.7499 149.894 83.2499C149.894 82.7499 149.794 82.2499 149.794 81.7499C149.794 81.3499 149.694 80.85 149.594 80.45C149.494 79.75 149.394 79.15 149.194 78.45L149.094 78.2499C148.994 77.8499 148.894 77.35 148.694 76.95C148.294 75.55 147.794 74.15 147.294 72.95C147.094 72.45 146.894 71.95 146.694 71.45C146.394 70.75 146.094 70.05 145.794 69.45C145.694 69.15 145.494 68.9499 145.394 68.6499C145.294 68.3499 145.094 68.0499 144.994 67.7499C144.894 67.5499 144.794 67.3499 144.694 67.1499L143.794 65.5499C143.694 65.3499 143.894 65.0499 144.094 65.1499L149.594 66.6499L150.294 66.8499L151.094 67.0499L151.394 67.1499V63.8499C151.394 62.2499 152.694 60.95 154.194 60.95C154.994 60.95 155.694 61.2499 156.194 61.7499C156.694 62.2499 156.994 62.9499 156.994 63.7499V68.5499L157.594 68.7499C157.594 68.7499 157.694 68.7499 157.694 68.8499C157.794 68.9499 157.994 69.1499 158.294 69.3499C158.494 69.5499 158.694 69.75 158.994 69.95C159.494 70.35 160.194 70.9499 160.894 71.5499C161.094 71.7499 161.294 71.8499 161.394 72.0499C162.294 72.8499 163.294 73.85 164.294 74.95C164.594 75.25 164.794 75.5499 165.094 75.8499C165.394 76.1499 165.594 76.5499 165.894 76.8499C166.194 77.2499 166.594 77.7499 166.894 78.1499C166.994 78.3499 167.194 78.5499 167.294 78.8499C167.694 79.4499 167.994 80.0499 168.394 80.6499C168.494 80.9499 168.694 81.2499 168.794 81.5499C169.194 82.3499 169.494 83.1499 169.594 84.0499C169.694 84.2499 169.694 84.4499 169.694 84.5499C169.794 84.7499 169.794 85.0499 169.794 85.3499C169.894 86.2499 169.794 87.05 169.694 87.95C169.594 88.35 169.494 88.6499 169.394 89.0499C169.294 89.3499 169.194 89.7499 168.994 90.1499C168.694 90.8499 168.294 91.5499 167.894 92.2499C167.794 92.4499 167.594 92.7499 167.394 93.0499C167.194 93.3499 166.994 93.5499 166.894 93.8499C166.694 94.1499 166.394 94.4499 166.194 94.7499C165.994 95.0499 165.794 95.3499 165.494 95.6499C165.194 96.0499 164.794 96.4499 164.494 96.8499C164.294 97.0499 164.094 97.3499 163.794 97.5499C163.594 97.7499 163.394 98.0499 163.094 98.2499C162.794 98.5499 162.494 98.8499 162.194 99.0499L161.594 99.5499C161.494 99.6499 161.394 99.6499 161.294 99.6499H156.894V105.25H162.394C163.594 105.25 164.794 104.85 165.694 104.05C165.994 103.75 167.394 102.55 169.094 100.75C169.194 100.65 169.194 100.65 169.294 100.65L184.494 96.2499C185.094 95.9499 185.294 96.15 185.294 96.45Z" fill="white"/>
</svg>
