<svg width="548" height="540" viewBox="0 0 548 540" fill="none" xmlns="http://www.w3.org/2000/svg">
<g filter="url(#filter0_d_1923_28778)">
<rect x="20" y="16" width="508" height="500" rx="25" fill="black"/>
<rect x="20.625" y="16.625" width="506.75" height="498.75" rx="24.375" stroke="#C6EEDB" stroke-opacity="0.3" stroke-width="1.25"/>
</g>
<path d="M59.07 87.0111V53.1111H79.23V87.0111H59.07ZM74.82 68.0211L78.24 67.7211L77.64 61.1211H60.6L60 67.7211L63.42 68.0211L64.02 64.5411H67.11V77.2011H64.11V80.6211H74.31V77.2011H71.13V64.5411H74.22L74.82 68.0211ZM81.6403 87.0111V53.1111H97.4503V87.0111H81.6403ZM83.9803 68.0511L83.3803 71.5611L86.4703 71.8911L86.9803 69.9711C87.3003 69.8111 87.6203 69.7111 87.9403 69.6711C88.2803 69.6111 88.6503 69.5811 89.0503 69.5811C90.1503 69.5811 90.7903 69.9111 90.9703 70.5711C91.1703 71.2311 91.2703 71.9111 91.2703 72.6111V73.0611C90.6503 72.9811 89.9103 72.9411 89.0503 72.9411C87.5103 72.9411 86.0703 73.2111 84.7303 73.7511C83.4103 74.2911 82.7503 75.3911 82.7503 77.0511C82.7503 78.4711 83.2003 79.4711 84.1003 80.0511C85.0003 80.6311 85.9403 80.9211 86.9203 80.9211C88.0203 80.9211 88.9203 80.6411 89.6203 80.0811C90.3403 79.5211 90.8903 78.9011 91.2703 78.2211V78.2511C91.4703 80.0311 92.4603 80.9211 94.2403 80.9211C95.0803 80.9211 95.8903 80.7111 96.6703 80.2911L96.6403 78.2511C96.4403 78.3111 96.2503 78.3411 96.0703 78.3411C95.4503 78.3411 95.1403 77.9911 95.1403 77.2911V71.4111C95.1403 69.8711 94.6103 68.7211 93.5503 67.9611C92.4903 67.2011 91.2303 66.8211 89.7703 66.8211C88.6703 66.8211 87.7203 66.9111 86.9203 67.0911C86.1403 67.2511 85.1603 67.5711 83.9803 68.0511ZM91.2703 75.1011C91.1703 76.1611 90.8203 76.9411 90.2203 77.4411C89.6403 77.9211 89.0103 78.1611 88.3303 78.1611C87.7503 78.1611 87.3403 78.0111 87.1003 77.7111C86.8603 77.4111 86.7403 77.0411 86.7403 76.6011C86.7403 75.8611 87.0003 75.3711 87.5203 75.1311C88.0403 74.8711 88.6403 74.7411 89.3203 74.7411C89.6403 74.7411 89.9603 74.7611 90.2803 74.8011C90.6203 74.8411 90.9503 74.8811 91.2703 74.9211V75.1011ZM99.8161 87.0111V53.1111H117.006V87.0111H99.8161ZM109.356 80.6211H116.286V77.7111H115.116L111.276 73.3311L114.186 70.0311H115.656V67.0911H108.876V70.0311H110.496L108.516 72.3111H106.266V59.9811H100.446V62.9211H102.396V77.7111H100.596V80.6211H107.496V77.7111H106.266V75.0411H108.276L110.616 77.7111H109.356V80.6211ZM119.398 87.0111V53.1111H134.458V87.0111H119.398ZM133.588 76.3611L130.348 75.7611C130.268 76.1611 130.038 76.6111 129.658 77.1111C129.298 77.6111 128.598 77.8611 127.558 77.8611C125.658 77.8611 124.598 76.7911 124.378 74.6511H133.258C133.398 74.0111 133.468 73.3611 133.468 72.7011C133.448 70.9411 132.848 69.5211 131.668 68.4411C130.508 67.3611 128.988 66.8211 127.108 66.8211C124.968 66.8211 123.298 67.5211 122.098 68.9211C120.918 70.3011 120.328 72.0311 120.328 74.1111C120.328 76.3711 120.978 78.0711 122.278 79.2111C123.598 80.3511 125.268 80.9211 127.288 80.9211C129.228 80.9211 130.738 80.4611 131.818 79.5411C132.898 78.6211 133.488 77.5611 133.588 76.3611ZM129.478 72.4011H124.408C124.528 71.5611 124.808 70.8811 125.248 70.3611C125.688 69.8411 126.308 69.5811 127.108 69.5811C128.028 69.5811 128.668 69.8811 129.028 70.4811C129.408 71.0811 129.558 71.7211 129.478 72.4011ZM136.812 87.0111V53.1111H155.202V87.0111H136.812ZM147.072 80.6211H154.542V77.7111H152.742V71.5011C152.742 69.9011 152.272 68.7211 151.332 67.9611C150.392 67.2011 149.282 66.8211 148.002 66.8211C146.002 66.8211 144.552 67.6011 143.652 69.1611V67.0911H137.832V70.0311H139.782V77.7111H137.982V80.6211H145.452V77.7111H143.652V72.8511C143.672 71.9311 143.932 71.1911 144.432 70.6311C144.932 70.0511 145.642 69.7611 146.562 69.7611C147.322 69.7611 147.892 70.0111 148.272 70.5111C148.672 71.0111 148.872 71.8411 148.872 73.0011V77.7111H147.072V80.6211Z" fill="#70A8F4"/>
<path d="M176.269 272.754L182.472 252.742H187.685L178.901 277.625H175.431L176.269 272.754ZM170.544 252.742L176.713 272.754L177.602 277.625H174.098L165.348 252.742H170.544ZM198.192 259.134V277.625H193.663V259.134H198.192ZM193.355 254.297C193.355 253.625 193.583 253.067 194.039 252.623C194.506 252.178 195.133 251.956 195.919 251.956C196.705 251.956 197.326 252.178 197.781 252.623C198.249 253.067 198.482 253.625 198.482 254.297C198.482 254.958 198.249 255.511 197.781 255.955C197.326 256.399 196.705 256.622 195.919 256.622C195.133 256.622 194.506 256.399 194.039 255.955C193.583 255.511 193.355 254.958 193.355 254.297ZM214.748 259.134V262.381H204.153V259.134H214.748ZM206.99 254.588H211.518V272.293C211.518 272.84 211.592 273.261 211.74 273.558C211.889 273.854 212.111 274.053 212.407 274.156C212.703 274.258 213.056 274.31 213.467 274.31C213.763 274.31 214.036 274.292 214.287 274.258C214.538 274.224 214.748 274.19 214.919 274.156L214.936 277.54C214.56 277.665 214.133 277.767 213.655 277.847C213.187 277.927 212.658 277.967 212.065 277.967C211.051 277.967 210.163 277.796 209.399 277.454C208.636 277.101 208.043 276.537 207.622 275.762C207.2 274.976 206.99 273.939 206.99 272.652V254.588ZM231.442 273.694V265.167C231.442 264.54 231.333 263.999 231.117 263.543C230.9 263.087 230.57 262.734 230.126 262.483C229.681 262.233 229.117 262.107 228.434 262.107C227.83 262.107 227.3 262.21 226.844 262.415C226.4 262.62 226.058 262.911 225.819 263.287C225.58 263.651 225.46 264.073 225.46 264.551H220.931C220.931 263.788 221.114 263.064 221.478 262.381C221.843 261.686 222.361 261.071 223.033 260.535C223.717 259.988 224.532 259.561 225.477 259.253C226.434 258.946 227.505 258.792 228.69 258.792C230.092 258.792 231.339 259.031 232.433 259.51C233.538 259.977 234.404 260.683 235.031 261.629C235.669 262.575 235.988 263.765 235.988 265.201V273.267C235.988 274.19 236.045 274.982 236.158 275.643C236.284 276.292 236.466 276.856 236.705 277.334V277.625H232.108C231.892 277.158 231.726 276.565 231.613 275.848C231.499 275.118 231.442 274.401 231.442 273.694ZM232.074 266.363L232.108 269.046H229.254C228.548 269.046 227.927 269.12 227.391 269.268C226.856 269.405 226.417 269.61 226.075 269.883C225.734 270.145 225.477 270.464 225.306 270.84C225.135 271.205 225.05 271.621 225.05 272.088C225.05 272.544 225.153 272.954 225.358 273.318C225.574 273.683 225.882 273.973 226.281 274.19C226.691 274.395 227.169 274.498 227.716 274.498C228.514 274.498 229.209 274.338 229.801 274.019C230.393 273.689 230.855 273.29 231.185 272.823C231.516 272.356 231.692 271.911 231.715 271.49L233.014 273.438C232.854 273.905 232.615 274.401 232.296 274.925C231.977 275.449 231.567 275.939 231.066 276.395C230.564 276.85 229.961 277.226 229.254 277.522C228.548 277.819 227.727 277.967 226.793 277.967C225.597 277.967 224.526 277.728 223.58 277.249C222.635 276.771 221.888 276.115 221.342 275.284C220.795 274.452 220.521 273.506 220.521 272.447C220.521 271.467 220.704 270.601 221.068 269.849C221.433 269.097 221.974 268.465 222.692 267.952C223.409 267.428 224.298 267.035 225.358 266.773C226.429 266.5 227.653 266.363 229.032 266.363H232.074ZM248.34 251.375V277.625H243.811V251.375H248.34ZM260.932 259.134V277.625H256.403V259.134H260.932ZM256.095 254.297C256.095 253.625 256.323 253.067 256.779 252.623C257.246 252.178 257.873 251.956 258.659 251.956C259.445 251.956 260.066 252.178 260.522 252.623C260.989 253.067 261.222 253.625 261.222 254.297C261.222 254.958 260.989 255.511 260.522 255.955C260.066 256.399 259.445 256.622 258.659 256.622C257.873 256.622 257.246 256.399 256.779 255.955C256.323 255.511 256.095 254.958 256.095 254.297ZM273.25 251.358V277.625H268.739V251.358H273.25ZM284.837 259.134L276.788 268.174L272.43 272.601L270.994 269.097L274.361 264.859L279.385 259.134H284.837ZM280.223 277.625L274.498 269.012L277.506 266.089L285.452 277.625H280.223ZM290.918 275.42C290.918 274.737 291.151 274.161 291.618 273.694C292.086 273.227 292.718 272.994 293.515 272.994C294.313 272.994 294.945 273.227 295.412 273.694C295.879 274.161 296.113 274.737 296.113 275.42C296.113 276.093 295.879 276.662 295.412 277.129C294.945 277.585 294.313 277.813 293.515 277.813C292.718 277.813 292.086 277.585 291.618 277.129C291.151 276.662 290.918 276.093 290.918 275.42ZM319.078 269.439H323.778C323.653 271.102 323.191 272.578 322.394 273.865C321.596 275.141 320.485 276.144 319.061 276.873C317.637 277.602 315.911 277.967 313.883 277.967C312.322 277.967 310.915 277.693 309.662 277.146C308.42 276.588 307.355 275.796 306.466 274.771C305.589 273.734 304.917 272.492 304.449 271.045C303.982 269.587 303.749 267.952 303.749 266.141V264.244C303.749 262.432 303.988 260.797 304.467 259.339C304.945 257.881 305.629 256.639 306.517 255.613C307.417 254.576 308.494 253.779 309.747 253.221C311.012 252.662 312.425 252.383 313.986 252.383C316.014 252.383 317.728 252.759 319.13 253.511C320.531 254.252 321.619 255.271 322.394 256.57C323.169 257.869 323.636 259.362 323.795 261.048H319.095C319.004 260 318.776 259.111 318.412 258.382C318.059 257.653 317.523 257.1 316.805 256.724C316.099 256.337 315.159 256.143 313.986 256.143C313.074 256.143 312.271 256.314 311.576 256.656C310.892 256.998 310.323 257.51 309.867 258.194C309.411 258.866 309.069 259.709 308.842 260.723C308.614 261.726 308.5 262.888 308.5 264.209V266.141C308.5 267.405 308.602 268.539 308.807 269.542C309.012 270.544 309.331 271.393 309.764 272.088C310.197 272.783 310.756 273.313 311.439 273.677C312.123 274.042 312.937 274.224 313.883 274.224C315.034 274.224 315.968 274.042 316.686 273.677C317.415 273.313 317.968 272.777 318.344 272.071C318.731 271.364 318.976 270.487 319.078 269.439ZM335.362 251.375V277.625H330.833V251.375H335.362ZM354.174 273.233V259.134H358.72V277.625H354.448L354.174 273.233ZM354.755 269.405L356.156 269.371C356.156 270.612 356.02 271.757 355.746 272.806C355.473 273.854 355.046 274.765 354.465 275.54C353.895 276.303 353.171 276.902 352.294 277.334C351.417 277.756 350.38 277.967 349.184 277.967C348.272 277.967 347.441 277.841 346.689 277.591C345.937 277.329 345.287 276.924 344.74 276.377C344.205 275.819 343.789 275.107 343.493 274.241C343.197 273.364 343.049 272.31 343.049 271.08V259.134H347.56V271.114C347.56 271.729 347.629 272.242 347.765 272.652C347.913 273.062 348.113 273.398 348.364 273.66C348.626 273.911 348.927 274.093 349.269 274.207C349.622 274.31 349.998 274.361 350.397 274.361C351.491 274.361 352.351 274.144 352.978 273.711C353.616 273.267 354.072 272.675 354.345 271.934C354.618 271.182 354.755 270.339 354.755 269.405ZM366.202 251.375H370.731V273.541L370.286 277.625H366.202V251.375ZM382.625 268.191V268.55C382.625 269.929 382.471 271.194 382.164 272.344C381.868 273.495 381.418 274.492 380.814 275.335C380.21 276.167 379.458 276.816 378.558 277.283C377.669 277.739 376.627 277.967 375.43 277.967C374.291 277.967 373.3 277.745 372.457 277.3C371.625 276.856 370.924 276.229 370.355 275.42C369.785 274.6 369.329 273.637 368.988 272.532C368.646 271.416 368.389 270.197 368.219 268.875V267.901C368.389 266.568 368.646 265.349 368.988 264.244C369.329 263.139 369.785 262.176 370.355 261.355C370.924 260.535 371.625 259.903 372.457 259.458C373.288 259.014 374.268 258.792 375.396 258.792C376.604 258.792 377.658 259.026 378.558 259.493C379.469 259.948 380.221 260.598 380.814 261.441C381.418 262.273 381.868 263.264 382.164 264.415C382.471 265.554 382.625 266.813 382.625 268.191ZM378.096 268.55V268.191C378.096 267.405 378.034 266.665 377.908 265.97C377.783 265.263 377.578 264.642 377.293 264.107C377.008 263.571 376.621 263.15 376.131 262.842C375.641 262.535 375.026 262.381 374.285 262.381C373.579 262.381 372.975 262.5 372.474 262.74C371.984 262.979 371.574 263.309 371.243 263.731C370.924 264.153 370.674 264.648 370.491 265.218C370.321 265.787 370.207 266.403 370.15 267.063V269.729C370.229 270.607 370.417 271.399 370.714 272.105C371.01 272.8 371.448 273.353 372.03 273.763C372.622 274.173 373.385 274.378 374.32 274.378C375.049 274.378 375.658 274.236 376.148 273.951C376.638 273.654 377.025 273.244 377.31 272.72C377.595 272.185 377.795 271.564 377.908 270.857C378.034 270.151 378.096 269.382 378.096 268.55Z" fill="white"/>
<path fill-rule="evenodd" clip-rule="evenodd" d="M321.292 457.002C321.292 454.32 322.034 452.315 323.262 450.992C324.475 449.686 326.332 448.863 328.953 448.863C331.574 448.863 333.429 449.684 334.639 450.987C335.865 452.307 336.605 454.31 336.605 456.994V461.179H321.292V457.002ZM318.23 461.179V457.002C318.23 453.773 319.128 450.943 321.018 448.908C322.923 446.857 325.662 445.8 328.953 445.8C332.243 445.8 334.98 446.854 336.883 448.904C338.771 450.937 339.667 453.765 339.667 456.994V461.179H342.729C344.421 461.179 345.792 462.55 345.792 464.241V482.616C345.792 484.307 344.421 485.679 342.729 485.679H315.167C313.476 485.679 312.104 484.307 312.104 482.616V464.241C312.104 462.55 313.476 461.179 315.167 461.179H318.23ZM315.167 464.241H342.729V482.616H315.167V464.241Z" fill="#48E59B"/>
<path d="M367.153 456.523C366.812 456.523 366.549 456.431 366.365 456.247C366.182 456.063 366.09 455.801 366.09 455.46V448.333C366.09 447.991 366.182 447.729 366.365 447.545C366.549 447.361 366.812 447.27 367.153 447.27H371.734C371.996 447.27 372.193 447.34 372.324 447.48C372.464 447.611 372.534 447.803 372.534 448.057C372.534 448.32 372.464 448.521 372.324 448.661C372.193 448.792 371.996 448.858 371.734 448.858H368.032V451.023H371.432C371.703 451.023 371.904 451.093 372.035 451.233C372.175 451.365 372.245 451.561 372.245 451.824C372.245 452.086 372.175 452.288 372.035 452.428C371.904 452.559 371.703 452.625 371.432 452.625H368.032V454.935H371.734C371.996 454.935 372.193 455.005 372.324 455.145C372.464 455.276 372.534 455.468 372.534 455.722C372.534 455.985 372.464 456.186 372.324 456.326C372.193 456.457 371.996 456.523 371.734 456.523H367.153ZM375.861 456.615C375.616 456.615 375.419 456.549 375.27 456.418C375.122 456.278 375.043 456.103 375.034 455.893C375.034 455.683 375.122 455.468 375.297 455.25L377.331 452.756V453.648L375.441 451.338C375.257 451.111 375.17 450.892 375.178 450.682C375.187 450.472 375.266 450.301 375.415 450.17C375.563 450.039 375.76 449.973 376.005 449.973C376.242 449.973 376.438 450.013 376.596 450.091C376.753 450.17 376.902 450.301 377.042 450.485L378.447 452.283H377.751L379.155 450.485C379.304 450.301 379.457 450.17 379.615 450.091C379.772 450.013 379.965 449.973 380.192 449.973C380.437 449.973 380.634 450.043 380.783 450.183C380.932 450.315 381.006 450.485 381.006 450.695C381.015 450.905 380.927 451.12 380.743 451.338L378.853 453.648V452.756L380.901 455.25C381.085 455.46 381.172 455.67 381.163 455.88C381.155 456.09 381.072 456.265 380.914 456.405C380.765 456.545 380.568 456.615 380.323 456.615C380.087 456.615 379.89 456.575 379.733 456.496C379.584 456.409 379.435 456.278 379.287 456.103L377.751 454.147H378.42L376.885 456.103C376.745 456.269 376.596 456.396 376.438 456.483C376.29 456.571 376.097 456.615 375.861 456.615ZM384.82 459.003C384.496 459.003 384.247 458.916 384.072 458.741C383.906 458.575 383.823 458.325 383.823 457.993V450.971C383.823 450.647 383.906 450.402 384.072 450.236C384.247 450.061 384.488 449.973 384.794 449.973C385.118 449.973 385.363 450.061 385.529 450.236C385.695 450.402 385.778 450.647 385.778 450.971V451.863L385.634 451.351C385.765 450.931 386.028 450.595 386.421 450.341C386.824 450.078 387.283 449.947 387.799 449.947C388.359 449.947 388.849 450.083 389.269 450.354C389.698 450.625 390.031 451.01 390.267 451.509C390.503 452.008 390.621 452.603 390.621 453.294C390.621 453.985 390.503 454.585 390.267 455.092C390.031 455.6 389.703 455.989 389.283 456.26C388.863 456.531 388.368 456.667 387.799 456.667C387.292 456.667 386.841 456.545 386.448 456.3C386.054 456.046 385.787 455.718 385.647 455.315H385.804V457.993C385.804 458.325 385.717 458.575 385.542 458.741C385.376 458.916 385.135 459.003 384.82 459.003ZM387.209 455.184C387.489 455.184 387.734 455.114 387.944 454.974C388.163 454.834 388.329 454.628 388.443 454.357C388.565 454.077 388.626 453.723 388.626 453.294C388.626 452.655 388.495 452.187 388.233 451.89C387.97 451.583 387.629 451.43 387.209 451.43C386.929 451.43 386.679 451.496 386.461 451.627C386.251 451.758 386.084 451.964 385.962 452.244C385.839 452.515 385.778 452.865 385.778 453.294C385.778 453.933 385.909 454.41 386.172 454.725C386.434 455.031 386.78 455.184 387.209 455.184ZM394.143 456.628C393.82 456.628 393.57 456.536 393.395 456.352C393.229 456.16 393.146 455.893 393.146 455.551V451.063C393.146 450.713 393.229 450.446 393.395 450.262C393.57 450.07 393.82 449.973 394.143 449.973C394.458 449.973 394.699 450.07 394.865 450.262C395.04 450.446 395.128 450.713 395.128 451.063V455.551C395.128 455.893 395.045 456.16 394.878 456.352C394.712 456.536 394.467 456.628 394.143 456.628ZM394.143 448.897C393.776 448.897 393.492 448.814 393.29 448.648C393.098 448.473 393.002 448.228 393.002 447.913C393.002 447.589 393.098 447.344 393.29 447.178C393.492 447.003 393.776 446.915 394.143 446.915C394.511 446.915 394.791 447.003 394.983 447.178C395.176 447.344 395.272 447.589 395.272 447.913C395.272 448.228 395.176 448.473 394.983 448.648C394.791 448.814 394.511 448.897 394.143 448.897ZM398.994 456.641C398.662 456.641 398.408 456.553 398.233 456.378C398.058 456.203 397.97 455.954 397.97 455.63V450.971C397.97 450.647 398.053 450.402 398.22 450.236C398.395 450.061 398.635 449.973 398.942 449.973C399.257 449.973 399.497 450.061 399.663 450.236C399.83 450.402 399.913 450.647 399.913 450.971V451.653H399.782C399.887 451.128 400.118 450.721 400.477 450.433C400.836 450.144 401.3 449.982 401.868 449.947C402.087 449.93 402.253 449.986 402.367 450.118C402.49 450.24 402.555 450.446 402.564 450.735C402.582 451.006 402.525 451.22 402.393 451.378C402.271 451.535 402.061 451.631 401.763 451.666L401.462 451.693C400.963 451.736 400.591 451.881 400.346 452.126C400.11 452.371 399.992 452.725 399.992 453.189V455.63C399.992 455.954 399.904 456.203 399.729 456.378C399.563 456.553 399.318 456.641 398.994 456.641ZM407.923 456.667C407.162 456.667 406.506 456.531 405.955 456.26C405.412 455.98 404.992 455.591 404.695 455.092C404.406 454.585 404.261 453.99 404.261 453.307C404.261 452.642 404.401 452.06 404.681 451.561C404.961 451.054 405.351 450.66 405.85 450.38C406.357 450.091 406.93 449.947 407.569 449.947C408.033 449.947 408.453 450.026 408.829 450.183C409.205 450.332 409.529 450.551 409.8 450.84C410.071 451.12 410.277 451.465 410.417 451.876C410.557 452.279 410.627 452.73 410.627 453.228C410.627 453.395 410.575 453.521 410.47 453.609C410.365 453.688 410.211 453.727 410.01 453.727H405.889V452.703H409.196L408.986 452.887C408.986 452.528 408.934 452.231 408.829 451.995C408.724 451.75 408.571 451.566 408.37 451.443C408.177 451.321 407.936 451.26 407.648 451.26C407.324 451.26 407.048 451.334 406.821 451.483C406.593 451.631 406.418 451.846 406.296 452.126C406.173 452.406 406.112 452.743 406.112 453.136V453.241C406.112 453.906 406.265 454.396 406.571 454.711C406.886 455.026 407.35 455.184 407.963 455.184C408.173 455.184 408.413 455.158 408.685 455.105C408.956 455.053 409.21 454.97 409.446 454.856C409.647 454.76 409.826 454.729 409.984 454.764C410.141 454.79 410.264 454.86 410.351 454.974C410.439 455.088 410.487 455.219 410.496 455.368C410.513 455.516 410.483 455.665 410.404 455.814C410.325 455.954 410.194 456.072 410.01 456.168C409.713 456.335 409.376 456.457 409 456.536C408.632 456.623 408.273 456.667 407.923 456.667ZM415.56 456.667C415.175 456.667 414.777 456.632 414.365 456.562C413.963 456.492 413.595 456.374 413.263 456.208C413.088 456.12 412.961 456.011 412.882 455.88C412.812 455.74 412.782 455.6 412.79 455.46C412.799 455.32 412.843 455.193 412.922 455.079C413.009 454.965 413.119 454.891 413.25 454.856C413.39 454.812 413.543 454.825 413.709 454.895C414.068 455.044 414.396 455.149 414.694 455.21C414.991 455.271 415.284 455.302 415.573 455.302C415.949 455.302 416.22 455.245 416.387 455.131C416.562 455.009 416.649 454.851 416.649 454.659C416.649 454.484 416.592 454.353 416.479 454.265C416.365 454.178 416.199 454.116 415.98 454.081L414.602 453.832C414.059 453.736 413.639 453.539 413.342 453.241C413.053 452.935 412.909 452.546 412.909 452.073C412.909 451.636 413.031 451.26 413.276 450.945C413.521 450.621 413.858 450.376 414.287 450.21C414.724 450.035 415.219 449.947 415.77 449.947C416.164 449.947 416.527 449.982 416.859 450.052C417.192 450.122 417.511 450.236 417.817 450.393C417.975 450.472 418.084 450.577 418.145 450.708C418.215 450.84 418.237 450.975 418.211 451.115C418.194 451.255 418.141 451.382 418.054 451.496C417.966 451.61 417.852 451.684 417.712 451.719C417.581 451.754 417.428 451.736 417.253 451.666C416.973 451.535 416.715 451.443 416.479 451.391C416.242 451.33 416.015 451.299 415.796 451.299C415.402 451.299 415.118 451.365 414.943 451.496C414.768 451.618 414.68 451.776 414.68 451.968C414.68 452.117 414.729 452.244 414.825 452.349C414.93 452.445 415.087 452.511 415.297 452.546L416.675 452.795C417.244 452.891 417.677 453.084 417.975 453.373C418.272 453.653 418.421 454.038 418.421 454.528C418.421 455.193 418.159 455.718 417.634 456.103C417.117 456.479 416.426 456.667 415.56 456.667ZM428.941 456.667C428.249 456.667 427.646 456.531 427.129 456.26C426.622 455.989 426.228 455.6 425.948 455.092C425.668 454.585 425.528 453.985 425.528 453.294C425.528 452.778 425.607 452.314 425.764 451.903C425.922 451.491 426.149 451.141 426.447 450.853C426.753 450.555 427.116 450.332 427.536 450.183C427.956 450.026 428.424 449.947 428.941 449.947C429.632 449.947 430.231 450.083 430.739 450.354C431.255 450.625 431.653 451.01 431.933 451.509C432.222 452.008 432.366 452.603 432.366 453.294C432.366 453.819 432.283 454.287 432.117 454.698C431.959 455.11 431.732 455.464 431.434 455.761C431.137 456.059 430.774 456.286 430.345 456.444C429.925 456.593 429.457 456.667 428.941 456.667ZM428.941 455.184C429.229 455.184 429.479 455.114 429.689 454.974C429.899 454.834 430.065 454.628 430.187 454.357C430.31 454.077 430.371 453.723 430.371 453.294C430.371 452.655 430.24 452.187 429.977 451.89C429.715 451.583 429.369 451.43 428.941 451.43C428.661 451.43 428.411 451.496 428.192 451.627C427.982 451.758 427.816 451.964 427.694 452.244C427.58 452.515 427.523 452.865 427.523 453.294C427.523 453.933 427.654 454.41 427.917 454.725C428.179 455.031 428.521 455.184 428.941 455.184ZM435.882 456.641C435.558 456.641 435.309 456.553 435.134 456.378C434.968 456.203 434.884 455.954 434.884 455.63V450.971C434.884 450.647 434.968 450.402 435.134 450.236C435.309 450.061 435.549 449.973 435.856 449.973C436.171 449.973 436.411 450.061 436.578 450.236C436.744 450.402 436.827 450.647 436.827 450.971V451.719L436.683 451.286C436.884 450.857 437.181 450.529 437.575 450.301C437.978 450.065 438.433 449.947 438.94 449.947C439.456 449.947 439.881 450.048 440.213 450.249C440.546 450.441 440.795 450.739 440.961 451.141C441.128 451.535 441.211 452.038 441.211 452.651V455.63C441.211 455.954 441.123 456.203 440.948 456.378C440.782 456.553 440.537 456.641 440.213 456.641C439.898 456.641 439.653 456.553 439.478 456.378C439.312 456.203 439.229 455.954 439.229 455.63V452.743C439.229 452.296 439.146 451.977 438.979 451.785C438.822 451.583 438.577 451.483 438.244 451.483C437.824 451.483 437.488 451.614 437.234 451.876C436.989 452.139 436.866 452.489 436.866 452.926V455.63C436.866 456.304 436.538 456.641 435.882 456.641Z" fill="#ACACAC"/>
<path d="M367.787 482.18C367.391 482.18 367.087 482.069 366.877 481.848C366.667 481.626 366.562 481.317 366.562 480.92V470.788C366.562 470.391 366.673 470.082 366.895 469.86C367.128 469.639 367.443 469.528 367.84 469.528C368.19 469.528 368.464 469.598 368.662 469.738C368.872 469.866 369.065 470.094 369.24 470.42L373.282 477.805H372.687L376.73 470.42C376.905 470.094 377.092 469.866 377.29 469.738C377.5 469.598 377.774 469.528 378.112 469.528C378.509 469.528 378.812 469.639 379.022 469.86C379.244 470.082 379.355 470.391 379.355 470.788V480.92C379.355 481.317 379.25 481.626 379.04 481.848C378.83 482.069 378.527 482.18 378.13 482.18C377.733 482.18 377.424 482.069 377.202 481.848C376.992 481.626 376.887 481.317 376.887 480.92V473.833H377.272L374.017 479.66C373.877 479.882 373.726 480.051 373.562 480.168C373.411 480.273 373.207 480.325 372.95 480.325C372.693 480.325 372.483 480.267 372.32 480.15C372.157 480.034 372.011 479.87 371.882 479.66L368.592 473.815H369.012V480.92C369.012 481.317 368.907 481.626 368.697 481.848C368.499 482.069 368.196 482.18 367.787 482.18ZM386.285 482.215C385.655 482.215 385.089 482.093 384.587 481.848C384.085 481.603 383.695 481.27 383.415 480.85C383.135 480.43 382.995 479.958 382.995 479.433C382.995 478.803 383.158 478.307 383.485 477.945C383.811 477.572 384.342 477.309 385.077 477.158C385.812 476.994 386.786 476.913 388 476.913H388.927V478.278H388.017C387.422 478.278 386.938 478.313 386.565 478.383C386.203 478.441 385.94 478.546 385.777 478.698C385.625 478.849 385.55 479.059 385.55 479.328C385.55 479.654 385.66 479.923 385.882 480.133C386.115 480.343 386.448 480.448 386.88 480.448C387.218 480.448 387.515 480.372 387.772 480.22C388.04 480.057 388.25 479.841 388.402 479.573C388.554 479.293 388.63 478.978 388.63 478.628V476.615C388.63 476.102 388.513 475.74 388.28 475.53C388.046 475.309 387.65 475.198 387.09 475.198C386.775 475.198 386.43 475.239 386.057 475.32C385.695 475.39 385.293 475.513 384.85 475.688C384.593 475.804 384.365 475.834 384.167 475.775C383.969 475.705 383.817 475.589 383.712 475.425C383.607 475.25 383.555 475.064 383.555 474.865C383.555 474.655 383.613 474.457 383.73 474.27C383.846 474.072 384.039 473.926 384.307 473.833C384.855 473.611 385.369 473.459 385.847 473.378C386.337 473.296 386.786 473.255 387.195 473.255C388.093 473.255 388.828 473.389 389.4 473.658C389.983 473.914 390.42 474.317 390.712 474.865C391.004 475.402 391.15 476.096 391.15 476.948V480.833C391.15 481.264 391.045 481.597 390.835 481.83C390.625 482.064 390.321 482.18 389.925 482.18C389.528 482.18 389.219 482.064 388.997 481.83C388.787 481.597 388.682 481.264 388.682 480.833V480.185L388.805 480.29C388.735 480.687 388.583 481.031 388.35 481.323C388.128 481.603 387.842 481.824 387.492 481.988C387.142 482.139 386.74 482.215 386.285 482.215ZM396.236 482.18C395.792 482.18 395.454 482.064 395.221 481.83C394.987 481.597 394.871 481.264 394.871 480.833V474.62C394.871 474.189 394.982 473.862 395.203 473.64C395.437 473.407 395.757 473.29 396.166 473.29C396.586 473.29 396.907 473.407 397.128 473.64C397.35 473.862 397.461 474.189 397.461 474.62V475.53H397.286C397.426 474.83 397.735 474.288 398.213 473.903C398.692 473.518 399.31 473.302 400.068 473.255C400.36 473.232 400.582 473.308 400.733 473.483C400.897 473.646 400.984 473.92 400.996 474.305C401.019 474.667 400.943 474.953 400.768 475.163C400.605 475.373 400.325 475.501 399.928 475.548L399.526 475.583C398.861 475.641 398.365 475.834 398.038 476.16C397.723 476.487 397.566 476.959 397.566 477.578V480.833C397.566 481.264 397.449 481.597 397.216 481.83C396.994 482.064 396.667 482.18 396.236 482.18ZM414.705 482.215C413.212 482.215 412.069 481.661 411.275 480.553C410.494 479.433 410.103 477.852 410.103 475.81C410.103 474.445 410.278 473.296 410.628 472.363C410.989 471.418 411.509 470.706 412.185 470.228C412.874 469.738 413.714 469.493 414.705 469.493C416.21 469.493 417.354 470.035 418.135 471.12C418.917 472.194 419.308 473.757 419.308 475.81C419.308 477.175 419.127 478.336 418.765 479.293C418.415 480.238 417.902 480.961 417.225 481.463C416.549 481.964 415.709 482.215 414.705 482.215ZM414.705 480.01C415.382 480.01 415.884 479.678 416.21 479.013C416.537 478.336 416.7 477.269 416.7 475.81C416.7 474.352 416.537 473.302 416.21 472.66C415.884 472.019 415.382 471.698 414.705 471.698C414.029 471.698 413.527 472.019 413.2 472.66C412.874 473.302 412.71 474.352 412.71 475.81C412.71 477.269 412.874 478.336 413.2 479.013C413.527 479.678 414.029 480.01 414.705 480.01ZM424.446 482.023C424.073 482.023 423.787 481.924 423.588 481.725C423.39 481.527 423.291 481.253 423.291 480.903C423.291 480.541 423.39 480.267 423.588 480.08C423.787 479.894 424.073 479.8 424.446 479.8H426.213V471.908H427.491L424.936 473.465C424.668 473.629 424.417 473.693 424.183 473.658C423.962 473.623 423.769 473.524 423.606 473.36C423.443 473.197 423.332 473.004 423.273 472.783C423.227 472.549 423.25 472.322 423.343 472.1C423.437 471.867 423.612 471.669 423.868 471.505L426.301 470.035C426.546 469.884 426.791 469.761 427.036 469.668C427.293 469.574 427.543 469.528 427.788 469.528C428.138 469.528 428.413 469.621 428.611 469.808C428.821 469.983 428.926 470.257 428.926 470.63V479.8H430.518C430.88 479.8 431.16 479.894 431.358 480.08C431.557 480.267 431.656 480.541 431.656 480.903C431.656 481.264 431.557 481.544 431.358 481.743C431.16 481.929 430.88 482.023 430.518 482.023H424.446ZM442.994 482.023C442.563 482.023 442.242 481.924 442.032 481.725C441.834 481.515 441.734 481.212 441.734 480.815C441.734 480.559 441.799 480.319 441.927 480.098C442.055 479.876 442.23 479.649 442.452 479.415L445.742 475.95C446.232 475.425 446.582 474.959 446.792 474.55C447.014 474.142 447.124 473.734 447.124 473.325C447.124 472.812 446.955 472.421 446.617 472.153C446.29 471.884 445.812 471.75 445.182 471.75C444.844 471.75 444.494 471.803 444.132 471.908C443.782 472.001 443.414 472.159 443.029 472.38C442.773 472.52 442.534 472.573 442.312 472.538C442.102 472.491 441.921 472.392 441.769 472.24C441.618 472.077 441.519 471.884 441.472 471.663C441.425 471.441 441.449 471.219 441.542 470.998C441.635 470.776 441.81 470.589 442.067 470.438C442.58 470.123 443.14 469.889 443.747 469.738C444.354 469.574 444.954 469.493 445.549 469.493C446.471 469.493 447.247 469.633 447.877 469.913C448.507 470.181 448.985 470.578 449.312 471.103C449.639 471.628 449.802 472.269 449.802 473.028C449.802 473.518 449.726 473.996 449.574 474.463C449.423 474.929 449.184 475.402 448.857 475.88C448.542 476.347 448.122 476.849 447.597 477.385L444.534 480.5V479.8H449.277C449.65 479.8 449.93 479.894 450.117 480.08C450.315 480.267 450.414 480.541 450.414 480.903C450.414 481.264 450.315 481.544 450.117 481.743C449.93 481.929 449.65 482.023 449.277 482.023H442.994ZM458.073 482.215C456.579 482.215 455.436 481.661 454.643 480.553C453.861 479.433 453.47 477.852 453.47 475.81C453.47 474.445 453.645 473.296 453.995 472.363C454.357 471.418 454.876 470.706 455.553 470.228C456.241 469.738 457.081 469.493 458.073 469.493C459.578 469.493 460.721 470.035 461.503 471.12C462.284 472.194 462.675 473.757 462.675 475.81C462.675 477.175 462.494 478.336 462.133 479.293C461.783 480.238 461.269 480.961 460.593 481.463C459.916 481.964 459.076 482.215 458.073 482.215ZM458.073 480.01C458.749 480.01 459.251 479.678 459.578 479.013C459.904 478.336 460.068 477.269 460.068 475.81C460.068 474.352 459.904 473.302 459.578 472.66C459.251 472.019 458.749 471.698 458.073 471.698C457.396 471.698 456.894 472.019 456.568 472.66C456.241 473.302 456.078 474.352 456.078 475.81C456.078 477.269 456.241 478.336 456.568 479.013C456.894 479.678 457.396 480.01 458.073 480.01ZM467.481 482.023C467.049 482.023 466.728 481.924 466.518 481.725C466.32 481.515 466.221 481.212 466.221 480.815C466.221 480.559 466.285 480.319 466.413 480.098C466.542 479.876 466.717 479.649 466.938 479.415L470.228 475.95C470.718 475.425 471.068 474.959 471.278 474.55C471.5 474.142 471.611 473.734 471.611 473.325C471.611 472.812 471.442 472.421 471.103 472.153C470.777 471.884 470.298 471.75 469.668 471.75C469.33 471.75 468.98 471.803 468.618 471.908C468.268 472.001 467.901 472.159 467.516 472.38C467.259 472.52 467.02 472.573 466.798 472.538C466.588 472.491 466.407 472.392 466.256 472.24C466.104 472.077 466.005 471.884 465.958 471.663C465.912 471.441 465.935 471.219 466.028 470.998C466.122 470.776 466.297 470.589 466.553 470.438C467.067 470.123 467.627 469.889 468.233 469.738C468.84 469.574 469.441 469.493 470.036 469.493C470.957 469.493 471.733 469.633 472.363 469.913C472.993 470.181 473.472 470.578 473.798 471.103C474.125 471.628 474.288 472.269 474.288 473.028C474.288 473.518 474.212 473.996 474.061 474.463C473.909 474.929 473.67 475.402 473.343 475.88C473.028 476.347 472.608 476.849 472.083 477.385L469.021 480.5V479.8H473.763C474.137 479.8 474.417 479.894 474.603 480.08C474.802 480.267 474.901 480.541 474.901 480.903C474.901 481.264 474.802 481.544 474.603 481.743C474.417 481.929 474.137 482.023 473.763 482.023H467.481ZM482.576 482.215C481.981 482.215 481.369 482.139 480.739 481.988C480.109 481.836 479.531 481.609 479.006 481.305C478.738 481.154 478.551 480.967 478.446 480.745C478.353 480.524 478.324 480.296 478.359 480.063C478.406 479.829 478.499 479.631 478.639 479.468C478.791 479.293 478.977 479.182 479.199 479.135C479.432 479.089 479.689 479.141 479.969 479.293C480.377 479.503 480.791 479.666 481.211 479.783C481.643 479.899 482.081 479.958 482.524 479.958C482.967 479.958 483.346 479.882 483.661 479.73C483.976 479.579 484.216 479.369 484.379 479.1C484.542 478.832 484.624 478.517 484.624 478.155C484.624 477.595 484.443 477.146 484.081 476.808C483.731 476.469 483.253 476.3 482.646 476.3C482.343 476.3 482.034 476.353 481.719 476.458C481.416 476.551 481.101 476.72 480.774 476.965C480.657 477.059 480.506 477.146 480.319 477.228C480.132 477.309 479.934 477.35 479.724 477.35C479.362 477.35 479.094 477.269 478.919 477.105C478.744 476.93 478.656 476.679 478.656 476.353V470.858C478.656 470.473 478.756 470.181 478.954 469.983C479.164 469.784 479.456 469.685 479.829 469.685H485.446C485.831 469.685 486.123 469.784 486.321 469.983C486.52 470.169 486.619 470.444 486.619 470.805C486.619 471.155 486.52 471.429 486.321 471.628C486.123 471.814 485.831 471.908 485.446 471.908H481.264V475.25H480.599C480.891 474.889 481.276 474.609 481.754 474.41C482.232 474.212 482.757 474.113 483.329 474.113C484.111 474.113 484.793 474.282 485.376 474.62C485.96 474.947 486.415 475.408 486.741 476.003C487.068 476.598 487.231 477.286 487.231 478.068C487.231 478.884 487.045 479.608 486.671 480.238C486.298 480.856 485.761 481.34 485.061 481.69C484.361 482.04 483.533 482.215 482.576 482.215Z" fill="#EDEDED"/>
<path d="M61.7776 452.812V453.402C61.7776 454.103 61.69 454.731 61.5148 455.286C61.3397 455.842 61.0876 456.314 60.7586 456.702C60.4296 457.091 60.0344 457.388 59.573 457.593C59.1158 457.798 58.6031 457.901 58.0349 457.901C57.4838 457.901 56.9775 457.798 56.5161 457.593C56.0589 457.388 55.6616 457.091 55.324 456.702C54.9908 456.314 54.7323 455.842 54.5486 455.286C54.3649 454.731 54.273 454.103 54.273 453.402V452.812C54.273 452.112 54.3627 451.486 54.5422 450.935C54.7259 450.379 54.9844 449.907 55.3176 449.518C55.6509 449.125 56.0461 448.826 56.5032 448.621C56.9647 448.416 57.4709 448.313 58.0221 448.313C58.5903 448.313 59.103 448.416 59.5602 448.621C60.0216 448.826 60.4168 449.125 60.7458 449.518C61.079 449.907 61.3333 450.379 61.5084 450.935C61.6879 451.486 61.7776 452.112 61.7776 452.812ZM60.5535 453.402V452.8C60.5535 452.244 60.4958 451.753 60.3805 451.326C60.2694 450.898 60.1049 450.539 59.887 450.249C59.6691 449.958 59.4021 449.738 59.0859 449.589C58.774 449.439 58.4194 449.365 58.0221 449.365C57.6376 449.365 57.2894 449.439 56.9775 449.589C56.6699 449.738 56.405 449.958 56.1828 450.249C55.9649 450.539 55.7961 450.898 55.6765 451.326C55.5569 451.753 55.4971 452.244 55.4971 452.8V453.402C55.4971 453.962 55.5569 454.457 55.6765 454.889C55.7961 455.316 55.967 455.677 56.1892 455.972C56.4156 456.262 56.6827 456.482 56.9903 456.632C57.3022 456.781 57.6504 456.856 58.0349 456.856C58.4365 456.856 58.7933 456.781 59.1052 456.632C59.4171 456.482 59.6798 456.262 59.8934 455.972C60.1113 455.677 60.2758 455.316 60.3869 454.889C60.498 454.457 60.5535 453.962 60.5535 453.402ZM66.5187 456.542L68.3004 450.839H69.0822L68.9284 451.973L67.1147 457.773H66.3521L66.5187 456.542ZM65.3203 450.839L66.8392 456.606L66.9481 457.773H66.147L64.1347 450.839H65.3203ZM70.7869 456.561L72.2353 450.839H73.4145L71.4022 457.773H70.6075L70.7869 456.561ZM69.2552 450.839L70.9984 456.446L71.1971 457.773H70.4409L68.5759 451.96L68.4221 450.839H69.2552ZM77.1302 452.319V457.773H75.9446V450.839H77.0662L77.1302 452.319ZM76.8483 454.043L76.3548 454.024C76.3591 453.549 76.4296 453.111 76.5663 452.71C76.703 452.304 76.8953 451.951 77.1431 451.652C77.3909 451.353 77.6857 451.123 78.0275 450.96C78.3735 450.794 78.7559 450.71 79.1746 450.71C79.5164 450.71 79.824 450.757 80.0975 450.851C80.3709 450.941 80.6038 451.086 80.796 451.287C80.9926 451.488 81.1421 451.749 81.2446 452.069C81.3472 452.385 81.3984 452.772 81.3984 453.229V457.773H80.2064V453.216C80.2064 452.853 80.153 452.562 80.0462 452.345C79.9394 452.122 79.7834 451.962 79.5784 451.864C79.3733 451.761 79.1212 451.71 78.8221 451.71C78.5273 451.71 78.2582 451.772 78.0146 451.896C77.7754 452.02 77.5682 452.191 77.393 452.409C77.2221 452.627 77.0875 452.876 76.9893 453.158C76.8953 453.436 76.8483 453.731 76.8483 454.043ZM87.3893 457.901C86.9065 457.901 86.4686 457.82 86.0755 457.657C85.6867 457.491 85.3513 457.258 85.0693 456.959C84.7916 456.66 84.578 456.305 84.4285 455.895C84.2789 455.485 84.2042 455.036 84.2042 454.549V454.28C84.2042 453.716 84.2875 453.214 84.4541 452.774C84.6207 452.33 84.8472 451.954 85.1334 451.646C85.4197 451.338 85.7444 451.106 86.1075 450.947C86.4707 450.789 86.8467 450.71 87.2355 450.71C87.7311 450.71 88.1583 450.796 88.5172 450.967C88.8804 451.138 89.1773 451.377 89.408 451.684C89.6387 451.988 89.8096 452.347 89.9207 452.761C90.0318 453.171 90.0873 453.62 90.0873 454.107V454.639H84.9091V453.671H88.9017V453.581C88.8846 453.274 88.8206 452.975 88.7095 452.684C88.6027 452.394 88.4318 452.154 88.1968 451.966C87.9618 451.778 87.6414 451.684 87.2355 451.684C86.9663 451.684 86.7185 451.742 86.4921 451.857C86.2656 451.969 86.0712 452.135 85.9089 452.357C85.7465 452.58 85.6205 452.851 85.5308 453.171C85.441 453.492 85.3962 453.861 85.3962 454.28V454.549C85.3962 454.878 85.441 455.188 85.5308 455.478C85.6248 455.765 85.7593 456.017 85.9345 456.235C86.114 456.453 86.3297 456.623 86.5818 456.747C86.8381 456.871 87.1287 456.933 87.4534 456.933C87.8721 456.933 88.2267 456.848 88.5172 456.677C88.8077 456.506 89.062 456.277 89.2798 455.991L89.9976 456.561C89.8481 456.788 89.658 457.004 89.4272 457.209C89.1965 457.414 88.9124 457.58 88.5749 457.709C88.2416 457.837 87.8464 457.901 87.3893 457.901ZM97.1548 456.427V447.929H98.3469V457.773H97.2574L97.1548 456.427ZM92.4893 454.383V454.248C92.4893 453.718 92.5534 453.237 92.6816 452.806C92.814 452.37 92.9999 451.996 93.2391 451.684C93.4827 451.373 93.7711 451.133 94.1043 450.967C94.4418 450.796 94.8178 450.71 95.2322 450.71C95.668 450.71 96.0483 450.787 96.373 450.941C96.702 451.091 96.9797 451.311 97.2061 451.601C97.4368 451.887 97.6184 452.233 97.7509 452.639C97.8833 453.045 97.9752 453.505 98.0264 454.017V454.607C97.9794 455.115 97.8876 455.572 97.7509 455.978C97.6184 456.384 97.4368 456.73 97.2061 457.016C96.9797 457.303 96.702 457.523 96.373 457.677C96.044 457.826 95.6595 457.901 95.2194 457.901C94.8135 457.901 94.4418 457.813 94.1043 457.638C93.7711 457.463 93.4827 457.217 93.2391 456.901C92.9999 456.585 92.814 456.213 92.6816 455.786C92.5534 455.354 92.4893 454.887 92.4893 454.383ZM93.6813 454.248V454.383C93.6813 454.729 93.7155 455.053 93.7839 455.357C93.8565 455.66 93.9676 455.927 94.1171 456.158C94.2667 456.388 94.4568 456.57 94.6875 456.702C94.9182 456.831 95.1938 456.895 95.5142 456.895C95.9073 456.895 96.2299 456.811 96.4819 456.645C96.7383 456.478 96.9434 456.258 97.0972 455.985C97.251 455.711 97.3706 455.414 97.4561 455.094V453.549C97.4048 453.314 97.33 453.088 97.2318 452.87C97.1378 452.648 97.0139 452.451 96.86 452.28C96.7105 452.105 96.5247 451.966 96.3025 451.864C96.0846 451.761 95.8261 451.71 95.527 451.71C95.2023 451.71 94.9225 451.778 94.6875 451.915C94.4568 452.048 94.2667 452.231 94.1171 452.466C93.9676 452.697 93.8565 452.966 93.7839 453.274C93.7155 453.577 93.6813 453.902 93.6813 454.248ZM106.067 447.929H107.259V456.427L107.156 457.773H106.067V447.929ZM111.944 454.248V454.383C111.944 454.887 111.884 455.354 111.764 455.786C111.644 456.213 111.469 456.585 111.239 456.901C111.008 457.217 110.726 457.463 110.393 457.638C110.059 457.813 109.677 457.901 109.245 457.901C108.805 457.901 108.419 457.826 108.086 457.677C107.757 457.523 107.479 457.303 107.252 457.016C107.026 456.73 106.844 456.384 106.708 455.978C106.575 455.572 106.483 455.115 106.432 454.607V454.017C106.483 453.505 106.575 453.045 106.708 452.639C106.844 452.233 107.026 451.887 107.252 451.601C107.479 451.311 107.757 451.091 108.086 450.941C108.414 450.787 108.797 450.71 109.233 450.71C109.668 450.71 110.055 450.796 110.393 450.967C110.73 451.133 111.012 451.373 111.239 451.684C111.469 451.996 111.644 452.37 111.764 452.806C111.884 453.237 111.944 453.718 111.944 454.248ZM110.752 454.383V454.248C110.752 453.902 110.719 453.577 110.655 453.274C110.591 452.966 110.489 452.697 110.348 452.466C110.207 452.231 110.021 452.048 109.79 451.915C109.56 451.778 109.275 451.71 108.938 451.71C108.639 451.71 108.378 451.761 108.156 451.864C107.938 451.966 107.752 452.105 107.598 452.28C107.445 452.451 107.319 452.648 107.22 452.87C107.126 453.088 107.056 453.314 107.009 453.549V455.094C107.077 455.393 107.188 455.681 107.342 455.959C107.5 456.232 107.71 456.457 107.97 456.632C108.235 456.807 108.562 456.895 108.951 456.895C109.271 456.895 109.545 456.831 109.771 456.702C110.002 456.57 110.188 456.388 110.329 456.158C110.474 455.927 110.581 455.66 110.649 455.357C110.717 455.053 110.752 454.729 110.752 454.383ZM116.627 457.055L118.556 450.839H119.825L117.044 458.843C116.979 459.014 116.894 459.198 116.787 459.394C116.685 459.595 116.552 459.785 116.39 459.964C116.228 460.144 116.031 460.289 115.8 460.4C115.574 460.516 115.303 460.573 114.986 460.573C114.892 460.573 114.773 460.56 114.628 460.535C114.482 460.509 114.38 460.488 114.32 460.471L114.313 459.509C114.348 459.514 114.401 459.518 114.474 459.522C114.551 459.531 114.604 459.535 114.634 459.535C114.903 459.535 115.132 459.499 115.32 459.426C115.508 459.358 115.666 459.24 115.794 459.074C115.926 458.911 116.04 458.687 116.134 458.401L116.627 457.055ZM115.211 450.839L117.012 456.222L117.319 457.471L116.467 457.907L113.916 450.839H115.211Z" fill="#ACACAC"/>
<path d="M62.4204 477.061V478.958C62.4204 479.977 62.3293 480.838 62.147 481.538C61.9647 482.239 61.7026 482.803 61.3608 483.23C61.019 483.657 60.606 483.968 60.1218 484.162C59.6433 484.35 59.1021 484.444 58.4983 484.444C58.0198 484.444 57.5783 484.384 57.1738 484.264C56.7694 484.145 56.4048 483.954 56.0801 483.692C55.7611 483.424 55.4876 483.076 55.2598 482.649C55.0319 482.222 54.8582 481.704 54.7385 481.094C54.6189 480.484 54.5591 479.772 54.5591 478.958V477.061C54.5591 476.041 54.6502 475.187 54.8325 474.497C55.0205 473.808 55.2854 473.255 55.6272 472.84C55.969 472.418 56.3792 472.116 56.8577 471.934C57.3419 471.752 57.8831 471.66 58.4812 471.66C58.9654 471.66 59.4097 471.72 59.8142 471.84C60.2244 471.954 60.5889 472.139 60.908 472.395C61.227 472.646 61.4976 472.982 61.7197 473.404C61.9476 473.819 62.1213 474.329 62.241 474.933C62.3606 475.537 62.4204 476.246 62.4204 477.061ZM60.8311 479.214V476.796C60.8311 476.238 60.7969 475.748 60.7285 475.326C60.6659 474.899 60.5719 474.534 60.4465 474.232C60.3212 473.931 60.1617 473.686 59.968 473.498C59.78 473.31 59.5607 473.173 59.3101 473.087C59.0651 472.996 58.7888 472.951 58.4812 472.951C58.1052 472.951 57.772 473.022 57.4814 473.164C57.1909 473.301 56.946 473.52 56.7466 473.822C56.5529 474.124 56.4048 474.52 56.3022 475.01C56.1997 475.5 56.1484 476.095 56.1484 476.796V479.214C56.1484 479.772 56.1798 480.265 56.2424 480.692C56.3108 481.12 56.4105 481.49 56.5415 481.803C56.6725 482.111 56.832 482.364 57.02 482.564C57.208 482.763 57.4245 482.911 57.6694 483.008C57.9201 483.099 58.1964 483.145 58.4983 483.145C58.8857 483.145 59.2246 483.071 59.5151 482.923C59.8057 482.774 60.0478 482.544 60.2415 482.23C60.4408 481.911 60.5889 481.504 60.6858 481.009C60.7826 480.507 60.8311 479.909 60.8311 479.214ZM67.4431 475.027L69.4683 478.394L71.519 475.027H73.3733L70.3484 479.59L73.4673 484.273H71.6387L69.5024 480.803L67.3662 484.273H65.5291L68.6394 479.59L65.623 475.027H67.4431ZM78.9429 477.274H80.0708C80.6234 477.274 81.0791 477.183 81.438 477.001C81.8026 476.813 82.0732 476.559 82.2498 476.24C82.432 475.916 82.5232 475.551 82.5232 475.147C82.5232 474.668 82.4434 474.267 82.2839 473.942C82.1244 473.617 81.8852 473.372 81.5662 473.207C81.2472 473.042 80.8427 472.959 80.3528 472.959C79.9084 472.959 79.5154 473.048 79.1736 473.224C78.8375 473.395 78.5726 473.64 78.3789 473.959C78.1909 474.278 78.0969 474.654 78.0969 475.087H76.5161C76.5161 474.455 76.6756 473.879 76.9946 473.361C77.3136 472.842 77.7608 472.429 78.3362 472.122C78.9172 471.814 79.5894 471.66 80.3528 471.66C81.1047 471.66 81.7627 471.794 82.3267 472.062C82.8906 472.324 83.3293 472.717 83.6426 473.241C83.9559 473.76 84.1125 474.406 84.1125 475.181C84.1125 475.494 84.0385 475.83 83.8904 476.189C83.748 476.542 83.5229 476.873 83.2153 477.18C82.9134 477.488 82.5203 477.742 82.0361 477.941C81.5519 478.135 80.9709 478.231 80.293 478.231H78.9429V477.274ZM78.9429 478.573V477.625H80.293C81.0848 477.625 81.7399 477.719 82.2583 477.907C82.7767 478.095 83.184 478.345 83.4802 478.659C83.7821 478.972 83.9929 479.317 84.1125 479.693C84.2379 480.063 84.3005 480.433 84.3005 480.803C84.3005 481.385 84.2008 481.9 84.0015 482.35C83.8078 482.8 83.5315 483.182 83.1726 483.495C82.8194 483.808 82.4036 484.045 81.925 484.204C81.4465 484.364 80.9253 484.444 80.3613 484.444C79.8201 484.444 79.3103 484.367 78.8318 484.213C78.359 484.059 77.9403 483.837 77.5757 483.546C77.2111 483.25 76.9263 482.888 76.7212 482.461C76.5161 482.028 76.4136 481.535 76.4136 480.983H77.9944C77.9944 481.416 78.0884 481.795 78.2764 482.119C78.4701 482.444 78.7435 482.698 79.0967 482.88C79.4556 483.056 79.8771 483.145 80.3613 483.145C80.8455 483.145 81.2614 483.062 81.6089 482.897C81.9621 482.726 82.2327 482.47 82.4207 482.128C82.6143 481.786 82.7112 481.356 82.7112 480.838C82.7112 480.319 82.6029 479.895 82.3865 479.564C82.17 479.228 81.8624 478.981 81.4636 478.821C81.0706 478.656 80.6063 478.573 80.0708 478.573H78.9429ZM89.8018 482.948H89.9641C90.8756 482.948 91.6161 482.82 92.1858 482.564C92.7555 482.307 93.1941 481.963 93.5017 481.53C93.8093 481.097 94.0201 480.61 94.134 480.069C94.248 479.522 94.3049 478.961 94.3049 478.385V476.48C94.3049 475.916 94.2394 475.414 94.1084 474.976C93.9831 474.537 93.8065 474.17 93.5786 473.874C93.3564 473.577 93.1029 473.352 92.8181 473.198C92.5333 473.045 92.2314 472.968 91.9124 472.968C91.5478 472.968 91.2202 473.042 90.9297 473.19C90.6449 473.332 90.4028 473.535 90.2034 473.797C90.0097 474.059 89.8616 474.366 89.759 474.719C89.6565 475.073 89.6052 475.457 89.6052 475.873C89.6052 476.243 89.6508 476.602 89.7419 476.95C89.8331 477.297 89.9727 477.611 90.1606 477.89C90.3486 478.169 90.5822 478.391 90.8613 478.556C91.1462 478.716 91.4794 478.795 91.8611 478.795C92.2143 478.795 92.5447 478.727 92.8523 478.59C93.1656 478.448 93.4419 478.257 93.6812 478.018C93.9261 477.773 94.1198 477.497 94.2622 477.189C94.4103 476.881 94.4958 476.559 94.5186 476.223H95.2705C95.2705 476.696 95.1765 477.163 94.9885 477.625C94.8062 478.08 94.5499 478.496 94.2195 478.872C93.8891 479.248 93.5017 479.55 93.0574 479.778C92.613 480 92.1288 480.111 91.6047 480.111C90.9895 480.111 90.4569 479.992 90.0068 479.752C89.5568 479.513 89.1865 479.194 88.896 478.795C88.6112 478.397 88.3975 477.952 88.2551 477.462C88.1184 476.967 88.05 476.465 88.05 475.958C88.05 475.366 88.1326 474.811 88.2979 474.292C88.4631 473.774 88.708 473.318 89.0327 472.925C89.3574 472.526 89.759 472.216 90.2375 471.994C90.7218 471.771 91.28 471.66 91.9124 471.66C92.6244 471.66 93.2311 471.803 93.7324 472.088C94.2337 472.372 94.641 472.754 94.9543 473.233C95.2734 473.711 95.5069 474.25 95.655 474.848C95.8031 475.446 95.8772 476.061 95.8772 476.693V477.266C95.8772 477.91 95.8345 478.565 95.749 479.231C95.6693 479.892 95.5126 480.524 95.2791 481.128C95.0512 481.732 94.7179 482.273 94.2793 482.752C93.8407 483.225 93.2681 483.601 92.5618 483.88C91.8611 484.153 90.9952 484.29 89.9641 484.29H89.8018V482.948ZM107.975 482.974V484.273H99.8318V483.136L103.908 478.599C104.409 478.041 104.796 477.568 105.07 477.18C105.349 476.787 105.543 476.437 105.651 476.129C105.765 475.816 105.822 475.497 105.822 475.172C105.822 474.762 105.736 474.392 105.565 474.062C105.4 473.725 105.155 473.458 104.831 473.258C104.506 473.059 104.113 472.959 103.651 472.959C103.099 472.959 102.637 473.067 102.267 473.284C101.903 473.495 101.629 473.791 101.447 474.173C101.264 474.554 101.173 474.993 101.173 475.489H99.5925C99.5925 474.788 99.7463 474.147 100.054 473.566C100.362 472.985 100.817 472.523 101.421 472.182C102.025 471.834 102.768 471.66 103.651 471.66C104.438 471.66 105.11 471.8 105.668 472.079C106.226 472.353 106.653 472.74 106.95 473.241C107.252 473.737 107.403 474.318 107.403 474.984C107.403 475.349 107.34 475.719 107.215 476.095C107.095 476.465 106.927 476.836 106.71 477.206C106.5 477.576 106.252 477.941 105.967 478.3C105.688 478.659 105.389 479.012 105.07 479.359L101.737 482.974H107.975ZM113.724 477.274H114.852C115.405 477.274 115.86 477.183 116.219 477.001C116.584 476.813 116.854 476.559 117.031 476.24C117.213 475.916 117.304 475.551 117.304 475.147C117.304 474.668 117.225 474.267 117.065 473.942C116.906 473.617 116.666 473.372 116.347 473.207C116.028 473.042 115.624 472.959 115.134 472.959C114.69 472.959 114.297 473.048 113.955 473.224C113.619 473.395 113.354 473.64 113.16 473.959C112.972 474.278 112.878 474.654 112.878 475.087H111.297C111.297 474.455 111.457 473.879 111.776 473.361C112.095 472.842 112.542 472.429 113.117 472.122C113.698 471.814 114.371 471.66 115.134 471.66C115.886 471.66 116.544 471.794 117.108 472.062C117.672 472.324 118.111 472.717 118.424 473.241C118.737 473.76 118.894 474.406 118.894 475.181C118.894 475.494 118.82 475.83 118.672 476.189C118.529 476.542 118.304 476.873 117.997 477.18C117.695 477.488 117.302 477.742 116.817 477.941C116.333 478.135 115.752 478.231 115.074 478.231H113.724V477.274ZM113.724 478.573V477.625H115.074C115.866 477.625 116.521 477.719 117.04 477.907C117.558 478.095 117.965 478.345 118.261 478.659C118.563 478.972 118.774 479.317 118.894 479.693C119.019 480.063 119.082 480.433 119.082 480.803C119.082 481.385 118.982 481.9 118.783 482.35C118.589 482.8 118.313 483.182 117.954 483.495C117.601 483.808 117.185 484.045 116.706 484.204C116.228 484.364 115.707 484.444 115.143 484.444C114.601 484.444 114.092 484.367 113.613 484.213C113.14 484.059 112.722 483.837 112.357 483.546C111.992 483.25 111.708 482.888 111.502 482.461C111.297 482.028 111.195 481.535 111.195 480.983H112.776C112.776 481.416 112.87 481.795 113.058 482.119C113.251 482.444 113.525 482.698 113.878 482.88C114.237 483.056 114.658 483.145 115.143 483.145C115.627 483.145 116.043 483.062 116.39 482.897C116.743 482.726 117.014 482.47 117.202 482.128C117.396 481.786 117.492 481.356 117.492 480.838C117.492 480.319 117.384 479.895 117.168 479.564C116.951 479.228 116.644 478.981 116.245 478.821C115.852 478.656 115.388 478.573 114.852 478.573H113.724ZM123.207 483.435C123.207 483.168 123.29 482.943 123.455 482.76C123.626 482.572 123.871 482.478 124.19 482.478C124.509 482.478 124.751 482.572 124.916 482.76C125.087 482.943 125.173 483.168 125.173 483.435C125.173 483.697 125.087 483.92 124.916 484.102C124.751 484.284 124.509 484.375 124.19 484.375C123.871 484.375 123.626 484.284 123.455 484.102C123.29 483.92 123.207 483.697 123.207 483.435ZM129.572 483.435C129.572 483.168 129.654 482.943 129.819 482.76C129.99 482.572 130.235 482.478 130.554 482.478C130.873 482.478 131.115 482.572 131.281 482.76C131.451 482.943 131.537 483.168 131.537 483.435C131.537 483.697 131.451 483.92 131.281 484.102C131.115 484.284 130.873 484.375 130.554 484.375C130.235 484.375 129.99 484.284 129.819 484.102C129.654 483.92 129.572 483.697 129.572 483.435ZM135.936 483.435C135.936 483.168 136.018 482.943 136.184 482.76C136.354 482.572 136.599 482.478 136.918 482.478C137.237 482.478 137.48 482.572 137.645 482.76C137.816 482.943 137.901 483.168 137.901 483.435C137.901 483.697 137.816 483.92 137.645 484.102C137.48 484.284 137.237 484.375 136.918 484.375C136.599 484.375 136.354 484.284 136.184 484.102C136.018 483.92 135.936 483.697 135.936 483.435ZM148.102 482.478V471.148H149.691V484.273H148.239L148.102 482.478ZM141.881 479.752V479.573C141.881 478.867 141.967 478.226 142.138 477.65C142.314 477.069 142.562 476.571 142.881 476.155C143.206 475.739 143.59 475.42 144.035 475.198C144.485 474.97 144.986 474.856 145.539 474.856C146.12 474.856 146.627 474.959 147.06 475.164C147.498 475.363 147.868 475.657 148.17 476.044C148.478 476.426 148.72 476.887 148.897 477.428C149.073 477.969 149.196 478.582 149.264 479.265V480.052C149.201 480.729 149.079 481.339 148.897 481.88C148.72 482.421 148.478 482.883 148.17 483.264C147.868 483.646 147.498 483.939 147.06 484.145C146.621 484.344 146.108 484.444 145.521 484.444C144.98 484.444 144.485 484.327 144.035 484.093C143.59 483.86 143.206 483.532 142.881 483.111C142.562 482.689 142.314 482.193 142.138 481.624C141.967 481.048 141.881 480.425 141.881 479.752ZM143.471 479.573V479.752C143.471 480.214 143.516 480.647 143.607 481.051C143.704 481.456 143.852 481.812 144.052 482.119C144.251 482.427 144.505 482.669 144.812 482.846C145.12 483.017 145.487 483.102 145.915 483.102C146.439 483.102 146.869 482.991 147.205 482.769C147.547 482.547 147.82 482.253 148.025 481.889C148.23 481.524 148.39 481.128 148.504 480.701V478.642C148.435 478.328 148.336 478.026 148.205 477.736C148.079 477.44 147.914 477.178 147.709 476.95C147.51 476.716 147.262 476.531 146.966 476.394C146.675 476.258 146.33 476.189 145.932 476.189C145.499 476.189 145.126 476.28 144.812 476.463C144.505 476.639 144.251 476.884 144.052 477.198C143.852 477.505 143.704 477.864 143.607 478.274C143.516 478.679 143.471 479.112 143.471 479.573ZM155.304 482.948H155.466C156.378 482.948 157.118 482.82 157.688 482.564C158.257 482.307 158.696 481.963 159.004 481.53C159.311 481.097 159.522 480.61 159.636 480.069C159.75 479.522 159.807 478.961 159.807 478.385V476.48C159.807 475.916 159.741 475.414 159.61 474.976C159.485 474.537 159.308 474.17 159.081 473.874C158.858 473.577 158.605 473.352 158.32 473.198C158.035 473.045 157.733 472.968 157.414 472.968C157.05 472.968 156.722 473.042 156.432 473.19C156.147 473.332 155.905 473.535 155.705 473.797C155.512 474.059 155.364 474.366 155.261 474.719C155.158 475.073 155.107 475.457 155.107 475.873C155.107 476.243 155.153 476.602 155.244 476.95C155.335 477.297 155.475 477.611 155.663 477.89C155.851 478.169 156.084 478.391 156.363 478.556C156.648 478.716 156.981 478.795 157.363 478.795C157.716 478.795 158.047 478.727 158.354 478.59C158.668 478.448 158.944 478.257 159.183 478.018C159.428 477.773 159.622 477.497 159.764 477.189C159.912 476.881 159.998 476.559 160.021 476.223H160.772C160.772 476.696 160.678 477.163 160.49 477.625C160.308 478.08 160.052 478.496 159.721 478.872C159.391 479.248 159.004 479.55 158.559 479.778C158.115 480 157.631 480.111 157.107 480.111C156.491 480.111 155.959 479.992 155.509 479.752C155.059 479.513 154.688 479.194 154.398 478.795C154.113 478.397 153.899 477.952 153.757 477.462C153.62 476.967 153.552 476.465 153.552 475.958C153.552 475.366 153.635 474.811 153.8 474.292C153.965 473.774 154.21 473.318 154.535 472.925C154.859 472.526 155.261 472.216 155.74 471.994C156.224 471.771 156.782 471.66 157.414 471.66C158.126 471.66 158.733 471.803 159.234 472.088C159.736 472.372 160.143 472.754 160.456 473.233C160.775 473.711 161.009 474.25 161.157 474.848C161.305 475.446 161.379 476.061 161.379 476.693V477.266C161.379 477.91 161.336 478.565 161.251 479.231C161.171 479.892 161.015 480.524 160.781 481.128C160.553 481.732 160.22 482.273 159.781 482.752C159.343 483.225 158.77 483.601 158.064 483.88C157.363 484.153 156.497 484.29 155.466 484.29H155.304V482.948ZM170.879 481.82C170.879 481.592 170.828 481.382 170.726 481.188C170.629 480.989 170.427 480.809 170.119 480.65C169.817 480.484 169.361 480.342 168.752 480.222C168.239 480.114 167.775 479.986 167.359 479.838C166.949 479.69 166.598 479.51 166.308 479.3C166.023 479.089 165.804 478.841 165.65 478.556C165.496 478.271 165.419 477.938 165.419 477.556C165.419 477.192 165.499 476.847 165.658 476.522C165.824 476.198 166.054 475.91 166.351 475.659C166.653 475.409 167.014 475.212 167.436 475.07C167.857 474.927 168.327 474.856 168.846 474.856C169.586 474.856 170.219 474.987 170.743 475.249C171.267 475.511 171.668 475.862 171.948 476.3C172.227 476.733 172.366 477.215 172.366 477.744H170.785C170.785 477.488 170.708 477.24 170.555 477.001C170.407 476.756 170.187 476.554 169.897 476.394C169.612 476.235 169.262 476.155 168.846 476.155C168.407 476.155 168.051 476.223 167.778 476.36C167.51 476.491 167.313 476.659 167.188 476.864C167.068 477.069 167.009 477.286 167.009 477.514C167.009 477.685 167.037 477.838 167.094 477.975C167.157 478.106 167.265 478.229 167.419 478.343C167.573 478.451 167.789 478.553 168.068 478.65C168.347 478.747 168.703 478.844 169.136 478.941C169.894 479.112 170.518 479.317 171.008 479.556C171.497 479.795 171.862 480.089 172.101 480.436C172.341 480.784 172.46 481.205 172.46 481.701C172.46 482.105 172.375 482.475 172.204 482.812C172.039 483.148 171.797 483.438 171.478 483.683C171.164 483.922 170.788 484.11 170.35 484.247C169.917 484.378 169.43 484.444 168.888 484.444C168.074 484.444 167.385 484.298 166.821 484.008C166.257 483.717 165.829 483.341 165.539 482.88C165.248 482.418 165.103 481.931 165.103 481.419H166.692C166.715 481.852 166.84 482.196 167.068 482.453C167.296 482.703 167.575 482.883 167.906 482.991C168.236 483.094 168.564 483.145 168.888 483.145C169.321 483.145 169.683 483.088 169.974 482.974C170.27 482.86 170.495 482.703 170.649 482.504C170.802 482.305 170.879 482.077 170.879 481.82ZM178.423 477.274H179.551C180.103 477.274 180.559 477.183 180.918 477.001C181.283 476.813 181.553 476.559 181.73 476.24C181.912 475.916 182.003 475.551 182.003 475.147C182.003 474.668 181.923 474.267 181.764 473.942C181.604 473.617 181.365 473.372 181.046 473.207C180.727 473.042 180.323 472.959 179.833 472.959C179.388 472.959 178.995 473.048 178.654 473.224C178.317 473.395 178.053 473.64 177.859 473.959C177.671 474.278 177.577 474.654 177.577 475.087H175.996C175.996 474.455 176.156 473.879 176.475 473.361C176.794 472.842 177.241 472.429 177.816 472.122C178.397 471.814 179.069 471.66 179.833 471.66C180.585 471.66 181.243 471.794 181.807 472.062C182.371 472.324 182.809 472.717 183.123 473.241C183.436 473.76 183.593 474.406 183.593 475.181C183.593 475.494 183.518 475.83 183.37 476.189C183.228 476.542 183.003 476.873 182.695 477.18C182.393 477.488 182 477.742 181.516 477.941C181.032 478.135 180.451 478.231 179.773 478.231H178.423V477.274ZM178.423 478.573V477.625H179.773C180.565 477.625 181.22 477.719 181.738 477.907C182.257 478.095 182.664 478.345 182.96 478.659C183.262 478.972 183.473 479.317 183.593 479.693C183.718 480.063 183.781 480.433 183.781 480.803C183.781 481.385 183.681 481.9 183.481 482.35C183.288 482.8 183.011 483.182 182.653 483.495C182.299 483.808 181.884 484.045 181.405 484.204C180.927 484.364 180.405 484.444 179.841 484.444C179.3 484.444 178.79 484.367 178.312 484.213C177.839 484.059 177.42 483.837 177.056 483.546C176.691 483.25 176.406 482.888 176.201 482.461C175.996 482.028 175.894 481.535 175.894 480.983H177.474C177.474 481.416 177.568 481.795 177.756 482.119C177.95 482.444 178.223 482.698 178.577 482.88C178.936 483.056 179.357 483.145 179.841 483.145C180.326 483.145 180.741 483.062 181.089 482.897C181.442 482.726 181.713 482.47 181.901 482.128C182.094 481.786 182.191 481.356 182.191 480.838C182.191 480.319 182.083 479.895 181.866 479.564C181.65 479.228 181.342 478.981 180.944 478.821C180.551 478.656 180.086 478.573 179.551 478.573H178.423Z" fill="#EDEDED"/>
<defs>
<filter id="filter0_d_1923_28778" x="0" y="0" width="548" height="540" filterUnits="userSpaceOnUse" color-interpolation-filters="sRGB">
<feFlood flood-opacity="0" result="BackgroundImageFix"/>
<feColorMatrix in="SourceAlpha" type="matrix" values="0 0 0 0 0 0 0 0 0 0 0 0 0 0 0 0 0 0 127 0" result="hardAlpha"/>
<feMorphology radius="5" operator="dilate" in="SourceAlpha" result="effect1_dropShadow_1923_28778"/>
<feOffset dy="4"/>
<feGaussianBlur stdDeviation="7.5"/>
<feComposite in2="hardAlpha" operator="out"/>
<feColorMatrix type="matrix" values="0 0 0 0 0.793333 0 0 0 0 0.793333 0 0 0 0 0.793333 0 0 0 0.25 0"/>
<feBlend mode="normal" in2="BackgroundImageFix" result="effect1_dropShadow_1923_28778"/>
<feBlend mode="normal" in="SourceGraphic" in2="effect1_dropShadow_1923_28778" result="shape"/>
</filter>
</defs>
</svg>
