<svg width="23" height="30" viewBox="0 0 23 30" fill="none">
<path fill-rule="evenodd" clip-rule="evenodd" d="M13.7026 2.82399C13.7026 3.8315 13.0256 4.6809 12.1017 4.94209C16.7918 5.25161 20.5001 9.15389 20.5001 13.9223V20.8223C20.5001 22.4349 20.5659 23.7372 21.9473 24.4279C22.3621 24.6353 22.5799 25.1007 22.4733 25.5521C22.3668 26.0034 21.9639 26.3223 21.5001 26.3223H12.8229C13.2382 26.6888 13.5 27.225 13.5 27.8223C13.5 28.9269 12.6046 29.8223 11.5 29.8223C10.3955 29.8223 9.50004 28.9269 9.50004 27.8223C9.50004 27.225 9.76192 26.6888 10.1771 26.3223H1.5001C1.03632 26.3223 0.633405 26.0034 0.52685 25.5521C0.420294 25.1007 0.638065 24.6353 1.05288 24.4279C2.43428 23.7372 2.5001 22.4349 2.5001 20.8223V13.9223C2.5001 9.15301 6.20981 5.25017 10.9011 4.94192C9.97752 4.68053 9.30082 3.83128 9.30082 2.82399C9.30082 1.60847 10.2862 0.623108 11.5017 0.623108C12.7172 0.623108 13.7026 1.60847 13.7026 2.82399ZM11.5001 6.9223C7.63411 6.9223 4.5001 10.0563 4.5001 13.9223V20.8223L4.50017 20.9242C4.50112 21.815 4.50254 23.1391 3.8987 24.3223H19.1015C18.4977 23.1391 18.4991 21.815 18.5 20.9242L18.5001 20.8223V13.9223C18.5001 10.0563 15.3661 6.9223 11.5001 6.9223Z" fill="#48E59B"/>
</svg>
 