<svg width="44" height="45" viewBox="0 0 44 45" fill="none" xmlns="http://www.w3.org/2000/svg">
<rect y="0.25" width="44" height="44" rx="22" fill="#48E59B" fill-opacity="0.2"/>
<path fill-rule="evenodd" clip-rule="evenodd" d="M23.9139 10.3145C24.253 10.4596 24.449 10.8177 24.3883 11.1815L22.9436 19.85H29.9992C30.3022 19.85 30.5793 20.0212 30.7148 20.2922C30.8503 20.5632 30.821 20.8876 30.6392 21.13L21.0392 33.93C20.8179 34.225 20.4236 34.3306 20.0845 34.1855C19.7454 34.0404 19.5495 33.6823 19.6101 33.3185L21.0549 24.65H13.9992C13.6962 24.65 13.4192 24.4788 13.2837 24.2077C13.1482 23.9367 13.1774 23.6124 13.3592 23.37L22.9592 10.57C23.1805 10.2749 23.5749 10.1694 23.9139 10.3145ZM15.5992 23.05H21.9992C22.2344 23.05 22.4576 23.1534 22.6096 23.3329C22.7616 23.5123 22.827 23.7495 22.7883 23.9815L21.7277 30.3453L28.3992 21.45H21.9992C21.7641 21.45 21.5408 21.3465 21.3888 21.1671C21.2368 20.9876 21.1714 20.7504 21.2101 20.5185L22.2708 14.1546L15.5992 23.05Z" fill="#48E59B"/>
</svg>
