<svg width="59" height="61" viewBox="0 0 59 61" fill="none" xmlns="http://www.w3.org/2000/svg">
<path d="M19.9567 15.3397L15.6656 14.5895C15.378 14.554 15.0879 14.6308 14.8555 14.8038C14.6231 14.9769 14.4665 15.2329 14.4181 15.5186C14.3698 15.8043 14.4335 16.0976 14.596 16.3375C14.7585 16.5774 15.0073 16.7453 15.2905 16.8064L18.7826 17.4215L22.0122 37.1816C22.0554 37.4479 22.1927 37.6898 22.3993 37.8633C22.6058 38.0368 22.8678 38.1303 23.1375 38.1268H40.497C40.7954 38.1268 41.0816 38.0083 41.2927 37.7972C41.5037 37.5862 41.6223 37.3 41.6223 37.0015C41.6223 36.7031 41.5037 36.4169 41.2927 36.2058C41.0816 35.9948 40.7954 35.8763 40.497 35.8763H24.079L23.6064 32.988H40.4032C40.6416 32.9884 40.874 32.913 41.0668 32.7728C41.2596 32.6326 41.4029 32.4347 41.476 32.2078L44.4767 22.8304C44.5312 22.6615 44.5449 22.4821 44.5167 22.3068C44.4886 22.1316 44.4193 21.9655 44.3147 21.8221C44.2101 21.6787 44.0731 21.5621 43.9148 21.4818C43.7565 21.4015 43.5815 21.3598 43.404 21.36H21.7084L20.8757 16.2587C20.8364 16.0293 20.7269 15.8177 20.5623 15.6532C20.3977 15.4886 20.1861 15.3791 19.9567 15.3397ZM41.8623 23.6181L39.5667 30.7374H23.2388L22.076 23.6106L41.8623 23.6181Z" fill="#C6EEDB"/>
<path d="M26.6434 42.7729C26.6434 42.0518 26.4296 41.3469 26.029 40.7473C25.6284 40.1477 25.0589 39.6804 24.3927 39.4045C23.7265 39.1285 22.9935 39.0563 22.2862 39.197C21.579 39.3377 20.9293 39.6849 20.4194 40.1948C19.9095 40.7047 19.5623 41.3544 19.4216 42.0616C19.2809 42.7688 19.3531 43.5019 19.6291 44.1681C19.905 44.8343 20.3724 45.4038 20.9719 45.8044C21.5715 46.205 22.2764 46.4188 22.9975 46.4188C23.9642 46.4178 24.8909 46.0334 25.5745 45.3499C26.258 44.6663 26.6424 43.7395 26.6434 42.7729ZM21.6021 42.7729C21.6021 42.4969 21.684 42.2271 21.8373 41.9977C21.9906 41.7682 22.2085 41.5894 22.4635 41.4837C22.7185 41.3781 22.999 41.3505 23.2697 41.4043C23.5404 41.4582 23.789 41.5911 23.9842 41.7862C24.1793 41.9814 24.3122 42.23 24.366 42.5007C24.4199 42.7713 24.3923 43.0519 24.2866 43.3069C24.181 43.5618 24.0022 43.7798 23.7727 43.9331C23.5433 44.0864 23.2735 44.1682 22.9975 44.1682C22.6281 44.1673 22.2741 44.0198 22.0133 43.7582C21.7524 43.4967 21.6059 43.1423 21.6059 42.7729H21.6021Z" fill="#C6EEDB"/>
<path d="M39.5848 42.7729C39.5848 42.0518 39.371 41.3469 38.9704 40.7473C38.5698 40.1477 38.0004 39.6804 37.3341 39.4045C36.6679 39.1285 35.9349 39.0563 35.2276 39.197C34.5204 39.3377 33.8707 39.6849 33.3608 40.1948C32.8509 40.7047 32.5037 41.3544 32.363 42.0616C32.2223 42.7688 32.2945 43.5019 32.5705 44.1681C32.8465 44.8343 33.3138 45.4038 33.9133 45.8044C34.5129 46.205 35.2178 46.4188 35.9389 46.4188C36.9056 46.4178 37.8323 46.0334 38.5159 45.3499C39.1994 44.6663 39.5838 43.7395 39.5848 42.7729ZM34.5285 42.7729C34.5285 42.4969 34.6104 42.2271 34.7637 41.9977C34.917 41.7682 35.135 41.5894 35.3899 41.4837C35.6449 41.3781 35.9255 41.3505 36.1961 41.4043C36.4668 41.4582 36.7154 41.5911 36.9106 41.7862C37.1057 41.9814 37.2386 42.23 37.2924 42.5007C37.3463 42.7713 37.3187 43.0519 37.213 43.3069C37.1074 43.5618 36.9286 43.7798 36.6991 43.9331C36.4697 44.0864 36.1999 44.1682 35.9239 44.1682C35.5538 44.1682 35.1989 44.0212 34.9372 43.7596C34.6756 43.4979 34.5285 43.143 34.5285 42.7729Z" fill="#C6EEDB"/>
</svg>
