<svg width="23" height="22" viewBox="0 0 23 22" fill="none" xmlns="http://www.w3.org/2000/svg">
<path fill-rule="evenodd" clip-rule="evenodd" d="M8.09978 3.28002V1.84002H15.2998V3.28002H8.09978ZM7.73978 0.400024C7.14332 0.400024 6.65978 0.883559 6.65978 1.48002V1.84002H5.93978C4.74685 1.84002 3.77979 2.80709 3.77979 4.00002V18.4C3.77979 19.593 4.74685 20.56 5.93979 20.56H17.4598C18.6527 20.56 19.6198 19.593 19.6198 18.4V4.00002C19.6198 2.80709 18.6527 1.84002 17.4598 1.84002H16.7398V1.48002C16.7398 0.883559 16.2563 0.400024 15.6598 0.400024H7.73978ZM16.7398 3.28002V3.64002C16.7398 4.23649 16.2563 4.72002 15.6598 4.72002H7.73978C7.14331 4.72002 6.65978 4.23649 6.65978 3.64002V3.28002H5.93978C5.54214 3.28002 5.21978 3.60238 5.21978 4.00002V18.4C5.21978 18.7977 5.54214 19.12 5.93979 19.12H17.4598C17.8574 19.12 18.1798 18.7977 18.1798 18.4V4.00002C18.1798 3.60238 17.8574 3.28002 17.4598 3.28002H16.7398Z" fill="#48E59B"/>
</svg>
