<svg width="20" height="20" viewBox="0 0 20 20" fill="none" xmlns="http://www.w3.org/2000/svg">
<path fill-rule="evenodd" clip-rule="evenodd" d="M2.22027 0.640015C1.42499 0.640015 0.780273 1.28472 0.780273 2.08001V17.92C0.780273 18.7153 1.42498 19.36 2.22027 19.36H13.0203C13.4179 19.36 13.7403 19.0377 13.7403 18.64C13.7403 18.2424 13.4179 17.92 13.0203 17.92H2.22027V2.08001L13.0203 2.08001C13.4179 2.08001 13.7403 1.75766 13.7403 1.36001C13.7403 0.96237 13.4179 0.640015 13.0203 0.640015H2.22027ZM16.0494 6.2509C15.7682 5.96972 15.3123 5.96972 15.0312 6.2509C14.75 6.53207 14.75 6.98795 15.0312 7.26913L17.042 9.28001H7.26027C6.86263 9.28001 6.54027 9.60237 6.54027 10C6.54027 10.3977 6.86263 10.72 7.26027 10.72H17.042L15.0312 12.7309C14.75 13.0121 14.75 13.468 15.0312 13.7491C15.3123 14.0303 15.7682 14.0303 16.0494 13.7491L19.2894 10.5091C19.5706 10.228 19.5706 9.77207 19.2894 9.4909L16.0494 6.2509Z" fill="#48E59B"/>
</svg>
