<svg width="22" height="22" viewBox="0 0 22 22" fill="none" xmlns="http://www.w3.org/2000/svg">
<path fill-rule="evenodd" clip-rule="evenodd" d="M10.8001 1.51196C11.158 1.51196 11.4481 1.80208 11.4481 2.15996V12.1156L14.6619 8.90176C14.9149 8.6487 15.3252 8.6487 15.5783 8.90176C15.8313 9.15482 15.8313 9.56511 15.5783 9.81817L11.2583 14.1382C11.0052 14.3912 10.5949 14.3912 10.3419 14.1382L6.02187 9.81817C5.76881 9.56511 5.76881 9.15482 6.02187 8.90176C6.27493 8.6487 6.68522 8.6487 6.93828 8.90176L10.1521 12.1156V2.15996C10.1521 1.80208 10.4422 1.51196 10.8001 1.51196ZM3.6 14.4C3.99765 14.4 4.32 14.7223 4.32 15.12V17.28C4.32 18.0776 4.96174 18.72 5.75475 18.72H15.8417C16.6362 18.72 17.28 18.076 17.28 17.28V15.12C17.28 14.7223 17.6024 14.4 18 14.4C18.3977 14.4 18.72 14.7223 18.72 15.12V17.28C18.72 18.8698 17.433 20.16 15.8417 20.16H5.75475C4.16188 20.16 2.88 18.8683 2.88 17.28V15.12C2.88 14.7223 3.20236 14.4 3.6 14.4Z" fill="#48E59B"/>
</svg>
