<svg width="24" height="24" viewBox="0 0 24 24" fill="none" xmlns="http://www.w3.org/2000/svg">
<path fill-rule="evenodd" clip-rule="evenodd" d="M13.5117 0.974172C12.8291 -0.171076 11.1705 -0.17108 10.488 0.974172L0.257689 18.1391C-0.441515 19.3122 0.403813 20.8001 1.76954 20.8001H22.2301C23.5958 20.8001 24.4412 19.3122 23.7419 18.1391L13.5117 0.974172ZM11.8624 1.79332C11.9244 1.68921 12.0752 1.6892 12.1372 1.79332L22.3675 18.9582C22.4311 19.0649 22.3543 19.2001 22.2301 19.2001H1.76954C1.64538 19.2001 1.56853 19.0649 1.6321 18.9582L11.8624 1.79332ZM10.9229 7.17793C10.8994 6.56691 11.3883 6.05876 11.9998 6.05876C12.6113 6.05876 13.1003 6.56691 13.0768 7.17793L12.8306 13.5794C12.8134 14.0258 12.4465 14.3788 11.9998 14.3788C11.5531 14.3788 11.1862 14.0258 11.1691 13.5794L10.9229 7.17793ZM13.1996 16.7617C13.1996 17.4245 12.6624 17.9617 11.9996 17.9617C11.3369 17.9617 10.7996 17.4245 10.7996 16.7617C10.7996 16.099 11.3369 15.5617 11.9996 15.5617C12.6624 15.5617 13.1996 16.099 13.1996 16.7617Z" fill="#FEF556"/>
</svg>
