<svg width="24" height="24" viewBox="0 0 24 24" fill="none" xmlns="http://www.w3.org/2000/svg">
<path fill-rule="evenodd" clip-rule="evenodd" d="M4.79922 3.19995C3.91556 3.19995 3.19922 3.9163 3.19922 4.79995V19.2C3.19922 20.0836 3.91556 20.7999 4.79922 20.7999H19.1992C20.0829 20.7999 20.7992 20.0836 20.7992 19.2V13.6C20.7992 13.1581 20.441 12.8 19.9992 12.8C19.5574 12.8 19.1992 13.1581 19.1992 13.6V19.2H4.79922V4.79995L10.3992 4.79995C10.841 4.79995 11.1992 4.44178 11.1992 3.99995C11.1992 3.55812 10.841 3.19995 10.3992 3.19995H4.79922ZM20.5649 3.43427C20.6419 3.51127 20.6999 3.60007 20.739 3.69485C20.7778 3.78909 20.7979 3.88926 20.7992 3.98961L20.7992 4.00119V8.79995C20.7992 9.24178 20.441 9.59995 19.9992 9.59995C19.5574 9.59995 19.1992 9.24178 19.1992 8.79995V5.93132L10.9649 14.1656C10.6525 14.4781 10.146 14.4781 9.83353 14.1656C9.52111 13.8532 9.52111 13.3467 9.83353 13.0343L18.0678 4.79995H15.1992C14.7574 4.79995 14.3992 4.44178 14.3992 3.99995C14.3992 3.55812 14.7574 3.19995 15.1992 3.19995H19.9992C20.204 3.19995 20.4087 3.27806 20.5649 3.43427Z" fill="#70A8F4"/>
</svg>
