<svg width="22" height="23" viewBox="0 0 22 23" fill="none" xmlns="http://www.w3.org/2000/svg">
<path fill-rule="evenodd" clip-rule="evenodd" d="M19.4293 3.88909C19.7105 3.60791 19.7105 3.15203 19.4293 2.87086C19.1481 2.58968 18.6923 2.58968 18.4111 2.87086L15.5834 5.69855C14.1776 5.13204 12.6383 4.81997 11.0002 4.81997C6.40351 4.81997 2.5854 7.27716 0.309636 10.9184C0.163715 11.1519 0.163715 11.4481 0.309637 11.6816C1.50044 13.5869 3.11352 15.168 5.03947 16.2425L2.57108 18.7109C2.2899 18.992 2.2899 19.4479 2.57108 19.7291C2.85226 20.0103 3.30813 20.0103 3.58931 19.7291L6.417 16.9014C7.82281 17.4679 9.36206 17.78 11.0002 17.78C15.5969 17.78 19.415 15.3228 21.6908 11.6816C21.8367 11.4481 21.8367 11.1519 21.6908 10.9184C20.5 9.01311 18.8869 7.432 16.9609 6.35748L19.4293 3.88909ZM14.4624 6.81957C13.381 6.45596 12.2207 6.25997 11.0002 6.25997C7.1163 6.25997 3.84271 8.24453 1.77876 11.3C2.89709 12.9555 4.37056 14.2967 6.10383 15.1781L14.4624 6.81957ZM7.53803 15.7804L15.8966 7.42184C17.6298 8.30325 19.1033 9.64442 20.2216 11.3C18.1577 14.3554 14.8841 16.34 11.0002 16.34C9.77967 16.34 8.61941 16.144 7.53803 15.7804Z" fill="#48E59B"/>
</svg>
