<svg width="44" height="45" viewBox="0 0 44 45" fill="none" xmlns="http://www.w3.org/2000/svg">
<path fill-rule="evenodd" clip-rule="evenodd" d="M30.4293 13.8891C30.7105 13.6079 30.7105 13.152 30.4293 12.8709C30.1481 12.5897 29.6923 12.5897 29.4111 12.8709L26.5834 15.6985C25.1776 15.132 23.6383 14.82 22.0002 14.82C17.4035 14.82 13.5854 17.2772 11.3096 20.9184C11.1637 21.1519 11.1637 21.4481 11.3096 21.6816C12.5004 23.5869 14.1135 25.168 16.0395 26.2425L13.5711 28.7109C13.2899 28.992 13.2899 29.4479 13.5711 29.7291C13.8523 30.0103 14.3081 30.0103 14.5893 29.7291L17.417 26.9014C18.8228 27.4679 20.3621 27.78 22.0002 27.78C26.5969 27.78 30.415 25.3228 32.6908 21.6816C32.8367 21.4481 32.8367 21.1519 32.6908 20.9184C31.5 19.0131 29.8869 17.432 27.9609 16.3575L30.4293 13.8891ZM25.4624 16.8196C24.381 16.456 23.2207 16.26 22.0002 16.26C18.1163 16.26 14.8427 18.2445 12.7788 21.3C13.8971 22.9555 15.3706 24.2967 17.1038 25.1781L25.4624 16.8196ZM18.538 25.7804L26.8966 17.4218C28.6298 18.3033 30.1033 19.6444 31.2216 21.3C29.1577 24.3554 25.8841 26.34 22.0002 26.34C20.7797 26.34 19.6194 26.144 18.538 25.7804Z" fill="#48E59B"/>
</svg>
