<svg width="576" height="72" viewBox="0 0 576 72" fill="none" xmlns="http://www.w3.org/2000/svg">
<path opacity="0.2" d="M58.2852 28H215.142" stroke="#C6EEDB" stroke-width="1.28571" stroke-linecap="round"/>
<path opacity="0.9" d="M209.145 28H366.002" stroke="#C6EEDB" stroke-width="1.2" stroke-linecap="round" stroke-dasharray="5 5"/>
<path opacity="0.2" d="M360 28H516.857" stroke="#C6EEDB" stroke-width="1.28571" stroke-linecap="round"/>
<rect x="46.9286" y="16.4286" width="23.1429" height="23.1429" rx="11.5714" fill="#111111"/>
<rect x="46.9286" y="16.4286" width="23.1429" height="23.1429" rx="11.5714" stroke="#0A4429" stroke-width="0.857143"/>
<path d="M59.7567 22.2232V32H57.9821V24.2924L55.6317 25.0692V23.6362L59.5558 22.2232H59.7567Z" fill="#0A4429"/>
<path d="M37.3711 58.1831H38.4961V63.9546C38.4961 64.5952 38.3535 65.1284 38.0684 65.5542C37.7832 65.98 37.4043 66.3003 36.9316 66.5151C36.4629 66.7261 35.9531 66.8315 35.4023 66.8315C34.8242 66.8315 34.3008 66.7261 33.832 66.5151C33.3672 66.3003 32.998 65.98 32.7246 65.5542C32.4551 65.1284 32.3203 64.5952 32.3203 63.9546V58.1831H33.4395V63.9546C33.4395 64.3999 33.5215 64.7671 33.6855 65.0562C33.8496 65.3452 34.0781 65.5601 34.3711 65.7007C34.668 65.8413 35.0117 65.9116 35.4023 65.9116C35.7969 65.9116 36.1406 65.8413 36.4336 65.7007C36.7305 65.5601 36.9609 65.3452 37.125 65.0562C37.2891 64.7671 37.3711 64.3999 37.3711 63.9546V58.1831ZM41.7914 61.728V66.7144H40.7074V60.3745H41.7328L41.7914 61.728ZM41.5336 63.3042L41.0824 63.2866C41.0863 62.853 41.1508 62.4526 41.2758 62.0854C41.4008 61.7144 41.5766 61.3921 41.8031 61.1187C42.0297 60.8452 42.2992 60.6343 42.6117 60.4858C42.9281 60.3335 43.2777 60.2573 43.6605 60.2573C43.973 60.2573 44.2543 60.3003 44.5043 60.3862C44.7543 60.4683 44.9672 60.6011 45.143 60.7847C45.3227 60.9683 45.4594 61.2065 45.5531 61.4995C45.6469 61.7886 45.6938 62.1421 45.6938 62.5601V66.7144H44.6039V62.5483C44.6039 62.2163 44.5551 61.9507 44.4574 61.7515C44.3598 61.5483 44.2172 61.4019 44.0297 61.312C43.8422 61.2183 43.6117 61.1714 43.3383 61.1714C43.0688 61.1714 42.8227 61.228 42.6 61.3413C42.3813 61.4546 42.1918 61.6108 42.0316 61.8101C41.8754 62.0093 41.7523 62.2378 41.6625 62.4956C41.5766 62.7495 41.5336 63.019 41.5336 63.3042ZM49.118 57.7144V66.7144H48.0281V57.7144H49.118ZM51.1711 63.6147V63.48C51.1711 63.0229 51.2375 62.5991 51.3703 62.2085C51.5031 61.814 51.6945 61.4722 51.9445 61.1831C52.1945 60.8901 52.4973 60.6636 52.8527 60.5034C53.2082 60.3394 53.6066 60.2573 54.048 60.2573C54.4934 60.2573 54.8937 60.3394 55.2492 60.5034C55.6086 60.6636 55.9133 60.8901 56.1633 61.1831C56.4172 61.4722 56.6105 61.814 56.7434 62.2085C56.8762 62.5991 56.9426 63.0229 56.9426 63.48V63.6147C56.9426 64.0718 56.8762 64.4956 56.7434 64.8862C56.6105 65.2769 56.4172 65.6187 56.1633 65.9116C55.9133 66.2007 55.6105 66.4272 55.2551 66.5913C54.9035 66.7515 54.5051 66.8315 54.0598 66.8315C53.6145 66.8315 53.2141 66.7515 52.8586 66.5913C52.5031 66.4272 52.1984 66.2007 51.9445 65.9116C51.6945 65.6187 51.5031 65.2769 51.3703 64.8862C51.2375 64.4956 51.1711 64.0718 51.1711 63.6147ZM52.2551 63.48V63.6147C52.2551 63.9312 52.2922 64.23 52.3664 64.5112C52.4406 64.7886 52.552 65.0347 52.7004 65.2495C52.8527 65.4644 53.0422 65.6343 53.2687 65.7593C53.4953 65.8804 53.759 65.9409 54.0598 65.9409C54.3566 65.9409 54.6164 65.8804 54.8391 65.7593C55.0656 65.6343 55.2531 65.4644 55.4016 65.2495C55.55 65.0347 55.6613 64.7886 55.7355 64.5112C55.8137 64.23 55.8527 63.9312 55.8527 63.6147V63.48C55.8527 63.1675 55.8137 62.8726 55.7355 62.5952C55.6613 62.314 55.548 62.0659 55.3957 61.8511C55.2473 61.6323 55.0598 61.4604 54.8332 61.3354C54.6105 61.2104 54.3488 61.1479 54.048 61.1479C53.7512 61.1479 53.4895 61.2104 53.2629 61.3354C53.0402 61.4604 52.8527 61.6323 52.7004 61.8511C52.552 62.0659 52.4406 62.314 52.3664 62.5952C52.2922 62.8726 52.2551 63.1675 52.2551 63.48ZM61.4391 65.9409C61.6969 65.9409 61.9352 65.8882 62.1539 65.7827C62.3727 65.6772 62.5523 65.5327 62.693 65.3491C62.8336 65.1616 62.9137 64.9487 62.9332 64.7104H63.9645C63.9449 65.0854 63.818 65.4351 63.5836 65.7593C63.3531 66.0796 63.0504 66.3394 62.6754 66.5386C62.3004 66.7339 61.8883 66.8315 61.4391 66.8315C60.9625 66.8315 60.5465 66.7476 60.191 66.5796C59.8395 66.4116 59.5465 66.1812 59.3121 65.8882C59.0816 65.5952 58.9078 65.2593 58.7906 64.8804C58.6773 64.4976 58.6207 64.0933 58.6207 63.6675V63.4214C58.6207 62.9956 58.6773 62.5933 58.7906 62.2144C58.9078 61.8315 59.0816 61.4937 59.3121 61.2007C59.5465 60.9077 59.8395 60.6772 60.191 60.5093C60.5465 60.3413 60.9625 60.2573 61.4391 60.2573C61.9352 60.2573 62.3687 60.3589 62.7398 60.562C63.1109 60.7612 63.402 61.0347 63.6129 61.3823C63.8277 61.7261 63.9449 62.1167 63.9645 62.5542H62.9332C62.9137 62.2925 62.8395 62.0562 62.7105 61.8452C62.5855 61.6343 62.4137 61.4663 62.1949 61.3413C61.9801 61.2124 61.7281 61.1479 61.4391 61.1479C61.107 61.1479 60.8277 61.2144 60.6012 61.3472C60.3785 61.4761 60.2008 61.6519 60.068 61.8745C59.9391 62.0933 59.8453 62.3374 59.7867 62.6069C59.732 62.8726 59.7047 63.144 59.7047 63.4214V63.6675C59.7047 63.9448 59.732 64.2183 59.7867 64.4878C59.8414 64.7573 59.9332 65.0015 60.0621 65.2202C60.1949 65.439 60.3727 65.6147 60.5953 65.7476C60.8219 65.8765 61.1031 65.9409 61.4391 65.9409ZM66.873 57.7144V66.7144H65.7832V57.7144H66.873ZM70.7461 60.3745L67.9805 63.3335L66.4336 64.939L66.3457 63.7847L67.4531 62.4604L69.4219 60.3745H70.7461ZM69.7559 66.7144L67.4941 63.6909L68.0566 62.7241L71.0332 66.7144H69.7559ZM74.9789 66.8315C74.5375 66.8315 74.1371 66.7573 73.7777 66.6089C73.4223 66.4565 73.1156 66.2437 72.8578 65.9702C72.6039 65.6968 72.4086 65.3726 72.2719 64.9976C72.1352 64.6226 72.0668 64.2124 72.0668 63.7671V63.521C72.0668 63.0054 72.143 62.5464 72.2953 62.144C72.4477 61.7378 72.6547 61.394 72.9164 61.1128C73.1781 60.8315 73.475 60.6187 73.807 60.4741C74.1391 60.3296 74.4828 60.2573 74.8383 60.2573C75.2914 60.2573 75.682 60.3354 76.0102 60.4917C76.3422 60.6479 76.6137 60.8667 76.8246 61.1479C77.0355 61.4253 77.1918 61.7534 77.2934 62.1323C77.3949 62.5073 77.4457 62.9175 77.4457 63.3628V63.8491H72.7113V62.9644H76.3617V62.8823C76.3461 62.6011 76.2875 62.3276 76.1859 62.062C76.0883 61.7964 75.932 61.5776 75.7172 61.4058C75.5023 61.2339 75.2094 61.1479 74.8383 61.1479C74.5922 61.1479 74.3656 61.2007 74.1586 61.3062C73.9516 61.4077 73.7738 61.5601 73.6254 61.7632C73.477 61.9663 73.3617 62.2144 73.2797 62.5073C73.1977 62.8003 73.1566 63.1382 73.1566 63.521V63.7671C73.1566 64.0679 73.1977 64.3511 73.2797 64.6167C73.3656 64.8784 73.4887 65.1089 73.6488 65.3081C73.8129 65.5073 74.0102 65.6636 74.2406 65.7769C74.475 65.8901 74.7406 65.9468 75.0375 65.9468C75.4203 65.9468 75.7445 65.8687 76.0102 65.7124C76.2758 65.5562 76.5082 65.3472 76.7074 65.0854L77.3637 65.6069C77.227 65.814 77.0531 66.0112 76.8422 66.1987C76.6312 66.3862 76.3715 66.5386 76.0629 66.6558C75.7582 66.7729 75.3969 66.8315 74.9789 66.8315ZM83.3074 65.4839V57.7144H84.3973V66.7144H83.4012L83.3074 65.4839ZM79.0418 63.6147V63.4917C79.0418 63.0073 79.1004 62.5679 79.2176 62.1733C79.3387 61.7749 79.5086 61.4331 79.7273 61.1479C79.95 60.8628 80.2137 60.644 80.5184 60.4917C80.827 60.3354 81.1707 60.2573 81.5496 60.2573C81.948 60.2573 82.2957 60.3276 82.5926 60.4683C82.8934 60.605 83.1473 60.8062 83.3543 61.0718C83.5652 61.3335 83.7313 61.6499 83.8523 62.021C83.9734 62.3921 84.0574 62.812 84.1043 63.2808V63.8198C84.0613 64.2847 83.9773 64.7026 83.8523 65.0737C83.7313 65.4448 83.5652 65.7612 83.3543 66.0229C83.1473 66.2847 82.8934 66.4858 82.5926 66.6265C82.2918 66.7632 81.9402 66.8315 81.5379 66.8315C81.1668 66.8315 80.827 66.7515 80.5184 66.5913C80.2137 66.4312 79.95 66.2065 79.7273 65.9175C79.5086 65.6284 79.3387 65.2886 79.2176 64.8979C79.1004 64.5034 79.0418 64.0757 79.0418 63.6147ZM80.1316 63.4917V63.6147C80.1316 63.9312 80.1629 64.228 80.2254 64.5054C80.2918 64.7827 80.3934 65.0269 80.5301 65.2378C80.6668 65.4487 80.8406 65.6147 81.0516 65.7358C81.2625 65.853 81.5145 65.9116 81.8074 65.9116C82.1668 65.9116 82.4617 65.8354 82.6922 65.6831C82.9266 65.5308 83.1141 65.3296 83.2547 65.0796C83.3953 64.8296 83.5047 64.5581 83.5828 64.2651V62.853C83.5359 62.6382 83.4676 62.4312 83.3777 62.2319C83.2918 62.0288 83.1785 61.8491 83.0379 61.6929C82.9012 61.5327 82.7313 61.4058 82.5281 61.312C82.3289 61.2183 82.0926 61.1714 81.8191 61.1714C81.5223 61.1714 81.2664 61.2339 81.0516 61.3589C80.8406 61.48 80.6668 61.6479 80.5301 61.8628C80.3934 62.0737 80.2918 62.3198 80.2254 62.6011C80.1629 62.8784 80.1316 63.1753 80.1316 63.4917Z" fill="#797979"/>
<rect x="197.573" y="16.4286" width="23.1429" height="23.1429" rx="11.5714" fill="#111111"/>
<rect x="197.573" y="16.4286" width="23.1429" height="23.1429" rx="11.5714" stroke="#0A4429" stroke-width="0.857143"/>
<path d="M212.45 30.6071V32H205.848V30.808L209.015 27.3862C209.345 27.0112 209.607 26.6853 209.799 26.4085C209.991 26.1317 210.127 25.8817 210.207 25.6585C210.292 25.4308 210.334 25.2143 210.334 25.0089C210.334 24.7098 210.281 24.4487 210.174 24.2254C210.066 23.9978 209.91 23.8214 209.705 23.6964C209.504 23.5714 209.256 23.5089 208.961 23.5089C208.636 23.5089 208.357 23.5848 208.124 23.7366C207.897 23.8839 207.723 24.0893 207.602 24.3527C207.486 24.6161 207.428 24.9174 207.428 25.2567H205.653C205.653 24.6808 205.787 24.1562 206.055 23.683C206.323 23.2054 206.707 22.8237 207.207 22.5379C207.707 22.2522 208.301 22.1094 208.988 22.1094C209.658 22.1094 210.225 22.221 210.689 22.4442C211.153 22.6629 211.506 22.9754 211.747 23.3817C211.988 23.7879 212.109 24.2723 212.109 24.8348C212.109 25.1473 212.057 25.4554 211.955 25.7589C211.852 26.0625 211.707 26.3638 211.52 26.6629C211.336 26.9576 211.118 27.2567 210.863 27.5603C210.609 27.8638 210.325 28.1741 210.013 28.4911L208.111 30.6071H212.45Z" fill="#0A4429"/>
<path d="M176.285 64.0015H177.41C177.352 64.5405 177.197 65.0229 176.947 65.4487C176.697 65.8745 176.344 66.2124 175.887 66.4624C175.43 66.7085 174.859 66.8315 174.176 66.8315C173.676 66.8315 173.221 66.7378 172.811 66.5503C172.404 66.3628 172.055 66.0972 171.762 65.7534C171.469 65.4058 171.242 64.9897 171.082 64.5054C170.926 64.0171 170.848 63.4741 170.848 62.8765V62.0269C170.848 61.4292 170.926 60.8882 171.082 60.4038C171.242 59.9155 171.471 59.4976 171.768 59.1499C172.068 58.8022 172.43 58.5347 172.852 58.3472C173.273 58.1597 173.748 58.0659 174.275 58.0659C174.92 58.0659 175.465 58.187 175.91 58.4292C176.355 58.6714 176.701 59.0073 176.947 59.437C177.197 59.8628 177.352 60.3569 177.41 60.9194H176.285C176.23 60.521 176.129 60.1792 175.98 59.894C175.832 59.605 175.621 59.3823 175.348 59.2261C175.074 59.0698 174.717 58.9917 174.275 58.9917C173.896 58.9917 173.562 59.064 173.273 59.2085C172.988 59.353 172.748 59.5581 172.553 59.8237C172.361 60.0894 172.217 60.4077 172.119 60.7788C172.021 61.1499 171.973 61.562 171.973 62.0151V62.8765C171.973 63.2944 172.016 63.687 172.102 64.0542C172.191 64.4214 172.326 64.7437 172.506 65.021C172.686 65.2983 172.914 65.5171 173.191 65.6772C173.469 65.8335 173.797 65.9116 174.176 65.9116C174.656 65.9116 175.039 65.8354 175.324 65.6831C175.609 65.5308 175.824 65.312 175.969 65.0269C176.117 64.7417 176.223 64.3999 176.285 64.0015ZM179.1 63.6147V63.48C179.1 63.0229 179.166 62.5991 179.299 62.2085C179.432 61.814 179.623 61.4722 179.873 61.1831C180.123 60.8901 180.426 60.6636 180.782 60.5034C181.137 60.3394 181.536 60.2573 181.977 60.2573C182.422 60.2573 182.823 60.3394 183.178 60.5034C183.538 60.6636 183.842 60.8901 184.092 61.1831C184.346 61.4722 184.539 61.814 184.672 62.2085C184.805 62.5991 184.871 63.0229 184.871 63.48V63.6147C184.871 64.0718 184.805 64.4956 184.672 64.8862C184.539 65.2769 184.346 65.6187 184.092 65.9116C183.842 66.2007 183.539 66.4272 183.184 66.5913C182.832 66.7515 182.434 66.8315 181.989 66.8315C181.543 66.8315 181.143 66.7515 180.788 66.5913C180.432 66.4272 180.127 66.2007 179.873 65.9116C179.623 65.6187 179.432 65.2769 179.299 64.8862C179.166 64.4956 179.1 64.0718 179.1 63.6147ZM180.184 63.48V63.6147C180.184 63.9312 180.221 64.23 180.295 64.5112C180.37 64.7886 180.481 65.0347 180.629 65.2495C180.782 65.4644 180.971 65.6343 181.198 65.7593C181.424 65.8804 181.688 65.9409 181.989 65.9409C182.286 65.9409 182.545 65.8804 182.768 65.7593C182.995 65.6343 183.182 65.4644 183.33 65.2495C183.479 65.0347 183.59 64.7886 183.664 64.5112C183.743 64.23 183.782 63.9312 183.782 63.6147V63.48C183.782 63.1675 183.743 62.8726 183.664 62.5952C183.59 62.314 183.477 62.0659 183.325 61.8511C183.176 61.6323 182.989 61.4604 182.762 61.3354C182.539 61.2104 182.278 61.1479 181.977 61.1479C181.68 61.1479 181.418 61.2104 181.192 61.3354C180.969 61.4604 180.782 61.6323 180.629 61.8511C180.481 62.0659 180.37 62.314 180.295 62.5952C180.221 62.8726 180.184 63.1675 180.184 63.48ZM190.827 65.4839V57.7144H191.917V66.7144H190.921L190.827 65.4839ZM186.561 63.6147V63.4917C186.561 63.0073 186.62 62.5679 186.737 62.1733C186.858 61.7749 187.028 61.4331 187.247 61.1479C187.47 60.8628 187.733 60.644 188.038 60.4917C188.346 60.3354 188.69 60.2573 189.069 60.2573C189.468 60.2573 189.815 60.3276 190.112 60.4683C190.413 60.605 190.667 60.8062 190.874 61.0718C191.085 61.3335 191.251 61.6499 191.372 62.021C191.493 62.3921 191.577 62.812 191.624 63.2808V63.8198C191.581 64.2847 191.497 64.7026 191.372 65.0737C191.251 65.4448 191.085 65.7612 190.874 66.0229C190.667 66.2847 190.413 66.4858 190.112 66.6265C189.811 66.7632 189.46 66.8315 189.057 66.8315C188.686 66.8315 188.346 66.7515 188.038 66.5913C187.733 66.4312 187.47 66.2065 187.247 65.9175C187.028 65.6284 186.858 65.2886 186.737 64.8979C186.62 64.5034 186.561 64.0757 186.561 63.6147ZM187.651 63.4917V63.6147C187.651 63.9312 187.682 64.228 187.745 64.5054C187.811 64.7827 187.913 65.0269 188.05 65.2378C188.186 65.4487 188.36 65.6147 188.571 65.7358C188.782 65.853 189.034 65.9116 189.327 65.9116C189.686 65.9116 189.981 65.8354 190.212 65.6831C190.446 65.5308 190.634 65.3296 190.774 65.0796C190.915 64.8296 191.024 64.5581 191.102 64.2651V62.853C191.055 62.6382 190.987 62.4312 190.897 62.2319C190.811 62.0288 190.698 61.8491 190.557 61.6929C190.421 61.5327 190.251 61.4058 190.048 61.312C189.848 61.2183 189.612 61.1714 189.339 61.1714C189.042 61.1714 188.786 61.2339 188.571 61.3589C188.36 61.48 188.186 61.6479 188.05 61.8628C187.913 62.0737 187.811 62.3198 187.745 62.6011C187.682 62.8784 187.651 63.1753 187.651 63.4917ZM196.835 66.8315C196.394 66.8315 195.993 66.7573 195.634 66.6089C195.279 66.4565 194.972 66.2437 194.714 65.9702C194.46 65.6968 194.265 65.3726 194.128 64.9976C193.991 64.6226 193.923 64.2124 193.923 63.7671V63.521C193.923 63.0054 193.999 62.5464 194.152 62.144C194.304 61.7378 194.511 61.394 194.773 61.1128C195.034 60.8315 195.331 60.6187 195.663 60.4741C195.995 60.3296 196.339 60.2573 196.695 60.2573C197.148 60.2573 197.538 60.3354 197.866 60.4917C198.198 60.6479 198.47 60.8667 198.681 61.1479C198.892 61.4253 199.048 61.7534 199.15 62.1323C199.251 62.5073 199.302 62.9175 199.302 63.3628V63.8491H194.568V62.9644H198.218V62.8823C198.202 62.6011 198.144 62.3276 198.042 62.062C197.945 61.7964 197.788 61.5776 197.573 61.4058C197.359 61.2339 197.066 61.1479 196.695 61.1479C196.448 61.1479 196.222 61.2007 196.015 61.3062C195.808 61.4077 195.63 61.5601 195.482 61.7632C195.333 61.9663 195.218 62.2144 195.136 62.5073C195.054 62.8003 195.013 63.1382 195.013 63.521V63.7671C195.013 64.0679 195.054 64.3511 195.136 64.6167C195.222 64.8784 195.345 65.1089 195.505 65.3081C195.669 65.5073 195.866 65.6636 196.097 65.7769C196.331 65.8901 196.597 65.9468 196.894 65.9468C197.277 65.9468 197.601 65.8687 197.866 65.7124C198.132 65.5562 198.364 65.3472 198.564 65.0854L199.22 65.6069C199.083 65.814 198.909 66.0112 198.698 66.1987C198.487 66.3862 198.228 66.5386 197.919 66.6558C197.614 66.7729 197.253 66.8315 196.835 66.8315ZM207.662 65.4194L210.176 58.1831H211.4L208.242 66.7144H207.369L207.662 65.4194ZM205.312 58.1831L207.803 65.4194L208.113 66.7144H207.24L204.088 58.1831H205.312ZM215.358 66.8315C214.916 66.8315 214.516 66.7573 214.157 66.6089C213.801 66.4565 213.495 66.2437 213.237 65.9702C212.983 65.6968 212.787 65.3726 212.651 64.9976C212.514 64.6226 212.446 64.2124 212.446 63.7671V63.521C212.446 63.0054 212.522 62.5464 212.674 62.144C212.827 61.7378 213.034 61.394 213.295 61.1128C213.557 60.8315 213.854 60.6187 214.186 60.4741C214.518 60.3296 214.862 60.2573 215.217 60.2573C215.67 60.2573 216.061 60.3354 216.389 60.4917C216.721 60.6479 216.993 60.8667 217.204 61.1479C217.414 61.4253 217.571 61.7534 217.672 62.1323C217.774 62.5073 217.825 62.9175 217.825 63.3628V63.8491H213.09V62.9644H216.741V62.8823C216.725 62.6011 216.666 62.3276 216.565 62.062C216.467 61.7964 216.311 61.5776 216.096 61.4058C215.881 61.2339 215.588 61.1479 215.217 61.1479C214.971 61.1479 214.745 61.2007 214.537 61.3062C214.33 61.4077 214.153 61.5601 214.004 61.7632C213.856 61.9663 213.741 62.2144 213.659 62.5073C213.577 62.8003 213.536 63.1382 213.536 63.521V63.7671C213.536 64.0679 213.577 64.3511 213.659 64.6167C213.745 64.8784 213.868 65.1089 214.028 65.3081C214.192 65.5073 214.389 65.6636 214.62 65.7769C214.854 65.8901 215.12 65.9468 215.416 65.9468C215.799 65.9468 216.123 65.8687 216.389 65.7124C216.655 65.5562 216.887 65.3472 217.086 65.0854L217.743 65.6069C217.606 65.814 217.432 66.0112 217.221 66.1987C217.01 66.3862 216.75 66.5386 216.442 66.6558C216.137 66.7729 215.776 66.8315 215.358 66.8315ZM220.774 61.3706V66.7144H219.69V60.3745H220.745L220.774 61.3706ZM222.755 60.3394L222.749 61.3472C222.659 61.3276 222.573 61.3159 222.491 61.312C222.413 61.3042 222.323 61.3003 222.221 61.3003C221.971 61.3003 221.751 61.3394 221.559 61.4175C221.368 61.4956 221.206 61.605 221.073 61.7456C220.94 61.8862 220.835 62.0542 220.757 62.2495C220.682 62.4409 220.634 62.6519 220.61 62.8823L220.305 63.0581C220.305 62.6753 220.343 62.3159 220.417 61.98C220.495 61.644 220.614 61.3472 220.774 61.0894C220.934 60.8276 221.138 60.6245 221.384 60.48C221.634 60.3315 221.93 60.2573 222.274 60.2573C222.352 60.2573 222.442 60.2671 222.544 60.2866C222.645 60.3022 222.716 60.3198 222.755 60.3394ZM225.534 60.3745V66.7144H224.445V60.3745H225.534ZM224.362 58.6929C224.362 58.5171 224.415 58.3687 224.521 58.2476C224.63 58.1265 224.79 58.0659 225.001 58.0659C225.208 58.0659 225.366 58.1265 225.476 58.2476C225.589 58.3687 225.646 58.5171 225.646 58.6929C225.646 58.8608 225.589 59.0054 225.476 59.1265C225.366 59.2437 225.208 59.3022 225.001 59.3022C224.79 59.3022 224.63 59.2437 224.521 59.1265C224.415 59.0054 224.362 58.8608 224.362 58.6929ZM229.322 66.7144H228.238V59.8237C228.238 59.3433 228.332 58.937 228.519 58.605C228.707 58.2729 228.974 58.021 229.322 57.8491C229.67 57.6772 230.082 57.5913 230.558 57.5913C230.839 57.5913 231.115 57.6265 231.384 57.6968C231.654 57.7632 231.931 57.8472 232.216 57.9487L232.035 58.8628C231.855 58.7925 231.646 58.7261 231.408 58.6636C231.173 58.5972 230.916 58.564 230.634 58.564C230.17 58.564 229.834 58.6694 229.627 58.8804C229.423 59.0874 229.322 59.4019 229.322 59.8237V66.7144ZM230.617 60.3745V61.2065H227.236V60.3745H230.617ZM232.75 60.3745V66.7144H231.666V60.3745H232.75ZM237.762 66.8315C237.32 66.8315 236.92 66.7573 236.561 66.6089C236.205 66.4565 235.898 66.2437 235.641 65.9702C235.387 65.6968 235.191 65.3726 235.055 64.9976C234.918 64.6226 234.85 64.2124 234.85 63.7671V63.521C234.85 63.0054 234.926 62.5464 235.078 62.144C235.23 61.7378 235.438 61.394 235.699 61.1128C235.961 60.8315 236.258 60.6187 236.59 60.4741C236.922 60.3296 237.266 60.2573 237.621 60.2573C238.074 60.2573 238.465 60.3354 238.793 60.4917C239.125 60.6479 239.396 60.8667 239.607 61.1479C239.818 61.4253 239.975 61.7534 240.076 62.1323C240.178 62.5073 240.229 62.9175 240.229 63.3628V63.8491H235.494V62.9644H239.145V62.8823C239.129 62.6011 239.07 62.3276 238.969 62.062C238.871 61.7964 238.715 61.5776 238.5 61.4058C238.285 61.2339 237.992 61.1479 237.621 61.1479C237.375 61.1479 237.148 61.2007 236.941 61.3062C236.734 61.4077 236.557 61.5601 236.408 61.7632C236.26 61.9663 236.145 62.2144 236.062 62.5073C235.98 62.8003 235.939 63.1382 235.939 63.521V63.7671C235.939 64.0679 235.98 64.3511 236.062 64.6167C236.148 64.8784 236.271 65.1089 236.432 65.3081C236.596 65.5073 236.793 65.6636 237.023 65.7769C237.258 65.8901 237.523 65.9468 237.82 65.9468C238.203 65.9468 238.527 65.8687 238.793 65.7124C239.059 65.5562 239.291 65.3472 239.49 65.0854L240.146 65.6069C240.01 65.814 239.836 66.0112 239.625 66.1987C239.414 66.3862 239.154 66.5386 238.846 66.6558C238.541 66.7729 238.18 66.8315 237.762 66.8315ZM246.09 65.4839V57.7144H247.18V66.7144H246.184L246.09 65.4839ZM241.825 63.6147V63.4917C241.825 63.0073 241.883 62.5679 242 62.1733C242.121 61.7749 242.291 61.4331 242.51 61.1479C242.733 60.8628 242.996 60.644 243.301 60.4917C243.61 60.3354 243.954 60.2573 244.332 60.2573C244.731 60.2573 245.079 60.3276 245.375 60.4683C245.676 60.605 245.93 60.8062 246.137 61.0718C246.348 61.3335 246.514 61.6499 246.635 62.021C246.756 62.3921 246.84 62.812 246.887 63.2808V63.8198C246.844 64.2847 246.76 64.7026 246.635 65.0737C246.514 65.4448 246.348 65.7612 246.137 66.0229C245.93 66.2847 245.676 66.4858 245.375 66.6265C245.075 66.7632 244.723 66.8315 244.321 66.8315C243.95 66.8315 243.61 66.7515 243.301 66.5913C242.996 66.4312 242.733 66.2065 242.51 65.9175C242.291 65.6284 242.121 65.2886 242 64.8979C241.883 64.5034 241.825 64.0757 241.825 63.6147ZM242.914 63.4917V63.6147C242.914 63.9312 242.946 64.228 243.008 64.5054C243.075 64.7827 243.176 65.0269 243.313 65.2378C243.45 65.4487 243.623 65.6147 243.834 65.7358C244.045 65.853 244.297 65.9116 244.59 65.9116C244.95 65.9116 245.245 65.8354 245.475 65.6831C245.709 65.5308 245.897 65.3296 246.037 65.0796C246.178 64.8296 246.287 64.5581 246.366 64.2651V62.853C246.319 62.6382 246.25 62.4312 246.161 62.2319C246.075 62.0288 245.961 61.8491 245.821 61.6929C245.684 61.5327 245.514 61.4058 245.311 61.312C245.112 61.2183 244.875 61.1714 244.602 61.1714C244.305 61.1714 244.049 61.2339 243.834 61.3589C243.623 61.48 243.45 61.6479 243.313 61.8628C243.176 62.0737 243.075 62.3198 243.008 62.6011C242.946 62.8784 242.914 63.1753 242.914 63.4917Z" fill="#797979"/>
<rect x="348.214" y="16.4286" width="23.1429" height="23.1429" rx="11.5714" fill="#111111"/>
<rect x="348.214" y="16.4286" width="23.1429" height="23.1429" rx="11.5714" stroke="#0A4429" stroke-width="0.857143"/>
<path d="M358.424 26.3415H359.421C359.774 26.3415 360.064 26.2812 360.292 26.1607C360.524 26.0357 360.696 25.8661 360.807 25.6518C360.924 25.433 360.982 25.1808 360.982 24.8951C360.982 24.6138 360.93 24.3705 360.828 24.1652C360.725 23.9554 360.569 23.7946 360.359 23.683C360.153 23.567 359.89 23.5089 359.569 23.5089C359.31 23.5089 359.071 23.5603 358.852 23.6629C358.638 23.7656 358.466 23.9129 358.336 24.1049C358.211 24.2924 358.149 24.5179 358.149 24.7812H356.374C356.374 24.2545 356.513 23.7924 356.79 23.3951C357.071 22.9933 357.45 22.6786 357.928 22.4509C358.406 22.2232 358.939 22.1094 359.528 22.1094C360.171 22.1094 360.734 22.2165 361.216 22.4308C361.703 22.6406 362.08 22.9509 362.348 23.3616C362.62 23.7723 362.756 24.2812 362.756 24.8884C362.756 25.1786 362.687 25.4687 362.549 25.7589C362.415 26.0446 362.216 26.3036 361.953 26.5357C361.694 26.7634 361.374 26.9487 360.995 27.0915C360.62 27.2299 360.189 27.2991 359.703 27.2991H358.424V26.3415ZM358.424 27.7076V26.7634H359.703C360.252 26.7634 360.727 26.8281 361.129 26.9576C361.535 27.0826 361.87 27.2612 362.133 27.4933C362.397 27.721 362.591 27.9866 362.716 28.2902C362.845 28.5937 362.91 28.9196 362.91 29.2679C362.91 29.7232 362.825 30.1295 362.656 30.4866C362.486 30.8393 362.247 31.1384 361.939 31.3839C361.636 31.6295 361.278 31.817 360.868 31.9464C360.457 32.0714 360.013 32.1339 359.535 32.1339C359.12 32.1339 358.716 32.0781 358.323 31.9665C357.935 31.8504 357.584 31.6786 357.272 31.4509C356.959 31.2187 356.711 30.9286 356.528 30.5804C356.345 30.2277 356.254 29.8192 356.254 29.3549H358.028C358.028 29.6228 358.093 29.8616 358.223 30.0714C358.357 30.2812 358.54 30.4464 358.772 30.567C359.008 30.683 359.274 30.7411 359.569 30.7411C359.895 30.7411 360.174 30.683 360.406 30.567C360.642 30.4464 360.823 30.2768 360.948 30.058C361.073 29.8348 361.136 29.5692 361.136 29.2612C361.136 28.8951 361.066 28.5982 360.928 28.3705C360.79 28.1429 360.591 27.9754 360.332 27.8683C360.078 27.7612 359.774 27.7076 359.421 27.7076H358.424Z" fill="#0A4429"/>
<path d="M311.633 58.1831H312.729L315.523 65.1382L318.312 58.1831H319.414L315.945 66.7144H315.09L311.633 58.1831ZM311.275 58.1831H312.242L312.4 63.3862V66.7144H311.275V58.1831ZM318.799 58.1831H319.766V66.7144H318.641V63.3862L318.799 58.1831ZM323.366 60.3745V66.7144H322.276V60.3745H323.366ZM322.194 58.6929C322.194 58.5171 322.246 58.3687 322.352 58.2476C322.461 58.1265 322.621 58.0659 322.832 58.0659C323.039 58.0659 323.198 58.1265 323.307 58.2476C323.42 58.3687 323.477 58.5171 323.477 58.6929C323.477 58.8608 323.42 59.0054 323.307 59.1265C323.198 59.2437 323.039 59.3022 322.832 59.3022C322.621 59.3022 322.461 59.2437 322.352 59.1265C322.246 59.0054 322.194 58.8608 322.194 58.6929ZM326.79 61.728V66.7144H325.706V60.3745H326.731L326.79 61.728ZM326.532 63.3042L326.081 63.2866C326.085 62.853 326.149 62.4526 326.274 62.0854C326.399 61.7144 326.575 61.3921 326.802 61.1187C327.028 60.8452 327.298 60.6343 327.61 60.4858C327.927 60.3335 328.276 60.2573 328.659 60.2573C328.971 60.2573 329.253 60.3003 329.503 60.3862C329.753 60.4683 329.966 60.6011 330.141 60.7847C330.321 60.9683 330.458 61.2065 330.552 61.4995C330.645 61.7886 330.692 62.1421 330.692 62.5601V66.7144H329.602V62.5483C329.602 62.2163 329.554 61.9507 329.456 61.7515C329.358 61.5483 329.216 61.4019 329.028 61.312C328.841 61.2183 328.61 61.1714 328.337 61.1714C328.067 61.1714 327.821 61.228 327.598 61.3413C327.38 61.4546 327.19 61.6108 327.03 61.8101C326.874 62.0093 326.751 62.2378 326.661 62.4956C326.575 62.7495 326.532 63.019 326.532 63.3042ZM335.593 60.3745V61.2065H332.165V60.3745H335.593ZM333.325 58.8335H334.409V65.144C334.409 65.3589 334.443 65.521 334.509 65.6304C334.575 65.7397 334.661 65.812 334.767 65.8472C334.872 65.8823 334.986 65.8999 335.107 65.8999C335.196 65.8999 335.29 65.8921 335.388 65.8765C335.489 65.8569 335.566 65.8413 335.616 65.8296L335.622 66.7144C335.536 66.7417 335.423 66.7671 335.282 66.7905C335.146 66.8179 334.98 66.8315 334.784 66.8315C334.519 66.8315 334.275 66.7788 334.052 66.6733C333.829 66.5679 333.652 66.3921 333.519 66.146C333.39 65.896 333.325 65.5601 333.325 65.1382V58.8335ZM347.768 58.1831V66.7144H346.631L342.336 60.1343V66.7144H341.205V58.1831H342.336L346.648 64.7808V58.1831H347.768ZM353.946 65.6304V62.3667C353.946 62.1167 353.895 61.8999 353.793 61.7163C353.696 61.5288 353.547 61.3843 353.348 61.2827C353.149 61.1812 352.903 61.1304 352.61 61.1304C352.336 61.1304 352.096 61.1772 351.889 61.271C351.686 61.3647 351.526 61.4878 351.409 61.6401C351.295 61.7925 351.239 61.9565 351.239 62.1323H350.155C350.155 61.9058 350.213 61.6812 350.33 61.4585C350.448 61.2358 350.616 61.0347 350.834 60.855C351.057 60.6714 351.323 60.5269 351.631 60.4214C351.944 60.312 352.291 60.2573 352.674 60.2573C353.135 60.2573 353.541 60.3354 353.893 60.4917C354.248 60.6479 354.526 60.8843 354.725 61.2007C354.928 61.5132 355.03 61.9058 355.03 62.3784V65.3315C355.03 65.5425 355.047 65.7671 355.082 66.0054C355.121 66.2437 355.178 66.4487 355.252 66.6206V66.7144H354.121C354.067 66.5894 354.024 66.4233 353.993 66.2163C353.961 66.0054 353.946 65.8101 353.946 65.6304ZM354.133 62.8706L354.145 63.6323H353.049C352.741 63.6323 352.465 63.6577 352.223 63.7085C351.981 63.7554 351.778 63.8276 351.614 63.9253C351.45 64.0229 351.325 64.146 351.239 64.2944C351.153 64.439 351.11 64.6089 351.11 64.8042C351.11 65.0034 351.155 65.1851 351.245 65.3491C351.334 65.5132 351.469 65.644 351.649 65.7417C351.832 65.8354 352.057 65.8823 352.323 65.8823C352.655 65.8823 352.948 65.812 353.202 65.6714C353.455 65.5308 353.657 65.3589 353.805 65.1558C353.957 64.9526 354.039 64.7554 354.051 64.564L354.514 65.0854C354.487 65.2495 354.412 65.4312 354.291 65.6304C354.17 65.8296 354.008 66.021 353.805 66.2046C353.606 66.3843 353.368 66.5347 353.09 66.6558C352.817 66.7729 352.508 66.8315 352.164 66.8315C351.735 66.8315 351.358 66.7476 351.034 66.5796C350.713 66.4116 350.463 66.187 350.284 65.9058C350.108 65.6206 350.02 65.3022 350.02 64.9507C350.02 64.6108 350.086 64.312 350.219 64.0542C350.352 63.7925 350.543 63.5757 350.793 63.4038C351.043 63.228 351.344 63.0952 351.696 63.0054C352.047 62.9155 352.44 62.8706 352.873 62.8706H354.133ZM358.413 61.6343V66.7144H357.323V60.3745H358.354L358.413 61.6343ZM358.19 63.3042L357.686 63.2866C357.69 62.853 357.747 62.4526 357.856 62.0854C357.966 61.7144 358.128 61.3921 358.343 61.1187C358.557 60.8452 358.825 60.6343 359.145 60.4858C359.466 60.3335 359.837 60.2573 360.259 60.2573C360.555 60.2573 360.829 60.3003 361.079 60.3862C361.329 60.4683 361.546 60.5991 361.729 60.7788C361.913 60.9585 362.055 61.189 362.157 61.4702C362.259 61.7515 362.309 62.0913 362.309 62.4897V66.7144H361.225V62.5425C361.225 62.2104 361.169 61.9448 361.055 61.7456C360.946 61.5464 360.79 61.4019 360.587 61.312C360.384 61.2183 360.145 61.1714 359.872 61.1714C359.552 61.1714 359.284 61.228 359.069 61.3413C358.854 61.4546 358.682 61.6108 358.554 61.8101C358.425 62.0093 358.331 62.2378 358.272 62.4956C358.218 62.7495 358.19 63.019 358.19 63.3042ZM362.298 62.7065L361.571 62.9292C361.575 62.5815 361.632 62.2476 361.741 61.9272C361.854 61.6069 362.016 61.3218 362.227 61.0718C362.442 60.8218 362.706 60.6245 363.018 60.48C363.331 60.3315 363.688 60.2573 364.091 60.2573C364.43 60.2573 364.731 60.3022 364.993 60.3921C365.259 60.4819 365.481 60.6206 365.661 60.8081C365.845 60.9917 365.983 61.228 366.077 61.5171C366.171 61.8062 366.218 62.1499 366.218 62.5483V66.7144H365.128V62.5366C365.128 62.1812 365.071 61.9058 364.958 61.7104C364.848 61.5112 364.692 61.3726 364.489 61.2944C364.29 61.2124 364.052 61.1714 363.774 61.1714C363.536 61.1714 363.325 61.2124 363.141 61.2944C362.958 61.3765 362.804 61.4897 362.679 61.6343C362.554 61.7749 362.458 61.937 362.391 62.1206C362.329 62.3042 362.298 62.4995 362.298 62.7065ZM371.089 66.8315C370.648 66.8315 370.247 66.7573 369.888 66.6089C369.532 66.4565 369.226 66.2437 368.968 65.9702C368.714 65.6968 368.519 65.3726 368.382 64.9976C368.245 64.6226 368.177 64.2124 368.177 63.7671V63.521C368.177 63.0054 368.253 62.5464 368.405 62.144C368.558 61.7378 368.765 61.394 369.027 61.1128C369.288 60.8315 369.585 60.6187 369.917 60.4741C370.249 60.3296 370.593 60.2573 370.948 60.2573C371.402 60.2573 371.792 60.3354 372.12 60.4917C372.452 60.6479 372.724 60.8667 372.935 61.1479C373.146 61.4253 373.302 61.7534 373.404 62.1323C373.505 62.5073 373.556 62.9175 373.556 63.3628V63.8491H368.821V62.9644H372.472V62.8823C372.456 62.6011 372.398 62.3276 372.296 62.062C372.198 61.7964 372.042 61.5776 371.827 61.4058C371.612 61.2339 371.32 61.1479 370.948 61.1479C370.702 61.1479 370.476 61.2007 370.269 61.3062C370.062 61.4077 369.884 61.5601 369.736 61.7632C369.587 61.9663 369.472 62.2144 369.39 62.5073C369.308 62.8003 369.267 63.1382 369.267 63.521V63.7671C369.267 64.0679 369.308 64.3511 369.39 64.6167C369.476 64.8784 369.599 65.1089 369.759 65.3081C369.923 65.5073 370.12 65.6636 370.351 65.7769C370.585 65.8901 370.851 65.9468 371.148 65.9468C371.53 65.9468 371.855 65.8687 372.12 65.7124C372.386 65.5562 372.618 65.3472 372.818 65.0854L373.474 65.6069C373.337 65.814 373.163 66.0112 372.952 66.1987C372.741 66.3862 372.482 66.5386 372.173 66.6558C371.868 66.7729 371.507 66.8315 371.089 66.8315ZM376.869 66.7144H375.785V59.8237C375.785 59.3433 375.879 58.937 376.066 58.605C376.254 58.2729 376.521 58.021 376.869 57.8491C377.216 57.6772 377.629 57.5913 378.105 57.5913C378.386 57.5913 378.662 57.6265 378.931 57.6968C379.201 57.7632 379.478 57.8472 379.763 57.9487L379.582 58.8628C379.402 58.7925 379.193 58.7261 378.955 58.6636C378.72 58.5972 378.463 58.564 378.181 58.564C377.716 58.564 377.38 58.6694 377.173 58.8804C376.97 59.0874 376.869 59.4019 376.869 59.8237V66.7144ZM378.164 60.3745V61.2065H374.783V60.3745H378.164ZM380.296 60.3745V66.7144H379.213V60.3745H380.296ZM392.981 58.1831V66.7144H391.844L387.549 60.1343V66.7144H386.418V58.1831H387.549L391.862 64.7808V58.1831H392.981ZM396.716 58.1831V66.7144H395.585V58.1831H396.716ZM400.29 62.021V62.9468H396.47V62.021H400.29ZM400.87 58.1831V59.1089H396.47V58.1831H400.87ZM406.087 58.1831V66.7144H404.974V58.1831H406.087ZM408.829 58.1831V59.1089H402.238V58.1831H408.829Z" fill="#797979"/>
<rect x="498.429" y="16.4286" width="23.1429" height="23.1429" rx="11.5714" fill="#111111"/>
<rect x="498.429" y="16.4286" width="23.1429" height="23.1429" rx="11.5714" stroke="#0A4429" stroke-width="0.857143"/>
<path d="M513.473 28.4442V29.8371H506.449L506.375 28.7656L510.507 22.25H511.92L510.393 24.8415L508.176 28.4442H513.473ZM512.315 22.25V32H510.54V22.25H512.315Z" fill="#0A4429"/>
<path d="M449.537 64.5581C449.537 64.3589 449.506 64.1831 449.443 64.0308C449.385 63.8745 449.279 63.7339 449.127 63.6089C448.979 63.4839 448.771 63.3647 448.506 63.2515C448.244 63.1382 447.912 63.0229 447.51 62.9058C447.088 62.7808 446.707 62.6421 446.367 62.4897C446.027 62.3335 445.736 62.1558 445.494 61.9565C445.252 61.7573 445.066 61.5288 444.938 61.271C444.809 61.0132 444.744 60.7183 444.744 60.3862C444.744 60.0542 444.812 59.7476 444.949 59.4663C445.086 59.1851 445.281 58.9409 445.535 58.7339C445.793 58.5229 446.1 58.3589 446.455 58.2417C446.811 58.1245 447.207 58.0659 447.645 58.0659C448.285 58.0659 448.828 58.189 449.273 58.4351C449.723 58.6772 450.064 58.9956 450.299 59.3901C450.533 59.7808 450.65 60.1987 450.65 60.644H449.525C449.525 60.3237 449.457 60.0405 449.32 59.7944C449.184 59.5444 448.977 59.3491 448.699 59.2085C448.422 59.064 448.07 58.9917 447.645 58.9917C447.242 58.9917 446.91 59.0522 446.648 59.1733C446.387 59.2944 446.191 59.4585 446.062 59.6655C445.938 59.8726 445.875 60.1089 445.875 60.3745C445.875 60.5542 445.912 60.7183 445.986 60.8667C446.064 61.0112 446.184 61.146 446.344 61.271C446.508 61.396 446.715 61.5112 446.965 61.6167C447.219 61.7222 447.521 61.8237 447.873 61.9214C448.357 62.0581 448.775 62.2104 449.127 62.3784C449.479 62.5464 449.768 62.7358 449.994 62.9468C450.225 63.1538 450.395 63.3901 450.504 63.6558C450.617 63.9175 450.674 64.2144 450.674 64.5464C450.674 64.894 450.604 65.2085 450.463 65.4897C450.322 65.771 450.121 66.0112 449.859 66.2104C449.598 66.4097 449.283 66.564 448.916 66.6733C448.553 66.7788 448.146 66.8315 447.697 66.8315C447.303 66.8315 446.914 66.7769 446.531 66.6675C446.152 66.5581 445.807 66.394 445.494 66.1753C445.186 65.9565 444.938 65.687 444.75 65.3667C444.566 65.0425 444.475 64.6675 444.475 64.2417H445.6C445.6 64.5347 445.656 64.7866 445.77 64.9976C445.883 65.2046 446.037 65.3765 446.232 65.5132C446.432 65.6499 446.656 65.7515 446.906 65.8179C447.16 65.8804 447.424 65.9116 447.697 65.9116C448.092 65.9116 448.426 65.8569 448.699 65.7476C448.973 65.6382 449.18 65.4819 449.32 65.2788C449.465 65.0757 449.537 64.8354 449.537 64.5581ZM456.43 65.2495V60.3745H457.52V66.7144H456.483L456.43 65.2495ZM456.635 63.9136L457.086 63.9019C457.086 64.3237 457.041 64.7144 456.952 65.0737C456.866 65.4292 456.725 65.7378 456.53 65.9995C456.334 66.2612 456.079 66.4663 455.762 66.6147C455.446 66.7593 455.061 66.8315 454.608 66.8315C454.299 66.8315 454.016 66.7866 453.758 66.6968C453.504 66.6069 453.286 66.4683 453.102 66.2808C452.918 66.0933 452.776 65.8491 452.674 65.5483C452.577 65.2476 452.528 64.8862 452.528 64.4644V60.3745H453.612V64.4761C453.612 64.7612 453.643 64.9976 453.705 65.1851C453.772 65.3687 453.86 65.5151 453.969 65.6245C454.082 65.73 454.207 65.8042 454.344 65.8472C454.485 65.8901 454.629 65.9116 454.778 65.9116C455.239 65.9116 455.604 65.8237 455.873 65.6479C456.143 65.4683 456.336 65.228 456.454 64.9272C456.575 64.6226 456.635 64.2847 456.635 63.9136ZM462.309 65.9409C462.567 65.9409 462.805 65.8882 463.024 65.7827C463.243 65.6772 463.423 65.5327 463.563 65.3491C463.704 65.1616 463.784 64.9487 463.804 64.7104H464.835C464.815 65.0854 464.688 65.4351 464.454 65.7593C464.223 66.0796 463.921 66.3394 463.546 66.5386C463.171 66.7339 462.759 66.8315 462.309 66.8315C461.833 66.8315 461.417 66.7476 461.061 66.5796C460.71 66.4116 460.417 66.1812 460.182 65.8882C459.952 65.5952 459.778 65.2593 459.661 64.8804C459.548 64.4976 459.491 64.0933 459.491 63.6675V63.4214C459.491 62.9956 459.548 62.5933 459.661 62.2144C459.778 61.8315 459.952 61.4937 460.182 61.2007C460.417 60.9077 460.71 60.6772 461.061 60.5093C461.417 60.3413 461.833 60.2573 462.309 60.2573C462.805 60.2573 463.239 60.3589 463.61 60.562C463.981 60.7612 464.272 61.0347 464.483 61.3823C464.698 61.7261 464.815 62.1167 464.835 62.5542H463.804C463.784 62.2925 463.71 62.0562 463.581 61.8452C463.456 61.6343 463.284 61.4663 463.065 61.3413C462.85 61.2124 462.598 61.1479 462.309 61.1479C461.977 61.1479 461.698 61.2144 461.471 61.3472C461.249 61.4761 461.071 61.6519 460.938 61.8745C460.809 62.0933 460.716 62.3374 460.657 62.6069C460.602 62.8726 460.575 63.144 460.575 63.4214V63.6675C460.575 63.9448 460.602 64.2183 460.657 64.4878C460.712 64.7573 460.804 65.0015 460.932 65.2202C461.065 65.439 461.243 65.6147 461.466 65.7476C461.692 65.8765 461.973 65.9409 462.309 65.9409ZM469.191 65.9409C469.448 65.9409 469.687 65.8882 469.905 65.7827C470.124 65.6772 470.304 65.5327 470.445 65.3491C470.585 65.1616 470.665 64.9487 470.685 64.7104H471.716C471.696 65.0854 471.57 65.4351 471.335 65.7593C471.105 66.0796 470.802 66.3394 470.427 66.5386C470.052 66.7339 469.64 66.8315 469.191 66.8315C468.714 66.8315 468.298 66.7476 467.943 66.5796C467.591 66.4116 467.298 66.1812 467.064 65.8882C466.833 65.5952 466.659 65.2593 466.542 64.8804C466.429 64.4976 466.372 64.0933 466.372 63.6675V63.4214C466.372 62.9956 466.429 62.5933 466.542 62.2144C466.659 61.8315 466.833 61.4937 467.064 61.2007C467.298 60.9077 467.591 60.6772 467.943 60.5093C468.298 60.3413 468.714 60.2573 469.191 60.2573C469.687 60.2573 470.12 60.3589 470.491 60.562C470.862 60.7612 471.154 61.0347 471.364 61.3823C471.579 61.7261 471.696 62.1167 471.716 62.5542H470.685C470.665 62.2925 470.591 62.0562 470.462 61.8452C470.337 61.6343 470.165 61.4663 469.946 61.3413C469.732 61.2124 469.48 61.1479 469.191 61.1479C468.859 61.1479 468.579 61.2144 468.353 61.3472C468.13 61.4761 467.952 61.6519 467.82 61.8745C467.691 62.0933 467.597 62.3374 467.538 62.6069C467.484 62.8726 467.456 63.144 467.456 63.4214V63.6675C467.456 63.9448 467.484 64.2183 467.538 64.4878C467.593 64.7573 467.685 65.0015 467.814 65.2202C467.946 65.439 468.124 65.6147 468.347 65.7476C468.573 65.8765 468.855 65.9409 469.191 65.9409ZM476.166 66.8315C475.724 66.8315 475.324 66.7573 474.964 66.6089C474.609 66.4565 474.302 66.2437 474.045 65.9702C473.791 65.6968 473.595 65.3726 473.459 64.9976C473.322 64.6226 473.254 64.2124 473.254 63.7671V63.521C473.254 63.0054 473.33 62.5464 473.482 62.144C473.634 61.7378 473.841 61.394 474.103 61.1128C474.365 60.8315 474.662 60.6187 474.994 60.4741C475.326 60.3296 475.67 60.2573 476.025 60.2573C476.478 60.2573 476.869 60.3354 477.197 60.4917C477.529 60.6479 477.8 60.8667 478.011 61.1479C478.222 61.4253 478.379 61.7534 478.48 62.1323C478.582 62.5073 478.632 62.9175 478.632 63.3628V63.8491H473.898V62.9644H477.548V62.8823C477.533 62.6011 477.474 62.3276 477.373 62.062C477.275 61.7964 477.119 61.5776 476.904 61.4058C476.689 61.2339 476.396 61.1479 476.025 61.1479C475.779 61.1479 475.552 61.2007 475.345 61.3062C475.138 61.4077 474.961 61.5601 474.812 61.7632C474.664 61.9663 474.548 62.2144 474.466 62.5073C474.384 62.8003 474.343 63.1382 474.343 63.521V63.7671C474.343 64.0679 474.384 64.3511 474.466 64.6167C474.552 64.8784 474.675 65.1089 474.836 65.3081C475 65.5073 475.197 65.6636 475.427 65.7769C475.662 65.8901 475.927 65.9468 476.224 65.9468C476.607 65.9468 476.931 65.8687 477.197 65.7124C477.462 65.5562 477.695 65.3472 477.894 65.0854L478.55 65.6069C478.414 65.814 478.24 66.0112 478.029 66.1987C477.818 66.3862 477.558 66.5386 477.25 66.6558C476.945 66.7729 476.584 66.8315 476.166 66.8315ZM484.189 65.0327C484.189 64.8765 484.154 64.7319 484.084 64.5991C484.018 64.4624 483.879 64.3394 483.668 64.23C483.461 64.1167 483.148 64.019 482.73 63.937C482.379 63.8628 482.061 63.7749 481.775 63.6733C481.494 63.5718 481.254 63.4487 481.055 63.3042C480.859 63.1597 480.709 62.9897 480.604 62.7944C480.498 62.5991 480.445 62.3706 480.445 62.1089C480.445 61.8589 480.5 61.6226 480.609 61.3999C480.723 61.1772 480.881 60.98 481.084 60.8081C481.291 60.6362 481.539 60.5015 481.828 60.4038C482.117 60.3062 482.439 60.2573 482.795 60.2573C483.303 60.2573 483.736 60.3472 484.096 60.5269C484.455 60.7065 484.73 60.9468 484.922 61.2476C485.113 61.5444 485.209 61.8745 485.209 62.2378H484.125C484.125 62.062 484.072 61.8921 483.967 61.728C483.865 61.5601 483.715 61.4214 483.516 61.312C483.32 61.2026 483.08 61.1479 482.795 61.1479C482.494 61.1479 482.25 61.1948 482.062 61.2886C481.879 61.3784 481.744 61.4937 481.658 61.6343C481.576 61.7749 481.535 61.9233 481.535 62.0796C481.535 62.1968 481.555 62.3022 481.594 62.396C481.637 62.4858 481.711 62.5698 481.816 62.6479C481.922 62.7222 482.07 62.7925 482.262 62.8589C482.453 62.9253 482.697 62.9917 482.994 63.0581C483.514 63.1753 483.941 63.3159 484.277 63.48C484.613 63.644 484.863 63.8452 485.027 64.0835C485.191 64.3218 485.273 64.6108 485.273 64.9507C485.273 65.228 485.215 65.4819 485.098 65.7124C484.984 65.9429 484.818 66.1421 484.6 66.3101C484.385 66.4741 484.127 66.603 483.826 66.6968C483.529 66.7866 483.195 66.8315 482.824 66.8315C482.266 66.8315 481.793 66.7319 481.406 66.5327C481.02 66.3335 480.727 66.0757 480.527 65.7593C480.328 65.4429 480.229 65.1089 480.229 64.7573H481.318C481.334 65.0542 481.42 65.2905 481.576 65.4663C481.732 65.6382 481.924 65.7612 482.15 65.8354C482.377 65.9058 482.602 65.9409 482.824 65.9409C483.121 65.9409 483.369 65.9019 483.568 65.8237C483.771 65.7456 483.926 65.6382 484.031 65.5015C484.137 65.3647 484.189 65.2085 484.189 65.0327ZM490.989 65.0327C490.989 64.8765 490.954 64.7319 490.883 64.5991C490.817 64.4624 490.678 64.3394 490.467 64.23C490.26 64.1167 489.948 64.019 489.53 63.937C489.178 63.8628 488.86 63.7749 488.575 63.6733C488.293 63.5718 488.053 63.4487 487.854 63.3042C487.659 63.1597 487.508 62.9897 487.403 62.7944C487.297 62.5991 487.245 62.3706 487.245 62.1089C487.245 61.8589 487.299 61.6226 487.409 61.3999C487.522 61.1772 487.68 60.98 487.883 60.8081C488.09 60.6362 488.338 60.5015 488.627 60.4038C488.916 60.3062 489.239 60.2573 489.594 60.2573C490.102 60.2573 490.536 60.3472 490.895 60.5269C491.254 60.7065 491.53 60.9468 491.721 61.2476C491.912 61.5444 492.008 61.8745 492.008 62.2378H490.924C490.924 62.062 490.871 61.8921 490.766 61.728C490.664 61.5601 490.514 61.4214 490.315 61.312C490.12 61.2026 489.879 61.1479 489.594 61.1479C489.293 61.1479 489.049 61.1948 488.862 61.2886C488.678 61.3784 488.543 61.4937 488.457 61.6343C488.375 61.7749 488.334 61.9233 488.334 62.0796C488.334 62.1968 488.354 62.3022 488.393 62.396C488.436 62.4858 488.51 62.5698 488.616 62.6479C488.721 62.7222 488.87 62.7925 489.061 62.8589C489.252 62.9253 489.496 62.9917 489.793 63.0581C490.313 63.1753 490.741 63.3159 491.077 63.48C491.412 63.644 491.662 63.8452 491.827 64.0835C491.991 64.3218 492.073 64.6108 492.073 64.9507C492.073 65.228 492.014 65.4819 491.897 65.7124C491.784 65.9429 491.618 66.1421 491.399 66.3101C491.184 66.4741 490.926 66.603 490.625 66.6968C490.329 66.7866 489.995 66.8315 489.623 66.8315C489.065 66.8315 488.592 66.7319 488.205 66.5327C487.819 66.3335 487.526 66.0757 487.327 65.7593C487.127 65.4429 487.028 65.1089 487.028 64.7573H488.118C488.133 65.0542 488.219 65.2905 488.375 65.4663C488.532 65.6382 488.723 65.7612 488.95 65.8354C489.176 65.9058 489.401 65.9409 489.623 65.9409C489.92 65.9409 490.168 65.9019 490.368 65.8237C490.571 65.7456 490.725 65.6382 490.83 65.5015C490.936 65.3647 490.989 65.2085 490.989 65.0327ZM495.714 66.7144H494.63V59.7065C494.63 59.2495 494.712 58.8647 494.876 58.5522C495.044 58.2358 495.284 57.9976 495.596 57.8374C495.909 57.6733 496.28 57.5913 496.71 57.5913C496.835 57.5913 496.96 57.5991 497.085 57.6147C497.214 57.6304 497.339 57.6538 497.46 57.6851L497.401 58.5698C497.319 58.5503 497.225 58.5366 497.12 58.5288C497.018 58.521 496.917 58.5171 496.815 58.5171C496.585 58.5171 496.386 58.564 496.218 58.6577C496.054 58.7476 495.929 58.8804 495.843 59.0562C495.757 59.2319 495.714 59.4487 495.714 59.7065V66.7144ZM497.061 60.3745V61.2065H493.628V60.3745H497.061ZM502.747 65.2495V60.3745H503.837V66.7144H502.8L502.747 65.2495ZM502.952 63.9136L503.404 63.9019C503.404 64.3237 503.359 64.7144 503.269 65.0737C503.183 65.4292 503.042 65.7378 502.847 65.9995C502.652 66.2612 502.396 66.4663 502.079 66.6147C501.763 66.7593 501.378 66.8315 500.925 66.8315C500.616 66.8315 500.333 66.7866 500.075 66.6968C499.821 66.6069 499.603 66.4683 499.419 66.2808C499.236 66.0933 499.093 65.8491 498.991 65.5483C498.894 65.2476 498.845 64.8862 498.845 64.4644V60.3745H499.929V64.4761C499.929 64.7612 499.96 64.9976 500.023 65.1851C500.089 65.3687 500.177 65.5151 500.286 65.6245C500.4 65.73 500.525 65.8042 500.661 65.8472C500.802 65.8901 500.946 65.9116 501.095 65.9116C501.556 65.9116 501.921 65.8237 502.191 65.6479C502.46 65.4683 502.654 65.228 502.771 64.9272C502.892 64.6226 502.952 64.2847 502.952 63.9136ZM507.267 57.7144V66.7144H506.177V57.7144H507.267ZM510.785 57.7144V66.7144H509.695V57.7144H510.785ZM514.907 66.0581L516.67 60.3745H517.83L515.287 67.6929C515.229 67.8491 515.151 68.0171 515.053 68.1968C514.959 68.3804 514.838 68.5542 514.69 68.7183C514.541 68.8823 514.362 69.0151 514.151 69.1167C513.944 69.2222 513.696 69.2749 513.407 69.2749C513.321 69.2749 513.211 69.2632 513.079 69.2397C512.946 69.2163 512.852 69.1968 512.797 69.1812L512.791 68.3022C512.823 68.3062 512.871 68.3101 512.938 68.314C513.008 68.3218 513.057 68.3257 513.084 68.3257C513.33 68.3257 513.539 68.2925 513.711 68.2261C513.883 68.1636 514.028 68.0562 514.145 67.9038C514.266 67.7554 514.37 67.5503 514.455 67.2886L514.907 66.0581ZM513.612 60.3745L515.258 65.2964L515.539 66.439L514.76 66.8374L512.428 60.3745H513.612ZM524.363 58.1831V66.7144H523.232V58.1831H524.363ZM527.933 61.6343V66.7144H526.843V60.3745H527.875L527.933 61.6343ZM527.711 63.3042L527.207 63.2866C527.211 62.853 527.267 62.4526 527.377 62.0854C527.486 61.7144 527.648 61.3921 527.863 61.1187C528.078 60.8452 528.345 60.6343 528.666 60.4858C528.986 60.3335 529.357 60.2573 529.779 60.2573C530.076 60.2573 530.349 60.3003 530.599 60.3862C530.849 60.4683 531.066 60.5991 531.25 60.7788C531.433 60.9585 531.576 61.189 531.677 61.4702C531.779 61.7515 531.83 62.0913 531.83 62.4897V66.7144H530.746V62.5425C530.746 62.2104 530.689 61.9448 530.576 61.7456C530.466 61.5464 530.31 61.4019 530.107 61.312C529.904 61.2183 529.666 61.1714 529.392 61.1714C529.072 61.1714 528.804 61.228 528.589 61.3413C528.375 61.4546 528.203 61.6108 528.074 61.8101C527.945 62.0093 527.851 62.2378 527.793 62.4956C527.738 62.7495 527.711 63.019 527.711 63.3042ZM531.818 62.7065L531.091 62.9292C531.095 62.5815 531.152 62.2476 531.261 61.9272C531.375 61.6069 531.537 61.3218 531.748 61.0718C531.963 60.8218 532.226 60.6245 532.539 60.48C532.851 60.3315 533.209 60.2573 533.611 60.2573C533.951 60.2573 534.252 60.3022 534.513 60.3921C534.779 60.4819 535.002 60.6206 535.181 60.8081C535.365 60.9917 535.504 61.228 535.597 61.5171C535.691 61.8062 535.738 62.1499 535.738 62.5483V66.7144H534.648V62.5366C534.648 62.1812 534.591 61.9058 534.478 61.7104C534.369 61.5112 534.213 61.3726 534.009 61.2944C533.81 61.2124 533.572 61.1714 533.295 61.1714C533.056 61.1714 532.845 61.2124 532.662 61.2944C532.478 61.3765 532.324 61.4897 532.199 61.6343C532.074 61.7749 531.978 61.937 531.912 62.1206C531.849 62.3042 531.818 62.4995 531.818 62.7065ZM539.062 61.5933V69.1519H537.973V60.3745H538.969L539.062 61.5933ZM543.334 63.4917V63.6147C543.334 64.0757 543.279 64.5034 543.17 64.8979C543.061 65.2886 542.9 65.6284 542.689 65.9175C542.482 66.2065 542.227 66.4312 541.922 66.5913C541.617 66.7515 541.268 66.8315 540.873 66.8315C540.471 66.8315 540.115 66.7651 539.807 66.6323C539.498 66.4995 539.236 66.3062 539.021 66.0522C538.807 65.7983 538.635 65.4937 538.506 65.1382C538.381 64.7827 538.295 64.3823 538.248 63.937V63.2808C538.295 62.812 538.383 62.3921 538.512 62.021C538.641 61.6499 538.811 61.3335 539.021 61.0718C539.236 60.8062 539.496 60.605 539.801 60.4683C540.105 60.3276 540.457 60.2573 540.855 60.2573C541.254 60.2573 541.607 60.3354 541.916 60.4917C542.225 60.644 542.484 60.8628 542.695 61.1479C542.906 61.4331 543.064 61.7749 543.17 62.1733C543.279 62.5679 543.334 63.0073 543.334 63.4917ZM542.244 63.6147V63.4917C542.244 63.1753 542.211 62.8784 542.145 62.6011C542.078 62.3198 541.975 62.0737 541.834 61.8628C541.697 61.6479 541.521 61.48 541.307 61.3589C541.092 61.2339 540.836 61.1714 540.539 61.1714C540.266 61.1714 540.027 61.2183 539.824 61.312C539.625 61.4058 539.455 61.5327 539.314 61.6929C539.174 61.8491 539.059 62.0288 538.969 62.2319C538.883 62.4312 538.818 62.6382 538.775 62.853V64.3706C538.854 64.644 538.963 64.9019 539.104 65.144C539.244 65.3823 539.432 65.5757 539.666 65.7241C539.9 65.8687 540.195 65.9409 540.551 65.9409C540.844 65.9409 541.096 65.8804 541.307 65.7593C541.521 65.6343 541.697 65.4644 541.834 65.2495C541.975 65.0347 542.078 64.7886 542.145 64.5112C542.211 64.23 542.244 63.9312 542.244 63.6147ZM545.03 63.6147V63.48C545.03 63.0229 545.096 62.5991 545.229 62.2085C545.362 61.814 545.553 61.4722 545.803 61.1831C546.053 60.8901 546.356 60.6636 546.711 60.5034C547.067 60.3394 547.465 60.2573 547.907 60.2573C548.352 60.2573 548.752 60.3394 549.108 60.5034C549.467 60.6636 549.772 60.8901 550.022 61.1831C550.276 61.4722 550.469 61.814 550.602 62.2085C550.735 62.5991 550.801 63.0229 550.801 63.48V63.6147C550.801 64.0718 550.735 64.4956 550.602 64.8862C550.469 65.2769 550.276 65.6187 550.022 65.9116C549.772 66.2007 549.469 66.4272 549.114 66.5913C548.762 66.7515 548.364 66.8315 547.918 66.8315C547.473 66.8315 547.073 66.7515 546.717 66.5913C546.362 66.4272 546.057 66.2007 545.803 65.9116C545.553 65.6187 545.362 65.2769 545.229 64.8862C545.096 64.4956 545.03 64.0718 545.03 63.6147ZM546.114 63.48V63.6147C546.114 63.9312 546.151 64.23 546.225 64.5112C546.299 64.7886 546.411 65.0347 546.559 65.2495C546.711 65.4644 546.901 65.6343 547.127 65.7593C547.354 65.8804 547.618 65.9409 547.918 65.9409C548.215 65.9409 548.475 65.8804 548.698 65.7593C548.924 65.6343 549.112 65.4644 549.26 65.2495C549.409 65.0347 549.52 64.7886 549.594 64.5112C549.672 64.23 549.711 63.9312 549.711 63.6147V63.48C549.711 63.1675 549.672 62.8726 549.594 62.5952C549.52 62.314 549.407 62.0659 549.254 61.8511C549.106 61.6323 548.918 61.4604 548.692 61.3354C548.469 61.2104 548.207 61.1479 547.907 61.1479C547.61 61.1479 547.348 61.2104 547.121 61.3354C546.899 61.4604 546.711 61.6323 546.559 61.8511C546.411 62.0659 546.299 62.314 546.225 62.5952C546.151 62.8726 546.114 63.1675 546.114 63.48ZM553.845 61.3706V66.7144H552.761V60.3745H553.815L553.845 61.3706ZM555.825 60.3394L555.819 61.3472C555.729 61.3276 555.643 61.3159 555.561 61.312C555.483 61.3042 555.393 61.3003 555.292 61.3003C555.042 61.3003 554.821 61.3394 554.63 61.4175C554.438 61.4956 554.276 61.605 554.143 61.7456C554.011 61.8862 553.905 62.0542 553.827 62.2495C553.753 62.4409 553.704 62.6519 553.68 62.8823L553.376 63.0581C553.376 62.6753 553.413 62.3159 553.487 61.98C553.565 61.644 553.684 61.3472 553.845 61.0894C554.005 60.8276 554.208 60.6245 554.454 60.48C554.704 60.3315 555.001 60.2573 555.345 60.2573C555.423 60.2573 555.512 60.2671 555.614 60.2866C555.716 60.3022 555.786 60.3198 555.825 60.3394ZM560.374 60.3745V61.2065H556.946V60.3745H560.374ZM558.107 58.8335H559.191V65.144C559.191 65.3589 559.224 65.521 559.29 65.6304C559.357 65.7397 559.443 65.812 559.548 65.8472C559.654 65.8823 559.767 65.8999 559.888 65.8999C559.978 65.8999 560.071 65.8921 560.169 65.8765C560.271 65.8569 560.347 65.8413 560.398 65.8296L560.404 66.7144C560.318 66.7417 560.204 66.7671 560.064 66.7905C559.927 66.8179 559.761 66.8315 559.566 66.8315C559.3 66.8315 559.056 66.7788 558.833 66.6733C558.611 66.5679 558.433 66.3921 558.3 66.146C558.171 65.896 558.107 65.5601 558.107 65.1382V58.8335ZM564.877 66.8315C564.435 66.8315 564.035 66.7573 563.675 66.6089C563.32 66.4565 563.013 66.2437 562.755 65.9702C562.502 65.6968 562.306 65.3726 562.17 64.9976C562.033 64.6226 561.964 64.2124 561.964 63.7671V63.521C561.964 63.0054 562.041 62.5464 562.193 62.144C562.345 61.7378 562.552 61.394 562.814 61.1128C563.076 60.8315 563.373 60.6187 563.705 60.4741C564.037 60.3296 564.38 60.2573 564.736 60.2573C565.189 60.2573 565.58 60.3354 565.908 60.4917C566.24 60.6479 566.511 60.8667 566.722 61.1479C566.933 61.4253 567.089 61.7534 567.191 62.1323C567.293 62.5073 567.343 62.9175 567.343 63.3628V63.8491H562.609V62.9644H566.259V62.8823C566.244 62.6011 566.185 62.3276 566.084 62.062C565.986 61.7964 565.83 61.5776 565.615 61.4058C565.4 61.2339 565.107 61.1479 564.736 61.1479C564.49 61.1479 564.263 61.2007 564.056 61.3062C563.849 61.4077 563.671 61.5601 563.523 61.7632C563.375 61.9663 563.259 62.2144 563.177 62.5073C563.095 62.8003 563.054 63.1382 563.054 63.521V63.7671C563.054 64.0679 563.095 64.3511 563.177 64.6167C563.263 64.8784 563.386 65.1089 563.546 65.3081C563.711 65.5073 563.908 65.6636 564.138 65.7769C564.373 65.8901 564.638 65.9468 564.935 65.9468C565.318 65.9468 565.642 65.8687 565.908 65.7124C566.173 65.5562 566.406 65.3472 566.605 65.0854L567.261 65.6069C567.125 65.814 566.951 66.0112 566.74 66.1987C566.529 66.3862 566.269 66.5386 565.961 66.6558C565.656 66.7729 565.295 66.8315 564.877 66.8315ZM573.205 65.4839V57.7144H574.295V66.7144H573.299L573.205 65.4839ZM568.939 63.6147V63.4917C568.939 63.0073 568.998 62.5679 569.115 62.1733C569.236 61.7749 569.406 61.4331 569.625 61.1479C569.848 60.8628 570.111 60.644 570.416 60.4917C570.725 60.3354 571.068 60.2573 571.447 60.2573C571.846 60.2573 572.193 60.3276 572.49 60.4683C572.791 60.605 573.045 60.8062 573.252 61.0718C573.463 61.3335 573.629 61.6499 573.75 62.021C573.871 62.3921 573.955 62.812 574.002 63.2808V63.8198C573.959 64.2847 573.875 64.7026 573.75 65.0737C573.629 65.4448 573.463 65.7612 573.252 66.0229C573.045 66.2847 572.791 66.4858 572.49 66.6265C572.189 66.7632 571.838 66.8315 571.436 66.8315C571.064 66.8315 570.725 66.7515 570.416 66.5913C570.111 66.4312 569.848 66.2065 569.625 65.9175C569.406 65.6284 569.236 65.2886 569.115 64.8979C568.998 64.5034 568.939 64.0757 568.939 63.6147ZM570.029 63.4917V63.6147C570.029 63.9312 570.061 64.228 570.123 64.5054C570.189 64.7827 570.291 65.0269 570.428 65.2378C570.564 65.4487 570.738 65.6147 570.949 65.7358C571.16 65.853 571.412 65.9116 571.705 65.9116C572.064 65.9116 572.359 65.8354 572.59 65.6831C572.824 65.5308 573.012 65.3296 573.152 65.0796C573.293 64.8296 573.402 64.5581 573.48 64.2651V62.853C573.434 62.6382 573.365 62.4312 573.275 62.2319C573.189 62.0288 573.076 61.8491 572.936 61.6929C572.799 61.5327 572.629 61.4058 572.426 61.312C572.227 61.2183 571.99 61.1714 571.717 61.1714C571.42 61.1714 571.164 61.2339 570.949 61.3589C570.738 61.48 570.564 61.6479 570.428 61.8628C570.291 62.0737 570.189 62.3198 570.123 62.6011C570.061 62.8784 570.029 63.1753 570.029 63.4917Z" fill="#797979"/>
<path d="M248.018 8.28906L249.507 4.89062H250.815L248.589 9.46094L248.579 12H247.432L247.427 9.42676L245.22 4.89062H246.523L248.018 8.28906ZM251.748 9.30957C251.748 8.92546 251.803 8.57064 251.914 8.24512C252.025 7.91634 252.186 7.63151 252.397 7.39062C252.606 7.14974 252.861 6.96094 253.164 6.82422C253.467 6.6875 253.812 6.61914 254.199 6.61914C254.586 6.61914 254.931 6.6875 255.234 6.82422C255.54 6.96094 255.799 7.14974 256.011 7.39062C256.219 7.63151 256.378 7.91634 256.489 8.24512C256.6 8.57064 256.655 8.92546 256.655 9.30957V9.41211C256.655 9.79948 256.6 10.1559 256.489 10.4814C256.378 10.807 256.219 11.0902 256.011 11.3311C255.802 11.5719 255.545 11.7607 255.239 11.8975C254.936 12.0342 254.593 12.1025 254.209 12.1025C253.821 12.1025 253.475 12.0342 253.169 11.8975C252.863 11.7607 252.606 11.5719 252.397 11.3311C252.186 11.0902 252.025 10.807 251.914 10.4814C251.803 10.1559 251.748 9.79948 251.748 9.41211V9.30957ZM252.915 9.41211C252.915 9.64974 252.939 9.87435 252.988 10.0859C253.04 10.2975 253.12 10.4831 253.227 10.6426C253.332 10.8021 253.465 10.929 253.628 11.0234C253.79 11.1146 253.984 11.1602 254.209 11.1602C254.427 11.1602 254.617 11.1146 254.78 11.0234C254.943 10.929 255.076 10.8021 255.18 10.6426C255.285 10.4831 255.361 10.2975 255.41 10.0859C255.462 9.87435 255.488 9.64974 255.488 9.41211V9.30957C255.488 9.07845 255.462 8.8571 255.41 8.64551C255.358 8.43392 255.281 8.24837 255.18 8.08887C255.073 7.92936 254.938 7.80241 254.775 7.70801C254.616 7.61361 254.424 7.56641 254.199 7.56641C253.978 7.56641 253.786 7.61361 253.623 7.70801C253.463 7.80241 253.332 7.92936 253.227 8.08887C253.12 8.24837 253.04 8.43392 252.988 8.64551C252.939 8.8571 252.915 9.07845 252.915 9.30957V9.41211ZM261.63 12L261.562 11.2627C261.383 11.5264 261.165 11.7331 260.908 11.8828C260.651 12.0293 260.363 12.1025 260.044 12.1025C259.77 12.1025 259.519 12.0602 259.292 11.9756C259.067 11.8877 258.873 11.7526 258.711 11.5703C258.551 11.388 258.427 11.1553 258.339 10.8721C258.252 10.5856 258.208 10.2438 258.208 9.84668V6.7168H259.375V9.85645C259.375 10.1006 259.393 10.3057 259.428 10.4717C259.464 10.6344 259.521 10.7646 259.599 10.8623C259.677 10.9632 259.777 11.0348 259.897 11.0771C260.018 11.1195 260.159 11.1406 260.322 11.1406C260.491 11.1406 260.643 11.1227 260.776 11.0869C260.909 11.0479 261.027 10.9958 261.128 10.9307C261.212 10.8721 261.287 10.8037 261.352 10.7256C261.417 10.6442 261.473 10.5547 261.518 10.457V6.7168H262.69V12H261.63ZM268.027 6.61914C268.216 6.61914 268.398 6.63216 268.574 6.6582C268.753 6.68424 268.893 6.71517 268.994 6.75098L268.828 7.90332C268.649 7.86426 268.471 7.83496 268.295 7.81543C268.123 7.7959 267.95 7.78613 267.778 7.78613C267.582 7.78613 267.407 7.80566 267.25 7.84473C267.094 7.88379 266.956 7.94401 266.835 8.02539C266.705 8.10352 266.594 8.2028 266.503 8.32324C266.412 8.44368 266.336 8.58203 266.274 8.73828V12H265.107V6.7168H266.201L266.249 7.44922L266.254 7.57129C266.469 7.27507 266.726 7.04232 267.026 6.87305C267.329 6.70378 267.662 6.61914 268.027 6.61914ZM279.145 9.24121H277.943V12H276.771V4.89062H279.027C279.395 4.89388 279.734 4.94108 280.043 5.03223C280.352 5.12337 280.619 5.25684 280.844 5.43262C281.065 5.61165 281.238 5.83464 281.361 6.10156C281.485 6.36523 281.547 6.67448 281.547 7.0293C281.547 7.27344 281.514 7.49479 281.449 7.69336C281.387 7.89193 281.299 8.07096 281.186 8.23047C281.072 8.38997 280.935 8.52995 280.775 8.65039C280.616 8.77083 280.438 8.875 280.243 8.96289L281.762 11.9365V12H280.507L279.145 9.24121ZM277.943 8.28418H279.042C279.25 8.28092 279.438 8.25 279.604 8.19141C279.773 8.12956 279.916 8.04167 280.033 7.92773C280.137 7.83008 280.219 7.70964 280.277 7.56641C280.336 7.42318 280.365 7.26042 280.365 7.07812C280.365 6.87305 280.333 6.69401 280.268 6.54102C280.206 6.38477 280.113 6.25456 279.989 6.15039C279.875 6.05273 279.737 5.97949 279.574 5.93066C279.411 5.87858 279.229 5.85091 279.027 5.84766H277.943V8.28418ZM285.458 12.0977C285.067 12.0977 284.709 12.0326 284.384 11.9023C284.061 11.7721 283.785 11.5915 283.554 11.3604C283.322 11.1325 283.143 10.8639 283.016 10.5547C282.893 10.2422 282.831 9.90527 282.831 9.54395V9.34375C282.831 8.93034 282.896 8.55599 283.026 8.2207C283.156 7.88542 283.335 7.59896 283.563 7.36133C283.791 7.1237 284.055 6.94141 284.354 6.81445C284.657 6.68424 284.979 6.61914 285.321 6.61914C285.702 6.61914 286.039 6.68424 286.332 6.81445C286.625 6.94141 286.871 7.11882 287.069 7.34668C287.268 7.5778 287.417 7.85286 287.518 8.17188C287.619 8.49089 287.67 8.83919 287.67 9.2168V9.71973H284.008V9.74414C284.043 9.97526 284.099 10.1689 284.174 10.3252C284.249 10.4814 284.351 10.6214 284.481 10.7451C284.611 10.8753 284.764 10.9762 284.94 11.0479C285.119 11.1195 285.315 11.1553 285.526 11.1553C285.816 11.1553 286.086 11.0999 286.337 10.9893C286.587 10.8753 286.794 10.7142 286.957 10.5059L287.582 11.1113C287.406 11.3652 287.136 11.5931 286.771 11.7949C286.41 11.9967 285.972 12.0977 285.458 12.0977ZM285.316 7.56641C285.15 7.56641 284.996 7.59733 284.852 7.65918C284.712 7.71777 284.587 7.80241 284.476 7.91309C284.366 8.02702 284.273 8.16374 284.198 8.32324C284.123 8.48275 284.068 8.66341 284.032 8.86523H286.517V8.78711C286.517 8.63411 286.49 8.48275 286.434 8.33301C286.379 8.18001 286.301 8.04655 286.2 7.93262C286.102 7.82194 285.979 7.73405 285.829 7.66895C285.682 7.60059 285.512 7.56641 285.316 7.56641ZM289.046 9.31934C289.046 8.91895 289.095 8.55436 289.193 8.22559C289.291 7.89355 289.432 7.60872 289.618 7.37109C289.803 7.13346 290.026 6.94954 290.287 6.81934C290.55 6.68587 290.847 6.61914 291.175 6.61914C291.371 6.61914 291.548 6.6403 291.708 6.68262C291.867 6.72168 292.012 6.78027 292.142 6.8584C292.227 6.90723 292.307 6.96582 292.381 7.03418C292.456 7.09928 292.526 7.1709 292.591 7.24902L292.64 6.7168H293.7V11.8535C293.7 12.2083 293.641 12.5225 293.524 12.7959C293.41 13.0726 293.249 13.307 293.041 13.499C292.829 13.6878 292.575 13.8311 292.279 13.9287C291.986 14.0296 291.662 14.0801 291.307 14.0801C291.157 14.0801 290.993 14.0638 290.814 14.0312C290.635 13.9987 290.456 13.9482 290.277 13.8799C290.098 13.8115 289.927 13.722 289.764 13.6113C289.601 13.5007 289.462 13.3672 289.344 13.2109L289.896 12.5029C289.99 12.6169 290.091 12.7145 290.199 12.7959C290.31 12.8805 290.422 12.9489 290.536 13.001C290.65 13.0531 290.765 13.0905 290.882 13.1133C291 13.1393 291.118 13.1523 291.239 13.1523C291.447 13.1523 291.631 13.123 291.791 13.0645C291.953 13.0059 292.092 12.9212 292.206 12.8105C292.31 12.7031 292.39 12.5713 292.445 12.415C292.504 12.2588 292.533 12.0814 292.533 11.8828V11.5166C292.464 11.5882 292.393 11.6549 292.318 11.7168C292.246 11.7786 292.168 11.8324 292.084 11.8779C291.957 11.9495 291.817 12.0033 291.664 12.0391C291.511 12.0781 291.345 12.0977 291.166 12.0977C290.84 12.0977 290.547 12.0309 290.287 11.8975C290.026 11.7607 289.803 11.5719 289.618 11.3311C289.435 11.0934 289.294 10.8118 289.193 10.4863C289.095 10.1576 289.046 9.80273 289.046 9.42188V9.31934ZM290.218 9.42188C290.218 9.65625 290.241 9.8776 290.287 10.0859C290.336 10.2943 290.412 10.4749 290.516 10.6279C290.617 10.7874 290.746 10.9128 290.902 11.0039C291.058 11.0918 291.244 11.1357 291.459 11.1357C291.592 11.1357 291.713 11.1211 291.82 11.0918C291.931 11.0625 292.03 11.0218 292.118 10.9697C292.206 10.9144 292.284 10.8477 292.352 10.7695C292.421 10.6914 292.481 10.6051 292.533 10.5107V8.19629C292.481 8.09863 292.417 8.01074 292.342 7.93262C292.271 7.85449 292.188 7.78776 292.093 7.73242C292.009 7.68685 291.914 7.65104 291.81 7.625C291.706 7.5957 291.592 7.58105 291.468 7.58105C291.25 7.58105 291.063 7.62663 290.907 7.71777C290.751 7.80892 290.622 7.93424 290.521 8.09375C290.417 8.25326 290.34 8.4388 290.292 8.65039C290.243 8.85872 290.218 9.08171 290.218 9.31934V9.42188ZM295.672 6.7168H298.475V11.0332H300.028V12H295.672V11.0332H297.298V7.68848H295.672V6.7168ZM297.191 5.34961C297.191 5.25521 297.207 5.16895 297.24 5.09082C297.272 5.00944 297.319 4.93945 297.381 4.88086C297.44 4.82552 297.51 4.7832 297.591 4.75391C297.676 4.72135 297.77 4.70508 297.874 4.70508C298.05 4.70508 298.192 4.75065 298.299 4.8418C298.41 4.92969 298.473 5.04362 298.49 5.18359C298.512 5.32682 298.488 5.45215 298.416 5.55957C298.345 5.66374 298.241 5.73372 298.104 5.76953C298.036 5.83138 297.954 5.87207 297.86 5.8916C297.765 5.91113 297.661 5.90299 297.547 5.86719C297.43 5.83138 297.341 5.7679 297.279 5.67676C297.22 5.58236 297.191 5.47331 297.191 5.34961ZM305.062 10.5693C305.062 10.4782 305.041 10.3968 304.998 10.3252C304.959 10.2536 304.892 10.1852 304.798 10.1201C304.697 10.0615 304.565 10.0062 304.403 9.9541C304.24 9.90202 304.036 9.85319 303.792 9.80762C303.486 9.74577 303.206 9.66927 302.952 9.57812C302.702 9.48698 302.485 9.3763 302.303 9.24609C302.124 9.1224 301.984 8.97591 301.883 8.80664C301.782 8.63737 301.732 8.44043 301.732 8.21582C301.732 8.00098 301.782 7.79753 301.883 7.60547C301.987 7.41016 302.135 7.23926 302.327 7.09277C302.516 6.94629 302.744 6.83073 303.011 6.74609C303.281 6.66146 303.581 6.61914 303.909 6.61914C304.261 6.61914 304.577 6.66309 304.857 6.75098C305.137 6.83561 305.374 6.9528 305.57 7.10254C305.762 7.25228 305.91 7.42969 306.014 7.63477C306.118 7.83984 306.17 8.0612 306.17 8.29883H305.003C305.003 8.20117 304.982 8.1084 304.94 8.02051C304.901 7.92936 304.842 7.84798 304.764 7.77637C304.673 7.69173 304.556 7.625 304.412 7.57617C304.269 7.52409 304.101 7.49805 303.909 7.49805C303.734 7.49805 303.579 7.51758 303.446 7.55664C303.315 7.59245 303.208 7.6429 303.123 7.70801C303.039 7.7666 302.975 7.83659 302.933 7.91797C302.89 7.99609 302.869 8.0791 302.869 8.16699C302.869 8.25814 302.887 8.34115 302.923 8.41602C302.959 8.48763 303.022 8.55111 303.113 8.60645C303.198 8.66504 303.315 8.71875 303.465 8.76758C303.618 8.81641 303.81 8.86035 304.041 8.89941C304.363 8.95801 304.658 9.02962 304.925 9.11426C305.192 9.19889 305.42 9.30306 305.609 9.42676C305.797 9.55697 305.944 9.70996 306.048 9.88574C306.152 10.0615 306.204 10.2699 306.204 10.5107C306.204 10.7451 306.149 10.96 306.038 11.1553C305.931 11.3506 305.778 11.5182 305.579 11.6582C305.377 11.7982 305.137 11.9072 304.857 11.9854C304.577 12.0635 304.266 12.1025 303.924 12.1025C303.543 12.1025 303.205 12.0521 302.908 11.9512C302.615 11.8503 302.37 11.7168 302.171 11.5508C301.969 11.388 301.816 11.2008 301.712 10.9893C301.608 10.7777 301.556 10.5628 301.556 10.3447H302.689C302.698 10.5075 302.741 10.6458 302.816 10.7598C302.894 10.8704 302.991 10.96 303.109 11.0283C303.223 11.0999 303.353 11.152 303.499 11.1846C303.646 11.2139 303.794 11.2285 303.944 11.2285C304.145 11.2285 304.321 11.2074 304.471 11.165C304.624 11.1227 304.746 11.0658 304.837 10.9941C304.912 10.9355 304.967 10.8721 305.003 10.8037C305.042 10.7321 305.062 10.654 305.062 10.5693ZM310.159 5.42773V6.7168H312.146V7.59082H310.159V10.1152C310.159 10.3105 310.182 10.4749 310.228 10.6084C310.276 10.7386 310.343 10.8411 310.428 10.916C310.512 10.9941 310.613 11.0495 310.73 11.082C310.848 11.1146 310.976 11.1309 311.116 11.1309C311.217 11.1309 311.321 11.126 311.429 11.1162C311.536 11.1064 311.64 11.0934 311.741 11.0771C311.839 11.0641 311.93 11.0495 312.015 11.0332C312.103 11.0137 312.176 10.9974 312.234 10.9844L312.361 11.79C312.277 11.8421 312.174 11.8877 312.054 11.9268C311.937 11.9626 311.81 11.9935 311.673 12.0195C311.536 12.0456 311.393 12.0651 311.243 12.0781C311.097 12.0944 310.95 12.1025 310.804 12.1025C310.537 12.1025 310.291 12.0667 310.066 11.9951C309.845 11.9202 309.655 11.8047 309.495 11.6484C309.336 11.4954 309.21 11.2985 309.119 11.0576C309.031 10.8167 308.987 10.527 308.987 10.1885V7.59082H307.708V6.7168H308.987V5.42773H310.159ZM317.674 6.61914C317.862 6.61914 318.045 6.63216 318.221 6.6582C318.4 6.68424 318.54 6.71517 318.64 6.75098L318.474 7.90332C318.295 7.86426 318.118 7.83496 317.942 7.81543C317.77 7.7959 317.597 7.78613 317.425 7.78613C317.229 7.78613 317.054 7.80566 316.897 7.84473C316.741 7.88379 316.603 7.94401 316.482 8.02539C316.352 8.10352 316.241 8.2028 316.15 8.32324C316.059 8.44368 315.983 8.58203 315.921 8.73828V12H314.754V6.7168H315.847L315.896 7.44922L315.901 7.57129C316.116 7.27507 316.373 7.04232 316.673 6.87305C316.975 6.70378 317.309 6.61914 317.674 6.61914ZM323.601 12C323.565 11.9349 323.536 11.8568 323.513 11.7656C323.494 11.6712 323.476 11.5736 323.46 11.4727C323.378 11.5573 323.285 11.6387 323.181 11.7168C323.08 11.7917 322.966 11.8568 322.839 11.9121C322.713 11.9707 322.576 12.0163 322.429 12.0488C322.283 12.0814 322.125 12.0977 321.956 12.0977C321.682 12.0977 321.432 12.0586 321.204 11.9805C320.979 11.8991 320.787 11.7884 320.628 11.6484C320.465 11.5117 320.338 11.3473 320.247 11.1553C320.159 10.96 320.115 10.75 320.115 10.5254C320.115 10.2357 320.172 9.98014 320.286 9.75879C320.403 9.53418 320.572 9.34863 320.794 9.20215C320.999 9.06543 321.251 8.96126 321.55 8.88965C321.853 8.81803 322.195 8.78223 322.576 8.78223H323.425V8.42578C323.425 8.28906 323.401 8.16536 323.352 8.05469C323.307 7.94401 323.24 7.84798 323.152 7.7666C323.058 7.68522 322.942 7.62337 322.805 7.58105C322.672 7.53548 322.517 7.5127 322.341 7.5127C322.182 7.5127 322.042 7.53223 321.921 7.57129C321.804 7.61035 321.707 7.66406 321.629 7.73242C321.55 7.79427 321.492 7.87077 321.453 7.96191C321.417 8.0498 321.399 8.14421 321.399 8.24512H320.227C320.23 8.03353 320.281 7.83008 320.379 7.63477C320.476 7.43945 320.619 7.26693 320.808 7.11719C320.99 6.96419 321.215 6.84375 321.482 6.75586C321.752 6.66471 322.06 6.61914 322.405 6.61914C322.714 6.61914 323.002 6.6582 323.269 6.73633C323.539 6.8112 323.772 6.9235 323.967 7.07324C324.163 7.22298 324.316 7.41341 324.426 7.64453C324.537 7.8724 324.592 8.13607 324.592 8.43555V10.7842C324.592 11.0218 324.609 11.2367 324.641 11.4287C324.677 11.6175 324.727 11.7803 324.793 11.917V12H323.601ZM322.18 11.1602C322.333 11.1602 322.475 11.1406 322.605 11.1016C322.739 11.0625 322.859 11.012 322.966 10.9502C323.074 10.8883 323.167 10.8184 323.245 10.7402C323.323 10.6621 323.383 10.5807 323.425 10.4961V9.51953H322.673C322.42 9.51953 322.2 9.54395 322.014 9.59277C321.829 9.63835 321.681 9.70508 321.57 9.79297C321.472 9.86784 321.399 9.95736 321.35 10.0615C321.305 10.1657 321.282 10.2829 321.282 10.4131C321.282 10.5205 321.301 10.6214 321.34 10.7158C321.379 10.807 321.436 10.8851 321.511 10.9502C321.586 11.0153 321.679 11.0674 321.79 11.1064C321.9 11.1423 322.031 11.1602 322.18 11.1602ZM330.085 6.61914C330.274 6.61914 330.456 6.63216 330.632 6.6582C330.811 6.68424 330.951 6.71517 331.052 6.75098L330.886 7.90332C330.707 7.86426 330.53 7.83496 330.354 7.81543C330.181 7.7959 330.009 7.78613 329.836 7.78613C329.641 7.78613 329.465 7.80566 329.309 7.84473C329.153 7.88379 329.014 7.94401 328.894 8.02539C328.764 8.10352 328.653 8.2028 328.562 8.32324C328.471 8.44368 328.394 8.58203 328.332 8.73828V12H327.165V6.7168H328.259L328.308 7.44922L328.313 7.57129C328.528 7.27507 328.785 7.04232 329.084 6.87305C329.387 6.70378 329.721 6.61914 330.085 6.61914Z" fill="#48E59B"/>
<rect width="26" height="26" transform="translate(274 16)" fill="#111111"/>
<path fill-rule="evenodd" clip-rule="evenodd" d="M284.424 21.2046C282.423 21.8654 280.763 23.275 279.775 25.1015C280.681 24.7423 281.698 24.4653 282.774 24.2682C283.175 23.1657 283.724 22.1275 284.424 21.2046ZM278.812 28.424C278.859 27.75 278.987 27.0983 279.187 26.4789C280.09 25.999 281.202 25.6258 282.43 25.3638C282.165 26.3586 282.012 27.3899 281.971 28.424H278.812ZM282.98 28.424C283.027 27.3088 283.214 26.2062 283.537 25.1624C284.464 25.0209 285.438 24.9377 286.424 24.9143V28.424H282.98ZM287.576 28.424V24.9144C288.595 24.9385 289.601 25.0266 290.556 25.1768C290.887 26.2167 291.078 27.3143 291.127 28.424H287.576ZM287.576 23.9061C288.444 23.9259 289.311 23.9904 290.154 24.1007C289.624 22.8739 288.881 21.7598 287.93 20.8442C287.813 20.831 287.695 20.8202 287.576 20.812V23.9061ZM292.136 28.424C292.094 27.3971 291.938 26.3732 291.668 25.3853C292.858 25.6462 293.934 26.0122 294.814 26.4794C295.013 27.0987 295.141 27.7502 295.188 28.424H292.136ZM291.314 24.2847C292.357 24.4807 293.344 24.7524 294.225 25.102C293.245 23.2883 291.601 21.8856 289.619 21.2188C290.338 22.1427 290.903 23.1815 291.314 24.2847ZM283.926 24.0903C284.744 23.9863 285.583 23.9252 286.424 23.9061V20.812C286.306 20.8202 286.189 20.8308 286.073 20.8438C285.156 21.7567 284.439 22.8672 283.926 24.0903ZM281.971 29.576H278.812C278.85 30.1315 278.944 30.6718 279.088 31.1914C279.991 31.6871 281.112 32.0728 282.356 32.3437C282.136 31.4399 282.008 30.5091 281.971 29.576ZM282.671 33.4361C281.563 33.2271 280.519 32.9325 279.597 32.5498C280.556 34.5453 282.298 36.0933 284.424 36.7957C283.662 35.7906 283.078 34.6489 282.671 33.4361ZM283.808 33.618C284.663 33.7313 285.543 33.7975 286.424 33.8175V37.1882C286.306 37.18 286.19 37.1694 286.073 37.1564C285.084 36.1714 284.327 34.9563 283.808 33.618ZM286.424 32.8092C285.408 32.7852 284.404 32.6975 283.451 32.548C283.181 31.5907 283.023 30.5886 282.98 29.576H286.424V32.8092ZM287.576 33.8175V37.1882C287.695 37.18 287.813 37.1692 287.93 37.156C288.956 36.1681 289.74 34.949 290.276 33.6066C289.395 33.7269 288.486 33.7968 287.576 33.8175ZM290.644 32.5326C289.663 32.6915 288.626 32.7843 287.576 32.8092V29.576H291.127C291.083 30.5829 290.921 31.5798 290.644 32.5326ZM291.42 33.4185C291.002 34.6323 290.403 35.7751 289.619 36.7814C291.726 36.0725 293.451 34.5317 294.403 32.5494C293.507 32.9217 292.495 33.2106 291.42 33.4185ZM294.912 31.1909C294.034 31.6734 292.948 32.0516 291.745 32.3213C291.968 31.4247 292.098 30.5016 292.136 29.576H295.188C295.15 30.1313 295.056 30.6714 294.912 31.1909ZM277.496 29.0001C277.496 23.7512 281.751 19.4961 287 19.4961C292.249 19.4961 296.504 23.7512 296.504 29.0001C296.504 34.249 292.249 38.5041 287 38.5041C281.751 38.5041 277.496 34.249 277.496 29.0001Z" fill="#48E59B"/>
</svg>
