<svg width="60" height="60" viewBox="0 0 60 60" fill="none" xmlns="http://www.w3.org/2000/svg">
<path fill-rule="evenodd" clip-rule="evenodd" d="M29.9973 1C13.9854 1 1 13.9837 1 30.001C1 42.8119 9.30861 53.6823 20.8324 57.5188C22.2833 57.7841 22.8121 56.8886 22.8121 56.1196C22.8121 55.4306 22.7872 53.6075 22.7729 51.1881C14.7064 52.9399 13.0045 47.3 13.0045 47.3C11.6853 43.9495 9.78396 43.0576 9.78396 43.0576C7.15091 41.2595 9.98335 41.2951 9.98335 41.2951C12.8941 41.4998 14.4252 44.2842 14.4252 44.2842C17.0119 48.7153 21.2134 47.4353 22.8655 46.6929C23.129 44.82 23.8785 43.5418 24.7063 42.8172C18.267 42.0837 11.4966 39.5967 11.4966 28.4842C11.4966 25.317 12.6271 22.7303 14.4821 20.7025C14.183 19.969 13.1879 17.0208 14.767 13.0276C14.767 13.0276 17.2006 12.2479 22.7409 15.9989C25.0535 15.3562 27.5352 15.0358 30.0009 15.0233C32.4648 15.0358 34.9448 15.3562 37.2609 15.9989C42.7976 12.2479 45.2277 13.0276 45.2277 13.0276C46.8104 17.0208 45.8152 19.969 45.5179 20.7025C47.3765 22.7303 48.4981 25.317 48.4981 28.4842C48.4981 39.6252 41.717 42.0766 35.2581 42.7941C36.2978 43.6896 37.2253 45.4592 37.2253 48.1652C37.2253 52.0409 37.1897 55.1689 37.1897 56.1196C37.1897 56.8958 37.7131 57.7983 39.1836 57.5153C50.6985 53.6716 59 42.8101 59 30.001C59 13.9837 46.0146 1 29.9973 1Z" fill="#342C2C"/>
</svg>
