<svg width="51" height="50" viewBox="0 0 51 50" fill="none" xmlns="http://www.w3.org/2000/svg">
<circle cx="25.3333" cy="25" r="23.6111" fill="white" fill-opacity="0.9"/>
<path fill-rule="evenodd" clip-rule="evenodd" d="M25.3311 0.835938C11.9878 0.835938 1.16663 11.6557 1.16663 25.0034C1.16663 35.6792 8.09047 44.7379 17.6936 47.935C18.9027 48.156 19.3434 47.4098 19.3434 46.7689C19.3434 46.1948 19.3226 44.6756 19.3107 42.6594C12.5887 44.1192 11.1704 39.4193 11.1704 39.4193C10.071 36.6272 8.48659 35.8839 8.48659 35.8839C6.29238 34.3855 8.65275 34.4152 8.65275 34.4152C11.0784 34.5858 12.3543 36.9061 12.3543 36.9061C14.5099 40.5987 18.0111 39.532 19.3879 38.9134C19.6075 37.3526 20.232 36.2874 20.9219 35.6836C15.5558 35.0724 9.91379 32.9999 9.91379 23.7394C9.91379 21.1001 10.8559 18.9445 12.4017 17.2547C12.1525 16.6435 11.3232 14.1866 12.6391 10.859C12.6391 10.859 14.6671 10.2092 19.284 13.335C21.2112 12.7995 23.2793 12.5324 25.334 12.522C27.3873 12.5324 29.4539 12.7995 31.3841 13.335C35.998 10.2092 38.023 10.859 38.023 10.859C39.3419 14.1866 38.5126 16.6435 38.2649 17.2547C39.8137 18.9445 40.7484 21.1001 40.7484 23.7394C40.7484 33.0236 35.0974 35.0665 29.715 35.6643C30.5814 36.4106 31.3544 37.8852 31.3544 40.1403C31.3544 43.37 31.3247 45.9767 31.3247 46.7689C31.3247 47.4157 31.7609 48.1679 32.9863 47.932C42.5821 44.729 49.5 35.6777 49.5 25.0034C49.5 11.6557 38.6788 0.835938 25.3311 0.835938" fill="#313131"/>
</svg>
