<svg width="20" height="20" viewBox="0 0 20 20" fill="none" xmlns="http://www.w3.org/2000/svg">
<path fill-rule="evenodd" clip-rule="evenodd" d="M7.22548 2.00424C5.22549 2.66459 3.56579 4.07307 2.57775 5.89833C3.48385 5.53979 4.5008 5.2634 5.57629 5.06685C5.9768 3.96467 6.52582 2.92691 7.22548 2.00424ZM1.61278 9.22403C1.65961 8.54851 1.78818 7.89549 1.98867 7.2748C2.89291 6.79591 4.00456 6.42358 5.23222 6.16222C4.96651 7.15749 4.8137 8.18937 4.77238 9.22403H1.61278ZM5.7812 9.22403C5.82897 8.10844 6.01553 7.00544 6.3387 5.96121C7.26516 5.82024 8.23781 5.73736 9.22262 5.71423V9.22403H5.7812ZM10.3746 9.22403V5.71444C11.3922 5.73872 12.3966 5.82678 13.3504 5.97682C13.6814 7.01667 13.8724 8.11429 13.9215 9.22403H10.3746ZM10.3746 4.70618C11.2412 4.72605 12.1068 4.79055 12.9484 4.90067C12.418 3.67354 11.6753 2.55911 10.7239 1.6434C10.6082 1.63045 10.4917 1.61991 10.3746 1.61182V4.70618ZM14.9304 9.22403C14.8881 8.19712 14.7326 7.17323 14.4627 6.18528C15.6554 6.44691 16.7349 6.81434 17.6159 7.28345C17.8148 7.90156 17.9424 8.55164 17.989 9.22403H14.9304ZM14.1085 5.08473C15.1551 5.2813 16.1444 5.55406 17.0277 5.90514C16.0459 4.08727 14.3982 2.68194 12.4114 2.01593C13.1317 2.9405 13.6968 3.98035 14.1085 5.08473ZM6.72772 4.88935C7.54454 4.78575 8.38312 4.72493 9.22262 4.70597V1.61213C9.10603 1.62025 8.9901 1.6308 8.87489 1.64373C7.95773 2.55636 7.24066 3.66657 6.72772 4.88935ZM4.77238 10.376H1.61277C1.65137 10.933 1.74554 11.4746 1.88977 11.9955C2.79329 12.4902 3.91456 12.875 5.15763 13.1453C4.93774 12.241 4.80967 11.3097 4.77238 10.376ZM5.47293 14.2375C4.36484 14.029 3.32113 13.735 2.39962 13.3531C3.35868 15.3473 5.09996 16.8942 7.22562 17.596C6.46366 16.5912 5.88034 15.4499 5.47293 14.2375ZM6.61004 14.419C7.4639 14.5319 8.34275 14.5977 9.22262 14.6176V17.988C9.10607 17.9799 8.99019 17.9694 8.87504 17.9564C7.88539 16.9717 7.1287 15.757 6.61004 14.419ZM9.22262 13.6093C8.20739 13.5855 7.20508 13.4981 6.25297 13.3491C5.98238 12.3915 5.82458 11.389 5.78121 10.376H9.22262V13.6093ZM10.3746 14.6174V17.9883C10.4917 17.9803 10.6081 17.9697 10.7237 17.9568C11.7503 16.9687 12.534 15.7493 13.07 14.4066C12.1903 14.5267 11.2831 14.5965 10.3746 14.6174ZM13.4389 13.3326C12.4588 13.4913 11.4237 13.5841 10.3746 13.6091V10.376H13.9215C13.877 11.3829 13.7156 12.3798 13.4389 13.3326ZM14.2149 14.2185C13.7962 15.4335 13.1959 16.5773 12.4113 17.5843C14.5235 16.8763 16.2524 15.3326 17.2055 13.3461C16.3075 13.72 15.2927 14.01 14.2149 14.2185ZM17.7144 11.9868C16.8345 12.4712 15.7463 12.8508 14.5393 13.1213C14.7622 12.2247 14.8923 11.3016 14.9304 10.376H17.989C17.9506 10.9299 17.8573 11.4686 17.7144 11.9868ZM0.296875 9.80008C0.296875 4.55117 4.55196 0.296082 9.80088 0.296082C15.0498 0.296082 19.3049 4.55117 19.3049 9.80008C19.3049 15.049 15.0498 19.3041 9.80088 19.3041C4.55196 19.3041 0.296875 15.049 0.296875 9.80008Z" fill="#48E59B"/>
</svg>
