<svg width="26" height="26" viewBox="0 0 26 26" fill="none" xmlns="http://www.w3.org/2000/svg">
<path fill-rule="evenodd" clip-rule="evenodd" d="M18.5006 10.6429C18.5006 15.0612 14.9188 18.6429 10.5006 18.6429C6.08228 18.6429 2.50056 15.0612 2.50056 10.6429C2.50056 6.2246 6.08228 2.64288 10.5006 2.64288C14.9188 2.64288 18.5006 6.2246 18.5006 10.6429ZM16.9208 18.6793C15.1611 20.0869 12.9291 20.9286 10.5006 20.9286C4.81992 20.9286 0.214844 16.3235 0.214844 10.6429C0.214844 4.96224 4.81992 0.357164 10.5006 0.357164C16.1812 0.357164 20.7863 4.96224 20.7863 10.6429C20.7863 13.0715 19.9446 15.3035 18.537 17.0631L25.023 23.549C25.4693 23.9954 25.4693 24.719 25.023 25.1653C24.5767 25.6116 23.853 25.6116 23.4067 25.1653L16.9208 18.6793Z" fill="#48E59B"/>
</svg>
