<svg width="44" height="45" viewBox="0 0 44 45" fill="none" xmlns="http://www.w3.org/2000/svg">
<path fill-rule="evenodd" clip-rule="evenodd" d="M23.4001 14.58V13.14H30.6001V14.58H23.4001ZM23.0401 11.7C22.4436 11.7 21.9601 12.1835 21.9601 12.78V13.14H21.2401C20.0471 13.14 19.0801 14.1071 19.0801 15.3V29.7C19.0801 30.8929 20.0471 31.86 21.2401 31.86H26.2801V30.42H21.2401C20.8424 30.42 20.5201 30.0977 20.5201 29.7V15.3C20.5201 14.9024 20.8424 14.58 21.2401 14.58H21.9601V14.94C21.9601 15.5365 22.4436 16.02 23.0401 16.02H30.9601C31.5565 16.02 32.0401 15.5365 32.0401 14.94V14.58H32.7601C33.1577 14.58 33.4801 14.9024 33.4801 15.3V21.78H34.9201V15.3C34.9201 14.1071 33.953 13.14 32.7601 13.14H32.0401V12.78C32.0401 12.1835 31.5565 11.7 30.9601 11.7H23.0401ZM29.1601 23.94C29.1601 24.3377 28.8377 24.66 28.4401 24.66C28.0424 24.66 27.7201 24.3377 27.7201 23.94C27.7201 23.5424 28.0424 23.22 28.4401 23.22C28.8377 23.22 29.1601 23.5424 29.1601 23.94ZM31.3201 24.66C31.7177 24.66 32.0401 24.3377 32.0401 23.94C32.0401 23.5424 31.7177 23.22 31.3201 23.22C30.9224 23.22 30.6001 23.5424 30.6001 23.94C30.6001 24.3377 30.9224 24.66 31.3201 24.66ZM34.9201 23.94C34.9201 24.3377 34.5977 24.66 34.2001 24.66C33.8024 24.66 33.4801 24.3377 33.4801 23.94C33.4801 23.5424 33.8024 23.22 34.2001 23.22C34.5977 23.22 34.9201 23.5424 34.9201 23.94ZM37.0801 24.66C37.4777 24.66 37.8001 24.3377 37.8001 23.94C37.8001 23.5424 37.4777 23.22 37.0801 23.22C36.6824 23.22 36.3601 23.5424 36.3601 23.94C36.3601 24.3377 36.6824 24.66 37.0801 24.66ZM37.8001 26.82C37.8001 27.2177 37.4777 27.54 37.0801 27.54C36.6824 27.54 36.3601 27.2177 36.3601 26.82C36.3601 26.4224 36.6824 26.1 37.0801 26.1C37.4777 26.1 37.8001 26.4224 37.8001 26.82ZM37.0801 30.42C37.4777 30.42 37.8001 30.0977 37.8001 29.7C37.8001 29.3024 37.4777 28.98 37.0801 28.98C36.6824 28.98 36.3601 29.3024 36.3601 29.7C36.3601 30.0977 36.6824 30.42 37.0801 30.42ZM37.0801 33.3C37.4777 33.3 37.8001 32.9777 37.8001 32.58C37.8001 32.1824 37.4777 31.86 37.0801 31.86C36.6824 31.86 36.3601 32.1824 36.3601 32.58C36.3601 32.9777 36.6824 33.3 37.0801 33.3ZM28.4401 27.54C28.8377 27.54 29.1601 27.2177 29.1601 26.82C29.1601 26.4224 28.8377 26.1 28.4401 26.1C28.0424 26.1 27.7201 26.4224 27.7201 26.82C27.7201 27.2177 28.0424 27.54 28.4401 27.54ZM29.1601 29.7C29.1601 30.0977 28.8377 30.42 28.4401 30.42C28.0424 30.42 27.7201 30.0977 27.7201 29.7C27.7201 29.3024 28.0424 28.98 28.4401 28.98C28.8377 28.98 29.1601 29.3024 29.1601 29.7ZM28.4401 33.3C28.8377 33.3 29.1601 32.9777 29.1601 32.58C29.1601 32.1824 28.8377 31.86 28.4401 31.86C28.0424 31.86 27.7201 32.1824 27.7201 32.58C27.7201 32.9777 28.0424 33.3 28.4401 33.3ZM32.0401 32.58C32.0401 32.9777 31.7177 33.3 31.3201 33.3C30.9224 33.3 30.6001 32.9777 30.6001 32.58C30.6001 32.1824 30.9224 31.86 31.3201 31.86C31.7177 31.86 32.0401 32.1824 32.0401 32.58ZM34.2001 33.3C34.5977 33.3 34.9201 32.9777 34.9201 32.58C34.9201 32.1824 34.5977 31.86 34.2001 31.86C33.8024 31.86 33.4801 32.1824 33.4801 32.58C33.4801 32.9777 33.8024 33.3 34.2001 33.3Z" fill="#48E59B"/>
</svg>
