<svg width="19" height="19" viewBox="0 0 19 19" fill="none" xmlns="http://www.w3.org/2000/svg">
<path fill-rule="evenodd" clip-rule="evenodd" d="M11.3941 0.318299C11.7065 0.00587952 12.2131 0.00587952 12.5255 0.318299L14.2225 2.01536L16.4853 4.2781L18.1823 5.97515C18.4948 6.28757 18.4948 6.7941 18.1823 7.10652C17.8699 7.41894 17.3634 7.41894 17.051 7.10652L16.0062 6.06171L10.1877 13.8197L11.9598 15.5918C12.2722 15.9042 12.2722 16.4108 11.9598 16.7232C11.6474 17.0356 11.1408 17.0356 10.8284 16.7232L8.56569 14.4604L6.86854 12.7633L1.63607 17.9958C1.32365 18.3082 0.81712 18.3082 0.5047 17.9958C0.192281 17.6833 0.192281 17.1768 0.5047 16.8644L5.73717 11.6319L4.0402 9.93495L1.77746 7.67221C1.46504 7.35979 1.46504 6.85326 1.77746 6.54084C2.08988 6.22842 2.59641 6.22842 2.90883 6.54084L4.68096 8.31296L12.4389 2.49449L11.3941 1.44967C11.0817 1.13725 11.0817 0.630718 11.3941 0.318299Z" fill="#48E59B"/>
</svg>
