<svg width="78" height="28" viewBox="0 0 78 28" fill="none" xmlns="http://www.w3.org/2000/svg">
<path d="M0.76 27.4089V0.288874H16.888V27.4089H0.76ZM13.36 12.2169L16.096 11.9769L15.616 6.69687H1.984L1.504 11.9769L4.24 12.2169L4.72 9.43287H7.192V19.5609H4.792V22.2969H12.952V19.5609H10.408V9.43287H12.88L13.36 12.2169ZM18.8162 27.4089V0.288874H31.4643V27.4089H18.8162ZM20.6882 12.2409L20.2082 15.0489L22.6802 15.3129L23.0882 13.7769C23.3442 13.6489 23.6002 13.5689 23.8562 13.5369C24.1282 13.4889 24.4242 13.4649 24.7443 13.4649C25.6243 13.4649 26.1363 13.7289 26.2803 14.2569C26.4403 14.7849 26.5203 15.3289 26.5203 15.8889V16.2489C26.0242 16.1849 25.4322 16.1529 24.7443 16.1529C23.5122 16.1529 22.3602 16.3689 21.2882 16.8009C20.2322 17.2329 19.7042 18.1129 19.7042 19.4409C19.7042 20.5769 20.0642 21.3769 20.7842 21.8409C21.5042 22.3049 22.2562 22.5369 23.0402 22.5369C23.9202 22.5369 24.6402 22.3129 25.2002 21.8649C25.7763 21.4169 26.2163 20.9209 26.5203 20.3769V20.4009C26.6802 21.8249 27.4722 22.5369 28.8963 22.5369C29.5683 22.5369 30.2163 22.3689 30.8403 22.0329L30.8162 20.4009C30.6562 20.4489 30.5043 20.4729 30.3602 20.4729C29.8643 20.4729 29.6163 20.1929 29.6163 19.6329V14.9289C29.6163 13.6969 29.1923 12.7769 28.3443 12.1689C27.4963 11.5609 26.4883 11.2569 25.3202 11.2569C24.4402 11.2569 23.6802 11.3289 23.0402 11.4729C22.4162 11.6009 21.6322 11.8569 20.6882 12.2409ZM26.5203 17.8809C26.4403 18.7289 26.1603 19.3529 25.6803 19.7529C25.2162 20.1369 24.7122 20.3289 24.1682 20.3289C23.7042 20.3289 23.3762 20.2089 23.1842 19.9689C22.9922 19.7289 22.8962 19.4329 22.8962 19.0809C22.8962 18.4889 23.1042 18.0969 23.5202 17.9049C23.9362 17.6969 24.4162 17.5929 24.9602 17.5929C25.2163 17.5929 25.4723 17.6089 25.7283 17.6409C26.0003 17.6729 26.2643 17.7049 26.5203 17.7369V17.8809ZM33.3569 27.4089V0.288874H47.1089V27.4089H33.3569ZM40.9889 22.2969H46.5329V19.9689H45.5969L42.5249 16.4649L44.8529 13.8249H46.0289V11.4729H40.6049V13.8249H41.9009L40.3169 15.6489H38.5169V5.78487H33.8609V8.13687H35.4209V19.9689H33.9809V22.2969H39.5009V19.9689H38.5169V17.8329H40.1249L41.9969 19.9689H40.9889V22.2969ZM49.0225 27.4089V0.288874H61.0705V27.4089H49.0225ZM60.3745 18.8889L57.7825 18.4089C57.7185 18.7289 57.5345 19.0889 57.2305 19.4889C56.9425 19.8889 56.3825 20.0889 55.5505 20.0889C54.0305 20.0889 53.1825 19.2329 53.0065 17.5209H60.1105C60.2225 17.0089 60.2785 16.4889 60.2785 15.9609C60.2625 14.5529 59.7825 13.4169 58.8385 12.5529C57.9105 11.6889 56.6945 11.2569 55.1905 11.2569C53.4785 11.2569 52.1425 11.8169 51.1825 12.9369C50.2385 14.0409 49.7665 15.4249 49.7665 17.0889C49.7665 18.8969 50.2865 20.2569 51.3265 21.1689C52.3825 22.0809 53.7185 22.5369 55.3345 22.5369C56.8865 22.5369 58.0945 22.1689 58.9585 21.4329C59.8225 20.6969 60.2945 19.8489 60.3745 18.8889ZM57.0865 15.7209H53.0305C53.1265 15.0489 53.3505 14.5049 53.7025 14.0889C54.0545 13.6729 54.5505 13.4649 55.1905 13.4649C55.9265 13.4649 56.4385 13.7049 56.7265 14.1849C57.0305 14.6649 57.1505 15.1769 57.0865 15.7209ZM62.9537 27.4089V0.288874H77.6657V27.4089H62.9537ZM71.1617 22.2969H77.1377V19.9689H75.6977V15.0009C75.6977 13.7209 75.3217 12.7769 74.5697 12.1689C73.8177 11.5609 72.9297 11.2569 71.9057 11.2569C70.3057 11.2569 69.1457 11.8809 68.4257 13.1289V11.4729H63.7697V13.8249H65.3297V19.9689H63.8897V22.2969H69.8657V19.9689H68.4257V16.0809C68.4417 15.3449 68.6497 14.7529 69.0497 14.3049C69.4497 13.8409 70.0177 13.6089 70.7537 13.6089C71.3617 13.6089 71.8177 13.8089 72.1217 14.2089C72.4417 14.6089 72.6017 15.2729 72.6017 16.2009V19.9689H71.1617V22.2969Z" fill="#FF3C3C"/>
</svg>
