<svg width="42" height="42" viewBox="0 0 42 42" fill="none" xmlns="http://www.w3.org/2000/svg">
<circle cx="21" cy="21" r="21" fill="#313131"/>
<path fill-rule="evenodd" clip-rule="evenodd" d="M12.7677 12.5436C12.4901 12.4203 12.1647 12.49 11.962 12.7163C11.7593 12.9425 11.7257 13.2736 11.8787 13.536L16.573 21.5833L11.8787 29.6306C11.7257 29.893 11.7593 30.2241 11.962 30.4504C12.1647 30.6766 12.4901 30.7463 12.7677 30.623L31.6677 22.223C31.9205 22.1106 32.0834 21.8599 32.0834 21.5833C32.0834 21.3067 31.9205 21.056 31.6677 20.9436L12.7677 12.5436ZM17.8671 21.0233L14.1807 14.7037L29.6598 21.5833L14.1807 28.4629L17.8672 22.1433H23.6834C23.9927 22.1433 24.2434 21.8925 24.2434 21.5833C24.2434 21.274 23.9927 21.0233 23.6834 21.0233H17.8671Z" fill="#EAEAEA"/>
</svg>
