<svg width="44" height="45" viewBox="0 0 44 45" fill="none" xmlns="http://www.w3.org/2000/svg">
<rect y="0.25" width="44" height="44" rx="22" fill="#48E59B" fill-opacity="0.2"/>
<path fill-rule="evenodd" clip-rule="evenodd" d="M17.7649 13.6843C18.0773 13.9967 18.0773 14.5033 17.7649 14.8157L15.9306 16.65H24.3992C28.3757 16.65 31.5992 19.8736 31.5992 23.85C31.5992 27.8265 28.3757 31.05 24.3992 31.05H17.9992C17.5574 31.05 17.1992 30.6918 17.1992 30.25C17.1992 29.8082 17.5574 29.45 17.9992 29.45H24.3992C27.492 29.45 29.9992 26.9428 29.9992 23.85C29.9992 20.7572 27.492 18.25 24.3992 18.25H15.9306L17.7649 20.0843C18.0773 20.3967 18.0773 20.9033 17.7649 21.2157C17.4525 21.5281 16.946 21.5281 16.6335 21.2157L13.4335 18.0157C13.1211 17.7033 13.1211 17.1967 13.4335 16.8843L16.6335 13.6843C16.946 13.3719 17.4525 13.3719 17.7649 13.6843Z" fill="#48E59B"/>
</svg>
