<svg width="33" height="32" viewBox="0 0 33 32" fill="none" xmlns="http://www.w3.org/2000/svg">
<path fill-rule="evenodd" clip-rule="evenodd" d="M16.4953 1.86664C12.2243 1.86664 8.76198 5.32897 8.76198 9.59997C8.76198 13.1267 11.1227 16.102 14.3501 17.0319C11.8043 17.3427 9.62073 18.2436 7.97561 19.8649C5.88086 21.9293 4.82031 25.0026 4.82031 29.0132C4.82031 29.5728 5.274 30.0265 5.83365 30.0265C6.39329 30.0265 6.84698 29.5728 6.84698 29.0132C6.84698 25.3438 7.81302 22.8706 9.39819 21.3083C10.9864 19.7432 13.3573 18.9333 16.5002 18.9333C19.643 18.9333 22.0141 19.7432 23.6023 21.3084C25.1875 22.8706 26.1536 25.3438 26.1535 29.0132C26.1535 29.5728 26.6072 30.0265 27.1668 30.0265C27.7265 30.0265 28.1802 29.5729 28.1802 29.0132C28.1803 25.0026 27.1197 21.9293 25.0248 19.8649C23.3782 18.2421 21.1921 17.3411 18.6434 17.0311C21.8694 16.1002 24.2286 13.1256 24.2286 9.59997C24.2286 5.32897 20.7663 1.86664 16.4953 1.86664ZM10.7886 9.59997C10.7886 6.44827 13.3436 3.8933 16.4953 3.8933C19.647 3.8933 22.202 6.44827 22.202 9.59997C22.202 12.7517 19.647 15.3066 16.4953 15.3066C13.3436 15.3066 10.7886 12.7517 10.7886 9.59997Z" fill="#C6EEDB"/>
</svg>
