<svg width="13" height="13" viewBox="0 0 13 13" fill="none" xmlns="http://www.w3.org/2000/svg">
<path fill-rule="evenodd" clip-rule="evenodd" d="M12.7024 1.50528C13.0257 1.18193 13.0257 0.657667 12.7024 0.334312C12.379 0.0109584 11.8548 0.0109584 11.5314 0.334312L6.53691 5.32883L1.54239 0.334312C1.21904 0.0109584 0.694776 0.0109584 0.371422 0.334312C0.0480677 0.657667 0.0480677 1.18193 0.371422 1.50528L5.36594 6.4998L0.371422 11.4943C0.0480677 11.8177 0.0480677 12.3419 0.371422 12.6653C0.694776 12.9886 1.21904 12.9886 1.54239 12.6653L6.53691 7.67077L11.5314 12.6653C11.8548 12.9886 12.379 12.9886 12.7024 12.6653C13.0257 12.3419 13.0257 11.8177 12.7024 11.4943L7.70788 6.4998L12.7024 1.50528Z" fill="#FEF556"/>
</svg>
