<svg width="165" height="28" viewBox="0 0 165 28" fill="none" xmlns="http://www.w3.org/2000/svg">
<path d="M7.216 9.43287V6.69687H0.76V0.288874H15.928V6.69687H9.784V9.43287H11.272L8.68 13.3689H8.536L5.92 9.43287H7.216ZM15.928 27.4089H0.76V9.43287H2.152L6.832 16.1769V19.5609H4.432V22.2969H12.592V19.5609H10.048V16.2009L14.584 9.43287H15.928V27.4089ZM17.8553 27.4089V0.288874H30.8873V27.4089H17.8553ZM24.3833 11.2329C22.4313 11.2329 20.9753 11.8009 20.0153 12.9369C19.0553 14.0729 18.5753 15.4329 18.5753 17.0169C18.5753 18.7609 19.0953 20.1209 20.1353 21.0969C21.1913 22.0569 22.5513 22.5369 24.2153 22.5369C25.9433 22.5369 27.3673 22.0249 28.4873 21.0009C29.6073 19.9769 30.1673 18.6089 30.1673 16.8969C30.1673 15.3769 29.6873 14.0569 28.7273 12.9369C27.7833 11.8009 26.3353 11.2329 24.3833 11.2329ZM24.3113 20.1609C23.4633 20.1609 22.8233 19.8409 22.3913 19.2009C21.9753 18.5609 21.7673 17.7769 21.7673 16.8489C21.7673 15.8249 21.9913 15.0329 22.4393 14.4729C22.9033 13.8969 23.5353 13.6089 24.3353 13.6089C25.0713 13.6089 25.6953 13.8649 26.2073 14.3769C26.7193 14.8889 26.9753 15.6969 26.9753 16.8009C26.9753 17.8409 26.7273 18.6649 26.2313 19.2729C25.7513 19.8649 25.1113 20.1609 24.3113 20.1609ZM32.8178 27.4089V0.288874H47.3618V27.4089H32.8178ZM42.1058 22.2969H46.7618V19.9689H45.2018V11.4729H40.3538V13.8009H42.1058V17.5929C42.1058 18.3449 41.8978 18.9609 41.4818 19.4409C41.0818 19.9209 40.5138 20.1609 39.7778 20.1609C39.1698 20.1609 38.7058 19.9689 38.3858 19.5849C38.0818 19.1849 37.9298 18.5129 37.9298 17.5689V11.4729H33.3938V13.8009H34.8338V18.7689C34.8338 20.0489 35.2098 20.9929 35.9618 21.6009C36.7138 22.2089 37.6018 22.5129 38.6258 22.5129C40.2258 22.5129 41.3858 21.8889 42.1058 20.6409V22.2969ZM49.1369 27.4089V0.288874H54.1289V27.4089H49.1369ZM55.9225 27.4089V0.288874H68.9545V27.4089H55.9225ZM62.4505 11.2329C60.4985 11.2329 59.0425 11.8009 58.0825 12.9369C57.1225 14.0729 56.6425 15.4329 56.6425 17.0169C56.6425 18.7609 57.1625 20.1209 58.2025 21.0969C59.2585 22.0569 60.6185 22.5369 62.2825 22.5369C64.0105 22.5369 65.4345 22.0249 66.5545 21.0009C67.6745 19.9769 68.2345 18.6089 68.2345 16.8969C68.2345 15.3769 67.7545 14.0569 66.7945 12.9369C65.8505 11.8009 64.4025 11.2329 62.4505 11.2329ZM62.3785 20.1609C61.5305 20.1609 60.8905 19.8409 60.4585 19.2009C60.0425 18.5609 59.8345 17.7769 59.8345 16.8489C59.8345 15.8249 60.0585 15.0329 60.5065 14.4729C60.9705 13.8969 61.6025 13.6089 62.4025 13.6089C63.1385 13.6089 63.7625 13.8649 64.2745 14.3769C64.7865 14.8889 65.0425 15.6969 65.0425 16.8009C65.0425 17.8409 64.7945 18.6649 64.2985 19.2729C63.8185 19.8649 63.1785 20.1609 62.3785 20.1609ZM70.885 27.4089V0.288874H89.605V27.4089H70.885ZM88.189 13.8009H89.173V11.4729H83.989V13.8009H85.405L84.517 17.9289H84.373L81.421 11.4729H79.573L77.029 18.0249H76.885L75.565 13.8009H77.053V11.4729H71.293V13.8009H72.277L75.277 22.2969H77.461L80.005 15.8169H80.149L82.957 22.2969H85.261L88.189 13.8009ZM91.5194 27.4089V0.288874H106.231V27.4089H91.5194ZM99.7274 22.2969H105.703V19.9689H104.263V15.0009C104.263 13.7209 103.887 12.7769 103.135 12.1689C102.383 11.5609 101.495 11.2569 100.471 11.2569C98.8714 11.2569 97.7114 11.8809 96.9914 13.1289V11.4729H92.3354V13.8249H93.8954V19.9689H92.4554V22.2969H98.4314V19.9689H96.9914V16.0809C97.0074 15.3449 97.2154 14.7529 97.6154 14.3049C98.0154 13.8409 98.5834 13.6089 99.3194 13.6089C99.9274 13.6089 100.383 13.8089 100.687 14.2089C101.007 14.6089 101.167 15.2729 101.167 16.2009V19.9689H99.7274V22.2969ZM108.026 27.4089V0.288874H113.018V27.4089H108.026ZM114.812 27.4089V0.288874H124.844V27.4089H114.812ZM124.604 18.9369L122.348 18.2409C122.252 19.0409 122.052 19.5289 121.748 19.7049C121.46 19.8649 121.22 19.9449 121.028 19.9449C120.228 19.9449 119.828 19.4729 119.828 18.5289V13.6809H123.716V11.4729H119.828V8.18488H116.732V11.4729H115.196V13.6809H116.732V19.0569C116.732 20.1769 117.084 21.0409 117.788 21.6489C118.508 22.2409 119.468 22.5369 120.668 22.5369C122.988 22.5369 124.3 21.3369 124.604 18.9369ZM126.774 27.4089V0.288874H141.174V27.4089H126.774ZM134.67 22.2969H140.646V19.9689H139.206V15.0009C139.206 13.7209 138.83 12.7769 138.078 12.1689C137.326 11.5609 136.438 11.2569 135.414 11.2569C133.814 11.2569 132.654 11.8809 131.934 13.1289V5.78487H127.398V8.13687H128.838V19.9689H127.398V22.2969H133.374V19.9689H131.934V15.9609C131.966 15.2569 132.174 14.6889 132.558 14.2569C132.958 13.8249 133.51 13.6089 134.214 13.6089C134.822 13.6089 135.286 13.8089 135.606 14.2089C135.942 14.6089 136.11 15.2729 136.11 16.2009V19.9689H134.67V22.2969ZM143.119 27.4089V0.288874H150.775V27.4089H143.119ZM145.447 6.33687V9.55287H148.543V6.33687H145.447ZM144.127 22.2969H150.103V19.9689H148.663V11.4729H144.007V13.8249H145.567V19.9689H144.127V22.2969ZM152.643 27.4089V0.288874H164.139V27.4089H152.643ZM163.323 18.9849C163.323 17.9449 163.003 17.2089 162.363 16.7769C161.739 16.3289 161.003 16.0329 160.155 15.8889C159.323 15.7449 158.587 15.6009 157.947 15.4569C157.323 15.2969 157.011 14.9849 157.011 14.5209C157.011 14.1689 157.147 13.9129 157.419 13.7529C157.707 13.5769 158.051 13.4889 158.451 13.4889C159.059 13.4889 159.627 13.5769 160.155 13.7529L160.347 15.2649L162.747 15.0009L162.483 12.2409C161.219 11.5849 159.867 11.2569 158.427 11.2569C157.323 11.2569 156.251 11.4889 155.211 11.9529C154.187 12.4009 153.675 13.2889 153.675 14.6169C153.675 15.6889 154.003 16.4489 154.659 16.8969C155.315 17.3449 156.075 17.6409 156.939 17.7849C157.803 17.9289 158.563 18.0729 159.219 18.2169C159.875 18.3609 160.203 18.6649 160.203 19.1289C160.203 19.5129 159.987 19.8009 159.555 19.9929C159.123 20.1849 158.611 20.2809 158.019 20.2809C157.859 20.2809 157.619 20.2729 157.299 20.2569C156.979 20.2249 156.675 20.1609 156.387 20.0649V18.7209L153.987 18.4569L153.555 21.4809C154.275 21.8489 155.027 22.1209 155.811 22.2969C156.611 22.4569 157.403 22.5369 158.187 22.5369C159.707 22.5369 160.939 22.2489 161.883 21.6729C162.843 21.0809 163.323 20.1849 163.323 18.9849Z" fill="#FEF556"/>
</svg>
