<svg width="49" height="48" viewBox="0 0 49 48" fill="none" xmlns="http://www.w3.org/2000/svg">
<circle cx="24.7856" cy="24" r="24" fill="#E84142"/>
<path fill-rule="evenodd" clip-rule="evenodd" d="M19.2909 31.7797H15.2533C14.4063 31.7797 13.9884 31.7797 13.7343 31.6158C13.5997 31.5272 13.4873 31.4087 13.406 31.2694C13.3247 31.1302 13.2767 30.974 13.2657 30.813C13.2657 30.5078 13.4633 30.1403 13.8812 29.4054L23.8422 11.8244C24.2657 11.0782 24.4803 10.6938 24.7514 10.5638C24.896 10.4912 25.0555 10.4534 25.2172 10.4534C25.379 10.4534 25.5385 10.4912 25.6831 10.5638C25.9542 10.7051 26.1687 11.0782 26.5923 11.8244L28.6421 15.4028C28.9775 15.9095 29.2434 16.459 29.4326 17.0365C29.5455 17.5047 29.5455 17.993 29.4326 18.4611C29.2431 19.0449 28.9752 19.6002 28.6364 20.1118L23.4018 29.3715C23.1366 29.9258 22.7944 30.4397 22.3853 30.8978C22.0351 31.2352 21.6091 31.4834 21.143 31.6214C20.535 31.754 19.9125 31.8072 19.2909 31.7797Z" fill="white"/>
<path fill-rule="evenodd" clip-rule="evenodd" d="M29.4787 31.7795H35.2611C36.1137 31.7795 36.5429 31.7794 36.8027 31.6099C36.9383 31.5214 37.0509 31.402 37.1314 31.2615C37.2119 31.121 37.258 30.9633 37.2657 30.8015C37.2657 30.5075 37.0737 30.157 36.701 29.4617L36.6615 29.3882L33.7647 24.4305L33.7308 24.374C33.3242 23.6843 33.1209 23.3338 32.8555 23.2038C32.7128 23.1285 32.5538 23.0892 32.3925 23.0892C32.2311 23.0892 32.0722 23.1285 31.9294 23.2038C31.664 23.3394 31.4494 23.7012 31.0259 24.4361L28.1404 29.3939C27.7169 30.1231 27.5079 30.4906 27.5249 30.7902C27.5326 30.952 27.5786 31.1097 27.6591 31.2502C27.7396 31.3907 27.8523 31.5101 27.9879 31.5986C28.1968 31.7795 28.626 31.7795 29.4787 31.7795Z" fill="white"/>
</svg>
