<svg width="47" height="48" viewBox="0 0 48 48" fill="none" xmlns="http://www.w3.org/2000/svg">
<path d="M9.34522 1.14163L2.88819 0.0127798C2.45549 -0.040673 2.01885 0.074833 1.66919 0.335247C1.31952 0.595662 1.08378 0.980914 1.01104 1.41079C0.938305 1.84066 1.03418 2.28203 1.27871 2.64298C1.52324 3.00393 1.89757 3.25666 2.32376 3.34854L7.57857 4.27419L12.4383 34.0081C12.5032 34.4088 12.7099 34.7728 13.0207 35.0339C13.3315 35.295 13.7257 35.4357 14.1315 35.4305H40.2532C40.7023 35.4305 41.1329 35.2521 41.4505 34.9345C41.7681 34.617 41.9465 34.1863 41.9465 33.7372C41.9465 33.2881 41.7681 32.8574 41.4505 32.5399C41.1329 32.2223 40.7023 32.0439 40.2532 32.0439H15.5483L14.8371 27.6979H40.1121C40.4708 27.6984 40.8204 27.585 41.1106 27.374C41.4007 27.163 41.6163 26.8653 41.7263 26.5239L46.2417 12.4132C46.3236 12.159 46.3442 11.889 46.3019 11.6253C46.2595 11.3616 46.1554 11.1117 45.9979 10.8959C45.8405 10.6802 45.6343 10.5047 45.3961 10.3839C45.1579 10.263 44.8946 10.2003 44.6275 10.2007H11.9811L10.7281 2.52447C10.6689 2.17926 10.5041 1.8609 10.2565 1.61324C10.0088 1.36558 9.69043 1.20081 9.34522 1.14163ZM42.3077 13.5985L38.8534 24.3113H14.2839L12.5342 13.5872L42.3077 13.5985Z" fill="#48E59B"/>
<path d="M18.8645 41.9169C18.8645 40.8318 18.5428 39.7711 17.9399 38.8689C17.3371 37.9667 16.4803 37.2635 15.4778 36.8483C14.4753 36.433 13.3722 36.3244 12.308 36.5361C11.2438 36.7478 10.2662 37.2703 9.49897 38.0375C8.73171 38.8048 8.2092 39.7824 7.99751 40.8466C7.78582 41.9108 7.89447 43.0139 8.30971 44.0164C8.72494 45.0188 9.42813 45.8757 10.3303 46.4785C11.2325 47.0813 12.2932 47.4031 13.3783 47.4031C14.8329 47.4016 16.2275 46.8231 17.256 45.7946C18.2845 44.766 18.863 43.3715 18.8645 41.9169ZM11.2786 41.9169C11.2786 41.5016 11.4018 41.0957 11.6325 40.7504C11.8632 40.4051 12.1911 40.136 12.5748 39.977C12.9585 39.8181 13.3806 39.7765 13.7879 39.8576C14.1952 39.9386 14.5694 40.1386 14.863 40.4322C15.1566 40.7258 15.3566 41.1 15.4376 41.5073C15.5186 41.9146 15.4771 42.3367 15.3181 42.7204C15.1592 43.1041 14.8901 43.432 14.5448 43.6627C14.1995 43.8934 13.7936 44.0165 13.3783 44.0165C12.8224 44.0151 12.2898 43.7932 11.8973 43.3996C11.5047 43.006 11.2843 42.4728 11.2843 41.9169H11.2786Z" fill="#48E59B"/>
<path d="M39.4187 41.9169C39.4187 40.8318 39.097 39.7711 38.4941 38.8689C37.8913 37.9667 37.0345 37.2635 36.032 36.8483C35.0295 36.433 33.9264 36.3244 32.8622 36.5361C31.798 36.7478 30.8204 37.2703 30.0532 38.0375C29.2859 38.8048 28.7634 39.7824 28.5517 40.8466C28.34 41.9108 28.4487 43.0139 28.8639 44.0164C29.2791 45.0188 29.9823 45.8757 30.8845 46.4785C31.7867 47.0813 32.8474 47.4031 33.9325 47.4031C35.3871 47.4016 36.7817 46.8231 37.8102 45.7946C38.8387 44.766 39.4172 43.3715 39.4187 41.9169ZM31.8103 41.9169C31.8103 41.5016 31.9334 41.0957 32.1641 40.7504C32.3948 40.4051 32.7228 40.136 33.1064 39.977C33.4901 39.8181 33.9123 39.7765 34.3196 39.8576C34.7269 39.9386 35.101 40.1386 35.3946 40.4322C35.6883 40.7258 35.8882 41.1 35.9693 41.5073C36.0503 41.9146 36.0087 42.3367 35.8498 42.7204C35.6908 43.1041 35.4217 43.432 35.0764 43.6627C34.7312 43.8934 34.3252 44.0165 33.9099 44.0165C33.3531 44.0165 32.819 43.7953 32.4252 43.4016C32.0315 43.0078 31.8103 42.4737 31.8103 41.9169Z" fill="#48E59B"/>
</svg>
