<svg width="100" height="101" viewBox="0 0 100 101" fill="none" xmlns="http://www.w3.org/2000/svg">
<mask id="mask0_1930_29051" style="mask-type:alpha" maskUnits="userSpaceOnUse" x="0" y="0" width="100" height="101">
<circle cx="50" cy="50.5" r="50" fill="#796B6B"/>
</mask>
<g mask="url(#mask0_1930_29051)">
<mask id="path-2-outside-1_1930_29051" maskUnits="userSpaceOnUse" x="0" y="10" width="84" height="84" fill="black">
<rect fill="white" y="10" width="84" height="84"/>
<path fill-rule="evenodd" clip-rule="evenodd" d="M72.3275 11.8416V21.1305C72.3275 21.5953 71.956 21.9721 71.4978 21.9721H52.3404C51.8822 21.9721 51.5108 21.5953 51.5108 21.1305V11.8416C51.5108 11.3767 51.8822 11 52.3404 11H71.4978C71.956 11 72.3275 11.3767 72.3275 11.8416ZM55.2127 24.329H68.6255V26.5997C68.6255 26.8227 68.5377 27.0364 68.3825 27.1948C68.2264 27.3522 68.0157 27.4412 67.7949 27.4412H56.0433C55.8225 27.4412 55.6119 27.3522 55.4566 27.1948C55.3005 27.0364 55.2127 26.8227 55.2127 26.5997V24.329ZM65.2109 29.7982V31.4606C65.2109 31.6125 65.1702 31.7615 65.0935 31.8917L62.6323 36.0817C62.4827 36.3366 62.212 36.4922 61.9191 36.4922C61.6263 36.4922 61.3556 36.3366 61.2059 36.0817L58.7447 31.8917C58.668 31.7615 58.6274 31.6125 58.6274 31.4606V29.7982H65.2109ZM60.7569 38.9784C60.7569 38.328 61.278 37.8004 61.9191 37.8004C62.5603 37.8004 63.0813 38.328 63.0813 38.9784V45.1298C63.0813 46.483 63.6107 47.781 64.554 48.7378C65.4973 49.6946 66.7768 50.2316 68.1109 50.2316H78.3557C79.5872 50.2316 80.7689 50.7283 81.6401 51.612C82.5113 52.4957 83 53.6934 83 54.9436V54.9576C83 57.5291 80.9509 59.6171 78.4158 59.6283L45.4465 59.7755C44.1826 59.7811 43.1618 60.8213 43.1618 62.1033C43.1618 63.4032 44.2011 64.4574 45.4825 64.4574H78.2883C79.5383 64.4574 80.7365 64.9616 81.6207 65.8575C82.5039 66.7534 83 67.9699 83 69.2369C83 70.5048 82.5039 71.7203 81.6207 72.6171C80.7365 73.5131 79.5383 74.0172 78.2883 74.0172H45.4622C44.1919 74.0172 43.1618 75.0612 43.1618 76.3498C43.1618 77.6374 44.1919 78.6833 45.4622 78.6833H56.0248C57.8957 78.6833 59.6907 79.4377 61.0146 80.7797C62.3376 82.1226 63.0813 83.9425 63.0813 85.8412C63.0813 87.7389 62.3376 89.5607 61.0146 90.9036C59.6907 92.2456 57.8957 93 56.0248 93H2.16131C1.52014 93 1 92.4715 1 91.8211C1 91.1707 1.52014 90.6422 2.16131 90.6422H56.0248C57.2794 90.6422 58.4832 90.137 59.3711 89.2364C60.2589 88.3358 60.7569 87.1147 60.7569 85.8421C60.7569 84.5695 60.2589 83.3474 59.3711 82.4468C58.4832 81.5462 57.2794 81.0402 56.0248 81.0402H45.4622C42.9086 81.0402 40.8382 78.941 40.8382 76.3507C40.8382 73.7605 42.9086 71.6594 45.4622 71.6594H78.2883C78.922 71.6594 79.529 71.4045 79.9771 70.95C80.4252 70.4954 80.6765 69.8797 80.6765 69.2369C80.6765 68.5949 80.4252 67.9783 79.9771 67.5247C79.529 67.0702 78.922 66.8153 78.2883 66.8153H45.4825C42.9179 66.8153 40.8382 64.7058 40.8382 62.1033C40.8382 59.5243 42.8929 57.4298 45.4354 57.4186L78.4056 57.2705C79.6611 57.2658 80.6765 56.2312 80.6765 54.9576V54.9436C80.6765 54.3194 80.4316 53.7206 79.9965 53.2783C79.5614 52.8369 78.971 52.5895 78.3557 52.5895H68.1109C66.1606 52.5895 64.2898 51.8032 62.9114 50.404C61.532 49.0058 60.7569 47.1081 60.7569 45.1298V38.9784ZM2.16131 20.7744C1.52014 20.7744 1 20.2468 1 19.5964C1 18.9451 1.52014 18.4175 2.16131 18.4175H6.56725C7.20841 18.4175 7.72855 18.9451 7.72855 19.5964C7.72855 20.2468 7.20841 20.7744 6.56725 20.7744H2.16131ZM10.7579 20.7744C10.1168 20.7744 9.59569 20.2468 9.59569 19.5964C9.59569 18.9451 10.1168 18.4175 10.7579 18.4175H15.1629C15.8041 18.4175 16.3252 18.9451 16.3252 19.5964C16.3252 20.2468 15.8041 20.7744 15.1629 20.7744H10.7579ZM2.16131 55.1076C1.52014 55.1076 1 54.58 1 53.9296C1 53.2783 1.52014 52.7506 2.16131 52.7506H6.56725C7.20841 52.7506 7.72855 53.2783 7.72855 53.9296C7.72855 54.58 7.20841 55.1076 6.56725 55.1076H2.16131ZM10.7579 55.1076C10.1168 55.1076 9.59569 54.58 9.59569 53.9296C9.59569 53.2783 10.1168 52.7506 10.7579 52.7506H15.1629C15.8041 52.7506 16.3252 53.2783 16.3252 53.9296C16.3252 54.58 15.8041 55.1076 15.1629 55.1076H10.7579ZM5.4817 46.5243C4.84053 46.5243 4.31947 45.9967 4.31947 45.3463C4.31947 44.695 4.84053 44.1674 5.4817 44.1674H9.88671C10.5279 44.1674 11.0489 44.695 11.0489 45.3463C11.0489 45.9967 10.5279 46.5243 9.88671 46.5243H5.4817ZM5.4817 29.3577C4.84053 29.3577 4.31947 28.8301 4.31947 28.1797C4.31947 27.5284 4.84053 27.0008 5.4817 27.0008H9.88671C10.5279 27.0008 11.0489 27.5284 11.0489 28.1797C11.0489 28.8301 10.5279 29.3577 9.88671 29.3577H5.4817ZM3.8215 37.941C3.18034 37.941 2.65927 37.4134 2.65927 36.763C2.65927 36.1126 3.18034 35.5841 3.8215 35.5841H8.22652C8.86861 35.5841 9.38875 36.1126 9.38875 36.763C9.38875 37.4134 8.86861 37.941 8.22652 37.941H3.8215ZM32.0929 56.1684C21.5543 56.1684 12.9604 47.452 12.9604 36.7611C12.9604 26.0739 21.5543 17.3566 32.0929 17.3566C42.6296 17.3566 51.2225 26.0739 51.2225 36.7611C51.2225 47.452 42.6296 56.1684 32.0929 56.1684ZM32.0929 53.238C41.0396 53.238 48.3354 45.8364 48.3354 36.7611C48.3354 27.6868 41.0396 20.2852 32.0929 20.2852C23.1461 20.2852 15.8475 27.6868 15.8475 36.7611C15.8475 45.8364 23.1461 53.238 32.0929 53.238ZM32.0929 50.8801C24.4266 50.8801 18.172 44.5385 18.172 36.7611C18.172 28.9847 24.4266 22.6431 32.0929 22.6431C39.7592 22.6431 46.0119 28.9847 46.0119 36.7611C46.0119 44.5375 39.7592 50.8801 32.0929 50.8801ZM40.5823 29.815L41.1154 29.2762C41.5699 28.817 41.5709 28.0701 41.1191 27.6099C40.6664 27.1488 39.9301 27.147 39.4755 27.6062L38.9425 28.145C38.4879 28.6033 38.4861 29.3502 38.9388 29.8113C39.3915 30.2723 40.1278 30.2742 40.5823 29.815ZM30.9306 47.766V48.5288C30.9306 49.1792 31.4517 49.7077 32.0929 49.7077C32.734 49.7077 33.2551 49.1792 33.2551 48.5288V47.766C33.2551 47.1156 32.734 46.5871 32.0929 46.5871C31.4517 46.5871 30.9306 47.1156 30.9306 47.766ZM38.9425 45.3781L39.4755 45.917C39.9301 46.3762 40.6664 46.3743 41.1191 45.9133C41.5709 45.4522 41.5699 44.7053 41.1154 44.2461L40.5823 43.7082C40.1278 43.249 39.3915 43.2508 38.9388 43.711C38.4861 44.172 38.4879 44.9189 38.9425 45.3781ZM23.5997 43.71L23.0685 44.248C22.6149 44.7081 22.6149 45.455 23.0685 45.9151C23.5221 46.3753 24.2584 46.3753 24.7121 45.9151L25.2433 45.3763C25.696 44.9171 25.696 44.1702 25.2433 43.71C24.7897 43.2499 24.0534 43.2499 23.5997 43.71ZM42.941 37.94H43.6911C44.3332 37.94 44.8534 37.4124 44.8534 36.7611C44.8534 36.1107 44.3332 35.5831 43.6911 35.5831H42.941C42.2998 35.5831 41.7797 36.1107 41.7797 36.7611C41.7797 37.4124 42.2998 37.94 42.941 37.94ZM30.9306 35.2523C30.4881 35.6038 30.2036 36.1501 30.2036 36.7611C30.2036 37.8182 31.0507 38.6776 32.0929 38.6776C32.3432 38.6776 32.5825 38.6279 32.8006 38.5379L36.7492 40.8508C37.3044 41.176 38.0158 40.9829 38.3364 40.4197C38.657 39.8565 38.4667 39.1349 37.9114 38.8097L33.9609 36.495C33.8926 35.9936 33.6302 35.5531 33.2551 35.2542V28.8254C33.2551 28.175 32.734 27.6474 32.0929 27.6474C31.4517 27.6474 30.9306 28.175 30.9306 28.8254V35.2523ZM21.242 35.5831H20.4918C19.8507 35.5831 19.3296 36.1107 19.3296 36.7611C19.3296 37.4124 19.8507 37.94 20.4918 37.94H21.242C21.8832 37.94 22.4042 37.4124 22.4042 36.7611C22.4042 36.1107 21.8832 35.5831 21.242 35.5831ZM33.2551 25.7572V24.9962C33.2551 24.3459 32.734 23.8173 32.0929 23.8173C31.4517 23.8173 30.9306 24.3459 30.9306 24.9962V25.7572C30.9306 26.4076 31.4517 26.9361 32.0929 26.9361C32.734 26.9361 33.2551 26.4076 33.2551 25.7572ZM25.2433 28.146L24.7121 27.608C24.2584 27.1479 23.5221 27.1479 23.0685 27.608C22.6149 28.0682 22.6149 28.8151 23.0685 29.2743L23.5997 29.8131C24.0534 30.2733 24.7897 30.2733 25.2433 29.8131C25.696 29.353 25.696 28.6061 25.2433 28.146Z"/>
</mask>
<path fill-rule="evenodd" clip-rule="evenodd" d="M72.3275 11.8416V21.1305C72.3275 21.5953 71.956 21.9721 71.4978 21.9721H52.3404C51.8822 21.9721 51.5108 21.5953 51.5108 21.1305V11.8416C51.5108 11.3767 51.8822 11 52.3404 11H71.4978C71.956 11 72.3275 11.3767 72.3275 11.8416ZM55.2127 24.329H68.6255V26.5997C68.6255 26.8227 68.5377 27.0364 68.3825 27.1948C68.2264 27.3522 68.0157 27.4412 67.7949 27.4412H56.0433C55.8225 27.4412 55.6119 27.3522 55.4566 27.1948C55.3005 27.0364 55.2127 26.8227 55.2127 26.5997V24.329ZM65.2109 29.7982V31.4606C65.2109 31.6125 65.1702 31.7615 65.0935 31.8917L62.6323 36.0817C62.4827 36.3366 62.212 36.4922 61.9191 36.4922C61.6263 36.4922 61.3556 36.3366 61.2059 36.0817L58.7447 31.8917C58.668 31.7615 58.6274 31.6125 58.6274 31.4606V29.7982H65.2109ZM60.7569 38.9784C60.7569 38.328 61.278 37.8004 61.9191 37.8004C62.5603 37.8004 63.0813 38.328 63.0813 38.9784V45.1298C63.0813 46.483 63.6107 47.781 64.554 48.7378C65.4973 49.6946 66.7768 50.2316 68.1109 50.2316H78.3557C79.5872 50.2316 80.7689 50.7283 81.6401 51.612C82.5113 52.4957 83 53.6934 83 54.9436V54.9576C83 57.5291 80.9509 59.6171 78.4158 59.6283L45.4465 59.7755C44.1826 59.7811 43.1618 60.8213 43.1618 62.1033C43.1618 63.4032 44.2011 64.4574 45.4825 64.4574H78.2883C79.5383 64.4574 80.7365 64.9616 81.6207 65.8575C82.5039 66.7534 83 67.9699 83 69.2369C83 70.5048 82.5039 71.7203 81.6207 72.6171C80.7365 73.5131 79.5383 74.0172 78.2883 74.0172H45.4622C44.1919 74.0172 43.1618 75.0612 43.1618 76.3498C43.1618 77.6374 44.1919 78.6833 45.4622 78.6833H56.0248C57.8957 78.6833 59.6907 79.4377 61.0146 80.7797C62.3376 82.1226 63.0813 83.9425 63.0813 85.8412C63.0813 87.7389 62.3376 89.5607 61.0146 90.9036C59.6907 92.2456 57.8957 93 56.0248 93H2.16131C1.52014 93 1 92.4715 1 91.8211C1 91.1707 1.52014 90.6422 2.16131 90.6422H56.0248C57.2794 90.6422 58.4832 90.137 59.3711 89.2364C60.2589 88.3358 60.7569 87.1147 60.7569 85.8421C60.7569 84.5695 60.2589 83.3474 59.3711 82.4468C58.4832 81.5462 57.2794 81.0402 56.0248 81.0402H45.4622C42.9086 81.0402 40.8382 78.941 40.8382 76.3507C40.8382 73.7605 42.9086 71.6594 45.4622 71.6594H78.2883C78.922 71.6594 79.529 71.4045 79.9771 70.95C80.4252 70.4954 80.6765 69.8797 80.6765 69.2369C80.6765 68.5949 80.4252 67.9783 79.9771 67.5247C79.529 67.0702 78.922 66.8153 78.2883 66.8153H45.4825C42.9179 66.8153 40.8382 64.7058 40.8382 62.1033C40.8382 59.5243 42.8929 57.4298 45.4354 57.4186L78.4056 57.2705C79.6611 57.2658 80.6765 56.2312 80.6765 54.9576V54.9436C80.6765 54.3194 80.4316 53.7206 79.9965 53.2783C79.5614 52.8369 78.971 52.5895 78.3557 52.5895H68.1109C66.1606 52.5895 64.2898 51.8032 62.9114 50.404C61.532 49.0058 60.7569 47.1081 60.7569 45.1298V38.9784ZM2.16131 20.7744C1.52014 20.7744 1 20.2468 1 19.5964C1 18.9451 1.52014 18.4175 2.16131 18.4175H6.56725C7.20841 18.4175 7.72855 18.9451 7.72855 19.5964C7.72855 20.2468 7.20841 20.7744 6.56725 20.7744H2.16131ZM10.7579 20.7744C10.1168 20.7744 9.59569 20.2468 9.59569 19.5964C9.59569 18.9451 10.1168 18.4175 10.7579 18.4175H15.1629C15.8041 18.4175 16.3252 18.9451 16.3252 19.5964C16.3252 20.2468 15.8041 20.7744 15.1629 20.7744H10.7579ZM2.16131 55.1076C1.52014 55.1076 1 54.58 1 53.9296C1 53.2783 1.52014 52.7506 2.16131 52.7506H6.56725C7.20841 52.7506 7.72855 53.2783 7.72855 53.9296C7.72855 54.58 7.20841 55.1076 6.56725 55.1076H2.16131ZM10.7579 55.1076C10.1168 55.1076 9.59569 54.58 9.59569 53.9296C9.59569 53.2783 10.1168 52.7506 10.7579 52.7506H15.1629C15.8041 52.7506 16.3252 53.2783 16.3252 53.9296C16.3252 54.58 15.8041 55.1076 15.1629 55.1076H10.7579ZM5.4817 46.5243C4.84053 46.5243 4.31947 45.9967 4.31947 45.3463C4.31947 44.695 4.84053 44.1674 5.4817 44.1674H9.88671C10.5279 44.1674 11.0489 44.695 11.0489 45.3463C11.0489 45.9967 10.5279 46.5243 9.88671 46.5243H5.4817ZM5.4817 29.3577C4.84053 29.3577 4.31947 28.8301 4.31947 28.1797C4.31947 27.5284 4.84053 27.0008 5.4817 27.0008H9.88671C10.5279 27.0008 11.0489 27.5284 11.0489 28.1797C11.0489 28.8301 10.5279 29.3577 9.88671 29.3577H5.4817ZM3.8215 37.941C3.18034 37.941 2.65927 37.4134 2.65927 36.763C2.65927 36.1126 3.18034 35.5841 3.8215 35.5841H8.22652C8.86861 35.5841 9.38875 36.1126 9.38875 36.763C9.38875 37.4134 8.86861 37.941 8.22652 37.941H3.8215ZM32.0929 56.1684C21.5543 56.1684 12.9604 47.452 12.9604 36.7611C12.9604 26.0739 21.5543 17.3566 32.0929 17.3566C42.6296 17.3566 51.2225 26.0739 51.2225 36.7611C51.2225 47.452 42.6296 56.1684 32.0929 56.1684ZM32.0929 53.238C41.0396 53.238 48.3354 45.8364 48.3354 36.7611C48.3354 27.6868 41.0396 20.2852 32.0929 20.2852C23.1461 20.2852 15.8475 27.6868 15.8475 36.7611C15.8475 45.8364 23.1461 53.238 32.0929 53.238ZM32.0929 50.8801C24.4266 50.8801 18.172 44.5385 18.172 36.7611C18.172 28.9847 24.4266 22.6431 32.0929 22.6431C39.7592 22.6431 46.0119 28.9847 46.0119 36.7611C46.0119 44.5375 39.7592 50.8801 32.0929 50.8801ZM40.5823 29.815L41.1154 29.2762C41.5699 28.817 41.5709 28.0701 41.1191 27.6099C40.6664 27.1488 39.9301 27.147 39.4755 27.6062L38.9425 28.145C38.4879 28.6033 38.4861 29.3502 38.9388 29.8113C39.3915 30.2723 40.1278 30.2742 40.5823 29.815ZM30.9306 47.766V48.5288C30.9306 49.1792 31.4517 49.7077 32.0929 49.7077C32.734 49.7077 33.2551 49.1792 33.2551 48.5288V47.766C33.2551 47.1156 32.734 46.5871 32.0929 46.5871C31.4517 46.5871 30.9306 47.1156 30.9306 47.766ZM38.9425 45.3781L39.4755 45.917C39.9301 46.3762 40.6664 46.3743 41.1191 45.9133C41.5709 45.4522 41.5699 44.7053 41.1154 44.2461L40.5823 43.7082C40.1278 43.249 39.3915 43.2508 38.9388 43.711C38.4861 44.172 38.4879 44.9189 38.9425 45.3781ZM23.5997 43.71L23.0685 44.248C22.6149 44.7081 22.6149 45.455 23.0685 45.9151C23.5221 46.3753 24.2584 46.3753 24.7121 45.9151L25.2433 45.3763C25.696 44.9171 25.696 44.1702 25.2433 43.71C24.7897 43.2499 24.0534 43.2499 23.5997 43.71ZM42.941 37.94H43.6911C44.3332 37.94 44.8534 37.4124 44.8534 36.7611C44.8534 36.1107 44.3332 35.5831 43.6911 35.5831H42.941C42.2998 35.5831 41.7797 36.1107 41.7797 36.7611C41.7797 37.4124 42.2998 37.94 42.941 37.94ZM30.9306 35.2523C30.4881 35.6038 30.2036 36.1501 30.2036 36.7611C30.2036 37.8182 31.0507 38.6776 32.0929 38.6776C32.3432 38.6776 32.5825 38.6279 32.8006 38.5379L36.7492 40.8508C37.3044 41.176 38.0158 40.9829 38.3364 40.4197C38.657 39.8565 38.4667 39.1349 37.9114 38.8097L33.9609 36.495C33.8926 35.9936 33.6302 35.5531 33.2551 35.2542V28.8254C33.2551 28.175 32.734 27.6474 32.0929 27.6474C31.4517 27.6474 30.9306 28.175 30.9306 28.8254V35.2523ZM21.242 35.5831H20.4918C19.8507 35.5831 19.3296 36.1107 19.3296 36.7611C19.3296 37.4124 19.8507 37.94 20.4918 37.94H21.242C21.8832 37.94 22.4042 37.4124 22.4042 36.7611C22.4042 36.1107 21.8832 35.5831 21.242 35.5831ZM33.2551 25.7572V24.9962C33.2551 24.3459 32.734 23.8173 32.0929 23.8173C31.4517 23.8173 30.9306 24.3459 30.9306 24.9962V25.7572C30.9306 26.4076 31.4517 26.9361 32.0929 26.9361C32.734 26.9361 33.2551 26.4076 33.2551 25.7572ZM25.2433 28.146L24.7121 27.608C24.2584 27.1479 23.5221 27.1479 23.0685 27.608C22.6149 28.0682 22.6149 28.8151 23.0685 29.2743L23.5997 29.8131C24.0534 30.2733 24.7897 30.2733 25.2433 29.8131C25.696 29.353 25.696 28.6061 25.2433 28.146Z" fill="#313131"/>
<path fill-rule="evenodd" clip-rule="evenodd" d="M72.3275 11.8416V21.1305C72.3275 21.5953 71.956 21.9721 71.4978 21.9721H52.3404C51.8822 21.9721 51.5108 21.5953 51.5108 21.1305V11.8416C51.5108 11.3767 51.8822 11 52.3404 11H71.4978C71.956 11 72.3275 11.3767 72.3275 11.8416ZM55.2127 24.329H68.6255V26.5997C68.6255 26.8227 68.5377 27.0364 68.3825 27.1948C68.2264 27.3522 68.0157 27.4412 67.7949 27.4412H56.0433C55.8225 27.4412 55.6119 27.3522 55.4566 27.1948C55.3005 27.0364 55.2127 26.8227 55.2127 26.5997V24.329ZM65.2109 29.7982V31.4606C65.2109 31.6125 65.1702 31.7615 65.0935 31.8917L62.6323 36.0817C62.4827 36.3366 62.212 36.4922 61.9191 36.4922C61.6263 36.4922 61.3556 36.3366 61.2059 36.0817L58.7447 31.8917C58.668 31.7615 58.6274 31.6125 58.6274 31.4606V29.7982H65.2109ZM60.7569 38.9784C60.7569 38.328 61.278 37.8004 61.9191 37.8004C62.5603 37.8004 63.0813 38.328 63.0813 38.9784V45.1298C63.0813 46.483 63.6107 47.781 64.554 48.7378C65.4973 49.6946 66.7768 50.2316 68.1109 50.2316H78.3557C79.5872 50.2316 80.7689 50.7283 81.6401 51.612C82.5113 52.4957 83 53.6934 83 54.9436V54.9576C83 57.5291 80.9509 59.6171 78.4158 59.6283L45.4465 59.7755C44.1826 59.7811 43.1618 60.8213 43.1618 62.1033C43.1618 63.4032 44.2011 64.4574 45.4825 64.4574H78.2883C79.5383 64.4574 80.7365 64.9616 81.6207 65.8575C82.5039 66.7534 83 67.9699 83 69.2369C83 70.5048 82.5039 71.7203 81.6207 72.6171C80.7365 73.5131 79.5383 74.0172 78.2883 74.0172H45.4622C44.1919 74.0172 43.1618 75.0612 43.1618 76.3498C43.1618 77.6374 44.1919 78.6833 45.4622 78.6833H56.0248C57.8957 78.6833 59.6907 79.4377 61.0146 80.7797C62.3376 82.1226 63.0813 83.9425 63.0813 85.8412C63.0813 87.7389 62.3376 89.5607 61.0146 90.9036C59.6907 92.2456 57.8957 93 56.0248 93H2.16131C1.52014 93 1 92.4715 1 91.8211C1 91.1707 1.52014 90.6422 2.16131 90.6422H56.0248C57.2794 90.6422 58.4832 90.137 59.3711 89.2364C60.2589 88.3358 60.7569 87.1147 60.7569 85.8421C60.7569 84.5695 60.2589 83.3474 59.3711 82.4468C58.4832 81.5462 57.2794 81.0402 56.0248 81.0402H45.4622C42.9086 81.0402 40.8382 78.941 40.8382 76.3507C40.8382 73.7605 42.9086 71.6594 45.4622 71.6594H78.2883C78.922 71.6594 79.529 71.4045 79.9771 70.95C80.4252 70.4954 80.6765 69.8797 80.6765 69.2369C80.6765 68.5949 80.4252 67.9783 79.9771 67.5247C79.529 67.0702 78.922 66.8153 78.2883 66.8153H45.4825C42.9179 66.8153 40.8382 64.7058 40.8382 62.1033C40.8382 59.5243 42.8929 57.4298 45.4354 57.4186L78.4056 57.2705C79.6611 57.2658 80.6765 56.2312 80.6765 54.9576V54.9436C80.6765 54.3194 80.4316 53.7206 79.9965 53.2783C79.5614 52.8369 78.971 52.5895 78.3557 52.5895H68.1109C66.1606 52.5895 64.2898 51.8032 62.9114 50.404C61.532 49.0058 60.7569 47.1081 60.7569 45.1298V38.9784ZM2.16131 20.7744C1.52014 20.7744 1 20.2468 1 19.5964C1 18.9451 1.52014 18.4175 2.16131 18.4175H6.56725C7.20841 18.4175 7.72855 18.9451 7.72855 19.5964C7.72855 20.2468 7.20841 20.7744 6.56725 20.7744H2.16131ZM10.7579 20.7744C10.1168 20.7744 9.59569 20.2468 9.59569 19.5964C9.59569 18.9451 10.1168 18.4175 10.7579 18.4175H15.1629C15.8041 18.4175 16.3252 18.9451 16.3252 19.5964C16.3252 20.2468 15.8041 20.7744 15.1629 20.7744H10.7579ZM2.16131 55.1076C1.52014 55.1076 1 54.58 1 53.9296C1 53.2783 1.52014 52.7506 2.16131 52.7506H6.56725C7.20841 52.7506 7.72855 53.2783 7.72855 53.9296C7.72855 54.58 7.20841 55.1076 6.56725 55.1076H2.16131ZM10.7579 55.1076C10.1168 55.1076 9.59569 54.58 9.59569 53.9296C9.59569 53.2783 10.1168 52.7506 10.7579 52.7506H15.1629C15.8041 52.7506 16.3252 53.2783 16.3252 53.9296C16.3252 54.58 15.8041 55.1076 15.1629 55.1076H10.7579ZM5.4817 46.5243C4.84053 46.5243 4.31947 45.9967 4.31947 45.3463C4.31947 44.695 4.84053 44.1674 5.4817 44.1674H9.88671C10.5279 44.1674 11.0489 44.695 11.0489 45.3463C11.0489 45.9967 10.5279 46.5243 9.88671 46.5243H5.4817ZM5.4817 29.3577C4.84053 29.3577 4.31947 28.8301 4.31947 28.1797C4.31947 27.5284 4.84053 27.0008 5.4817 27.0008H9.88671C10.5279 27.0008 11.0489 27.5284 11.0489 28.1797C11.0489 28.8301 10.5279 29.3577 9.88671 29.3577H5.4817ZM3.8215 37.941C3.18034 37.941 2.65927 37.4134 2.65927 36.763C2.65927 36.1126 3.18034 35.5841 3.8215 35.5841H8.22652C8.86861 35.5841 9.38875 36.1126 9.38875 36.763C9.38875 37.4134 8.86861 37.941 8.22652 37.941H3.8215ZM32.0929 56.1684C21.5543 56.1684 12.9604 47.452 12.9604 36.7611C12.9604 26.0739 21.5543 17.3566 32.0929 17.3566C42.6296 17.3566 51.2225 26.0739 51.2225 36.7611C51.2225 47.452 42.6296 56.1684 32.0929 56.1684ZM32.0929 53.238C41.0396 53.238 48.3354 45.8364 48.3354 36.7611C48.3354 27.6868 41.0396 20.2852 32.0929 20.2852C23.1461 20.2852 15.8475 27.6868 15.8475 36.7611C15.8475 45.8364 23.1461 53.238 32.0929 53.238ZM32.0929 50.8801C24.4266 50.8801 18.172 44.5385 18.172 36.7611C18.172 28.9847 24.4266 22.6431 32.0929 22.6431C39.7592 22.6431 46.0119 28.9847 46.0119 36.7611C46.0119 44.5375 39.7592 50.8801 32.0929 50.8801ZM40.5823 29.815L41.1154 29.2762C41.5699 28.817 41.5709 28.0701 41.1191 27.6099C40.6664 27.1488 39.9301 27.147 39.4755 27.6062L38.9425 28.145C38.4879 28.6033 38.4861 29.3502 38.9388 29.8113C39.3915 30.2723 40.1278 30.2742 40.5823 29.815ZM30.9306 47.766V48.5288C30.9306 49.1792 31.4517 49.7077 32.0929 49.7077C32.734 49.7077 33.2551 49.1792 33.2551 48.5288V47.766C33.2551 47.1156 32.734 46.5871 32.0929 46.5871C31.4517 46.5871 30.9306 47.1156 30.9306 47.766ZM38.9425 45.3781L39.4755 45.917C39.9301 46.3762 40.6664 46.3743 41.1191 45.9133C41.5709 45.4522 41.5699 44.7053 41.1154 44.2461L40.5823 43.7082C40.1278 43.249 39.3915 43.2508 38.9388 43.711C38.4861 44.172 38.4879 44.9189 38.9425 45.3781ZM23.5997 43.71L23.0685 44.248C22.6149 44.7081 22.6149 45.455 23.0685 45.9151C23.5221 46.3753 24.2584 46.3753 24.7121 45.9151L25.2433 45.3763C25.696 44.9171 25.696 44.1702 25.2433 43.71C24.7897 43.2499 24.0534 43.2499 23.5997 43.71ZM42.941 37.94H43.6911C44.3332 37.94 44.8534 37.4124 44.8534 36.7611C44.8534 36.1107 44.3332 35.5831 43.6911 35.5831H42.941C42.2998 35.5831 41.7797 36.1107 41.7797 36.7611C41.7797 37.4124 42.2998 37.94 42.941 37.94ZM30.9306 35.2523C30.4881 35.6038 30.2036 36.1501 30.2036 36.7611C30.2036 37.8182 31.0507 38.6776 32.0929 38.6776C32.3432 38.6776 32.5825 38.6279 32.8006 38.5379L36.7492 40.8508C37.3044 41.176 38.0158 40.9829 38.3364 40.4197C38.657 39.8565 38.4667 39.1349 37.9114 38.8097L33.9609 36.495C33.8926 35.9936 33.6302 35.5531 33.2551 35.2542V28.8254C33.2551 28.175 32.734 27.6474 32.0929 27.6474C31.4517 27.6474 30.9306 28.175 30.9306 28.8254V35.2523ZM21.242 35.5831H20.4918C19.8507 35.5831 19.3296 36.1107 19.3296 36.7611C19.3296 37.4124 19.8507 37.94 20.4918 37.94H21.242C21.8832 37.94 22.4042 37.4124 22.4042 36.7611C22.4042 36.1107 21.8832 35.5831 21.242 35.5831ZM33.2551 25.7572V24.9962C33.2551 24.3459 32.734 23.8173 32.0929 23.8173C31.4517 23.8173 30.9306 24.3459 30.9306 24.9962V25.7572C30.9306 26.4076 31.4517 26.9361 32.0929 26.9361C32.734 26.9361 33.2551 26.4076 33.2551 25.7572ZM25.2433 28.146L24.7121 27.608C24.2584 27.1479 23.5221 27.1479 23.0685 27.608C22.6149 28.0682 22.6149 28.8151 23.0685 29.2743L23.5997 29.8131C24.0534 30.2733 24.7897 30.2733 25.2433 29.8131C25.696 29.353 25.696 28.6061 25.2433 28.146Z" stroke="#313131" mask="url(#path-2-outside-1_1930_29051)"/>
</g>
</svg>
