<svg width="100" height="101" viewBox="0 0 100 101" fill="none" xmlns="http://www.w3.org/2000/svg">
<path d="M87.3693 21.6443L36.7424 17.5132C35.5998 17.4253 34.3693 17.7769 33.4903 18.5679C32.6114 19.359 31.9961 20.4138 31.9082 21.6443L31.3809 28.4123H72.0757C76.9978 28.4123 81.0409 32.4555 81.0409 37.3777V64.0981L83.9414 64.3617C84.0293 64.3617 84.2051 64.3617 84.293 64.3617C85.3477 64.3617 86.4024 64.0102 87.1935 63.307C88.0724 62.5159 88.6877 61.4612 88.7756 60.2306L91.5003 26.4786C91.676 24.0175 89.8303 21.8201 87.3693 21.6443Z" fill="#313131"/>
<path d="M58.0101 63.2189C58.8011 64.4494 60.1195 65.2405 61.6137 65.2405C63.9868 65.2405 65.9205 63.3068 65.9205 60.9336C65.9205 58.5604 63.9868 56.6267 61.6137 56.6267C60.1195 56.6267 58.8011 57.4177 58.0979 58.5604C57.3069 57.3299 55.9885 56.5388 54.4943 56.5388C52.1212 56.5388 50.1875 58.4725 50.1875 60.8457C50.1875 63.2189 52.1212 65.1526 54.4943 65.1526C55.9885 65.1526 57.3069 64.3615 58.0101 63.2189Z" fill="#313131"/>
<path d="M72.0743 32.8947H21.2717C18.8106 32.8947 16.7891 34.9163 16.7891 37.3774V56.3629C17.668 56.0993 18.6348 56.0114 19.5138 56.0114C20.129 56.0114 20.6564 56.0993 21.2717 56.1872V50.5618H72.0743V71.3053H34.192C34.8073 72.4479 35.1589 73.7663 35.1589 75.1727V75.788H72.0743C74.5353 75.788 76.5569 73.7663 76.5569 71.3053V37.3774C76.5569 34.9163 74.5353 32.8947 72.0743 32.8947ZM21.2717 42.7391V37.3774H72.0743V42.7391H21.2717Z" fill="#313131"/>
<path d="M27.1609 70.6903V67.6139C27.1609 63.3949 23.733 59.9669 19.5141 59.9669C15.3831 60.0548 11.9552 63.4828 11.9552 67.6139V70.6024C9.75788 70.8661 8 72.7998 8 75.0851V84.9294C8 87.3905 10.0216 89.5 12.5705 89.5H26.6335C29.0945 89.5 31.204 87.4784 31.204 84.9294V75.173C31.1161 72.7998 29.3582 70.954 27.1609 70.6903ZM15.8226 67.6139C15.8226 65.5044 17.4925 63.8344 19.602 63.8344C21.7114 63.8344 23.3814 65.5044 23.3814 67.6139V70.6024H15.8226V67.6139ZM24.2604 78.9525L19.8657 83.3473C19.602 83.611 19.1625 83.7868 18.8109 83.7868C18.4594 83.7868 18.0199 83.611 17.7562 83.3473L14.9436 80.6225C14.3284 80.0072 14.3284 79.0404 14.9436 78.4251C15.5589 77.8098 16.5257 77.8098 17.141 78.4251L18.8109 80.0951L22.1509 76.7551C22.7662 76.1398 23.733 76.1398 24.3483 76.7551C24.8756 77.3704 24.8756 78.3372 24.2604 78.9525Z" fill="#313131"/>
</svg>
