<svg width="23" height="22" viewBox="0 0 23 22" fill="none" xmlns="http://www.w3.org/2000/svg">
<path fill-rule="evenodd" clip-rule="evenodd" d="M18.5 4.32L4.1 4.32004C2.90706 4.32004 1.94 5.2871 1.94 6.48004V13.68C1.94 14.873 2.90707 15.84 4.1 15.84H11.3C11.491 15.84 11.6741 15.9159 11.8091 16.0509L14.9 19.1418V16.56C14.9 16.1624 15.2224 15.84 15.62 15.84H18.5C19.6929 15.84 20.66 14.873 20.66 13.68V6.48C20.66 5.28707 19.6929 4.32 18.5 4.32ZM4.09999 2.88004L18.5 2.88C20.4882 2.88 22.1 4.49177 22.1 6.48V13.68C22.1 15.6683 20.4882 17.28 18.5 17.28H16.34V20.88C16.34 21.1712 16.1646 21.4338 15.8955 21.5452C15.6265 21.6567 15.3168 21.5951 15.1109 21.3891L11.0018 17.28H4.1C2.11178 17.28 0.5 15.6683 0.5 13.68V6.48004C0.5 4.49182 2.11177 2.88004 4.09999 2.88004Z" fill="#48E59B"/>
</svg>
