<svg width="22" height="23" viewBox="0 0 22 23" fill="none" xmlns="http://www.w3.org/2000/svg">
<path fill-rule="evenodd" clip-rule="evenodd" d="M21.4609 9.4492C21.7981 9.65995 21.9006 10.1042 21.6899 10.4414C21.0576 11.4529 20.3064 12.3731 19.4524 13.1746L21.1819 14.9041C21.4631 15.1853 21.4631 15.6411 21.1819 15.9223C20.9007 16.2035 20.4449 16.2035 20.1637 15.9223L18.345 14.1036C17.198 14.9603 15.907 15.6218 14.502 16.0379L15.1488 18.452C15.2518 18.8361 15.0238 19.2309 14.6397 19.3338C14.2556 19.4367 13.8608 19.2088 13.7579 18.8247L13.0986 16.3639C12.4199 16.4795 11.7191 16.5397 10.9993 16.5397C10.2796 16.5397 9.57894 16.4795 8.90032 16.3639L8.24105 18.8247C8.13814 19.2088 7.74335 19.4368 7.35925 19.3339C6.97515 19.231 6.7472 18.8362 6.8501 18.4521L7.49685 16.038C6.09145 15.6218 4.80005 14.96 3.65282 14.103L1.83346 15.9223C1.55228 16.2035 1.09641 16.2035 0.815228 15.9223C0.53405 15.6411 0.53405 15.1853 0.815228 14.9041L2.54542 13.1739C1.69181 12.3726 0.940799 11.4526 0.308757 10.4414C0.098005 10.1042 0.200513 9.65995 0.537715 9.4492C0.874916 9.23845 1.31912 9.34096 1.52987 9.67816C3.57411 12.9489 6.956 15.0997 10.9993 15.0997C15.0426 15.0997 18.4245 12.9489 20.4688 9.67816C20.6795 9.34095 21.1237 9.23845 21.4609 9.4492Z" fill="#48E59B"/>
</svg>
