<svg width="22" height="23" viewBox="0 0 22 23" fill="none" xmlns="http://www.w3.org/2000/svg">
<path fill-rule="evenodd" clip-rule="evenodd" d="M11.0002 16.34C7.1163 16.34 3.84271 14.3555 1.77876 11.3C3.84271 8.24456 7.1163 6.26001 11.0002 6.26001C14.8841 6.26001 18.1577 8.24456 20.2216 11.3C18.1577 14.3555 14.8841 16.34 11.0002 16.34ZM11.0002 4.82001C6.40351 4.82001 2.5854 7.27719 0.309636 10.9184C0.163715 11.1519 0.163715 11.4482 0.309637 11.6816C2.5854 15.3228 6.40351 17.78 11.0002 17.78C15.5969 17.78 19.415 15.3228 21.6908 11.6816C21.8367 11.4482 21.8367 11.1519 21.6908 10.9184C19.415 7.27719 15.5969 4.82001 11.0002 4.82001ZM11.0002 14.18C12.5908 14.18 13.8802 12.8906 13.8802 11.3C13.8802 9.70943 12.5908 8.42001 11.0002 8.42001C9.40962 8.42001 8.1202 9.70943 8.1202 11.3C8.1202 12.8906 9.40962 14.18 11.0002 14.18Z" fill="#48E59B"/>
</svg>
