<svg width="22" height="22" viewBox="0 0 22 22" fill="none" xmlns="http://www.w3.org/2000/svg">
<path fill-rule="evenodd" clip-rule="evenodd" d="M11.0067 0.403076C5.15439 0.403076 0.410156 5.14731 0.410156 10.9996C0.410156 16.8519 5.15439 21.5961 11.0067 21.5961C16.8589 21.5961 21.6032 16.8519 21.6032 10.9996C21.6032 5.14731 16.8589 0.403076 11.0067 0.403076ZM1.93016 10.9996C1.93016 5.98678 5.99386 1.92308 11.0067 1.92308C16.0195 1.92308 20.0832 5.98679 20.0832 10.9996C20.0832 16.0124 16.0195 20.0761 11.0067 20.0761C5.99387 20.0761 1.93016 16.0124 1.93016 10.9996ZM12.1998 6.19999C12.1998 6.86273 11.6626 7.39999 10.9998 7.39999C10.3371 7.39999 9.79984 6.86273 9.79984 6.19999C9.79984 5.53725 10.3371 4.99999 10.9998 4.99999C11.6626 4.99999 12.1998 5.53725 12.1998 6.19999ZM8.59984 8.59999H9.39984H10.9998C11.4417 8.59999 11.7998 8.95816 11.7998 9.39999V15H12.5998H13.3998V16.6H12.5998H10.9998H9.39984H8.59984V15H9.39984H10.1998V10.2H9.39984H8.59984V8.59999Z" fill="#48E59B"/>
</svg>
