<svg width="75" height="65" viewBox="0 0 75 65" fill="none" xmlns="http://www.w3.org/2000/svg">
<path d="M70.5507 4.22069L25.549 0.548585C24.5333 0.470455 23.4396 0.782974 22.6583 1.48614C21.877 2.18931 21.3301 3.12687 21.252 4.22069L20.7832 10.2367H56.9564C61.3316 10.2367 64.9255 13.8307 64.9255 18.2059V41.9574L67.5037 42.1918C67.5818 42.1918 67.7381 42.1918 67.8162 42.1918C68.7537 42.1918 69.6913 41.8793 70.3944 41.2542C71.1757 40.551 71.7226 39.6135 71.8007 38.5197L74.2227 8.51783C74.3789 6.33019 72.7383 4.37695 70.5507 4.22069Z" fill="#48E59B"/>
<path d="M44.4534 41.1759C45.1565 42.2697 46.3285 42.9729 47.6566 42.9729C49.7661 42.9729 51.4849 41.254 51.4849 39.1445C51.4849 37.035 49.7661 35.3162 47.6566 35.3162C46.3285 35.3162 45.1565 36.0193 44.5315 37.035C43.8284 35.9412 42.6564 35.238 41.3283 35.238C39.2188 35.238 37.5 36.9569 37.5 39.0664C37.5 41.1759 39.2188 42.8948 41.3283 42.8948C42.6564 42.8948 43.8284 42.1916 44.4534 41.1759Z" fill="#48E59B"/>
<path d="M56.9549 14.2212H11.797C9.60944 14.2212 7.8125 16.0182 7.8125 18.2058V35.0819C8.59378 34.8475 9.45319 34.7693 10.2345 34.7693C10.7814 34.7693 11.2501 34.8475 11.797 34.9256V29.9253H56.9549V48.3639H23.2818C23.8287 49.3796 24.1412 50.5516 24.1412 51.8016V52.3485H56.9549C59.1425 52.3485 60.9395 50.5516 60.9395 48.3639V18.2058C60.9395 16.0182 59.1425 14.2212 56.9549 14.2212ZM11.797 22.9717V18.2058H56.9549V22.9717H11.797Z" fill="#48E59B"/>
<path d="M17.0319 47.817V45.0825C17.0319 41.3322 13.9849 38.2852 10.2348 38.2852C6.56274 38.3633 3.51575 41.4104 3.51575 45.0825V47.7389C1.56256 47.9733 0 49.6921 0 51.7235V60.474C0 62.6617 1.79694 64.5368 4.06265 64.5368H16.5631C18.7507 64.5368 20.6258 62.7398 20.6258 60.474V51.8016C20.5476 49.6921 18.9851 48.0514 17.0319 47.817ZM6.95338 45.0825C6.95338 43.2073 8.43781 41.7229 10.3129 41.7229C12.188 41.7229 13.6724 43.2073 13.6724 45.0825V47.7389H6.95338V45.0825ZM14.4537 55.1612L10.5473 59.0677C10.3129 59.3021 9.92224 59.4583 9.60973 59.4583C9.29722 59.4583 8.90658 59.3021 8.6722 59.0677L6.1721 56.6457C5.62521 56.0988 5.62521 55.2393 6.1721 54.6924C6.719 54.1455 7.5784 54.1455 8.1253 54.6924L9.60973 56.1769L12.5786 53.208C13.1255 52.661 13.9849 52.661 14.5318 53.208C15.0006 53.7549 15.0006 54.6143 14.4537 55.1612Z" fill="#48E59B"/>
</svg>
