<?xml version="1.0" encoding="utf-8"?>
<!DOCTYPE svg PUBLIC "-//W3C//DTD SVG 1.0//EN" "http://www.w3.org/TR/2001/REC-SVG-20010904/DTD/svg10.dtd">
<svg version="1.0" xmlns="http://www.w3.org/2000/svg" width="200px" height="200px" viewBox="0 0 200 200" preserveAspectRatio="xMidYMid meet">
 <g fill="#0052ff">
  <path d="M79.5 197 c-29.7 -6.8 -52.9 -24.3 -67.2 -51 -15.1 -27.9 -15.1 -64.1 0 -92 11.9 -22.1 30.3 -38.4 53.2 -46.9 21.6 -8.1 47.4 -8.1 69 0 26.8 10 48.4 31.6 58.4 58.4 8.1 21.6 8.1 47.4 0 69 -10 26.8 -31.6 48.4 -58.4 58.4 -16.5 6.2 -38.6 7.8 -55 4.1z m39.4 -33.5 c22.2 -7.5 39 -25.2 45.7 -48 2.4 -8.1 2.4 -23 0 -31 -7.7 -25.8 -27.9 -44.6 -53.6 -50.1 -13.4 -2.8 -25.4 -1 -40 6.2 -16.3 8.1 -28.7 22.6 -35.1 41.1 -3.5 10.3 -9.1 9.3 49.6 9.3 l51.5 0 0 9 0 9 -51.5 0 c-59.2 0 -53.4 -1.3 -48.9 11 3.9 10.9 8.9 18.7 17.4 27.1 6.1 6.1 9.7 8.6 17.1 12.3 5.2 2.6 12.3 5.3 15.9 6.1 9.2 2.1 22.5 1.3 31.9 -2z"/>
 </g>
 <g fill="#ffffff">
  <path d="M84 168.5 c-3.6 -0.8 -10.7 -3.5 -15.9 -6.1 -19.5 -9.6 -34.8 -30.4 -37.6 -51.1 l-0.7 -5.3 52.1 0 52.1 0 0 -6 0 -6 -52.1 0 -52.1 0 0.6 -4.7 c3 -21.4 18 -42 37.6 -51.7 10.9 -5.3 20.1 -7.6 31.5 -7.6 31.8 0 58.7 20.4 68.1 51.5 2.6 8.4 2.6 28.6 0 37 -6.9 22.9 -23.4 40.4 -45.7 48.1 -9.4 3.3 -27.8 4.2 -37.9 1.9z"/>
 </g>
</svg>