<svg width="24" height="24" viewBox="0 0 24 24" fill="none" xmlns="http://www.w3.org/2000/svg">
<path fill-rule="evenodd" clip-rule="evenodd" d="M6.16573 3.43433C5.85331 3.12191 5.34678 3.12191 5.03436 3.43433C4.72194 3.74675 4.72194 4.25328 5.03436 4.5657L11.4344 10.9657C11.7468 11.2781 12.2533 11.2781 12.5657 10.9657L18.9657 4.5657C19.2782 4.25328 19.2782 3.74675 18.9657 3.43433C18.6533 3.12191 18.1468 3.12191 17.8344 3.43433L12 9.26864L6.16573 3.43433ZM6.16573 13.0343C5.85331 12.7219 5.34678 12.7219 5.03436 13.0343C4.72194 13.3467 4.72194 13.8533 5.03436 14.1657L11.4344 20.5657C11.7468 20.8781 12.2533 20.8781 12.5657 20.5657L18.9657 14.1657C19.2782 13.8533 19.2782 13.3467 18.9657 13.0343C18.6533 12.7219 18.1468 12.7219 17.8344 13.0343L12 18.8686L6.16573 13.0343Z" fill="#242424"/>
</svg>
