<svg width="184" height="398" viewBox="0 0 184 398" fill="none" xmlns="http://www.w3.org/2000/svg">
<g clip-path="url(#clip0_2993_31310)">
<path fill-rule="evenodd" clip-rule="evenodd" d="M0.570312 0.190063H183.972V397.76H0.570312V0.190063ZM63.702 14.5745C63.702 10.161 67.2799 6.58315 71.6934 6.58315H112.849C117.262 6.58315 120.84 10.161 120.84 14.5745C120.84 18.988 117.262 22.5659 112.849 22.5659H71.6934C67.2799 22.5659 63.702 18.988 63.702 14.5745ZM112.849 10.5788C110.642 10.5788 108.853 12.3677 108.853 14.5745C108.853 16.7813 110.642 18.5702 112.849 18.5702C115.056 18.5702 116.845 16.7813 116.845 14.5745C116.845 12.3677 115.056 10.5788 112.849 10.5788Z" fill="black"/>
</g>
<rect x="0.770096" y="0.389847" width="183.002" height="397.17" rx="24.973" stroke="black" stroke-opacity="0.05" stroke-width="0.399568"/>
<defs>
<clipPath id="clip0_2993_31310">
<rect x="0.570312" y="0.190063" width="183.402" height="397.57" rx="25.1728" fill="white"/>
</clipPath>
</defs>
</svg>
