<svg width="205" height="416" viewBox="0 0 205 416" fill="none" xmlns="http://www.w3.org/2000/svg">
<path fill-rule="evenodd" clip-rule="evenodd" d="M5.30782 18.7624C1.5625 26.113 1.5625 35.7355 1.5625 54.9805V360.969C1.5625 380.214 1.5625 389.837 5.30782 397.188C8.6023 403.653 13.8591 408.91 20.3249 412.205C27.6755 415.95 37.298 415.95 56.543 415.95H148.364C167.609 415.95 177.231 415.95 184.582 412.205C191.048 408.91 196.304 403.653 199.599 397.188C203.344 389.837 203.344 380.214 203.344 360.969V54.9805C203.344 35.7355 203.344 26.113 199.599 18.7624C196.304 12.2966 191.048 7.0398 184.582 3.74532C177.231 0 167.609 0 148.364 0H56.543C37.298 0 27.6755 0 20.3249 3.74532C13.8591 7.0398 8.6023 12.2966 5.30782 18.7624ZM4.75904 53.0626C4.75904 35.6078 4.75904 26.8805 8.15596 20.2136C11.144 14.3493 15.9118 9.58148 21.7761 6.59346C28.443 3.19654 37.1703 3.19654 54.6251 3.19654H81.476C81.8598 3.19654 82.1679 3.78554 82.3814 4.19359C82.4133 4.25477 82.4432 4.31188 82.4709 4.36233C82.742 4.85636 83.267 5.19127 83.8703 5.19127H120.637C121.24 5.19127 121.765 4.85636 122.036 4.36233C122.064 4.31188 122.094 4.25477 122.126 4.19359C122.339 3.78554 122.647 3.19654 123.031 3.19654H150.282C167.736 3.19654 176.464 3.19654 183.131 6.59346C188.995 9.58148 193.763 14.3493 196.751 20.2136C200.148 26.8805 200.148 35.6078 200.148 53.0626V362.887C200.148 380.342 200.148 389.069 196.751 395.736C193.763 401.601 188.995 406.368 183.131 409.356C176.464 412.753 167.736 412.753 150.282 412.753H54.6251C37.1703 412.753 28.443 412.753 21.7761 409.356C15.9118 406.368 11.144 401.601 8.15596 395.736C4.75904 389.069 4.75904 380.342 4.75904 362.887V53.0626Z" fill="black" fill-opacity="0.4"/>
<path d="M204.547 132.656C204.547 132.215 204.189 131.857 203.748 131.857H203.348V181.404H203.748C204.189 181.404 204.547 181.046 204.547 180.605V132.656Z" fill="black" fill-opacity="0.4"/>
<path d="M0.367188 80.5129C0.367188 80.1819 0.635526 79.9135 0.966539 79.9135H1.56589V95.8962H0.966539C0.635526 95.8962 0.367188 95.6279 0.367188 95.2969V80.5129Z" fill="black" fill-opacity="0.4"/>
<path d="M0.367188 110.48C0.367188 110.149 0.635526 109.881 0.966539 109.881H1.56589V141.847H0.966539C0.635526 141.847 0.367188 141.578 0.367188 141.247V110.48Z" fill="black" fill-opacity="0.4"/>
<path d="M0.367188 150.437C0.367188 150.106 0.635526 149.838 0.966539 149.838H1.56589V181.803H0.966539C0.635526 181.803 0.367188 181.535 0.367188 181.204V150.437Z" fill="black" fill-opacity="0.4"/>
</svg>
