<svg width="63" height="64" viewBox="0 0 63 64" fill="none" xmlns="http://www.w3.org/2000/svg">
<path d="M57.6674 22.5012H44.8C43.9242 23.7138 42.9137 24.8591 41.7011 25.8023H57.6674C58.6779 25.8023 59.4863 26.6107 59.4863 27.6212V58.9475C59.4863 59.958 58.6779 60.7665 57.6674 60.7665H5.12C4.10947 60.7665 3.30105 59.958 3.30105 58.9475V27.5538C3.30105 26.5433 4.10947 25.7349 5.12 25.7349H21.0863C19.9411 24.7917 18.8632 23.7138 17.9874 22.4338H5.12C2.29053 22.4338 0 24.7244 0 27.5538V58.8802C0 61.7096 2.29053 64.0002 5.12 64.0002H57.6674C60.4968 64.0002 62.7874 61.7096 62.7874 58.8802V27.5538C62.7874 24.7917 60.4968 22.5012 57.6674 22.5012Z" fill="#48E59B"/>
<path d="M29.9859 50.4593C29.5817 47.4277 27.4259 45.0025 24.6638 44.0593C23.2491 44.9351 21.4975 45.4741 19.6786 45.4741C17.8596 45.4741 16.1754 45.0025 14.6933 44.0593C11.9312 44.9351 9.7754 47.4277 9.37119 50.4593L8.83224 54.232C8.6975 55.2425 9.43856 56.1183 10.4491 56.1183H28.7733C29.7838 56.1183 30.5249 55.2425 30.3901 54.232L29.9859 50.4593Z" fill="#48E59B"/>
<path d="M19.6793 43.1162C23.1825 43.1162 26.0793 40.2867 26.0793 36.7162C26.0793 33.213 23.2498 30.3162 19.6793 30.3162C16.1761 30.3162 13.2793 33.1456 13.2793 36.7162C13.2793 40.2193 16.1761 43.1162 19.6793 43.1162Z" fill="#48E59B"/>
<path d="M52.3509 35.8401H37.0582C36.1825 35.8401 35.4414 35.0991 35.4414 34.2233C35.4414 33.3475 36.1825 32.6064 37.0582 32.6064H52.2835C53.1593 32.6064 53.9004 33.3475 53.9004 34.2233C53.9004 35.0991 53.2267 35.8401 52.3509 35.8401Z" fill="#48E59B"/>
<path d="M52.3509 44.8675H37.0582C36.1825 44.8675 35.4414 44.1264 35.4414 43.2506C35.4414 42.3748 36.1825 41.6338 37.0582 41.6338H52.2835C53.1593 41.6338 53.9004 42.3748 53.9004 43.2506C53.9677 44.1264 53.2267 44.8675 52.3509 44.8675Z" fill="#48E59B"/>
<path d="M52.3509 53.8948H37.0582C36.1825 53.8948 35.4414 53.1538 35.4414 52.278C35.4414 51.4022 36.1825 50.6611 37.0582 50.6611H52.2835C53.1593 50.6611 53.9004 51.4022 53.9004 52.278C53.9677 53.2211 53.2267 53.8948 52.3509 53.8948Z" fill="#48E59B"/>
<path d="M31.3956 0C24.1872 0 18.3262 5.86105 18.3262 13.0695C18.3262 20.2779 24.1872 26.1389 31.3956 26.1389C38.6041 26.1389 44.4651 20.2779 44.4651 13.0695C44.4651 5.86105 38.6041 0 31.3956 0ZM37.6609 11.4526L30.9241 18.1895C30.5199 18.5937 30.0483 18.7958 29.5093 18.7958C29.0378 18.7958 28.4988 18.5937 28.0946 18.1895L24.7262 14.8211C23.9851 14.08 23.9851 12.8 24.7262 12.0589C25.4672 11.3179 26.7472 11.3179 27.4883 12.0589L29.442 14.0126L34.7641 8.69053C35.5051 7.94947 36.7851 7.94947 37.5262 8.69053C38.4693 9.43158 38.4693 10.6442 37.6609 11.4526Z" fill="#48E59B"/>
</svg>
