<svg width="17" height="16" viewBox="0 0 17 16" fill="none" xmlns="http://www.w3.org/2000/svg">
<path fill-rule="evenodd" clip-rule="evenodd" d="M2.19932 0.299805C1.42612 0.299805 0.799316 0.926606 0.799316 1.6998V14.2998C0.799316 15.073 1.42612 15.6998 2.19932 15.6998H14.7993C15.5725 15.6998 16.1993 15.073 16.1993 14.2998V9.3998C16.1993 9.0132 15.8859 8.6998 15.4993 8.6998C15.1127 8.6998 14.7993 9.0132 14.7993 9.3998V14.2998H2.19932V1.6998L7.09932 1.6998C7.48592 1.6998 7.79932 1.3864 7.79932 0.999805C7.79932 0.613205 7.48592 0.299805 7.09932 0.299805H2.19932ZM11.2993 0.299805H15.4993L16.1993 0.999805V1.00062V5.1998C16.1993 5.5864 15.8859 5.8998 15.4993 5.8998C15.1127 5.8998 14.7993 5.5864 14.7993 5.1998V2.68975L7.59429 9.89478C7.32092 10.1681 6.87771 10.1681 6.60434 9.89478C6.33098 9.62141 6.33098 9.1782 6.60434 8.90483L13.8094 1.6998H11.2993C10.9127 1.6998 10.5993 1.3864 10.5993 0.999805C10.5993 0.613205 10.9127 0.299805 11.2993 0.299805Z" fill="#48E59B"/>
</svg>
