<svg width="132" height="42" viewBox="0 0 132 42" fill="none" xmlns="http://www.w3.org/2000/svg">
<path d="M16.9688 33H14.0312L5.20312 16L5.15625 33H2.23438V10.25H5.17188L14 27.2188L14.0469 10.25H16.9688V33ZM36.2469 33C36.1323 32.7812 36.0385 32.5104 35.9656 32.1875C35.9031 31.8542 35.8563 31.5104 35.825 31.1562C35.5333 31.4479 35.2052 31.724 34.8406 31.9844C34.4865 32.2448 34.0958 32.474 33.6688 32.6719C33.2313 32.8698 32.7677 33.026 32.2781 33.1406C31.7885 33.2552 31.2677 33.3125 30.7156 33.3125C29.8198 33.3125 29.0073 33.1823 28.2781 32.9219C27.5594 32.6615 26.95 32.3073 26.45 31.8594C25.9396 31.4219 25.5438 30.901 25.2625 30.2969C24.9917 29.6823 24.8563 29.0208 24.8563 28.3125C24.8563 27.3854 25.0385 26.5729 25.4031 25.875C25.7781 25.1771 26.3042 24.5938 26.9813 24.125C27.6583 23.6667 28.4708 23.3229 29.4188 23.0938C30.3771 22.8646 31.4448 22.75 32.6219 22.75H35.7781V21.4219C35.7781 20.9115 35.6844 20.4531 35.4969 20.0469C35.3094 19.6406 35.0438 19.2917 34.7 19C34.3563 18.7188 33.9344 18.5 33.4344 18.3438C32.9448 18.1875 32.3927 18.1094 31.7781 18.1094C31.2052 18.1094 30.6896 18.1823 30.2313 18.3281C29.7833 18.474 29.4031 18.6667 29.0906 18.9062C28.7781 19.1458 28.5333 19.4323 28.3563 19.7656C28.1896 20.0885 28.1063 20.4271 28.1063 20.7812H25.2C25.2104 20.1667 25.3667 19.5625 25.6688 18.9688C25.9813 18.375 26.4292 17.8385 27.0125 17.3594C27.5854 16.8906 28.2833 16.5104 29.1063 16.2188C29.9396 15.9271 30.8823 15.7812 31.9344 15.7812C32.8927 15.7812 33.7833 15.901 34.6063 16.1406C35.4292 16.3698 36.1427 16.7188 36.7469 17.1875C37.3406 17.6667 37.8094 18.2604 38.1531 18.9688C38.4969 19.6771 38.6688 20.5052 38.6688 21.4531V29.3125C38.6688 29.875 38.7208 30.474 38.825 31.1094C38.9292 31.7344 39.075 32.2812 39.2625 32.75V33H36.2469ZM31.1375 30.7969C31.7 30.7969 32.226 30.724 32.7156 30.5781C33.2052 30.4323 33.6531 30.2396 34.0594 30C34.4552 29.7604 34.799 29.4896 35.0906 29.1875C35.3823 28.875 35.6115 28.5521 35.7781 28.2188V24.7969H33.0906C32.0906 24.7969 31.2156 24.8854 30.4656 25.0625C29.726 25.2292 29.1375 25.4896 28.7 25.8438C28.3875 26.0938 28.1479 26.3906 27.9813 26.7344C27.825 27.0781 27.7469 27.4688 27.7469 27.9062C27.7469 28.3229 27.8146 28.7083 27.95 29.0625C28.0958 29.4167 28.3094 29.7188 28.5906 29.9688C28.8719 30.2292 29.226 30.4323 29.6531 30.5781C30.0802 30.724 30.575 30.7969 31.1375 30.7969ZM48.8844 16.0938L48.9625 17.6875C49.3063 17.0938 49.7542 16.6302 50.3063 16.2969C50.8688 15.9635 51.5458 15.7917 52.3375 15.7812C52.7854 15.7812 53.1865 15.8333 53.5406 15.9375C53.9052 16.0312 54.2229 16.1719 54.4938 16.3594C54.6917 16.5052 54.8688 16.6823 55.025 16.8906C55.1917 17.099 55.3323 17.3333 55.4469 17.5938C55.5927 17.3542 55.7646 17.1302 55.9625 16.9219C56.1604 16.7135 56.374 16.5312 56.6031 16.375C56.8948 16.1979 57.2177 16.0573 57.5719 15.9531C57.9365 15.849 58.3323 15.7917 58.7594 15.7812C59.3427 15.7812 59.8688 15.8698 60.3375 16.0469C60.8063 16.2135 61.2021 16.4635 61.525 16.7969C61.8792 17.1719 62.15 17.6615 62.3375 18.2656C62.525 18.8594 62.6188 19.5625 62.6188 20.375V33H59.8688V20.3438C59.8688 19.9896 59.8271 19.6771 59.7438 19.4062C59.6604 19.1354 59.5406 18.9115 59.3844 18.7344C59.2177 18.5677 59.0094 18.4427 58.7594 18.3594C58.5198 18.276 58.2385 18.2344 57.9156 18.2344C57.5719 18.2344 57.275 18.2812 57.025 18.375C56.775 18.4688 56.5667 18.5938 56.4 18.75C56.2333 18.9167 56.1031 19.1094 56.0094 19.3281C55.9156 19.5365 55.8531 19.7708 55.8219 20.0312C55.8219 20.0833 55.8219 20.1354 55.8219 20.1875C55.8219 20.2292 55.8219 20.2812 55.8219 20.3438V33H53.0719V20.3281C53.0719 19.974 53.0302 19.6615 52.9469 19.3906C52.874 19.1198 52.7542 18.8958 52.5875 18.7188C52.4313 18.5521 52.2333 18.4323 51.9938 18.3594C51.7646 18.276 51.4938 18.2344 51.1813 18.2344C50.8375 18.2344 50.5354 18.276 50.275 18.3594C50.025 18.4323 49.8115 18.5417 49.6344 18.6875C49.499 18.8021 49.3792 18.9323 49.275 19.0781C49.1813 19.224 49.1031 19.3802 49.0406 19.5469V33H46.2906V16.0938H48.8844ZM77.4437 33.3125C76.2562 33.3125 75.1625 33.1094 74.1625 32.7031C73.1729 32.2969 72.324 31.7292 71.6156 31C70.9073 30.2708 70.3552 29.4062 69.9594 28.4062C69.5635 27.4062 69.3656 26.3177 69.3656 25.1406V24.4844C69.3656 23.1198 69.5844 21.901 70.0219 20.8281C70.4594 19.7448 71.0427 18.8281 71.7719 18.0781C72.4906 17.3385 73.3083 16.7708 74.225 16.375C75.1521 15.9792 76.1 15.7812 77.0687 15.7812C78.2875 15.7812 79.35 15.9948 80.2562 16.4219C81.1729 16.8385 81.9333 17.4167 82.5375 18.1562C83.1417 18.9062 83.5896 19.7865 83.8812 20.7969C84.1833 21.8073 84.3344 22.901 84.3344 24.0781V25.375H72.2562V25.4844C72.3292 26.3073 72.4906 27.0312 72.7406 27.6562C73.001 28.2812 73.3552 28.8333 73.8031 29.3125C74.2615 29.8229 74.8135 30.224 75.4594 30.5156C76.1052 30.8073 76.8187 30.9531 77.6 30.9531C78.6312 30.9531 79.5479 30.7448 80.35 30.3281C81.1521 29.9115 81.8187 29.3594 82.35 28.6719L84.1156 30.0469C83.5531 30.901 82.7094 31.6615 81.5844 32.3281C80.4698 32.9844 79.0896 33.3125 77.4437 33.3125ZM77.0687 18.1562C76.4854 18.1562 75.9333 18.2656 75.4125 18.4844C74.8917 18.6927 74.4229 19 74.0062 19.4062C73.5896 19.8229 73.2354 20.3333 72.9437 20.9375C72.6625 21.5312 72.4646 22.2188 72.35 23H81.4437V22.8594C81.4437 22.3385 81.3448 21.7812 81.1469 21.1875C80.949 20.5833 80.6729 20.0625 80.3187 19.625C79.9646 19.1875 79.5167 18.8333 78.975 18.5625C78.4437 18.2917 77.8083 18.1562 77.0687 18.1562ZM92.8469 9H101.488V30.5H107.003V33H92.8469V30.5H98.5969V11.5156H92.8469V9ZM116.172 39.8281C115.901 39.8281 115.583 39.7969 115.219 39.7344C114.854 39.6719 114.578 39.6198 114.391 39.5781L114.859 37.2188C115.12 37.2396 115.375 37.2552 115.625 37.2656C115.885 37.2865 116.089 37.2969 116.234 37.2969C116.63 37.2969 116.99 37.1875 117.312 36.9688C117.646 36.75 117.943 36.4896 118.203 36.1875C118.453 35.8854 118.667 35.5729 118.844 35.25C119.031 34.9271 119.177 34.6615 119.281 34.4531L120.438 32.2031L113.156 16.0938H116.391L121.031 27L121.781 29.0469L122.578 27.0625L126.938 16.0938H130.172L121.594 35.6094C121.396 36.0469 121.141 36.5104 120.828 37C120.526 37.4896 120.156 37.9427 119.719 38.3594C119.281 38.776 118.771 39.125 118.188 39.4062C117.604 39.6875 116.932 39.8281 116.172 39.8281Z" fill="black"/>
</svg>
