<svg width="32" height="32" viewBox="0 0 32 32" fill="none" xmlns="http://www.w3.org/2000/svg">
<path fill-rule="evenodd" clip-rule="evenodd" d="M21.3333 13.8667C21.3333 17.9904 17.9903 21.3333 13.8666 21.3333C9.74288 21.3333 6.39994 17.9904 6.39994 13.8667C6.39994 9.74294 9.74288 6.4 13.8666 6.4C17.9903 6.4 21.3333 9.74294 21.3333 13.8667ZM19.8588 21.3673C18.2165 22.6811 16.1333 23.4667 13.8666 23.4667C8.56467 23.4667 4.2666 19.1686 4.2666 13.8667C4.2666 8.56473 8.56467 4.26666 13.8666 4.26666C19.1685 4.26666 23.4666 8.56473 23.4666 13.8667C23.4666 16.1333 22.681 18.2165 21.3673 19.8588L27.4209 25.9124C27.8375 26.329 27.8375 27.0044 27.4209 27.4209C27.0044 27.8375 26.329 27.8375 25.9124 27.4209L19.8588 21.3673Z" fill="black"/>
</svg>
