<svg width="239" height="72" viewBox="0 0 239 72" fill="none" xmlns="http://www.w3.org/2000/svg">
<path d="M36.3418 40.0586V39.8262H38.6113V39.9629C38.6113 41.2663 38.9212 42.2507 39.541 42.916C40.1608 43.5814 41.0449 43.9141 42.1934 43.9141C43.3236 43.9141 44.2031 43.554 44.832 42.834C45.4609 42.1139 45.7754 41.0293 45.7754 39.5801V25.5938H48.0449V39.6211C48.0449 41.5716 47.5163 43.1029 46.459 44.2148C45.4108 45.3177 43.9889 45.8691 42.1934 45.8691C40.416 45.8691 38.9941 45.3542 37.9277 44.3242C36.8704 43.2943 36.3418 41.8724 36.3418 40.0586ZM52.4117 38.8145V38.377C52.4117 36.2988 52.9905 34.6081 54.148 33.3047C55.3147 31.9922 56.8687 31.3359 58.8102 31.3359C60.7607 31.3359 62.3147 31.9922 63.4723 33.3047C64.6389 34.6081 65.2223 36.2988 65.2223 38.377V38.8145C65.2223 40.9017 64.6389 42.6016 63.4723 43.9141C62.3147 45.2174 60.7607 45.8691 58.8102 45.8691C56.8687 45.8691 55.3147 45.2174 54.148 43.9141C52.9905 42.6016 52.4117 40.9017 52.4117 38.8145ZM54.6676 38.3906V38.8145C54.6676 40.291 55.0139 41.5306 55.7066 42.5332C56.4085 43.5267 57.443 44.0234 58.8102 44.0234C60.1773 44.0234 61.2118 43.5267 61.9137 42.5332C62.6155 41.5306 62.9664 40.291 62.9664 38.8145V38.3906C62.9664 36.9049 62.6155 35.6699 61.9137 34.6855C61.2118 33.6921 60.1773 33.1953 58.8102 33.1953C57.443 33.1953 56.4085 33.6921 55.7066 34.6855C55.0139 35.6699 54.6676 36.9049 54.6676 38.3906ZM69.6848 45.5V31.7051H71.8859V45.5H69.6848ZM69.3703 27.2344C69.3703 26.8424 69.4934 26.5189 69.7395 26.2637C69.9855 25.9993 70.3319 25.8672 70.7785 25.8672C71.2342 25.8672 71.5806 25.9993 71.8176 26.2637C72.0637 26.5189 72.1867 26.8424 72.1867 27.2344C72.1867 27.6172 72.0637 27.9408 71.8176 28.2051C71.5806 28.4694 71.2342 28.6016 70.7785 28.6016C70.3319 28.6016 69.9855 28.4694 69.7395 28.2051C69.4934 27.9408 69.3703 27.6172 69.3703 27.2344ZM77.2098 45.5V31.7051H79.2195L79.2879 33.5508H79.3563C79.8393 32.8763 80.45 32.3568 81.1883 31.9922C81.9266 31.6185 82.7423 31.4316 83.6355 31.4316C85.0027 31.4316 86.0919 31.8236 86.9031 32.6074C87.7143 33.3913 88.1199 34.6992 88.1199 36.5312V45.5H85.9188V36.5586C85.9188 35.3919 85.6635 34.5625 85.1531 34.0703C84.6427 33.569 83.9181 33.3184 82.9793 33.3184C82.1772 33.3184 81.4663 33.5417 80.8465 33.9883C80.2267 34.4258 79.7482 34.9954 79.4109 35.6973V45.5H77.2098ZM104.168 45.623L99.3965 25.5938H101.68L105.152 40.8516C105.216 41.125 105.262 41.3665 105.289 41.5762C105.326 41.7858 105.362 42.0456 105.398 42.3555H105.521C105.558 42.0456 105.594 41.7858 105.631 41.5762C105.667 41.3665 105.722 41.125 105.795 40.8516L109.582 25.5938H111.988L115.898 40.8652C115.962 41.1296 116.012 41.3665 116.049 41.5762C116.085 41.7858 116.122 42.0456 116.158 42.3555H116.268C116.295 42.0456 116.327 41.7858 116.363 41.5762C116.4 41.3665 116.45 41.1296 116.514 40.8652L119.891 25.5938H122.105L117.348 45.623H115.064L111.141 30.2148C111.077 29.9596 111.013 29.6953 110.949 29.4219C110.895 29.1484 110.844 28.8568 110.799 28.5469H110.717C110.671 28.8568 110.617 29.1484 110.553 29.4219C110.498 29.6862 110.439 29.9505 110.375 30.2148L106.451 45.623H104.168ZM124.695 41.4805C124.695 40.1042 125.237 39.0241 126.322 38.2402C127.407 37.4564 128.81 37.0645 130.533 37.0645H133.705V35.9707C133.705 35.1048 133.477 34.4212 133.021 33.9199C132.574 33.4095 131.818 33.1543 130.752 33.1543C129.685 33.1543 128.906 33.3685 128.414 33.7969C127.921 34.2253 127.675 34.7539 127.675 35.3828V35.5332H125.488V35.3281C125.488 34.2526 125.962 33.3184 126.91 32.5254C127.867 31.7324 129.166 31.3359 130.806 31.3359C132.42 31.3359 133.673 31.7142 134.566 32.4707C135.459 33.2272 135.906 34.3939 135.906 35.9707V42.2188C135.906 42.8112 135.947 43.3717 136.029 43.9004C136.12 44.4199 136.252 44.8802 136.425 45.2812V45.5H134.306C134.179 45.2721 134.06 44.9759 133.951 44.6113C133.851 44.2467 133.787 43.8776 133.759 43.5039C133.431 44.0872 132.898 44.6068 132.16 45.0625C131.431 45.5182 130.487 45.7461 129.33 45.7461C127.999 45.7461 126.892 45.3815 126.007 44.6523C125.132 43.9232 124.695 42.8659 124.695 41.4805ZM126.896 41.3711C126.896 42.1914 127.133 42.8249 127.607 43.2715C128.09 43.7181 128.815 43.9414 129.781 43.9414C130.774 43.9414 131.677 43.5996 132.488 42.916C133.299 42.2324 133.705 41.4941 133.705 40.7012V38.6914H130.793C129.498 38.6914 128.523 38.9329 127.867 39.416C127.22 39.8991 126.896 40.5508 126.896 41.3711ZM141.161 45.5V31.7051H143.363V45.5H141.161ZM140.847 27.2344C140.847 26.8424 140.97 26.5189 141.216 26.2637C141.462 25.9993 141.808 25.8672 142.255 25.8672C142.711 25.8672 143.057 25.9993 143.294 26.2637C143.54 26.5189 143.663 26.8424 143.663 27.2344C143.663 27.6172 143.54 27.9408 143.294 28.2051C143.057 28.4694 142.711 28.6016 142.255 28.6016C141.808 28.6016 141.462 28.4694 141.216 28.2051C140.97 27.9408 140.847 27.6172 140.847 27.2344ZM146.8 33.4551V31.7051H154.552V33.4551H146.8ZM149.261 41.9863V32.6895V32.3613V27.7402H151.462V41.9863C151.462 42.7337 151.594 43.2487 151.858 43.5312C152.123 43.8047 152.537 43.9414 153.102 43.9414C153.339 43.9414 153.572 43.9186 153.8 43.873C154.037 43.8275 154.269 43.7591 154.497 43.668V45.5137C154.287 45.6048 154.009 45.6868 153.663 45.7598C153.326 45.8327 152.952 45.8691 152.542 45.8691C151.539 45.8691 150.742 45.5684 150.149 44.9668C149.557 44.3561 149.261 43.3626 149.261 41.9863ZM158.495 45.5V24.8418H160.696V45.5H158.495ZM166.088 45.5V31.7051H168.289V45.5H166.088ZM165.773 27.2344C165.773 26.8424 165.896 26.5189 166.143 26.2637C166.389 25.9993 166.735 25.8672 167.182 25.8672C167.637 25.8672 167.984 25.9993 168.221 26.2637C168.467 26.5189 168.59 26.8424 168.59 27.2344C168.59 27.6172 168.467 27.9408 168.221 28.2051C167.984 28.4694 167.637 28.6016 167.182 28.6016C166.735 28.6016 166.389 28.4694 166.143 28.2051C165.896 27.9408 165.773 27.6172 165.773 27.2344ZM172.847 41.3711H175.048V41.5215C175.048 42.3691 175.345 42.998 175.937 43.4082C176.53 43.8184 177.323 44.0234 178.316 44.0234C179.309 44.0234 180.089 43.832 180.654 43.4492C181.228 43.0573 181.515 42.5241 181.515 41.8496C181.515 41.1934 181.274 40.6966 180.791 40.3594C180.317 40.0221 179.351 39.6712 177.892 39.3066C176.407 38.9421 175.249 38.4499 174.42 37.8301C173.599 37.2103 173.189 36.3353 173.189 35.2051C173.189 34.0749 173.645 33.1497 174.556 32.4297C175.468 31.7005 176.694 31.3359 178.234 31.3359C179.765 31.3359 180.996 31.7005 181.925 32.4297C182.864 33.1589 183.334 34.1706 183.334 35.4648V35.5879H181.146V35.4238C181.146 34.6855 180.9 34.1296 180.408 33.7559C179.925 33.373 179.2 33.1816 178.234 33.1816C177.268 33.1816 176.552 33.3594 176.087 33.7148C175.623 34.0612 175.39 34.526 175.39 35.1094C175.39 35.6654 175.641 36.1074 176.142 36.4355C176.653 36.7546 177.637 37.0964 179.095 37.4609C180.554 37.8255 181.684 38.3268 182.486 38.9648C183.297 39.6029 183.703 40.5189 183.703 41.7129C183.703 42.9342 183.252 43.9323 182.349 44.707C181.456 45.4818 180.112 45.8691 178.316 45.8691C176.53 45.8691 175.171 45.4772 174.242 44.6934C173.312 43.9095 172.847 42.8522 172.847 41.5215V41.3711ZM186.224 33.4551V31.7051H193.976V33.4551H186.224ZM188.685 41.9863V32.6895V32.3613V27.7402H190.886V41.9863C190.886 42.7337 191.018 43.2487 191.282 43.5312C191.547 43.8047 191.961 43.9414 192.527 43.9414C192.764 43.9414 192.996 43.9186 193.224 43.873C193.461 43.8275 193.693 43.7591 193.921 43.668V45.5137C193.711 45.6048 193.433 45.6868 193.087 45.7598C192.75 45.8327 192.376 45.8691 191.966 45.8691C190.963 45.8691 190.166 45.5684 189.573 44.9668C188.981 44.3561 188.685 43.3626 188.685 41.9863Z" fill="black"/>
<path fill-rule="evenodd" clip-rule="evenodd" d="M226.207 27.8735C226.571 27.509 227.162 27.509 227.527 27.8735L234.993 35.3401C235.358 35.7046 235.358 36.2956 234.993 36.6601L227.527 44.1267C227.162 44.4912 226.571 44.4912 226.207 44.1267C225.842 43.7622 225.842 43.1713 226.207 42.8068L232.08 36.9334H215.667C215.151 36.9334 214.733 36.5156 214.733 36.0001C214.733 35.4846 215.151 35.0668 215.667 35.0668H232.08L226.207 29.1934C225.842 28.8289 225.842 28.238 226.207 27.8735Z" fill="black"/>
</svg>
